<?xml version="1.0" encoding="utf-8" standalone="no"?>
<!DOCTYPE svg PUBLIC "-//W3C//DTD SVG 1.1//EN"
  "http://www.w3.org/Graphics/SVG/1.1/DTD/svg11.dtd">
<!-- Created with matplotlib (https://matplotlib.org/) -->
<svg height="360pt" version="1.1" viewBox="0 0 720 360" width="720pt" xmlns="http://www.w3.org/2000/svg" xmlns:xlink="http://www.w3.org/1999/xlink">
 <metadata>
  <rdf:RDF xmlns:cc="http://creativecommons.org/ns#" xmlns:dc="http://purl.org/dc/elements/1.1/" xmlns:rdf="http://www.w3.org/1999/02/22-rdf-syntax-ns#">
   <cc:Work>
    <dc:type rdf:resource="http://purl.org/dc/dcmitype/StillImage"/>
    <dc:date>2021-01-29T10:11:14.893699</dc:date>
    <dc:format>image/svg+xml</dc:format>
    <dc:creator>
     <cc:Agent>
      <dc:title>Matplotlib v3.3.1, https://matplotlib.org/</dc:title>
     </cc:Agent>
    </dc:creator>
   </cc:Work>
  </rdf:RDF>
 </metadata>
 <defs>
  <style type="text/css">*{stroke-linecap:butt;stroke-linejoin:round;}</style>
 </defs>
 <g id="figure_1">
  <g id="patch_1">
   <path d="M 0 360 
L 720 360 
L 720 0 
L 0 0 
z
" style="fill:#ffffff;"/>
  </g>
  <g id="axes_1">
   <g id="patch_2">
    <path d="M 90 315 
L 648 315 
L 648 43.2 
L 90 43.2 
z
" style="fill:#ffffff;"/>
   </g>
   <g id="matplotlib.axis_1">
    <g id="xtick_1">
     <g id="line2d_1">
      <defs>
       <path d="M 0 0 
L 0 3 
" id="m35311ff506" style="stroke:#262626;"/>
      </defs>
      <g>
       <use style="fill:#262626;stroke:#262626;" x="90" xlink:href="#m35311ff506" y="315"/>
      </g>
     </g>
     <g id="text_1">
      <!-- 0 -->
      <g style="fill:#262626;" transform="translate(86.81875 329.098437)scale(0.1 -0.1)">
       <defs>
        <path d="M 31.78125 66.40625 
Q 24.171875 66.40625 20.328125 58.90625 
Q 16.5 51.421875 16.5 36.375 
Q 16.5 21.390625 20.328125 13.890625 
Q 24.171875 6.390625 31.78125 6.390625 
Q 39.453125 6.390625 43.28125 13.890625 
Q 47.125 21.390625 47.125 36.375 
Q 47.125 51.421875 43.28125 58.90625 
Q 39.453125 66.40625 31.78125 66.40625 
z
M 31.78125 74.21875 
Q 44.046875 74.21875 50.515625 64.515625 
Q 56.984375 54.828125 56.984375 36.375 
Q 56.984375 17.96875 50.515625 8.265625 
Q 44.046875 -1.421875 31.78125 -1.421875 
Q 19.53125 -1.421875 13.0625 8.265625 
Q 6.59375 17.96875 6.59375 36.375 
Q 6.59375 54.828125 13.0625 64.515625 
Q 19.53125 74.21875 31.78125 74.21875 
z
" id="DejaVuSans-48"/>
       </defs>
       <use xlink:href="#DejaVuSans-48"/>
      </g>
     </g>
    </g>
    <g id="xtick_2">
     <g id="line2d_2">
      <g>
       <use style="fill:#262626;stroke:#262626;" x="167.5" xlink:href="#m35311ff506" y="315"/>
      </g>
     </g>
     <g id="text_2">
      <!-- 50 -->
      <g style="fill:#262626;" transform="translate(161.1375 329.098437)scale(0.1 -0.1)">
       <defs>
        <path d="M 10.796875 72.90625 
L 49.515625 72.90625 
L 49.515625 64.59375 
L 19.828125 64.59375 
L 19.828125 46.734375 
Q 21.96875 47.46875 24.109375 47.828125 
Q 26.265625 48.1875 28.421875 48.1875 
Q 40.625 48.1875 47.75 41.5 
Q 54.890625 34.8125 54.890625 23.390625 
Q 54.890625 11.625 47.5625 5.09375 
Q 40.234375 -1.421875 26.90625 -1.421875 
Q 22.3125 -1.421875 17.546875 -0.640625 
Q 12.796875 0.140625 7.71875 1.703125 
L 7.71875 11.625 
Q 12.109375 9.234375 16.796875 8.0625 
Q 21.484375 6.890625 26.703125 6.890625 
Q 35.15625 6.890625 40.078125 11.328125 
Q 45.015625 15.765625 45.015625 23.390625 
Q 45.015625 31 40.078125 35.4375 
Q 35.15625 39.890625 26.703125 39.890625 
Q 22.75 39.890625 18.8125 39.015625 
Q 14.890625 38.140625 10.796875 36.28125 
z
" id="DejaVuSans-53"/>
       </defs>
       <use xlink:href="#DejaVuSans-53"/>
       <use x="63.623047" xlink:href="#DejaVuSans-48"/>
      </g>
     </g>
    </g>
    <g id="xtick_3">
     <g id="line2d_3">
      <g>
       <use style="fill:#262626;stroke:#262626;" x="245" xlink:href="#m35311ff506" y="315"/>
      </g>
     </g>
     <g id="text_3">
      <!-- 100 -->
      <g style="fill:#262626;" transform="translate(235.45625 329.098437)scale(0.1 -0.1)">
       <defs>
        <path d="M 12.40625 8.296875 
L 28.515625 8.296875 
L 28.515625 63.921875 
L 10.984375 60.40625 
L 10.984375 69.390625 
L 28.421875 72.90625 
L 38.28125 72.90625 
L 38.28125 8.296875 
L 54.390625 8.296875 
L 54.390625 0 
L 12.40625 0 
z
" id="DejaVuSans-49"/>
       </defs>
       <use xlink:href="#DejaVuSans-49"/>
       <use x="63.623047" xlink:href="#DejaVuSans-48"/>
       <use x="127.246094" xlink:href="#DejaVuSans-48"/>
      </g>
     </g>
    </g>
    <g id="xtick_4">
     <g id="line2d_4">
      <g>
       <use style="fill:#262626;stroke:#262626;" x="322.5" xlink:href="#m35311ff506" y="315"/>
      </g>
     </g>
     <g id="text_4">
      <!-- 150 -->
      <g style="fill:#262626;" transform="translate(312.95625 329.098437)scale(0.1 -0.1)">
       <use xlink:href="#DejaVuSans-49"/>
       <use x="63.623047" xlink:href="#DejaVuSans-53"/>
       <use x="127.246094" xlink:href="#DejaVuSans-48"/>
      </g>
     </g>
    </g>
    <g id="xtick_5">
     <g id="line2d_5">
      <g>
       <use style="fill:#262626;stroke:#262626;" x="400" xlink:href="#m35311ff506" y="315"/>
      </g>
     </g>
     <g id="text_5">
      <!-- 200 -->
      <g style="fill:#262626;" transform="translate(390.45625 329.098437)scale(0.1 -0.1)">
       <defs>
        <path d="M 19.1875 8.296875 
L 53.609375 8.296875 
L 53.609375 0 
L 7.328125 0 
L 7.328125 8.296875 
Q 12.9375 14.109375 22.625 23.890625 
Q 32.328125 33.6875 34.8125 36.53125 
Q 39.546875 41.84375 41.421875 45.53125 
Q 43.3125 49.21875 43.3125 52.78125 
Q 43.3125 58.59375 39.234375 62.25 
Q 35.15625 65.921875 28.609375 65.921875 
Q 23.96875 65.921875 18.8125 64.3125 
Q 13.671875 62.703125 7.8125 59.421875 
L 7.8125 69.390625 
Q 13.765625 71.78125 18.9375 73 
Q 24.125 74.21875 28.421875 74.21875 
Q 39.75 74.21875 46.484375 68.546875 
Q 53.21875 62.890625 53.21875 53.421875 
Q 53.21875 48.921875 51.53125 44.890625 
Q 49.859375 40.875 45.40625 35.40625 
Q 44.1875 33.984375 37.640625 27.21875 
Q 31.109375 20.453125 19.1875 8.296875 
z
" id="DejaVuSans-50"/>
       </defs>
       <use xlink:href="#DejaVuSans-50"/>
       <use x="63.623047" xlink:href="#DejaVuSans-48"/>
       <use x="127.246094" xlink:href="#DejaVuSans-48"/>
      </g>
     </g>
    </g>
    <g id="xtick_6">
     <g id="line2d_6">
      <g>
       <use style="fill:#262626;stroke:#262626;" x="477.5" xlink:href="#m35311ff506" y="315"/>
      </g>
     </g>
     <g id="text_6">
      <!-- 250 -->
      <g style="fill:#262626;" transform="translate(467.95625 329.098437)scale(0.1 -0.1)">
       <use xlink:href="#DejaVuSans-50"/>
       <use x="63.623047" xlink:href="#DejaVuSans-53"/>
       <use x="127.246094" xlink:href="#DejaVuSans-48"/>
      </g>
     </g>
    </g>
    <g id="xtick_7">
     <g id="line2d_7">
      <g>
       <use style="fill:#262626;stroke:#262626;" x="555" xlink:href="#m35311ff506" y="315"/>
      </g>
     </g>
     <g id="text_7">
      <!-- 300 -->
      <g style="fill:#262626;" transform="translate(545.45625 329.098437)scale(0.1 -0.1)">
       <defs>
        <path d="M 40.578125 39.3125 
Q 47.65625 37.796875 51.625 33 
Q 55.609375 28.21875 55.609375 21.1875 
Q 55.609375 10.40625 48.1875 4.484375 
Q 40.765625 -1.421875 27.09375 -1.421875 
Q 22.515625 -1.421875 17.65625 -0.515625 
Q 12.796875 0.390625 7.625 2.203125 
L 7.625 11.71875 
Q 11.71875 9.328125 16.59375 8.109375 
Q 21.484375 6.890625 26.8125 6.890625 
Q 36.078125 6.890625 40.9375 10.546875 
Q 45.796875 14.203125 45.796875 21.1875 
Q 45.796875 27.640625 41.28125 31.265625 
Q 36.765625 34.90625 28.71875 34.90625 
L 20.21875 34.90625 
L 20.21875 43.015625 
L 29.109375 43.015625 
Q 36.375 43.015625 40.234375 45.921875 
Q 44.09375 48.828125 44.09375 54.296875 
Q 44.09375 59.90625 40.109375 62.90625 
Q 36.140625 65.921875 28.71875 65.921875 
Q 24.65625 65.921875 20.015625 65.03125 
Q 15.375 64.15625 9.8125 62.3125 
L 9.8125 71.09375 
Q 15.4375 72.65625 20.34375 73.4375 
Q 25.25 74.21875 29.59375 74.21875 
Q 40.828125 74.21875 47.359375 69.109375 
Q 53.90625 64.015625 53.90625 55.328125 
Q 53.90625 49.265625 50.4375 45.09375 
Q 46.96875 40.921875 40.578125 39.3125 
z
" id="DejaVuSans-51"/>
       </defs>
       <use xlink:href="#DejaVuSans-51"/>
       <use x="63.623047" xlink:href="#DejaVuSans-48"/>
       <use x="127.246094" xlink:href="#DejaVuSans-48"/>
      </g>
     </g>
    </g>
    <g id="xtick_8">
     <g id="line2d_8">
      <g>
       <use style="fill:#262626;stroke:#262626;" x="632.5" xlink:href="#m35311ff506" y="315"/>
      </g>
     </g>
     <g id="text_8">
      <!-- 350 -->
      <g style="fill:#262626;" transform="translate(622.95625 329.098437)scale(0.1 -0.1)">
       <use xlink:href="#DejaVuSans-51"/>
       <use x="63.623047" xlink:href="#DejaVuSans-53"/>
       <use x="127.246094" xlink:href="#DejaVuSans-48"/>
      </g>
     </g>
    </g>
    <g id="text_9">
     <!-- Time -->
     <g style="fill:#262626;" transform="translate(354.319687 344.29625)scale(0.12 -0.12)">
      <defs>
       <path d="M -0.296875 72.90625 
L 61.375 72.90625 
L 61.375 64.59375 
L 35.5 64.59375 
L 35.5 0 
L 25.59375 0 
L 25.59375 64.59375 
L -0.296875 64.59375 
z
" id="DejaVuSans-84"/>
       <path d="M 9.421875 54.6875 
L 18.40625 54.6875 
L 18.40625 0 
L 9.421875 0 
z
M 9.421875 75.984375 
L 18.40625 75.984375 
L 18.40625 64.59375 
L 9.421875 64.59375 
z
" id="DejaVuSans-105"/>
       <path d="M 52 44.1875 
Q 55.375 50.25 60.0625 53.125 
Q 64.75 56 71.09375 56 
Q 79.640625 56 84.28125 50.015625 
Q 88.921875 44.046875 88.921875 33.015625 
L 88.921875 0 
L 79.890625 0 
L 79.890625 32.71875 
Q 79.890625 40.578125 77.09375 44.375 
Q 74.3125 48.1875 68.609375 48.1875 
Q 61.625 48.1875 57.5625 43.546875 
Q 53.515625 38.921875 53.515625 30.90625 
L 53.515625 0 
L 44.484375 0 
L 44.484375 32.71875 
Q 44.484375 40.625 41.703125 44.40625 
Q 38.921875 48.1875 33.109375 48.1875 
Q 26.21875 48.1875 22.15625 43.53125 
Q 18.109375 38.875 18.109375 30.90625 
L 18.109375 0 
L 9.078125 0 
L 9.078125 54.6875 
L 18.109375 54.6875 
L 18.109375 46.1875 
Q 21.1875 51.21875 25.484375 53.609375 
Q 29.78125 56 35.6875 56 
Q 41.65625 56 45.828125 52.96875 
Q 50 49.953125 52 44.1875 
z
" id="DejaVuSans-109"/>
       <path d="M 56.203125 29.59375 
L 56.203125 25.203125 
L 14.890625 25.203125 
Q 15.484375 15.921875 20.484375 11.0625 
Q 25.484375 6.203125 34.421875 6.203125 
Q 39.59375 6.203125 44.453125 7.46875 
Q 49.3125 8.734375 54.109375 11.28125 
L 54.109375 2.78125 
Q 49.265625 0.734375 44.1875 -0.34375 
Q 39.109375 -1.421875 33.890625 -1.421875 
Q 20.796875 -1.421875 13.15625 6.1875 
Q 5.515625 13.8125 5.515625 26.8125 
Q 5.515625 40.234375 12.765625 48.109375 
Q 20.015625 56 32.328125 56 
Q 43.359375 56 49.78125 48.890625 
Q 56.203125 41.796875 56.203125 29.59375 
z
M 47.21875 32.234375 
Q 47.125 39.59375 43.09375 43.984375 
Q 39.0625 48.390625 32.421875 48.390625 
Q 24.90625 48.390625 20.390625 44.140625 
Q 15.875 39.890625 15.1875 32.171875 
z
" id="DejaVuSans-101"/>
      </defs>
      <use xlink:href="#DejaVuSans-84"/>
      <use x="57.958984" xlink:href="#DejaVuSans-105"/>
      <use x="85.742188" xlink:href="#DejaVuSans-109"/>
      <use x="183.154297" xlink:href="#DejaVuSans-101"/>
     </g>
    </g>
   </g>
   <g id="matplotlib.axis_2">
    <g id="ytick_1">
     <g id="line2d_9">
      <defs>
       <path d="M 0 0 
L -3 0 
" id="m31657b66b1" style="stroke:#262626;"/>
      </defs>
      <g>
       <use style="fill:#262626;stroke:#262626;" x="90" xlink:href="#m31657b66b1" y="294.64007"/>
      </g>
     </g>
     <g id="text_10">
      <!-- 360 -->
      <g style="fill:#262626;" transform="translate(64.4125 298.439289)scale(0.1 -0.1)">
       <defs>
        <path d="M 33.015625 40.375 
Q 26.375 40.375 22.484375 35.828125 
Q 18.609375 31.296875 18.609375 23.390625 
Q 18.609375 15.53125 22.484375 10.953125 
Q 26.375 6.390625 33.015625 6.390625 
Q 39.65625 6.390625 43.53125 10.953125 
Q 47.40625 15.53125 47.40625 23.390625 
Q 47.40625 31.296875 43.53125 35.828125 
Q 39.65625 40.375 33.015625 40.375 
z
M 52.59375 71.296875 
L 52.59375 62.3125 
Q 48.875 64.0625 45.09375 64.984375 
Q 41.3125 65.921875 37.59375 65.921875 
Q 27.828125 65.921875 22.671875 59.328125 
Q 17.53125 52.734375 16.796875 39.40625 
Q 19.671875 43.65625 24.015625 45.921875 
Q 28.375 48.1875 33.59375 48.1875 
Q 44.578125 48.1875 50.953125 41.515625 
Q 57.328125 34.859375 57.328125 23.390625 
Q 57.328125 12.15625 50.6875 5.359375 
Q 44.046875 -1.421875 33.015625 -1.421875 
Q 20.359375 -1.421875 13.671875 8.265625 
Q 6.984375 17.96875 6.984375 36.375 
Q 6.984375 53.65625 15.1875 63.9375 
Q 23.390625 74.21875 37.203125 74.21875 
Q 40.921875 74.21875 44.703125 73.484375 
Q 48.484375 72.75 52.59375 71.296875 
z
" id="DejaVuSans-54"/>
       </defs>
       <use xlink:href="#DejaVuSans-51"/>
       <use x="63.623047" xlink:href="#DejaVuSans-54"/>
       <use x="127.246094" xlink:href="#DejaVuSans-48"/>
      </g>
     </g>
    </g>
    <g id="ytick_2">
     <g id="line2d_10">
      <g>
       <use style="fill:#262626;stroke:#262626;" x="90" xlink:href="#m31657b66b1" y="253.64461"/>
      </g>
     </g>
     <g id="text_11">
      <!-- 370 -->
      <g style="fill:#262626;" transform="translate(64.4125 257.443829)scale(0.1 -0.1)">
       <defs>
        <path d="M 8.203125 72.90625 
L 55.078125 72.90625 
L 55.078125 68.703125 
L 28.609375 0 
L 18.3125 0 
L 43.21875 64.59375 
L 8.203125 64.59375 
z
" id="DejaVuSans-55"/>
       </defs>
       <use xlink:href="#DejaVuSans-51"/>
       <use x="63.623047" xlink:href="#DejaVuSans-55"/>
       <use x="127.246094" xlink:href="#DejaVuSans-48"/>
      </g>
     </g>
    </g>
    <g id="ytick_3">
     <g id="line2d_11">
      <g>
       <use style="fill:#262626;stroke:#262626;" x="90" xlink:href="#m31657b66b1" y="212.64915"/>
      </g>
     </g>
     <g id="text_12">
      <!-- 380 -->
      <g style="fill:#262626;" transform="translate(64.4125 216.448368)scale(0.1 -0.1)">
       <defs>
        <path d="M 31.78125 34.625 
Q 24.75 34.625 20.71875 30.859375 
Q 16.703125 27.09375 16.703125 20.515625 
Q 16.703125 13.921875 20.71875 10.15625 
Q 24.75 6.390625 31.78125 6.390625 
Q 38.8125 6.390625 42.859375 10.171875 
Q 46.921875 13.96875 46.921875 20.515625 
Q 46.921875 27.09375 42.890625 30.859375 
Q 38.875 34.625 31.78125 34.625 
z
M 21.921875 38.8125 
Q 15.578125 40.375 12.03125 44.71875 
Q 8.5 49.078125 8.5 55.328125 
Q 8.5 64.0625 14.71875 69.140625 
Q 20.953125 74.21875 31.78125 74.21875 
Q 42.671875 74.21875 48.875 69.140625 
Q 55.078125 64.0625 55.078125 55.328125 
Q 55.078125 49.078125 51.53125 44.71875 
Q 48 40.375 41.703125 38.8125 
Q 48.828125 37.15625 52.796875 32.3125 
Q 56.78125 27.484375 56.78125 20.515625 
Q 56.78125 9.90625 50.3125 4.234375 
Q 43.84375 -1.421875 31.78125 -1.421875 
Q 19.734375 -1.421875 13.25 4.234375 
Q 6.78125 9.90625 6.78125 20.515625 
Q 6.78125 27.484375 10.78125 32.3125 
Q 14.796875 37.15625 21.921875 38.8125 
z
M 18.3125 54.390625 
Q 18.3125 48.734375 21.84375 45.5625 
Q 25.390625 42.390625 31.78125 42.390625 
Q 38.140625 42.390625 41.71875 45.5625 
Q 45.3125 48.734375 45.3125 54.390625 
Q 45.3125 60.0625 41.71875 63.234375 
Q 38.140625 66.40625 31.78125 66.40625 
Q 25.390625 66.40625 21.84375 63.234375 
Q 18.3125 60.0625 18.3125 54.390625 
z
" id="DejaVuSans-56"/>
       </defs>
       <use xlink:href="#DejaVuSans-51"/>
       <use x="63.623047" xlink:href="#DejaVuSans-56"/>
       <use x="127.246094" xlink:href="#DejaVuSans-48"/>
      </g>
     </g>
    </g>
    <g id="ytick_4">
     <g id="line2d_12">
      <g>
       <use style="fill:#262626;stroke:#262626;" x="90" xlink:href="#m31657b66b1" y="171.653689"/>
      </g>
     </g>
     <g id="text_13">
      <!-- 390 -->
      <g style="fill:#262626;" transform="translate(64.4125 175.452908)scale(0.1 -0.1)">
       <defs>
        <path d="M 10.984375 1.515625 
L 10.984375 10.5 
Q 14.703125 8.734375 18.5 7.8125 
Q 22.3125 6.890625 25.984375 6.890625 
Q 35.75 6.890625 40.890625 13.453125 
Q 46.046875 20.015625 46.78125 33.40625 
Q 43.953125 29.203125 39.59375 26.953125 
Q 35.25 24.703125 29.984375 24.703125 
Q 19.046875 24.703125 12.671875 31.3125 
Q 6.296875 37.9375 6.296875 49.421875 
Q 6.296875 60.640625 12.9375 67.421875 
Q 19.578125 74.21875 30.609375 74.21875 
Q 43.265625 74.21875 49.921875 64.515625 
Q 56.59375 54.828125 56.59375 36.375 
Q 56.59375 19.140625 48.40625 8.859375 
Q 40.234375 -1.421875 26.421875 -1.421875 
Q 22.703125 -1.421875 18.890625 -0.6875 
Q 15.09375 0.046875 10.984375 1.515625 
z
M 30.609375 32.421875 
Q 37.25 32.421875 41.125 36.953125 
Q 45.015625 41.5 45.015625 49.421875 
Q 45.015625 57.28125 41.125 61.84375 
Q 37.25 66.40625 30.609375 66.40625 
Q 23.96875 66.40625 20.09375 61.84375 
Q 16.21875 57.28125 16.21875 49.421875 
Q 16.21875 41.5 20.09375 36.953125 
Q 23.96875 32.421875 30.609375 32.421875 
z
" id="DejaVuSans-57"/>
       </defs>
       <use xlink:href="#DejaVuSans-51"/>
       <use x="63.623047" xlink:href="#DejaVuSans-57"/>
       <use x="127.246094" xlink:href="#DejaVuSans-48"/>
      </g>
     </g>
    </g>
    <g id="ytick_5">
     <g id="line2d_13">
      <g>
       <use style="fill:#262626;stroke:#262626;" x="90" xlink:href="#m31657b66b1" y="130.658229"/>
      </g>
     </g>
     <g id="text_14">
      <!-- 400 -->
      <g style="fill:#262626;" transform="translate(64.4125 134.457448)scale(0.1 -0.1)">
       <defs>
        <path d="M 37.796875 64.3125 
L 12.890625 25.390625 
L 37.796875 25.390625 
z
M 35.203125 72.90625 
L 47.609375 72.90625 
L 47.609375 25.390625 
L 58.015625 25.390625 
L 58.015625 17.1875 
L 47.609375 17.1875 
L 47.609375 0 
L 37.796875 0 
L 37.796875 17.1875 
L 4.890625 17.1875 
L 4.890625 26.703125 
z
" id="DejaVuSans-52"/>
       </defs>
       <use xlink:href="#DejaVuSans-52"/>
       <use x="63.623047" xlink:href="#DejaVuSans-48"/>
       <use x="127.246094" xlink:href="#DejaVuSans-48"/>
      </g>
     </g>
    </g>
    <g id="ytick_6">
     <g id="line2d_14">
      <g>
       <use style="fill:#262626;stroke:#262626;" x="90" xlink:href="#m31657b66b1" y="89.662768"/>
      </g>
     </g>
     <g id="text_15">
      <!-- 410 -->
      <g style="fill:#262626;" transform="translate(64.4125 93.461987)scale(0.1 -0.1)">
       <use xlink:href="#DejaVuSans-52"/>
       <use x="63.623047" xlink:href="#DejaVuSans-49"/>
       <use x="127.246094" xlink:href="#DejaVuSans-48"/>
      </g>
     </g>
    </g>
    <g id="ytick_7">
     <g id="line2d_15">
      <g>
       <use style="fill:#262626;stroke:#262626;" x="90" xlink:href="#m31657b66b1" y="48.667308"/>
      </g>
     </g>
     <g id="text_16">
      <!-- 420 -->
      <g style="fill:#262626;" transform="translate(64.4125 52.466527)scale(0.1 -0.1)">
       <use xlink:href="#DejaVuSans-52"/>
       <use x="63.623047" xlink:href="#DejaVuSans-50"/>
       <use x="127.246094" xlink:href="#DejaVuSans-48"/>
      </g>
     </g>
    </g>
    <g id="text_17">
     <!-- Y -->
     <g style="fill:#262626;" transform="translate(57.916875 182.764687)rotate(-90)scale(0.12 -0.12)">
      <defs>
       <path d="M -0.203125 72.90625 
L 10.40625 72.90625 
L 30.609375 42.921875 
L 50.6875 72.90625 
L 61.28125 72.90625 
L 35.5 34.71875 
L 35.5 0 
L 25.59375 0 
L 25.59375 34.71875 
z
" id="DejaVuSans-89"/>
      </defs>
      <use xlink:href="#DejaVuSans-89"/>
     </g>
    </g>
   </g>
   <g id="PolyCollection_1">
    <defs>
     <path d="M 90 -90.295402 
L 90 -150.951117 
L 91.55 -134.742825 
L 93.1 -134.664028 
L 94.65 -133.585088 
L 96.2 -128.398644 
L 97.75 -127.410184 
L 99.3 -117.855814 
L 100.85 -122.691185 
L 102.4 -113.528067 
L 103.95 -115.773693 
L 105.5 -124.420827 
L 107.05 -119.185621 
L 108.6 -115.760729 
L 110.15 -118.472302 
L 111.7 -125.656602 
L 113.25 -119.07748 
L 114.8 -126.837839 
L 116.35 -119.008785 
L 117.9 -116.034058 
L 119.45 -119.019973 
L 121 -119.09022 
L 122.55 -115.494794 
L 124.1 -121.82178 
L 125.65 -115.732294 
L 127.2 -103.980438 
L 128.75 -110.359321 
L 130.3 -106.28531 
L 131.85 -107.560282 
L 133.4 -110.496019 
L 134.95 -109.058046 
L 136.5 -122.633207 
L 138.05 -122.47453 
L 139.6 -112.440457 
L 141.15 -118.3433 
L 142.7 -112.195099 
L 144.25 -109.078504 
L 145.8 -111.184939 
L 147.35 -113.688104 
L 148.9 -112.497559 
L 150.45 -116.858476 
L 152 -110.413492 
L 153.55 -106.760621 
L 155.1 -112.500939 
L 156.65 -102.491587 
L 158.2 -107.469405 
L 159.75 -112.290681 
L 161.3 -97.225839 
L 162.85 -101.628306 
L 164.4 -103.275691 
L 165.95 -102.361128 
L 167.5 -114.764878 
L 169.05 -108.195115 
L 170.6 -104.253503 
L 172.15 -113.347044 
L 173.7 -104.553313 
L 175.25 -103.651154 
L 176.8 -106.555491 
L 178.35 -99.732433 
L 179.9 -107.150473 
L 181.45 -116.554701 
L 183 -110.349331 
L 184.55 -112.949297 
L 186.1 -111.401379 
L 187.65 -115.548524 
L 189.2 -111.052133 
L 190.75 -104.058336 
L 192.3 -109.071619 
L 193.85 -113.172885 
L 195.4 -114.246659 
L 196.95 -120.656387 
L 198.5 -109.236687 
L 200.05 -113.358058 
L 201.6 -112.037322 
L 203.15 -109.890322 
L 204.7 -106.630333 
L 206.25 -113.074564 
L 207.8 -116.703036 
L 209.35 -112.925662 
L 210.9 -104.515741 
L 212.45 -108.31638 
L 214 -110.044739 
L 215.55 -107.573795 
L 217.1 -116.358815 
L 218.65 -112.91948 
L 220.2 -116.879722 
L 221.75 -123.929313 
L 223.3 -127.993891 
L 224.85 -127.069876 
L 226.4 -134.834657 
L 227.95 -132.583359 
L 229.5 -131.301488 
L 231.05 -142.165601 
L 232.6 -132.835299 
L 234.15 -141.480678 
L 235.7 -138.863359 
L 237.25 -140.150969 
L 238.8 -133.444287 
L 240.35 -139.114705 
L 241.9 -139.760965 
L 243.45 -147.219433 
L 245 -137.899356 
L 246.55 -141.17085 
L 248.1 -144.729782 
L 249.65 -142.84664 
L 251.2 -134.565669 
L 252.75 -133.527134 
L 254.3 -134.849279 
L 255.85 -136.035024 
L 257.4 -135.424508 
L 258.95 -137.659581 
L 260.5 -136.721514 
L 262.05 -133.98048 
L 263.6 -132.669655 
L 265.15 -131.564819 
L 266.7 -124.566796 
L 268.25 -116.530311 
L 269.8 -123.367227 
L 271.35 -120.616241 
L 272.9 -113.721724 
L 274.45 -115.444601 
L 276 -114.750549 
L 277.55 -117.060772 
L 279.1 -117.293075 
L 280.65 -116.260334 
L 282.2 -114.197886 
L 283.75 -119.285498 
L 285.3 -120.962071 
L 286.85 -118.365132 
L 288.4 -109.906642 
L 289.95 -117.094568 
L 291.5 -117.835616 
L 293.05 -114.792525 
L 294.6 -107.87891 
L 296.15 -113.578743 
L 297.7 -115.647232 
L 299.25 -110.73709 
L 300.8 -113.931375 
L 302.35 -120.736161 
L 303.9 -112.554751 
L 305.45 -116.373396 
L 307 -114.415733 
L 308.55 -117.923819 
L 310.1 -109.571806 
L 311.65 -111.610979 
L 313.2 -111.226695 
L 314.75 -122.811765 
L 316.3 -129.262295 
L 317.85 -123.015019 
L 319.4 -124.616422 
L 320.95 -136.580467 
L 322.5 -131.56604 
L 324.05 -131.072726 
L 325.6 -141.155362 
L 327.15 -138.419274 
L 328.7 -125.80158 
L 330.25 -142.345952 
L 331.8 -129.643728 
L 333.35 -138.555506 
L 334.9 -133.622604 
L 336.45 -134.800396 
L 338 -138.614519 
L 339.55 -130.919706 
L 341.1 -136.920066 
L 342.65 -138.910816 
L 344.2 -132.236058 
L 345.75 -129.332078 
L 347.3 -134.789386 
L 348.85 -133.8113 
L 350.4 -138.666696 
L 351.95 -134.757549 
L 353.5 -130.865154 
L 355.05 -132.853719 
L 356.6 -138.758571 
L 358.15 -125.191131 
L 359.7 -136.286051 
L 361.25 -134.370471 
L 362.8 -136.47197 
L 364.35 -136.029593 
L 365.9 -126.722479 
L 367.45 -140.586182 
L 369 -140.683337 
L 370.55 -142.745932 
L 372.1 -140.130027 
L 373.65 -144.829009 
L 375.2 -137.524947 
L 376.75 -131.191276 
L 378.3 -135.518325 
L 379.85 -131.190361 
L 381.4 -133.88471 
L 382.95 -136.52896 
L 384.5 -134.647601 
L 386.05 -136.09958 
L 387.6 -129.288946 
L 389.15 -138.247794 
L 390.7 -126.108891 
L 392.25 -132.892223 
L 393.8 -131.49832 
L 395.35 -140.006905 
L 396.9 -144.24835 
L 398.45 -132.807027 
L 400 -138.11129 
L 401.55 -137.760446 
L 403.1 -140.237821 
L 404.65 -133.784387 
L 406.2 -134.359686 
L 407.75 -140.068323 
L 409.3 -136.934004 
L 410.85 -134.003131 
L 412.4 -129.526691 
L 413.95 -129.48527 
L 415.5 -128.663322 
L 417.05 -142.417966 
L 418.6 -141.12406 
L 420.15 -140.006662 
L 421.7 -140.77404 
L 423.25 -130.818927 
L 424.8 -137.641319 
L 426.35 -140.579298 
L 427.9 -125.028362 
L 429.45 -132.798395 
L 431 -128.774664 
L 432.55 -129.430758 
L 434.1 -140.45001 
L 435.65 -131.297427 
L 437.2 -131.915223 
L 438.75 -141.258681 
L 440.3 -136.47183 
L 441.85 -136.515738 
L 443.4 -125.668282 
L 444.95 -139.948491 
L 446.5 -134.093127 
L 448.05 -133.662093 
L 449.6 -128.496894 
L 451.15 -132.120435 
L 452.7 -140.004922 
L 454.25 -137.397229 
L 455.8 -137.40512 
L 457.35 -140.786913 
L 458.9 -132.738522 
L 460.45 -139.7812 
L 462 -135.507634 
L 463.55 -137.496401 
L 465.1 -138.270605 
L 466.65 -133.332242 
L 468.2 -124.801617 
L 469.75 -140.376289 
L 471.3 -130.286489 
L 472.85 -134.988339 
L 474.4 -138.225422 
L 475.95 -135.643057 
L 477.5 -133.43923 
L 479.05 -141.682102 
L 480.6 -137.004157 
L 482.15 -142.231686 
L 483.7 -137.645493 
L 485.25 -130.033904 
L 486.8 -133.463761 
L 488.35 -130.719081 
L 489.9 -135.542322 
L 491.45 -133.460096 
L 493 -138.865296 
L 494.55 -133.984866 
L 496.1 -136.160934 
L 497.65 -138.337971 
L 499.2 -141.845832 
L 500.75 -132.008314 
L 502.3 -134.158469 
L 503.85 -136.035708 
L 505.4 -142.359668 
L 506.95 -125.500564 
L 508.5 -131.661569 
L 510.05 -140.330334 
L 511.6 -128.134998 
L 513.15 -129.034582 
L 514.7 -132.602422 
L 516.25 -132.99469 
L 517.8 -134.506162 
L 519.35 -130.061596 
L 520.9 -137.253198 
L 522.45 -129.542333 
L 524 -130.514784 
L 525.55 -133.127892 
L 527.1 -143.340931 
L 528.65 -127.345339 
L 530.2 -140.402582 
L 531.75 -127.025886 
L 533.3 -136.544569 
L 534.85 -138.697515 
L 536.4 -136.917027 
L 537.95 -132.437855 
L 539.5 -140.722154 
L 541.05 -140.517598 
L 542.6 -133.491503 
L 544.15 -127.699974 
L 545.7 -141.692094 
L 547.25 -135.997804 
L 548.8 -140.958463 
L 550.35 -131.753904 
L 551.9 -136.6191 
L 553.45 -140.956802 
L 555 -125.909697 
L 556.55 -129.531026 
L 558.1 -135.430052 
L 559.65 -140.29357 
L 561.2 -141.741119 
L 562.75 -146.393065 
L 564.3 -138.225474 
L 565.85 -138.952051 
L 567.4 -141.725029 
L 568.95 -140.059946 
L 570.5 -141.150972 
L 572.05 -135.757043 
L 573.6 -132.396147 
L 575.15 -135.343842 
L 576.7 -139.476358 
L 578.25 -135.019713 
L 579.8 -133.625114 
L 581.35 -126.761848 
L 582.9 -135.388475 
L 584.45 -131.017524 
L 586 -141.97989 
L 587.55 -134.183722 
L 589.1 -131.726054 
L 590.65 -140.425831 
L 592.2 -132.807001 
L 593.75 -136.777529 
L 595.3 -132.468159 
L 596.85 -144.837329 
L 598.4 -130.842726 
L 599.95 -126.478016 
L 601.5 -134.121767 
L 603.05 -137.231914 
L 604.6 -128.214051 
L 606.15 -138.955441 
L 607.7 -134.971578 
L 609.25 -132.392821 
L 610.8 -144.523836 
L 612.35 -144.430912 
L 613.9 -136.507527 
L 615.45 -130.785614 
L 617 -129.228877 
L 618.55 -136.275223 
L 620.1 -146.330519 
L 621.65 -138.711676 
L 623.2 -136.182929 
L 624.75 -138.25863 
L 626.3 -138.142457 
L 627.85 -147.56126 
L 629.4 -148.698323 
L 630.95 -138.266702 
L 632.5 -141.049664 
L 634.05 -133.250778 
L 635.6 -132.896208 
L 637.15 -137.672121 
L 638.7 -137.570729 
L 640.25 -133.19729 
L 641.8 -133.566941 
L 643.35 -133.463473 
L 644.9 -139.937416 
L 646.45 -124.055742 
L 646.45 -79.826642 
L 646.45 -79.826642 
L 644.9 -82.611457 
L 643.35 -92.329734 
L 641.8 -97.552513 
L 640.25 -89.092792 
L 638.7 -84.76225 
L 637.15 -96.349111 
L 635.6 -82.471337 
L 634.05 -79.070833 
L 632.5 -85.733417 
L 630.95 -88.583434 
L 629.4 -97.075725 
L 627.85 -80.778412 
L 626.3 -81.497159 
L 624.75 -99.179091 
L 623.2 -79.800962 
L 621.65 -91.096962 
L 620.1 -87.800742 
L 618.55 -80.69358 
L 617 -81.98578 
L 615.45 -88.187835 
L 613.9 -94.77563 
L 612.35 -76.794141 
L 610.8 -83.416563 
L 609.25 -86.526506 
L 607.7 -88.64606 
L 606.15 -91.125172 
L 604.6 -88.518242 
L 603.05 -73.888127 
L 601.5 -89.044839 
L 599.95 -86.076864 
L 598.4 -84.587081 
L 596.85 -89.702547 
L 595.3 -81.205229 
L 593.75 -87.418265 
L 592.2 -86.567582 
L 590.65 -83.814758 
L 589.1 -93.313777 
L 587.55 -88.111176 
L 586 -90.664045 
L 584.45 -88.85649 
L 582.9 -97.25445 
L 581.35 -87.990177 
L 579.8 -84.460081 
L 578.25 -80.635283 
L 576.7 -78.555087 
L 575.15 -73.799331 
L 573.6 -98.821761 
L 572.05 -87.554458 
L 570.5 -83.389057 
L 568.95 -77.213885 
L 567.4 -88.061361 
L 565.85 -85.491131 
L 564.3 -97.821261 
L 562.75 -96.920915 
L 561.2 -91.033259 
L 559.65 -95.054639 
L 558.1 -90.685294 
L 556.55 -70.988774 
L 555 -89.349916 
L 553.45 -88.269539 
L 551.9 -83.774685 
L 550.35 -87.038264 
L 548.8 -87.192546 
L 547.25 -74.929439 
L 545.7 -87.547857 
L 544.15 -89.658918 
L 542.6 -85.377044 
L 541.05 -81.587532 
L 539.5 -94.557281 
L 537.95 -83.426835 
L 536.4 -81.494875 
L 534.85 -87.081309 
L 533.3 -92.925062 
L 531.75 -94.056695 
L 530.2 -78.823515 
L 528.65 -79.811339 
L 527.1 -74.613483 
L 525.55 -85.217664 
L 524 -85.868027 
L 522.45 -92.258149 
L 520.9 -91.375961 
L 519.35 -85.821293 
L 517.8 -83.59067 
L 516.25 -89.902127 
L 514.7 -96.219839 
L 513.15 -98.863071 
L 511.6 -75.98922 
L 510.05 -89.933454 
L 508.5 -86.43081 
L 506.95 -76.664076 
L 505.4 -80.656376 
L 503.85 -74.759623 
L 502.3 -90.68506 
L 500.75 -80.555638 
L 499.2 -81.499016 
L 497.65 -84.040416 
L 496.1 -77.847622 
L 494.55 -89.982703 
L 493 -88.90543 
L 491.45 -95.688112 
L 489.9 -88.609769 
L 488.35 -87.912182 
L 486.8 -84.174913 
L 485.25 -87.385616 
L 483.7 -81.523256 
L 482.15 -90.504497 
L 480.6 -90.387745 
L 479.05 -80.756919 
L 477.5 -76.042558 
L 475.95 -87.053389 
L 474.4 -89.044676 
L 472.85 -92.60993 
L 471.3 -84.573779 
L 469.75 -90.884238 
L 468.2 -89.359908 
L 466.65 -92.668606 
L 465.1 -88.428054 
L 463.55 -91.211397 
L 462 -91.158211 
L 460.45 -92.570134 
L 458.9 -84.334025 
L 457.35 -93.372466 
L 455.8 -88.691627 
L 454.25 -87.298789 
L 452.7 -91.901285 
L 451.15 -88.061061 
L 449.6 -92.664024 
L 448.05 -92.579822 
L 446.5 -86.74447 
L 444.95 -93.348932 
L 443.4 -85.419606 
L 441.85 -88.673559 
L 440.3 -86.242686 
L 438.75 -79.088325 
L 437.2 -93.919133 
L 435.65 -85.484279 
L 434.1 -86.401114 
L 432.55 -83.812345 
L 431 -81.716321 
L 429.45 -77.392084 
L 427.9 -86.522515 
L 426.35 -83.431549 
L 424.8 -82.753025 
L 423.25 -76.271427 
L 421.7 -95.782142 
L 420.15 -89.149395 
L 418.6 -84.646798 
L 417.05 -94.345804 
L 415.5 -74.596859 
L 413.95 -97.481116 
L 412.4 -84.102044 
L 410.85 -77.221254 
L 409.3 -78.871207 
L 407.75 -70.532631 
L 406.2 -82.910854 
L 404.65 -87.185307 
L 403.1 -84.882774 
L 401.55 -95.389234 
L 400 -91.658509 
L 398.45 -94.159845 
L 396.9 -78.491505 
L 395.35 -92.899843 
L 393.8 -92.463342 
L 392.25 -84.084891 
L 390.7 -85.392145 
L 389.15 -89.47626 
L 387.6 -73.458705 
L 386.05 -94.121866 
L 384.5 -73.731472 
L 382.95 -84.114167 
L 381.4 -93.817336 
L 379.85 -78.106201 
L 378.3 -97.174291 
L 376.75 -97.520725 
L 375.2 -81.330632 
L 373.65 -86.101239 
L 372.1 -84.860097 
L 370.55 -75.06831 
L 369 -81.02817 
L 367.45 -81.392964 
L 365.9 -83.114771 
L 364.35 -75.867165 
L 362.8 -99.081003 
L 361.25 -88.102402 
L 359.7 -87.377357 
L 358.15 -78.427295 
L 356.6 -83.236173 
L 355.05 -89.313473 
L 353.5 -90.14845 
L 351.95 -70.032462 
L 350.4 -90.172823 
L 348.85 -86.043635 
L 347.3 -78.242048 
L 345.75 -91.256446 
L 344.2 -88.859195 
L 342.65 -99.431556 
L 341.1 -89.890856 
L 339.55 -90.4217 
L 338 -79.112947 
L 336.45 -88.168691 
L 334.9 -72.213318 
L 333.35 -97.256497 
L 331.8 -97.696037 
L 330.25 -83.734363 
L 328.7 -85.124979 
L 327.15 -86.97711 
L 325.6 -86.400455 
L 324.05 -84.205726 
L 322.5 -88.175833 
L 320.95 -79.973354 
L 319.4 -85.325024 
L 317.85 -74.340632 
L 316.3 -97.020533 
L 314.75 -86.839805 
L 313.2 -76.095725 
L 311.65 -76.221738 
L 310.1 -74.421391 
L 308.55 -71.865942 
L 307 -77.599249 
L 305.45 -83.95219 
L 303.9 -79.790439 
L 302.35 -73.12647 
L 300.8 -71.910598 
L 299.25 -71.022631 
L 297.7 -76.719583 
L 296.15 -76.656059 
L 294.6 -74.966366 
L 293.05 -73.435862 
L 291.5 -67.246786 
L 289.95 -76.003979 
L 288.4 -68.025358 
L 286.85 -64.252267 
L 285.3 -70.044002 
L 283.75 -79.993904 
L 282.2 -75.951231 
L 280.65 -78.663305 
L 279.1 -70.352104 
L 277.55 -75.98148 
L 276 -78.167478 
L 274.45 -82.91513 
L 272.9 -81.963192 
L 271.35 -84.508353 
L 269.8 -63.263241 
L 268.25 -74.837631 
L 266.7 -85.427165 
L 265.15 -81.65224 
L 263.6 -86.51749 
L 262.05 -84.483463 
L 260.5 -81.146946 
L 258.95 -100.442394 
L 257.4 -84.786031 
L 255.85 -96.009539 
L 254.3 -84.160145 
L 252.75 -85.865534 
L 251.2 -97.621351 
L 249.65 -84.455823 
L 248.1 -72.595545 
L 246.55 -97.085348 
L 245 -88.059842 
L 243.45 -90.276071 
L 241.9 -82.617181 
L 240.35 -88.097207 
L 238.8 -92.626434 
L 237.25 -94.479896 
L 235.7 -90.737611 
L 234.15 -88.902715 
L 232.6 -88.711502 
L 231.05 -71.223788 
L 229.5 -84.064145 
L 227.95 -84.873907 
L 226.4 -95.512771 
L 224.85 -87.354631 
L 223.3 -91.397764 
L 221.75 -88.622554 
L 220.2 -78.998402 
L 218.65 -67.948648 
L 217.1 -69.687575 
L 215.55 -74.602639 
L 214 -65.918154 
L 212.45 -70.735607 
L 210.9 -72.87964 
L 209.35 -68.067191 
L 207.8 -70.370317 
L 206.25 -75.381755 
L 204.7 -82.466648 
L 203.15 -76.956804 
L 201.6 -76.44214 
L 200.05 -80.395378 
L 198.5 -77.014685 
L 196.95 -68.116898 
L 195.4 -66.105386 
L 193.85 -73.771807 
L 192.3 -63.811608 
L 190.75 -66.974603 
L 189.2 -73.128648 
L 187.65 -73.57806 
L 186.1 -75.24271 
L 184.55 -75.102775 
L 183 -73.721292 
L 181.45 -76.625091 
L 179.9 -75.363823 
L 178.35 -68.550379 
L 176.8 -57.354545 
L 175.25 -71.58377 
L 173.7 -71.080681 
L 172.15 -73.999361 
L 170.6 -67.653318 
L 169.05 -68.904229 
L 167.5 -77.347356 
L 165.95 -64.119618 
L 164.4 -63.742262 
L 162.85 -72.833341 
L 161.3 -70.29444 
L 159.75 -63.328564 
L 158.2 -73.81917 
L 156.65 -74.844321 
L 155.1 -59.290182 
L 153.55 -71.248265 
L 152 -69.769259 
L 150.45 -71.926485 
L 148.9 -65.437552 
L 147.35 -70.786827 
L 145.8 -76.109515 
L 144.25 -67.666909 
L 142.7 -72.175031 
L 141.15 -60.554077 
L 139.6 -67.386557 
L 138.05 -62.446185 
L 136.5 -65.997269 
L 134.95 -61.154647 
L 133.4 -73.764909 
L 131.85 -63.578907 
L 130.3 -71.342743 
L 128.75 -76.177743 
L 127.2 -76.3517 
L 125.65 -72.368362 
L 124.1 -80.360405 
L 122.55 -78.125986 
L 121 -72.09556 
L 119.45 -69.21008 
L 117.9 -77.952371 
L 116.35 -72.71595 
L 114.8 -82.819747 
L 113.25 -79.724248 
L 111.7 -81.708803 
L 110.15 -81.667469 
L 108.6 -72.099448 
L 107.05 -72.500112 
L 105.5 -74.54232 
L 103.95 -72.426758 
L 102.4 -81.491789 
L 100.85 -68.76832 
L 99.3 -77.779472 
L 97.75 -78.844843 
L 96.2 -79.303422 
L 94.65 -83.188878 
L 93.1 -86.637617 
L 91.55 -83.647232 
L 90 -90.295402 
z
" id="meee58e0ee6" style="stroke:#c44e52;stroke-opacity:0.1;stroke-width:0.8;"/>
    </defs>
    <g clip-path="url(#p00cb228176)">
     <use style="fill:#c44e52;fill-opacity:0.1;stroke:#c44e52;stroke-opacity:0.1;stroke-width:0.8;" x="0" xlink:href="#meee58e0ee6" y="360"/>
    </g>
   </g>
   <g id="line2d_16">
    <path clip-path="url(#p00cb228176)" d="M 90 87.612995 
L 91.55 88.104941 
L 93.1 87.899964 
L 94.65 86.998064 
L 96.2 87.899964 
L 97.75 90.564669 
L 100.85 88.227927 
L 102.4 89.047837 
L 103.95 88.514896 
L 105.5 93.639328 
L 107.05 91.343582 
L 108.6 89.867746 
L 110.15 91.835528 
L 111.7 93.35236 
L 113.25 93.270369 
L 114.8 91.958514 
L 116.35 91.220596 
L 117.9 90.892632 
L 119.45 91.589555 
L 121 92.737428 
L 122.55 96.918965 
L 124.1 93.188378 
L 125.65 94.787201 
L 127.2 92.163492 
L 128.75 95.648106 
L 130.3 96.017065 
L 131.85 92.942405 
L 134.95 93.516342 
L 136.5 94.70521 
L 138.05 94.951183 
L 139.6 97.738874 
L 141.15 96.50901 
L 142.7 97.369915 
L 144.25 95.238151 
L 145.8 95.15616 
L 147.35 95.443128 
L 148.9 94.70521 
L 150.45 97.533897 
L 152 96.795979 
L 153.55 95.894078 
L 155.1 94.459237 
L 156.65 96.550006 
L 158.2 95.812088 
L 159.75 97.656883 
L 161.3 98.025842 
L 164.4 96.95996 
L 165.95 96.181047 
L 167.5 97.000956 
L 169.05 98.517788 
L 170.6 99.788647 
L 172.15 99.870638 
L 173.7 97.861861 
L 175.25 98.189824 
L 176.8 97.041951 
L 178.35 96.918965 
L 179.9 96.50901 
L 181.45 94.664215 
L 183 94.336251 
L 184.55 96.345029 
L 187.65 95.976069 
L 189.2 96.05806 
L 190.75 95.238151 
L 193.85 94.172269 
L 195.4 94.910187 
L 196.95 95.894078 
L 198.5 95.074169 
L 200.05 93.393355 
L 201.6 95.15616 
L 203.15 94.951183 
L 204.7 95.15616 
L 206.25 95.484124 
L 207.8 94.377246 
L 209.35 93.065392 
L 210.9 91.138605 
L 212.45 86.260145 
L 214 92.573446 
L 215.55 92.040505 
L 217.1 89.3758 
L 218.65 88.637882 
L 220.2 88.514896 
L 221.75 89.334805 
L 223.3 89.170823 
L 224.85 90.974623 
L 226.4 87.776977 
L 227.95 88.268923 
L 229.5 87.408018 
L 231.05 89.621773 
L 232.6 90.400687 
L 234.15 88.965846 
L 235.7 89.457791 
L 237.25 87.612995 
L 238.8 87.694986 
L 240.35 89.211818 
L 241.9 85.030281 
L 243.45 87.776977 
L 245 86.916073 
L 246.55 87.285032 
L 248.1 86.137159 
L 249.65 86.916073 
L 251.2 86.793086 
L 252.75 86.055168 
L 254.3 85.973177 
L 255.85 85.030281 
L 257.4 84.620327 
L 258.95 87.817973 
L 260.5 83.59544 
L 262.05 83.923404 
L 263.6 84.04639 
L 265.15 85.276254 
L 266.7 86.055168 
L 268.25 84.743313 
L 269.8 84.04639 
L 271.35 82.734536 
L 274.45 82.816527 
L 276 82.488563 
L 279.1 82.160599 
L 282.2 82.734536 
L 283.75 78.471008 
L 285.3 77.282139 
L 286.85 81.381685 
L 288.4 80.315804 
L 289.95 85.358245 
L 291.5 79.98784 
L 293.05 78.880962 
L 294.6 81.012726 
L 296.15 78.389017 
L 297.7 77.036167 
L 299.25 76.544221 
L 300.8 78.839967 
L 302.35 77.323135 
L 303.9 76.380239 
L 305.45 74.986394 
L 307 76.175262 
L 308.55 76.626212 
L 310.1 75.068385 
L 311.65 76.01128 
L 313.2 75.150376 
L 314.75 76.749198 
L 316.3 77.077162 
L 317.85 79.946844 
L 319.4 79.495894 
L 320.95 78.880962 
L 322.5 77.979062 
L 324.05 75.765307 
L 325.6 75.847298 
L 327.15 76.339244 
L 328.7 65.680424 
L 330.25 72.936621 
L 331.8 73.633543 
L 333.35 78.471008 
L 334.9 79.823858 
L 338 75.191371 
L 339.55 70.517888 
L 341.1 74.330466 
L 342.65 73.469562 
L 344.2 69.615988 
L 345.75 71.255807 
L 347.3 71.95273 
L 348.85 69.984948 
L 350.4 73.674539 
L 351.95 73.879516 
L 353.5 71.624766 
L 355.05 72.813634 
L 356.6 70.271916 
L 358.15 64.737529 
L 359.7 67.52522 
L 361.25 68.714088 
L 362.8 74.043498 
L 364.35 77.446121 
L 365.9 77.159153 
L 367.45 74.043498 
L 369 73.879516 
L 370.55 75.068385 
L 372.1 75.191371 
L 373.65 68.714088 
L 375.2 71.788748 
L 376.75 72.526666 
L 379.85 72.895625 
L 381.4 75.314357 
L 382.95 77.282139 
L 384.5 75.437344 
L 386.05 74.535444 
L 387.6 72.772639 
L 389.15 72.239698 
L 390.7 74.453453 
L 392.25 73.223589 
L 393.8 77.159153 
L 395.35 75.314357 
L 396.9 72.321689 
L 398.45 72.034721 
L 400 73.469562 
L 401.55 74.166484 
L 403.1 71.747752 
L 404.65 72.690648 
L 406.2 72.813634 
L 407.75 71.911734 
L 409.3 72.280693 
L 410.85 71.747752 
L 412.4 72.649652 
L 413.95 70.886848 
L 415.5 73.30558 
L 417.05 71.870739 
L 418.6 67.771193 
L 420.15 67.402234 
L 421.7 67.402234 
L 423.25 65.516442 
L 424.8 66.254361 
L 426.35 66.500333 
L 427.9 66.377347 
L 429.45 65.844406 
L 431 66.705311 
L 432.55 64.942506 
L 434.1 64.942506 
L 435.65 66.295356 
L 437.2 66.746306 
L 438.75 61.129928 
L 440.3 57.481332 
L 441.85 62.318796 
L 443.4 63.712642 
L 444.95 67.279247 
L 446.5 65.844406 
L 448.05 64.696533 
L 449.6 65.434451 
L 451.15 60.637983 
L 452.7 61.785855 
L 454.25 61.949837 
L 455.8 64.860515 
L 457.35 63.876624 
L 458.9 63.917619 
L 460.45 66.705311 
L 462 66.62332 
L 463.55 67.279247 
L 465.1 64.573547 
L 466.65 64.573547 
L 468.2 67.115265 
L 469.75 60.105042 
L 471.3 59.695087 
L 472.85 56.743414 
L 474.4 59.244137 
L 475.95 56.374455 
L 477.5 62.728751 
L 479.05 66.418342 
L 480.6 63.384678 
L 482.15 61.088933 
L 483.7 60.023051 
L 485.25 60.801964 
L 486.8 60.310019 
L 488.35 62.154815 
L 489.9 61.047937 
L 491.45 61.539883 
L 493 65.065492 
L 494.55 60.965946 
L 496.1 61.580878 
L 497.65 60.719973 
L 499.2 60.433005 
L 500.75 61.703865 
L 502.3 58.137259 
L 503.85 56.374455 
L 505.4 58.096264 
L 506.95 57.358346 
L 508.5 59.613096 
L 510.05 61.662869 
L 511.6 63.138706 
L 513.15 61.211919 
L 514.7 55.554545 
L 516.25 58.096264 
L 517.8 59.449114 
L 519.35 62.851737 
L 520.9 63.630651 
L 522.45 63.835628 
L 524 66.008388 
L 525.55 63.384678 
L 527.1 62.236805 
L 528.65 62.810742 
L 530.2 61.74486 
L 531.75 61.74486 
L 533.3 63.958615 
L 534.85 65.393456 
L 536.4 63.917619 
L 537.95 66.254361 
L 539.5 64.573547 
L 541.05 63.794633 
L 544.15 64.532551 
L 545.7 63.425674 
L 547.25 67.115265 
L 548.8 65.803411 
L 550.35 65.147483 
L 551.9 66.828297 
L 553.45 65.475447 
L 555 67.156261 
L 556.55 67.97617 
L 559.65 68.222143 
L 561.2 67.97617 
L 562.75 68.632097 
L 564.3 68.263138 
L 565.85 68.017165 
L 567.4 67.238252 
L 568.95 70.312911 
L 570.5 68.058161 
L 572.05 66.869293 
L 573.6 68.632097 
L 575.15 76.093271 
L 576.7 70.722866 
L 578.25 68.386125 
L 579.8 68.345129 
L 581.35 72.444675 
L 584.45 73.797525 
L 586 73.264584 
L 587.55 73.018612 
L 589.1 72.362684 
L 590.65 76.052276 
L 592.2 73.264584 
L 593.75 74.002503 
L 595.3 76.91318 
L 596.85 75.888294 
L 598.4 74.371462 
L 599.95 74.412457 
L 601.5 73.551553 
L 603.05 83.9644 
L 604.6 76.01128 
L 606.15 75.847298 
L 607.7 74.699425 
L 609.25 78.143044 
L 610.8 77.938067 
L 612.35 76.257253 
L 613.9 79.208926 
L 615.45 79.823858 
L 617 77.81508 
L 618.55 78.102049 
L 620.1 79.249922 
L 621.65 79.08594 
L 623.2 80.684763 
L 624.75 80.848745 
L 626.3 79.618881 
L 627.85 79.08594 
L 629.4 80.602772 
L 630.95 81.627658 
L 632.5 79.53689 
L 634.05 81.504672 
L 635.6 83.103495 
L 637.15 83.185486 
L 638.7 81.709649 
L 640.25 81.873631 
L 641.8 83.759422 
L 643.35 81.750645 
L 644.9 82.078608 
L 646.45 82.734536 
L 646.45 82.734536 
" style="fill:none;stroke:#4c72b0;stroke-linecap:round;stroke-width:1.2;"/>
   </g>
   <g id="line2d_17">
    <path clip-path="url(#p00cb228176)" d="M 90 233.063933 
L 91.55 250.197754 
L 93.1 246.897149 
L 94.65 249.066525 
L 96.2 252.125296 
L 99.3 262.200261 
L 100.85 259.575115 
L 102.4 261.035628 
L 103.95 261.128834 
L 105.5 255.992641 
L 107.05 258.804698 
L 108.6 256.883537 
L 110.15 258.331914 
L 111.7 254.191333 
L 113.25 257.640191 
L 114.8 254.654484 
L 116.35 262.420826 
L 117.9 262.181369 
L 119.45 260.493159 
L 121 263.258676 
L 122.55 262.077154 
L 124.1 258.323157 
L 125.65 263.11918 
L 127.2 266.906581 
L 128.75 266.721922 
L 130.3 270.079326 
L 131.85 269.645325 
L 133.4 268.113751 
L 134.95 269.508082 
L 136.5 264.524521 
L 138.05 264.295323 
L 139.6 269.490692 
L 141.15 264.889712 
L 142.7 265.875565 
L 144.25 270.379085 
L 145.8 262.127197 
L 147.35 264.979039 
L 148.9 265.370503 
L 150.45 266.230622 
L 152 269.266498 
L 153.55 269.205695 
L 155.1 272.2168 
L 156.65 270.446894 
L 158.2 269.588151 
L 161.3 274.866592 
L 162.85 272.160001 
L 164.4 275.193625 
L 165.95 271.234325 
L 167.5 266.134288 
L 170.6 272.268219 
L 172.15 267.465815 
L 175.25 270.446644 
L 176.8 273.383809 
L 178.35 272.073551 
L 179.9 267.935221 
L 181.45 263.475864 
L 183 264.481859 
L 184.55 264.154451 
L 186.1 265.829149 
L 187.65 265.179212 
L 189.2 266.496602 
L 190.75 270.414366 
L 193.85 264.828784 
L 195.4 265.656 
L 196.95 264.253537 
L 198.5 265.840284 
L 200.05 265.759714 
L 201.6 265.087133 
L 203.15 265.554912 
L 204.7 262.449851 
L 206.25 263.472486 
L 207.8 265.534144 
L 209.35 268.483696 
L 210.9 268.886669 
L 212.45 268.493704 
L 214 269.401364 
L 215.55 268.120131 
L 217.1 265.294437 
L 218.65 267.49409 
L 221.75 253.623592 
L 223.3 250.048875 
L 224.85 247.201912 
L 226.4 243.987382 
L 227.95 247.149742 
L 229.5 245.077825 
L 231.05 242.2171 
L 232.6 243.890173 
L 234.15 243.588412 
L 235.7 245.079201 
L 237.25 240.068742 
L 238.8 241.601193 
L 240.35 244.448656 
L 241.9 242.469193 
L 243.45 241.954623 
L 245 244.921189 
L 246.55 239.433067 
L 248.1 239.696045 
L 249.65 243.613683 
L 251.2 241.214233 
L 252.75 247.758769 
L 254.3 248.952426 
L 255.85 242.551765 
L 257.4 244.457413 
L 258.95 241.036329 
L 260.5 245.307148 
L 262.05 249.907503 
L 263.6 246.702605 
L 265.15 252.164705 
L 266.7 254.724794 
L 268.25 255.974375 
L 269.8 257.646447 
L 271.35 257.701744 
L 272.9 259.793053 
L 274.45 260.823945 
L 277.55 260.150738 
L 279.1 262.027736 
L 280.65 259.826833 
L 282.2 260.594246 
L 283.75 262.454981 
L 285.3 261.262449 
L 286.85 262.468743 
L 288.4 267.085361 
L 289.95 263.095035 
L 291.5 265.42555 
L 293.05 261.470379 
L 294.6 266.865796 
L 296.15 265.646992 
L 297.7 263.898104 
L 299.25 264.779116 
L 300.8 262.908873 
L 302.35 262.909624 
L 303.9 260.796171 
L 305.45 259.713485 
L 307 261.134714 
L 308.55 264.815773 
L 310.1 264.270301 
L 311.65 264.925993 
L 313.2 264.297825 
L 314.75 253.784856 
L 316.3 249.82393 
L 317.85 255.603304 
L 319.4 249.666169 
L 320.95 247.792048 
L 322.5 245.1071 
L 324.05 249.617502 
L 325.6 245.384465 
L 327.15 243.189441 
L 328.7 252.19911 
L 330.25 244.468798 
L 331.8 247.956815 
L 333.35 239.107786 
L 334.9 248.458624 
L 336.45 247.889632 
L 338 246.601393 
L 339.55 246.867873 
L 341.1 248.229051 
L 342.65 241.69027 
L 344.2 246.258346 
L 345.75 244.738531 
L 347.3 253.349104 
L 348.85 245.983859 
L 350.4 243.899306 
L 351.95 247.98584 
L 353.5 246.51169 
L 355.05 243.839003 
L 356.6 246.518696 
L 358.15 248.43035 
L 359.7 244.725896 
L 361.25 249.147345 
L 362.8 241.213482 
L 364.35 247.386697 
L 365.9 250.809533 
L 367.45 243.439408 
L 370.55 246.5805 
L 372.1 246.62729 
L 373.65 242.710027 
L 375.2 246.96283 
L 376.75 244.044181 
L 378.3 242.55164 
L 379.85 248.816058 
L 381.4 242.709026 
L 382.95 243.657471 
L 384.5 242.229111 
L 386.05 248.094434 
L 387.6 251.566062 
L 389.15 247.126097 
L 390.7 248.425345 
L 392.25 247.752764 
L 393.8 247.424855 
L 395.35 238.255799 
L 396.9 248.036634 
L 398.45 244.571137 
L 401.55 243.602674 
L 403.1 241.816754 
L 404.65 245.029408 
L 406.2 249.842696 
L 407.75 246.340292 
L 409.3 245.109978 
L 410.85 248.299487 
L 412.4 247.781163 
L 413.95 243.693503 
L 415.5 251.47098 
L 417.05 246.337164 
L 418.6 243.757057 
L 420.15 242.603059 
L 421.7 243.785082 
L 423.25 250.971548 
L 424.8 248.009361 
L 426.35 247.191653 
L 427.9 250.471741 
L 429.45 249.484011 
L 431 251.558431 
L 432.55 249.358778 
L 434.1 250.104923 
L 435.65 248.587611 
L 437.2 245.131997 
L 438.75 247.387448 
L 440.3 246.000748 
L 441.85 244.918062 
L 443.4 249.993827 
L 444.95 242.625829 
L 446.5 247.942678 
L 448.05 244.920564 
L 449.6 246.363187 
L 451.15 246.759655 
L 452.7 245.276121 
L 454.25 244.453034 
L 455.8 241.837272 
L 457.35 245.618543 
L 458.9 247.616771 
L 460.45 245.683349 
L 462 245.880895 
L 463.55 245.659703 
L 465.1 241.836021 
L 466.65 245.326415 
L 468.2 247.139233 
L 469.75 244.80021 
L 472.85 247.787294 
L 474.4 246.186033 
L 475.95 247.591749 
L 477.5 248.6902 
L 479.05 248.63853 
L 480.6 242.44242 
L 482.15 245.522585 
L 483.7 246.723624 
L 485.25 242.976883 
L 486.8 244.881905 
L 488.35 245.269991 
L 489.9 244.877026 
L 491.45 242.707775 
L 493 243.177806 
L 494.55 243.767692 
L 496.1 246.702981 
L 497.65 242.37261 
L 499.2 245.147135 
L 500.75 246.392837 
L 502.3 243.732661 
L 503.85 245.001634 
L 505.4 244.909179 
L 506.95 250.139078 
L 508.5 245.564246 
L 510.05 242.43066 
L 511.6 249.052513 
L 513.15 245.690605 
L 514.7 243.781954 
L 516.25 247.372685 
L 517.8 247.444497 
L 519.35 246.862869 
L 520.9 242.547761 
L 522.45 246.116348 
L 524 244.982868 
L 525.55 248.249694 
L 527.1 244.706254 
L 528.65 248.952802 
L 530.2 245.662831 
L 531.75 246.592635 
L 533.3 242.871166 
L 534.85 244.429764 
L 536.4 247.796301 
L 537.95 244.692367 
L 539.5 243.951476 
L 541.05 244.854882 
L 542.6 246.526953 
L 544.15 249.108311 
L 545.7 240.21049 
L 547.25 245.636808 
L 548.8 245.474293 
L 550.35 246.466776 
L 551.9 244.220583 
L 555 247.620524 
L 556.55 251.408301 
L 558.1 243.214463 
L 559.65 239.687788 
L 561.2 241.580925 
L 562.75 240.193475 
L 564.3 242.693888 
L 565.85 243.441785 
L 567.4 242.396255 
L 568.95 242.996024 
L 570.5 242.083985 
L 572.05 245.057432 
L 573.6 242.355345 
L 575.15 249.004096 
L 576.7 246.367065 
L 578.25 246.186033 
L 579.8 247.267219 
L 581.35 247.14136 
L 582.9 242.625454 
L 584.45 242.240621 
L 586 241.313068 
L 587.55 247.869365 
L 589.1 245.161898 
L 590.65 243.375728 
L 592.2 242.914954 
L 593.75 245.856999 
L 595.3 245.562995 
L 596.85 246.942313 
L 598.4 247.872617 
L 599.95 247.256334 
L 601.5 250.038115 
L 603.05 248.893 
L 604.6 248.093058 
L 606.15 243.728408 
L 607.7 243.455797 
L 609.25 246.288998 
L 610.8 239.805514 
L 612.35 245.789065 
L 613.9 245.314029 
L 615.45 246.168769 
L 617 250.316106 
L 618.55 247.242197 
L 620.1 242.010422 
L 621.65 243.492203 
L 623.2 244.422133 
L 624.75 240.636733 
L 626.3 243.440909 
L 627.85 243.063332 
L 629.4 238.206757 
L 630.95 240.235887 
L 632.5 241.867298 
L 634.05 245.7424 
L 635.6 250.307974 
L 637.15 242.444297 
L 638.7 243.341698 
L 640.25 247.943053 
L 641.8 243.721527 
L 643.35 245.023153 
L 644.9 249.011477 
L 646.45 253.625093 
L 646.45 253.625093 
" style="fill:none;stroke:#c44e52;stroke-linecap:round;stroke-width:1.2;"/>
   </g>
   <g id="line2d_18">
    <path clip-path="url(#p00cb228176)" d="M 648 315 
L 648 43.2 
" style="fill:none;stroke:#c44e52;stroke-dasharray:4.44,1.92;stroke-dashoffset:0;stroke-width:1.2;"/>
   </g>
   <g id="patch_3">
    <path d="M 90 315 
L 90 43.2 
" style="fill:none;stroke:#262626;stroke-linecap:square;stroke-linejoin:miter;"/>
   </g>
   <g id="patch_4">
    <path d="M 648 315 
L 648 43.2 
" style="fill:none;stroke:#262626;stroke-linecap:square;stroke-linejoin:miter;"/>
   </g>
   <g id="patch_5">
    <path d="M 90 315 
L 648 315 
" style="fill:none;stroke:#262626;stroke-linecap:square;stroke-linejoin:miter;"/>
   </g>
   <g id="patch_6">
    <path d="M 90 43.2 
L 648 43.2 
" style="fill:none;stroke:#262626;stroke-linecap:square;stroke-linejoin:miter;"/>
   </g>
   <g id="text_18">
    <!-- False Prophet Mean Absolute Error 42.3836 -->
    <g style="fill:#262626;" transform="translate(250.038437 37.2)scale(0.11 -0.11)">
     <defs>
      <path d="M 9.8125 72.90625 
L 51.703125 72.90625 
L 51.703125 64.59375 
L 19.671875 64.59375 
L 19.671875 43.109375 
L 48.578125 43.109375 
L 48.578125 34.8125 
L 19.671875 34.8125 
L 19.671875 0 
L 9.8125 0 
z
" id="DejaVuSans-70"/>
      <path d="M 34.28125 27.484375 
Q 23.390625 27.484375 19.1875 25 
Q 14.984375 22.515625 14.984375 16.5 
Q 14.984375 11.71875 18.140625 8.90625 
Q 21.296875 6.109375 26.703125 6.109375 
Q 34.1875 6.109375 38.703125 11.40625 
Q 43.21875 16.703125 43.21875 25.484375 
L 43.21875 27.484375 
z
M 52.203125 31.203125 
L 52.203125 0 
L 43.21875 0 
L 43.21875 8.296875 
Q 40.140625 3.328125 35.546875 0.953125 
Q 30.953125 -1.421875 24.3125 -1.421875 
Q 15.921875 -1.421875 10.953125 3.296875 
Q 6 8.015625 6 15.921875 
Q 6 25.140625 12.171875 29.828125 
Q 18.359375 34.515625 30.609375 34.515625 
L 43.21875 34.515625 
L 43.21875 35.40625 
Q 43.21875 41.609375 39.140625 45 
Q 35.0625 48.390625 27.6875 48.390625 
Q 23 48.390625 18.546875 47.265625 
Q 14.109375 46.140625 10.015625 43.890625 
L 10.015625 52.203125 
Q 14.9375 54.109375 19.578125 55.046875 
Q 24.21875 56 28.609375 56 
Q 40.484375 56 46.34375 49.84375 
Q 52.203125 43.703125 52.203125 31.203125 
z
" id="DejaVuSans-97"/>
      <path d="M 9.421875 75.984375 
L 18.40625 75.984375 
L 18.40625 0 
L 9.421875 0 
z
" id="DejaVuSans-108"/>
      <path d="M 44.28125 53.078125 
L 44.28125 44.578125 
Q 40.484375 46.53125 36.375 47.5 
Q 32.28125 48.484375 27.875 48.484375 
Q 21.1875 48.484375 17.84375 46.4375 
Q 14.5 44.390625 14.5 40.28125 
Q 14.5 37.15625 16.890625 35.375 
Q 19.28125 33.59375 26.515625 31.984375 
L 29.59375 31.296875 
Q 39.15625 29.25 43.1875 25.515625 
Q 47.21875 21.78125 47.21875 15.09375 
Q 47.21875 7.46875 41.1875 3.015625 
Q 35.15625 -1.421875 24.609375 -1.421875 
Q 20.21875 -1.421875 15.453125 -0.5625 
Q 10.6875 0.296875 5.421875 2 
L 5.421875 11.28125 
Q 10.40625 8.6875 15.234375 7.390625 
Q 20.0625 6.109375 24.8125 6.109375 
Q 31.15625 6.109375 34.5625 8.28125 
Q 37.984375 10.453125 37.984375 14.40625 
Q 37.984375 18.0625 35.515625 20.015625 
Q 33.0625 21.96875 24.703125 23.78125 
L 21.578125 24.515625 
Q 13.234375 26.265625 9.515625 29.90625 
Q 5.8125 33.546875 5.8125 39.890625 
Q 5.8125 47.609375 11.28125 51.796875 
Q 16.75 56 26.8125 56 
Q 31.78125 56 36.171875 55.265625 
Q 40.578125 54.546875 44.28125 53.078125 
z
" id="DejaVuSans-115"/>
      <path id="DejaVuSans-32"/>
      <path d="M 19.671875 64.796875 
L 19.671875 37.40625 
L 32.078125 37.40625 
Q 38.96875 37.40625 42.71875 40.96875 
Q 46.484375 44.53125 46.484375 51.125 
Q 46.484375 57.671875 42.71875 61.234375 
Q 38.96875 64.796875 32.078125 64.796875 
z
M 9.8125 72.90625 
L 32.078125 72.90625 
Q 44.34375 72.90625 50.609375 67.359375 
Q 56.890625 61.8125 56.890625 51.125 
Q 56.890625 40.328125 50.609375 34.8125 
Q 44.34375 29.296875 32.078125 29.296875 
L 19.671875 29.296875 
L 19.671875 0 
L 9.8125 0 
z
" id="DejaVuSans-80"/>
      <path d="M 41.109375 46.296875 
Q 39.59375 47.171875 37.8125 47.578125 
Q 36.03125 48 33.890625 48 
Q 26.265625 48 22.1875 43.046875 
Q 18.109375 38.09375 18.109375 28.8125 
L 18.109375 0 
L 9.078125 0 
L 9.078125 54.6875 
L 18.109375 54.6875 
L 18.109375 46.1875 
Q 20.953125 51.171875 25.484375 53.578125 
Q 30.03125 56 36.53125 56 
Q 37.453125 56 38.578125 55.875 
Q 39.703125 55.765625 41.0625 55.515625 
z
" id="DejaVuSans-114"/>
      <path d="M 30.609375 48.390625 
Q 23.390625 48.390625 19.1875 42.75 
Q 14.984375 37.109375 14.984375 27.296875 
Q 14.984375 17.484375 19.15625 11.84375 
Q 23.34375 6.203125 30.609375 6.203125 
Q 37.796875 6.203125 41.984375 11.859375 
Q 46.1875 17.53125 46.1875 27.296875 
Q 46.1875 37.015625 41.984375 42.703125 
Q 37.796875 48.390625 30.609375 48.390625 
z
M 30.609375 56 
Q 42.328125 56 49.015625 48.375 
Q 55.71875 40.765625 55.71875 27.296875 
Q 55.71875 13.875 49.015625 6.21875 
Q 42.328125 -1.421875 30.609375 -1.421875 
Q 18.84375 -1.421875 12.171875 6.21875 
Q 5.515625 13.875 5.515625 27.296875 
Q 5.515625 40.765625 12.171875 48.375 
Q 18.84375 56 30.609375 56 
z
" id="DejaVuSans-111"/>
      <path d="M 18.109375 8.203125 
L 18.109375 -20.796875 
L 9.078125 -20.796875 
L 9.078125 54.6875 
L 18.109375 54.6875 
L 18.109375 46.390625 
Q 20.953125 51.265625 25.265625 53.625 
Q 29.59375 56 35.59375 56 
Q 45.5625 56 51.78125 48.09375 
Q 58.015625 40.1875 58.015625 27.296875 
Q 58.015625 14.40625 51.78125 6.484375 
Q 45.5625 -1.421875 35.59375 -1.421875 
Q 29.59375 -1.421875 25.265625 0.953125 
Q 20.953125 3.328125 18.109375 8.203125 
z
M 48.6875 27.296875 
Q 48.6875 37.203125 44.609375 42.84375 
Q 40.53125 48.484375 33.40625 48.484375 
Q 26.265625 48.484375 22.1875 42.84375 
Q 18.109375 37.203125 18.109375 27.296875 
Q 18.109375 17.390625 22.1875 11.75 
Q 26.265625 6.109375 33.40625 6.109375 
Q 40.53125 6.109375 44.609375 11.75 
Q 48.6875 17.390625 48.6875 27.296875 
z
" id="DejaVuSans-112"/>
      <path d="M 54.890625 33.015625 
L 54.890625 0 
L 45.90625 0 
L 45.90625 32.71875 
Q 45.90625 40.484375 42.875 44.328125 
Q 39.84375 48.1875 33.796875 48.1875 
Q 26.515625 48.1875 22.3125 43.546875 
Q 18.109375 38.921875 18.109375 30.90625 
L 18.109375 0 
L 9.078125 0 
L 9.078125 75.984375 
L 18.109375 75.984375 
L 18.109375 46.1875 
Q 21.34375 51.125 25.703125 53.5625 
Q 30.078125 56 35.796875 56 
Q 45.21875 56 50.046875 50.171875 
Q 54.890625 44.34375 54.890625 33.015625 
z
" id="DejaVuSans-104"/>
      <path d="M 18.3125 70.21875 
L 18.3125 54.6875 
L 36.8125 54.6875 
L 36.8125 47.703125 
L 18.3125 47.703125 
L 18.3125 18.015625 
Q 18.3125 11.328125 20.140625 9.421875 
Q 21.96875 7.515625 27.59375 7.515625 
L 36.8125 7.515625 
L 36.8125 0 
L 27.59375 0 
Q 17.1875 0 13.234375 3.875 
Q 9.28125 7.765625 9.28125 18.015625 
L 9.28125 47.703125 
L 2.6875 47.703125 
L 2.6875 54.6875 
L 9.28125 54.6875 
L 9.28125 70.21875 
z
" id="DejaVuSans-116"/>
      <path d="M 9.8125 72.90625 
L 24.515625 72.90625 
L 43.109375 23.296875 
L 61.8125 72.90625 
L 76.515625 72.90625 
L 76.515625 0 
L 66.890625 0 
L 66.890625 64.015625 
L 48.09375 14.015625 
L 38.1875 14.015625 
L 19.390625 64.015625 
L 19.390625 0 
L 9.8125 0 
z
" id="DejaVuSans-77"/>
      <path d="M 54.890625 33.015625 
L 54.890625 0 
L 45.90625 0 
L 45.90625 32.71875 
Q 45.90625 40.484375 42.875 44.328125 
Q 39.84375 48.1875 33.796875 48.1875 
Q 26.515625 48.1875 22.3125 43.546875 
Q 18.109375 38.921875 18.109375 30.90625 
L 18.109375 0 
L 9.078125 0 
L 9.078125 54.6875 
L 18.109375 54.6875 
L 18.109375 46.1875 
Q 21.34375 51.125 25.703125 53.5625 
Q 30.078125 56 35.796875 56 
Q 45.21875 56 50.046875 50.171875 
Q 54.890625 44.34375 54.890625 33.015625 
z
" id="DejaVuSans-110"/>
      <path d="M 34.1875 63.1875 
L 20.796875 26.90625 
L 47.609375 26.90625 
z
M 28.609375 72.90625 
L 39.796875 72.90625 
L 67.578125 0 
L 57.328125 0 
L 50.6875 18.703125 
L 17.828125 18.703125 
L 11.1875 0 
L 0.78125 0 
z
" id="DejaVuSans-65"/>
      <path d="M 48.6875 27.296875 
Q 48.6875 37.203125 44.609375 42.84375 
Q 40.53125 48.484375 33.40625 48.484375 
Q 26.265625 48.484375 22.1875 42.84375 
Q 18.109375 37.203125 18.109375 27.296875 
Q 18.109375 17.390625 22.1875 11.75 
Q 26.265625 6.109375 33.40625 6.109375 
Q 40.53125 6.109375 44.609375 11.75 
Q 48.6875 17.390625 48.6875 27.296875 
z
M 18.109375 46.390625 
Q 20.953125 51.265625 25.265625 53.625 
Q 29.59375 56 35.59375 56 
Q 45.5625 56 51.78125 48.09375 
Q 58.015625 40.1875 58.015625 27.296875 
Q 58.015625 14.40625 51.78125 6.484375 
Q 45.5625 -1.421875 35.59375 -1.421875 
Q 29.59375 -1.421875 25.265625 0.953125 
Q 20.953125 3.328125 18.109375 8.203125 
L 18.109375 0 
L 9.078125 0 
L 9.078125 75.984375 
L 18.109375 75.984375 
z
" id="DejaVuSans-98"/>
      <path d="M 8.5 21.578125 
L 8.5 54.6875 
L 17.484375 54.6875 
L 17.484375 21.921875 
Q 17.484375 14.15625 20.5 10.265625 
Q 23.53125 6.390625 29.59375 6.390625 
Q 36.859375 6.390625 41.078125 11.03125 
Q 45.3125 15.671875 45.3125 23.6875 
L 45.3125 54.6875 
L 54.296875 54.6875 
L 54.296875 0 
L 45.3125 0 
L 45.3125 8.40625 
Q 42.046875 3.421875 37.71875 1 
Q 33.40625 -1.421875 27.6875 -1.421875 
Q 18.265625 -1.421875 13.375 4.4375 
Q 8.5 10.296875 8.5 21.578125 
z
M 31.109375 56 
z
" id="DejaVuSans-117"/>
      <path d="M 9.8125 72.90625 
L 55.90625 72.90625 
L 55.90625 64.59375 
L 19.671875 64.59375 
L 19.671875 43.015625 
L 54.390625 43.015625 
L 54.390625 34.71875 
L 19.671875 34.71875 
L 19.671875 8.296875 
L 56.78125 8.296875 
L 56.78125 0 
L 9.8125 0 
z
" id="DejaVuSans-69"/>
      <path d="M 10.6875 12.40625 
L 21 12.40625 
L 21 0 
L 10.6875 0 
z
" id="DejaVuSans-46"/>
     </defs>
     <use xlink:href="#DejaVuSans-70"/>
     <use x="48.394531" xlink:href="#DejaVuSans-97"/>
     <use x="109.673828" xlink:href="#DejaVuSans-108"/>
     <use x="137.457031" xlink:href="#DejaVuSans-115"/>
     <use x="189.556641" xlink:href="#DejaVuSans-101"/>
     <use x="251.080078" xlink:href="#DejaVuSans-32"/>
     <use x="282.867188" xlink:href="#DejaVuSans-80"/>
     <use x="341.419922" xlink:href="#DejaVuSans-114"/>
     <use x="380.283203" xlink:href="#DejaVuSans-111"/>
     <use x="441.464844" xlink:href="#DejaVuSans-112"/>
     <use x="504.941406" xlink:href="#DejaVuSans-104"/>
     <use x="568.320312" xlink:href="#DejaVuSans-101"/>
     <use x="629.84375" xlink:href="#DejaVuSans-116"/>
     <use x="669.052734" xlink:href="#DejaVuSans-32"/>
     <use x="700.839844" xlink:href="#DejaVuSans-77"/>
     <use x="787.119141" xlink:href="#DejaVuSans-101"/>
     <use x="848.642578" xlink:href="#DejaVuSans-97"/>
     <use x="909.921875" xlink:href="#DejaVuSans-110"/>
     <use x="973.300781" xlink:href="#DejaVuSans-32"/>
     <use x="1005.087891" xlink:href="#DejaVuSans-65"/>
     <use x="1073.496094" xlink:href="#DejaVuSans-98"/>
     <use x="1136.972656" xlink:href="#DejaVuSans-115"/>
     <use x="1189.072266" xlink:href="#DejaVuSans-111"/>
     <use x="1250.253906" xlink:href="#DejaVuSans-108"/>
     <use x="1278.037109" xlink:href="#DejaVuSans-117"/>
     <use x="1341.416016" xlink:href="#DejaVuSans-116"/>
     <use x="1380.625" xlink:href="#DejaVuSans-101"/>
     <use x="1442.148438" xlink:href="#DejaVuSans-32"/>
     <use x="1473.935547" xlink:href="#DejaVuSans-69"/>
     <use x="1537.119141" xlink:href="#DejaVuSans-114"/>
     <use x="1576.482422" xlink:href="#DejaVuSans-114"/>
     <use x="1615.345703" xlink:href="#DejaVuSans-111"/>
     <use x="1676.527344" xlink:href="#DejaVuSans-114"/>
     <use x="1717.640625" xlink:href="#DejaVuSans-32"/>
     <use x="1749.427734" xlink:href="#DejaVuSans-52"/>
     <use x="1813.050781" xlink:href="#DejaVuSans-50"/>
     <use x="1876.673828" xlink:href="#DejaVuSans-46"/>
     <use x="1908.460938" xlink:href="#DejaVuSans-51"/>
     <use x="1972.083984" xlink:href="#DejaVuSans-56"/>
     <use x="2035.707031" xlink:href="#DejaVuSans-51"/>
     <use x="2099.330078" xlink:href="#DejaVuSans-54"/>
    </g>
   </g>
   <g id="legend_1">
    <g id="patch_7">
     <path d="M 97 80.55625 
L 245.460938 80.55625 
Q 247.460938 80.55625 247.460938 78.55625 
L 247.460938 50.2 
Q 247.460938 48.2 245.460938 48.2 
L 97 48.2 
Q 95 48.2 95 50.2 
L 95 78.55625 
Q 95 80.55625 97 80.55625 
z
" style="fill:#ffffff;opacity:0.8;stroke:#cccccc;stroke-linejoin:miter;stroke-width:0.8;"/>
    </g>
    <g id="line2d_19">
     <path d="M 99 56.298437 
L 119 56.298437 
" style="fill:none;stroke:#4c72b0;stroke-linecap:round;stroke-width:1.2;"/>
    </g>
    <g id="line2d_20"/>
    <g id="text_19">
     <!-- Ground Truth -->
     <g style="fill:#262626;" transform="translate(127 59.798437)scale(0.1 -0.1)">
      <defs>
       <path d="M 59.515625 10.40625 
L 59.515625 29.984375 
L 43.40625 29.984375 
L 43.40625 38.09375 
L 69.28125 38.09375 
L 69.28125 6.78125 
Q 63.578125 2.734375 56.6875 0.65625 
Q 49.8125 -1.421875 42 -1.421875 
Q 24.90625 -1.421875 15.25 8.5625 
Q 5.609375 18.5625 5.609375 36.375 
Q 5.609375 54.25 15.25 64.234375 
Q 24.90625 74.21875 42 74.21875 
Q 49.125 74.21875 55.546875 72.453125 
Q 61.96875 70.703125 67.390625 67.28125 
L 67.390625 56.78125 
Q 61.921875 61.421875 55.765625 63.765625 
Q 49.609375 66.109375 42.828125 66.109375 
Q 29.4375 66.109375 22.71875 58.640625 
Q 16.015625 51.171875 16.015625 36.375 
Q 16.015625 21.625 22.71875 14.15625 
Q 29.4375 6.6875 42.828125 6.6875 
Q 48.046875 6.6875 52.140625 7.59375 
Q 56.25 8.5 59.515625 10.40625 
z
" id="DejaVuSans-71"/>
       <path d="M 45.40625 46.390625 
L 45.40625 75.984375 
L 54.390625 75.984375 
L 54.390625 0 
L 45.40625 0 
L 45.40625 8.203125 
Q 42.578125 3.328125 38.25 0.953125 
Q 33.9375 -1.421875 27.875 -1.421875 
Q 17.96875 -1.421875 11.734375 6.484375 
Q 5.515625 14.40625 5.515625 27.296875 
Q 5.515625 40.1875 11.734375 48.09375 
Q 17.96875 56 27.875 56 
Q 33.9375 56 38.25 53.625 
Q 42.578125 51.265625 45.40625 46.390625 
z
M 14.796875 27.296875 
Q 14.796875 17.390625 18.875 11.75 
Q 22.953125 6.109375 30.078125 6.109375 
Q 37.203125 6.109375 41.296875 11.75 
Q 45.40625 17.390625 45.40625 27.296875 
Q 45.40625 37.203125 41.296875 42.84375 
Q 37.203125 48.484375 30.078125 48.484375 
Q 22.953125 48.484375 18.875 42.84375 
Q 14.796875 37.203125 14.796875 27.296875 
z
" id="DejaVuSans-100"/>
      </defs>
      <use xlink:href="#DejaVuSans-71"/>
      <use x="77.490234" xlink:href="#DejaVuSans-114"/>
      <use x="116.353516" xlink:href="#DejaVuSans-111"/>
      <use x="177.535156" xlink:href="#DejaVuSans-117"/>
      <use x="240.914062" xlink:href="#DejaVuSans-110"/>
      <use x="304.292969" xlink:href="#DejaVuSans-100"/>
      <use x="367.769531" xlink:href="#DejaVuSans-32"/>
      <use x="399.556641" xlink:href="#DejaVuSans-84"/>
      <use x="445.890625" xlink:href="#DejaVuSans-114"/>
      <use x="487.003906" xlink:href="#DejaVuSans-117"/>
      <use x="550.382812" xlink:href="#DejaVuSans-116"/>
      <use x="589.591797" xlink:href="#DejaVuSans-104"/>
     </g>
    </g>
    <g id="line2d_21">
     <path d="M 99 70.976562 
L 119 70.976562 
" style="fill:none;stroke:#c44e52;stroke-linecap:round;stroke-width:1.2;"/>
    </g>
    <g id="line2d_22"/>
    <g id="text_20">
     <!-- Out-of-sample Forecast -->
     <g style="fill:#262626;" transform="translate(127 74.476562)scale(0.1 -0.1)">
      <defs>
       <path d="M 39.40625 66.21875 
Q 28.65625 66.21875 22.328125 58.203125 
Q 16.015625 50.203125 16.015625 36.375 
Q 16.015625 22.609375 22.328125 14.59375 
Q 28.65625 6.59375 39.40625 6.59375 
Q 50.140625 6.59375 56.421875 14.59375 
Q 62.703125 22.609375 62.703125 36.375 
Q 62.703125 50.203125 56.421875 58.203125 
Q 50.140625 66.21875 39.40625 66.21875 
z
M 39.40625 74.21875 
Q 54.734375 74.21875 63.90625 63.9375 
Q 73.09375 53.65625 73.09375 36.375 
Q 73.09375 19.140625 63.90625 8.859375 
Q 54.734375 -1.421875 39.40625 -1.421875 
Q 24.03125 -1.421875 14.8125 8.828125 
Q 5.609375 19.09375 5.609375 36.375 
Q 5.609375 53.65625 14.8125 63.9375 
Q 24.03125 74.21875 39.40625 74.21875 
z
" id="DejaVuSans-79"/>
       <path d="M 4.890625 31.390625 
L 31.203125 31.390625 
L 31.203125 23.390625 
L 4.890625 23.390625 
z
" id="DejaVuSans-45"/>
       <path d="M 37.109375 75.984375 
L 37.109375 68.5 
L 28.515625 68.5 
Q 23.6875 68.5 21.796875 66.546875 
Q 19.921875 64.59375 19.921875 59.515625 
L 19.921875 54.6875 
L 34.71875 54.6875 
L 34.71875 47.703125 
L 19.921875 47.703125 
L 19.921875 0 
L 10.890625 0 
L 10.890625 47.703125 
L 2.296875 47.703125 
L 2.296875 54.6875 
L 10.890625 54.6875 
L 10.890625 58.5 
Q 10.890625 67.625 15.140625 71.796875 
Q 19.390625 75.984375 28.609375 75.984375 
z
" id="DejaVuSans-102"/>
       <path d="M 48.78125 52.59375 
L 48.78125 44.1875 
Q 44.96875 46.296875 41.140625 47.34375 
Q 37.3125 48.390625 33.40625 48.390625 
Q 24.65625 48.390625 19.8125 42.84375 
Q 14.984375 37.3125 14.984375 27.296875 
Q 14.984375 17.28125 19.8125 11.734375 
Q 24.65625 6.203125 33.40625 6.203125 
Q 37.3125 6.203125 41.140625 7.25 
Q 44.96875 8.296875 48.78125 10.40625 
L 48.78125 2.09375 
Q 45.015625 0.34375 40.984375 -0.53125 
Q 36.96875 -1.421875 32.421875 -1.421875 
Q 20.0625 -1.421875 12.78125 6.34375 
Q 5.515625 14.109375 5.515625 27.296875 
Q 5.515625 40.671875 12.859375 48.328125 
Q 20.21875 56 33.015625 56 
Q 37.15625 56 41.109375 55.140625 
Q 45.0625 54.296875 48.78125 52.59375 
z
" id="DejaVuSans-99"/>
      </defs>
      <use xlink:href="#DejaVuSans-79"/>
      <use x="78.710938" xlink:href="#DejaVuSans-117"/>
      <use x="142.089844" xlink:href="#DejaVuSans-116"/>
      <use x="181.298828" xlink:href="#DejaVuSans-45"/>
      <use x="219.257812" xlink:href="#DejaVuSans-111"/>
      <use x="280.439453" xlink:href="#DejaVuSans-102"/>
      <use x="310.144531" xlink:href="#DejaVuSans-45"/>
      <use x="346.228516" xlink:href="#DejaVuSans-115"/>
      <use x="398.328125" xlink:href="#DejaVuSans-97"/>
      <use x="459.607422" xlink:href="#DejaVuSans-109"/>
      <use x="557.019531" xlink:href="#DejaVuSans-112"/>
      <use x="620.496094" xlink:href="#DejaVuSans-108"/>
      <use x="648.279297" xlink:href="#DejaVuSans-101"/>
      <use x="709.802734" xlink:href="#DejaVuSans-32"/>
      <use x="741.589844" xlink:href="#DejaVuSans-70"/>
      <use x="795.484375" xlink:href="#DejaVuSans-111"/>
      <use x="856.666016" xlink:href="#DejaVuSans-114"/>
      <use x="895.529297" xlink:href="#DejaVuSans-101"/>
      <use x="957.052734" xlink:href="#DejaVuSans-99"/>
      <use x="1012.033203" xlink:href="#DejaVuSans-97"/>
      <use x="1073.3125" xlink:href="#DejaVuSans-115"/>
      <use x="1125.412109" xlink:href="#DejaVuSans-116"/>
     </g>
    </g>
   </g>
  </g>
 </g>
 <defs>
  <clipPath id="p00cb228176">
   <rect height="271.8" width="558" x="90" y="43.2"/>
  </clipPath>
 </defs>
</svg>
