<?xml version="1.0" encoding="utf-8" standalone="no"?>
<!DOCTYPE svg PUBLIC "-//W3C//DTD SVG 1.1//EN"
  "http://www.w3.org/Graphics/SVG/1.1/DTD/svg11.dtd">
<!-- Created with matplotlib (https://matplotlib.org/) -->
<svg height="360pt" version="1.1" viewBox="0 0 720 360" width="720pt" xmlns="http://www.w3.org/2000/svg" xmlns:xlink="http://www.w3.org/1999/xlink">
 <metadata>
  <rdf:RDF xmlns:cc="http://creativecommons.org/ns#" xmlns:dc="http://purl.org/dc/elements/1.1/" xmlns:rdf="http://www.w3.org/1999/02/22-rdf-syntax-ns#">
   <cc:Work>
    <dc:type rdf:resource="http://purl.org/dc/dcmitype/StillImage"/>
    <dc:date>2021-03-20T14:33:29.375387</dc:date>
    <dc:format>image/svg+xml</dc:format>
    <dc:creator>
     <cc:Agent>
      <dc:title>Matplotlib v3.3.1, https://matplotlib.org/</dc:title>
     </cc:Agent>
    </dc:creator>
   </cc:Work>
  </rdf:RDF>
 </metadata>
 <defs>
  <style type="text/css">*{stroke-linecap:butt;stroke-linejoin:round;}</style>
 </defs>
 <g id="figure_1">
  <g id="patch_1">
   <path d="M 0 360 
L 720 360 
L 720 0 
L 0 0 
z
" style="fill:#ffffff;"/>
  </g>
  <g id="axes_1">
   <g id="patch_2">
    <path d="M 90 315 
L 648 315 
L 648 43.2 
L 90 43.2 
z
" style="fill:#ffffff;"/>
   </g>
   <g id="matplotlib.axis_1">
    <g id="xtick_1">
     <g id="line2d_1">
      <defs>
       <path d="M 0 0 
L 0 3 
" id="m6a6499a566" style="stroke:#262626;"/>
      </defs>
      <g>
       <use style="fill:#262626;stroke:#262626;" x="90" xlink:href="#m6a6499a566" y="315"/>
      </g>
     </g>
     <g id="text_1">
      <!-- 0 -->
      <g style="fill:#262626;" transform="translate(86.81875 329.098437)scale(0.1 -0.1)">
       <defs>
        <path d="M 31.78125 66.40625 
Q 24.171875 66.40625 20.328125 58.90625 
Q 16.5 51.421875 16.5 36.375 
Q 16.5 21.390625 20.328125 13.890625 
Q 24.171875 6.390625 31.78125 6.390625 
Q 39.453125 6.390625 43.28125 13.890625 
Q 47.125 21.390625 47.125 36.375 
Q 47.125 51.421875 43.28125 58.90625 
Q 39.453125 66.40625 31.78125 66.40625 
z
M 31.78125 74.21875 
Q 44.046875 74.21875 50.515625 64.515625 
Q 56.984375 54.828125 56.984375 36.375 
Q 56.984375 17.96875 50.515625 8.265625 
Q 44.046875 -1.421875 31.78125 -1.421875 
Q 19.53125 -1.421875 13.0625 8.265625 
Q 6.59375 17.96875 6.59375 36.375 
Q 6.59375 54.828125 13.0625 64.515625 
Q 19.53125 74.21875 31.78125 74.21875 
z
" id="DejaVuSans-48"/>
       </defs>
       <use xlink:href="#DejaVuSans-48"/>
      </g>
     </g>
    </g>
    <g id="xtick_2">
     <g id="line2d_2">
      <g>
       <use style="fill:#262626;stroke:#262626;" x="167.5" xlink:href="#m6a6499a566" y="315"/>
      </g>
     </g>
     <g id="text_2">
      <!-- 100 -->
      <g style="fill:#262626;" transform="translate(157.95625 329.098437)scale(0.1 -0.1)">
       <defs>
        <path d="M 12.40625 8.296875 
L 28.515625 8.296875 
L 28.515625 63.921875 
L 10.984375 60.40625 
L 10.984375 69.390625 
L 28.421875 72.90625 
L 38.28125 72.90625 
L 38.28125 8.296875 
L 54.390625 8.296875 
L 54.390625 0 
L 12.40625 0 
z
" id="DejaVuSans-49"/>
       </defs>
       <use xlink:href="#DejaVuSans-49"/>
       <use x="63.623047" xlink:href="#DejaVuSans-48"/>
       <use x="127.246094" xlink:href="#DejaVuSans-48"/>
      </g>
     </g>
    </g>
    <g id="xtick_3">
     <g id="line2d_3">
      <g>
       <use style="fill:#262626;stroke:#262626;" x="245" xlink:href="#m6a6499a566" y="315"/>
      </g>
     </g>
     <g id="text_3">
      <!-- 200 -->
      <g style="fill:#262626;" transform="translate(235.45625 329.098437)scale(0.1 -0.1)">
       <defs>
        <path d="M 19.1875 8.296875 
L 53.609375 8.296875 
L 53.609375 0 
L 7.328125 0 
L 7.328125 8.296875 
Q 12.9375 14.109375 22.625 23.890625 
Q 32.328125 33.6875 34.8125 36.53125 
Q 39.546875 41.84375 41.421875 45.53125 
Q 43.3125 49.21875 43.3125 52.78125 
Q 43.3125 58.59375 39.234375 62.25 
Q 35.15625 65.921875 28.609375 65.921875 
Q 23.96875 65.921875 18.8125 64.3125 
Q 13.671875 62.703125 7.8125 59.421875 
L 7.8125 69.390625 
Q 13.765625 71.78125 18.9375 73 
Q 24.125 74.21875 28.421875 74.21875 
Q 39.75 74.21875 46.484375 68.546875 
Q 53.21875 62.890625 53.21875 53.421875 
Q 53.21875 48.921875 51.53125 44.890625 
Q 49.859375 40.875 45.40625 35.40625 
Q 44.1875 33.984375 37.640625 27.21875 
Q 31.109375 20.453125 19.1875 8.296875 
z
" id="DejaVuSans-50"/>
       </defs>
       <use xlink:href="#DejaVuSans-50"/>
       <use x="63.623047" xlink:href="#DejaVuSans-48"/>
       <use x="127.246094" xlink:href="#DejaVuSans-48"/>
      </g>
     </g>
    </g>
    <g id="xtick_4">
     <g id="line2d_4">
      <g>
       <use style="fill:#262626;stroke:#262626;" x="322.5" xlink:href="#m6a6499a566" y="315"/>
      </g>
     </g>
     <g id="text_4">
      <!-- 300 -->
      <g style="fill:#262626;" transform="translate(312.95625 329.098437)scale(0.1 -0.1)">
       <defs>
        <path d="M 40.578125 39.3125 
Q 47.65625 37.796875 51.625 33 
Q 55.609375 28.21875 55.609375 21.1875 
Q 55.609375 10.40625 48.1875 4.484375 
Q 40.765625 -1.421875 27.09375 -1.421875 
Q 22.515625 -1.421875 17.65625 -0.515625 
Q 12.796875 0.390625 7.625 2.203125 
L 7.625 11.71875 
Q 11.71875 9.328125 16.59375 8.109375 
Q 21.484375 6.890625 26.8125 6.890625 
Q 36.078125 6.890625 40.9375 10.546875 
Q 45.796875 14.203125 45.796875 21.1875 
Q 45.796875 27.640625 41.28125 31.265625 
Q 36.765625 34.90625 28.71875 34.90625 
L 20.21875 34.90625 
L 20.21875 43.015625 
L 29.109375 43.015625 
Q 36.375 43.015625 40.234375 45.921875 
Q 44.09375 48.828125 44.09375 54.296875 
Q 44.09375 59.90625 40.109375 62.90625 
Q 36.140625 65.921875 28.71875 65.921875 
Q 24.65625 65.921875 20.015625 65.03125 
Q 15.375 64.15625 9.8125 62.3125 
L 9.8125 71.09375 
Q 15.4375 72.65625 20.34375 73.4375 
Q 25.25 74.21875 29.59375 74.21875 
Q 40.828125 74.21875 47.359375 69.109375 
Q 53.90625 64.015625 53.90625 55.328125 
Q 53.90625 49.265625 50.4375 45.09375 
Q 46.96875 40.921875 40.578125 39.3125 
z
" id="DejaVuSans-51"/>
       </defs>
       <use xlink:href="#DejaVuSans-51"/>
       <use x="63.623047" xlink:href="#DejaVuSans-48"/>
       <use x="127.246094" xlink:href="#DejaVuSans-48"/>
      </g>
     </g>
    </g>
    <g id="xtick_5">
     <g id="line2d_5">
      <g>
       <use style="fill:#262626;stroke:#262626;" x="400" xlink:href="#m6a6499a566" y="315"/>
      </g>
     </g>
     <g id="text_5">
      <!-- 400 -->
      <g style="fill:#262626;" transform="translate(390.45625 329.098437)scale(0.1 -0.1)">
       <defs>
        <path d="M 37.796875 64.3125 
L 12.890625 25.390625 
L 37.796875 25.390625 
z
M 35.203125 72.90625 
L 47.609375 72.90625 
L 47.609375 25.390625 
L 58.015625 25.390625 
L 58.015625 17.1875 
L 47.609375 17.1875 
L 47.609375 0 
L 37.796875 0 
L 37.796875 17.1875 
L 4.890625 17.1875 
L 4.890625 26.703125 
z
" id="DejaVuSans-52"/>
       </defs>
       <use xlink:href="#DejaVuSans-52"/>
       <use x="63.623047" xlink:href="#DejaVuSans-48"/>
       <use x="127.246094" xlink:href="#DejaVuSans-48"/>
      </g>
     </g>
    </g>
    <g id="xtick_6">
     <g id="line2d_6">
      <g>
       <use style="fill:#262626;stroke:#262626;" x="477.5" xlink:href="#m6a6499a566" y="315"/>
      </g>
     </g>
     <g id="text_6">
      <!-- 500 -->
      <g style="fill:#262626;" transform="translate(467.95625 329.098437)scale(0.1 -0.1)">
       <defs>
        <path d="M 10.796875 72.90625 
L 49.515625 72.90625 
L 49.515625 64.59375 
L 19.828125 64.59375 
L 19.828125 46.734375 
Q 21.96875 47.46875 24.109375 47.828125 
Q 26.265625 48.1875 28.421875 48.1875 
Q 40.625 48.1875 47.75 41.5 
Q 54.890625 34.8125 54.890625 23.390625 
Q 54.890625 11.625 47.5625 5.09375 
Q 40.234375 -1.421875 26.90625 -1.421875 
Q 22.3125 -1.421875 17.546875 -0.640625 
Q 12.796875 0.140625 7.71875 1.703125 
L 7.71875 11.625 
Q 12.109375 9.234375 16.796875 8.0625 
Q 21.484375 6.890625 26.703125 6.890625 
Q 35.15625 6.890625 40.078125 11.328125 
Q 45.015625 15.765625 45.015625 23.390625 
Q 45.015625 31 40.078125 35.4375 
Q 35.15625 39.890625 26.703125 39.890625 
Q 22.75 39.890625 18.8125 39.015625 
Q 14.890625 38.140625 10.796875 36.28125 
z
" id="DejaVuSans-53"/>
       </defs>
       <use xlink:href="#DejaVuSans-53"/>
       <use x="63.623047" xlink:href="#DejaVuSans-48"/>
       <use x="127.246094" xlink:href="#DejaVuSans-48"/>
      </g>
     </g>
    </g>
    <g id="xtick_7">
     <g id="line2d_7">
      <g>
       <use style="fill:#262626;stroke:#262626;" x="555" xlink:href="#m6a6499a566" y="315"/>
      </g>
     </g>
     <g id="text_7">
      <!-- 600 -->
      <g style="fill:#262626;" transform="translate(545.45625 329.098437)scale(0.1 -0.1)">
       <defs>
        <path d="M 33.015625 40.375 
Q 26.375 40.375 22.484375 35.828125 
Q 18.609375 31.296875 18.609375 23.390625 
Q 18.609375 15.53125 22.484375 10.953125 
Q 26.375 6.390625 33.015625 6.390625 
Q 39.65625 6.390625 43.53125 10.953125 
Q 47.40625 15.53125 47.40625 23.390625 
Q 47.40625 31.296875 43.53125 35.828125 
Q 39.65625 40.375 33.015625 40.375 
z
M 52.59375 71.296875 
L 52.59375 62.3125 
Q 48.875 64.0625 45.09375 64.984375 
Q 41.3125 65.921875 37.59375 65.921875 
Q 27.828125 65.921875 22.671875 59.328125 
Q 17.53125 52.734375 16.796875 39.40625 
Q 19.671875 43.65625 24.015625 45.921875 
Q 28.375 48.1875 33.59375 48.1875 
Q 44.578125 48.1875 50.953125 41.515625 
Q 57.328125 34.859375 57.328125 23.390625 
Q 57.328125 12.15625 50.6875 5.359375 
Q 44.046875 -1.421875 33.015625 -1.421875 
Q 20.359375 -1.421875 13.671875 8.265625 
Q 6.984375 17.96875 6.984375 36.375 
Q 6.984375 53.65625 15.1875 63.9375 
Q 23.390625 74.21875 37.203125 74.21875 
Q 40.921875 74.21875 44.703125 73.484375 
Q 48.484375 72.75 52.59375 71.296875 
z
" id="DejaVuSans-54"/>
       </defs>
       <use xlink:href="#DejaVuSans-54"/>
       <use x="63.623047" xlink:href="#DejaVuSans-48"/>
       <use x="127.246094" xlink:href="#DejaVuSans-48"/>
      </g>
     </g>
    </g>
    <g id="xtick_8">
     <g id="line2d_8">
      <g>
       <use style="fill:#262626;stroke:#262626;" x="632.5" xlink:href="#m6a6499a566" y="315"/>
      </g>
     </g>
     <g id="text_8">
      <!-- 700 -->
      <g style="fill:#262626;" transform="translate(622.95625 329.098437)scale(0.1 -0.1)">
       <defs>
        <path d="M 8.203125 72.90625 
L 55.078125 72.90625 
L 55.078125 68.703125 
L 28.609375 0 
L 18.3125 0 
L 43.21875 64.59375 
L 8.203125 64.59375 
z
" id="DejaVuSans-55"/>
       </defs>
       <use xlink:href="#DejaVuSans-55"/>
       <use x="63.623047" xlink:href="#DejaVuSans-48"/>
       <use x="127.246094" xlink:href="#DejaVuSans-48"/>
      </g>
     </g>
    </g>
    <g id="text_9">
     <!-- Time -->
     <g style="fill:#262626;" transform="translate(354.319687 344.29625)scale(0.12 -0.12)">
      <defs>
       <path d="M -0.296875 72.90625 
L 61.375 72.90625 
L 61.375 64.59375 
L 35.5 64.59375 
L 35.5 0 
L 25.59375 0 
L 25.59375 64.59375 
L -0.296875 64.59375 
z
" id="DejaVuSans-84"/>
       <path d="M 9.421875 54.6875 
L 18.40625 54.6875 
L 18.40625 0 
L 9.421875 0 
z
M 9.421875 75.984375 
L 18.40625 75.984375 
L 18.40625 64.59375 
L 9.421875 64.59375 
z
" id="DejaVuSans-105"/>
       <path d="M 52 44.1875 
Q 55.375 50.25 60.0625 53.125 
Q 64.75 56 71.09375 56 
Q 79.640625 56 84.28125 50.015625 
Q 88.921875 44.046875 88.921875 33.015625 
L 88.921875 0 
L 79.890625 0 
L 79.890625 32.71875 
Q 79.890625 40.578125 77.09375 44.375 
Q 74.3125 48.1875 68.609375 48.1875 
Q 61.625 48.1875 57.5625 43.546875 
Q 53.515625 38.921875 53.515625 30.90625 
L 53.515625 0 
L 44.484375 0 
L 44.484375 32.71875 
Q 44.484375 40.625 41.703125 44.40625 
Q 38.921875 48.1875 33.109375 48.1875 
Q 26.21875 48.1875 22.15625 43.53125 
Q 18.109375 38.875 18.109375 30.90625 
L 18.109375 0 
L 9.078125 0 
L 9.078125 54.6875 
L 18.109375 54.6875 
L 18.109375 46.1875 
Q 21.1875 51.21875 25.484375 53.609375 
Q 29.78125 56 35.6875 56 
Q 41.65625 56 45.828125 52.96875 
Q 50 49.953125 52 44.1875 
z
" id="DejaVuSans-109"/>
       <path d="M 56.203125 29.59375 
L 56.203125 25.203125 
L 14.890625 25.203125 
Q 15.484375 15.921875 20.484375 11.0625 
Q 25.484375 6.203125 34.421875 6.203125 
Q 39.59375 6.203125 44.453125 7.46875 
Q 49.3125 8.734375 54.109375 11.28125 
L 54.109375 2.78125 
Q 49.265625 0.734375 44.1875 -0.34375 
Q 39.109375 -1.421875 33.890625 -1.421875 
Q 20.796875 -1.421875 13.15625 6.1875 
Q 5.515625 13.8125 5.515625 26.8125 
Q 5.515625 40.234375 12.765625 48.109375 
Q 20.015625 56 32.328125 56 
Q 43.359375 56 49.78125 48.890625 
Q 56.203125 41.796875 56.203125 29.59375 
z
M 47.21875 32.234375 
Q 47.125 39.59375 43.09375 43.984375 
Q 39.0625 48.390625 32.421875 48.390625 
Q 24.90625 48.390625 20.390625 44.140625 
Q 15.875 39.890625 15.1875 32.171875 
z
" id="DejaVuSans-101"/>
      </defs>
      <use xlink:href="#DejaVuSans-84"/>
      <use x="57.958984" xlink:href="#DejaVuSans-105"/>
      <use x="85.742188" xlink:href="#DejaVuSans-109"/>
      <use x="183.154297" xlink:href="#DejaVuSans-101"/>
     </g>
    </g>
   </g>
   <g id="matplotlib.axis_2">
    <g id="ytick_1">
     <g id="line2d_9">
      <defs>
       <path d="M 0 0 
L -3 0 
" id="m8faf05b387" style="stroke:#262626;"/>
      </defs>
      <g>
       <use style="fill:#262626;stroke:#262626;" x="90" xlink:href="#m8faf05b387" y="289.164034"/>
      </g>
     </g>
     <g id="text_10">
      <!-- 360 -->
      <g style="fill:#262626;" transform="translate(64.4125 292.963253)scale(0.1 -0.1)">
       <use xlink:href="#DejaVuSans-51"/>
       <use x="63.623047" xlink:href="#DejaVuSans-54"/>
       <use x="127.246094" xlink:href="#DejaVuSans-48"/>
      </g>
     </g>
    </g>
    <g id="ytick_2">
     <g id="line2d_10">
      <g>
       <use style="fill:#262626;stroke:#262626;" x="90" xlink:href="#m8faf05b387" y="249.107538"/>
      </g>
     </g>
     <g id="text_11">
      <!-- 370 -->
      <g style="fill:#262626;" transform="translate(64.4125 252.906756)scale(0.1 -0.1)">
       <use xlink:href="#DejaVuSans-51"/>
       <use x="63.623047" xlink:href="#DejaVuSans-55"/>
       <use x="127.246094" xlink:href="#DejaVuSans-48"/>
      </g>
     </g>
    </g>
    <g id="ytick_3">
     <g id="line2d_11">
      <g>
       <use style="fill:#262626;stroke:#262626;" x="90" xlink:href="#m8faf05b387" y="209.051041"/>
      </g>
     </g>
     <g id="text_12">
      <!-- 380 -->
      <g style="fill:#262626;" transform="translate(64.4125 212.85026)scale(0.1 -0.1)">
       <defs>
        <path d="M 31.78125 34.625 
Q 24.75 34.625 20.71875 30.859375 
Q 16.703125 27.09375 16.703125 20.515625 
Q 16.703125 13.921875 20.71875 10.15625 
Q 24.75 6.390625 31.78125 6.390625 
Q 38.8125 6.390625 42.859375 10.171875 
Q 46.921875 13.96875 46.921875 20.515625 
Q 46.921875 27.09375 42.890625 30.859375 
Q 38.875 34.625 31.78125 34.625 
z
M 21.921875 38.8125 
Q 15.578125 40.375 12.03125 44.71875 
Q 8.5 49.078125 8.5 55.328125 
Q 8.5 64.0625 14.71875 69.140625 
Q 20.953125 74.21875 31.78125 74.21875 
Q 42.671875 74.21875 48.875 69.140625 
Q 55.078125 64.0625 55.078125 55.328125 
Q 55.078125 49.078125 51.53125 44.71875 
Q 48 40.375 41.703125 38.8125 
Q 48.828125 37.15625 52.796875 32.3125 
Q 56.78125 27.484375 56.78125 20.515625 
Q 56.78125 9.90625 50.3125 4.234375 
Q 43.84375 -1.421875 31.78125 -1.421875 
Q 19.734375 -1.421875 13.25 4.234375 
Q 6.78125 9.90625 6.78125 20.515625 
Q 6.78125 27.484375 10.78125 32.3125 
Q 14.796875 37.15625 21.921875 38.8125 
z
M 18.3125 54.390625 
Q 18.3125 48.734375 21.84375 45.5625 
Q 25.390625 42.390625 31.78125 42.390625 
Q 38.140625 42.390625 41.71875 45.5625 
Q 45.3125 48.734375 45.3125 54.390625 
Q 45.3125 60.0625 41.71875 63.234375 
Q 38.140625 66.40625 31.78125 66.40625 
Q 25.390625 66.40625 21.84375 63.234375 
Q 18.3125 60.0625 18.3125 54.390625 
z
" id="DejaVuSans-56"/>
       </defs>
       <use xlink:href="#DejaVuSans-51"/>
       <use x="63.623047" xlink:href="#DejaVuSans-56"/>
       <use x="127.246094" xlink:href="#DejaVuSans-48"/>
      </g>
     </g>
    </g>
    <g id="ytick_4">
     <g id="line2d_12">
      <g>
       <use style="fill:#262626;stroke:#262626;" x="90" xlink:href="#m8faf05b387" y="168.994544"/>
      </g>
     </g>
     <g id="text_13">
      <!-- 390 -->
      <g style="fill:#262626;" transform="translate(64.4125 172.793763)scale(0.1 -0.1)">
       <defs>
        <path d="M 10.984375 1.515625 
L 10.984375 10.5 
Q 14.703125 8.734375 18.5 7.8125 
Q 22.3125 6.890625 25.984375 6.890625 
Q 35.75 6.890625 40.890625 13.453125 
Q 46.046875 20.015625 46.78125 33.40625 
Q 43.953125 29.203125 39.59375 26.953125 
Q 35.25 24.703125 29.984375 24.703125 
Q 19.046875 24.703125 12.671875 31.3125 
Q 6.296875 37.9375 6.296875 49.421875 
Q 6.296875 60.640625 12.9375 67.421875 
Q 19.578125 74.21875 30.609375 74.21875 
Q 43.265625 74.21875 49.921875 64.515625 
Q 56.59375 54.828125 56.59375 36.375 
Q 56.59375 19.140625 48.40625 8.859375 
Q 40.234375 -1.421875 26.421875 -1.421875 
Q 22.703125 -1.421875 18.890625 -0.6875 
Q 15.09375 0.046875 10.984375 1.515625 
z
M 30.609375 32.421875 
Q 37.25 32.421875 41.125 36.953125 
Q 45.015625 41.5 45.015625 49.421875 
Q 45.015625 57.28125 41.125 61.84375 
Q 37.25 66.40625 30.609375 66.40625 
Q 23.96875 66.40625 20.09375 61.84375 
Q 16.21875 57.28125 16.21875 49.421875 
Q 16.21875 41.5 20.09375 36.953125 
Q 23.96875 32.421875 30.609375 32.421875 
z
" id="DejaVuSans-57"/>
       </defs>
       <use xlink:href="#DejaVuSans-51"/>
       <use x="63.623047" xlink:href="#DejaVuSans-57"/>
       <use x="127.246094" xlink:href="#DejaVuSans-48"/>
      </g>
     </g>
    </g>
    <g id="ytick_5">
     <g id="line2d_13">
      <g>
       <use style="fill:#262626;stroke:#262626;" x="90" xlink:href="#m8faf05b387" y="128.938047"/>
      </g>
     </g>
     <g id="text_14">
      <!-- 400 -->
      <g style="fill:#262626;" transform="translate(64.4125 132.737266)scale(0.1 -0.1)">
       <use xlink:href="#DejaVuSans-52"/>
       <use x="63.623047" xlink:href="#DejaVuSans-48"/>
       <use x="127.246094" xlink:href="#DejaVuSans-48"/>
      </g>
     </g>
    </g>
    <g id="ytick_6">
     <g id="line2d_14">
      <g>
       <use style="fill:#262626;stroke:#262626;" x="90" xlink:href="#m8faf05b387" y="88.881551"/>
      </g>
     </g>
     <g id="text_15">
      <!-- 410 -->
      <g style="fill:#262626;" transform="translate(64.4125 92.680769)scale(0.1 -0.1)">
       <use xlink:href="#DejaVuSans-52"/>
       <use x="63.623047" xlink:href="#DejaVuSans-49"/>
       <use x="127.246094" xlink:href="#DejaVuSans-48"/>
      </g>
     </g>
    </g>
    <g id="ytick_7">
     <g id="line2d_15">
      <g>
       <use style="fill:#262626;stroke:#262626;" x="90" xlink:href="#m8faf05b387" y="48.825054"/>
      </g>
     </g>
     <g id="text_16">
      <!-- 420 -->
      <g style="fill:#262626;" transform="translate(64.4125 52.624273)scale(0.1 -0.1)">
       <use xlink:href="#DejaVuSans-52"/>
       <use x="63.623047" xlink:href="#DejaVuSans-50"/>
       <use x="127.246094" xlink:href="#DejaVuSans-48"/>
      </g>
     </g>
    </g>
    <g id="text_17">
     <!-- Y -->
     <g style="fill:#262626;" transform="translate(57.916875 182.764687)rotate(-90)scale(0.12 -0.12)">
      <defs>
       <path d="M -0.203125 72.90625 
L 10.40625 72.90625 
L 30.609375 42.921875 
L 50.6875 72.90625 
L 61.28125 72.90625 
L 35.5 34.71875 
L 35.5 0 
L 25.59375 0 
L 25.59375 34.71875 
z
" id="DejaVuSans-89"/>
      </defs>
      <use xlink:href="#DejaVuSans-89"/>
     </g>
    </g>
   </g>
   <g id="PolyCollection_1">
    <defs>
     <path d="M 90 -89.831118 
L 90 -136.447367 
L 90.775 -123.669287 
L 91.55 -123.782751 
L 92.325 -121.697321 
L 93.1 -119.679271 
L 93.875 -121.113051 
L 94.65 -124.360257 
L 95.425 -122.848718 
L 96.2 -125.076026 
L 96.975 -121.727636 
L 97.75 -125.080011 
L 98.525 -116.310389 
L 99.3 -120.209826 
L 100.075 -123.90888 
L 100.85 -119.316813 
L 101.625 -120.821251 
L 102.4 -123.168596 
L 103.175 -122.400854 
L 103.95 -117.410348 
L 104.725 -117.401592 
L 105.5 -122.035128 
L 106.275 -126.316417 
L 107.05 -120.931931 
L 107.825 -115.859972 
L 108.6 -113.069889 
L 109.375 -119.495681 
L 110.15 -116.769585 
L 110.925 -112.543844 
L 111.7 -116.159051 
L 112.475 -116.510665 
L 113.25 -112.900439 
L 114.025 -113.198698 
L 114.8 -118.6576 
L 115.575 -112.751853 
L 116.35 -117.72401 
L 117.125 -115.295962 
L 117.9 -118.768148 
L 118.675 -115.023296 
L 119.45 -117.035906 
L 120.225 -117.213467 
L 121 -102.284193 
L 121.775 -118.190349 
L 122.55 -114.734215 
L 123.325 -117.102664 
L 124.1 -120.142743 
L 124.875 -108.32622 
L 125.65 -115.712118 
L 126.425 -114.746341 
L 127.2 -111.289552 
L 127.975 -112.009502 
L 128.75 -112.469402 
L 129.525 -116.780519 
L 130.3 -116.622877 
L 131.075 -110.334634 
L 131.85 -108.895064 
L 132.625 -107.380066 
L 133.4 -114.086811 
L 134.175 -108.531176 
L 134.95 -104.670578 
L 135.725 -102.211082 
L 136.5 -105.185688 
L 137.275 -101.199811 
L 138.05 -104.009774 
L 138.825 -97.514803 
L 139.6 -106.606752 
L 140.375 -103.686938 
L 141.15 -104.545075 
L 141.925 -113.114909 
L 142.7 -100.94172 
L 143.475 -107.317224 
L 144.25 -105.857662 
L 145.025 -104.986834 
L 145.8 -105.48323 
L 146.575 -109.916458 
L 147.35 -113.490176 
L 148.125 -109.694956 
L 148.9 -105.698999 
L 149.675 -99.418046 
L 150.45 -94.364935 
L 151.225 -103.051694 
L 152 -103.166538 
L 152.775 -95.152287 
L 153.55 -100.188745 
L 154.325 -107.315575 
L 155.1 -112.769341 
L 155.875 -112.771327 
L 156.65 -116.863442 
L 157.425 -118.620145 
L 158.2 -119.850877 
L 158.975 -118.908852 
L 159.75 -122.700412 
L 160.525 -113.28501 
L 161.3 -120.55861 
L 162.075 -118.703367 
L 162.85 -122.062056 
L 163.625 -123.128976 
L 164.4 -117.988094 
L 165.175 -121.8458 
L 165.95 -119.363469 
L 166.725 -118.517721 
L 167.5 -120.17755 
L 168.275 -115.280648 
L 169.05 -118.941103 
L 169.825 -120.173265 
L 170.6 -119.78342 
L 171.375 -123.954097 
L 172.15 -117.478397 
L 172.925 -123.882746 
L 173.7 -115.964573 
L 174.475 -120.927134 
L 175.25 -119.785343 
L 176.025 -120.236195 
L 176.8 -118.101692 
L 177.575 -123.022393 
L 178.35 -116.914499 
L 179.125 -121.605197 
L 179.9 -124.488618 
L 180.675 -115.364255 
L 181.45 -127.272502 
L 182.225 -127.192592 
L 183 -126.062723 
L 183.775 -119.436576 
L 184.55 -128.100674 
L 185.325 -127.168998 
L 186.1 -127.455968 
L 186.875 -122.605005 
L 187.65 -123.075665 
L 188.425 -123.555811 
L 189.2 -127.764515 
L 189.975 -128.4248 
L 190.75 -121.364989 
L 191.525 -120.907304 
L 192.3 -129.065532 
L 193.075 -121.890098 
L 193.85 -123.75043 
L 194.625 -123.747701 
L 195.4 -123.49629 
L 196.175 -124.089218 
L 196.95 -124.635309 
L 197.725 -127.493676 
L 198.5 -122.752329 
L 199.275 -128.020876 
L 200.05 -126.504728 
L 200.825 -127.278579 
L 201.6 -129.95259 
L 202.375 -128.385911 
L 203.15 -130.228464 
L 203.925 -124.540007 
L 204.7 -130.229332 
L 205.475 -125.709394 
L 206.25 -128.234464 
L 207.025 -120.418325 
L 207.8 -125.237679 
L 208.575 -127.35911 
L 209.35 -129.187561 
L 210.125 -124.428417 
L 210.9 -127.475195 
L 211.675 -125.682339 
L 212.45 -123.620018 
L 213.225 -126.5928 
L 214 -127.486466 
L 214.775 -126.90132 
L 215.55 -123.902011 
L 216.325 -120.310196 
L 217.1 -121.571935 
L 217.875 -124.033734 
L 218.65 -133.182539 
L 219.425 -126.036211 
L 220.2 -131.271742 
L 220.975 -122.184667 
L 221.75 -126.521176 
L 222.525 -127.249793 
L 223.3 -126.873656 
L 224.075 -129.47121 
L 224.85 -123.819673 
L 225.625 -127.198003 
L 226.4 -128.685224 
L 227.175 -131.434457 
L 227.95 -126.098597 
L 228.725 -124.353857 
L 229.5 -123.758444 
L 230.275 -123.451109 
L 231.05 -130.679837 
L 231.825 -129.938843 
L 232.6 -124.032208 
L 233.375 -123.022253 
L 234.15 -124.819022 
L 234.925 -129.927956 
L 235.7 -126.205546 
L 236.475 -123.622444 
L 237.25 -125.789295 
L 238.025 -130.510057 
L 238.8 -126.428238 
L 239.575 -122.82271 
L 240.35 -129.807423 
L 241.125 -128.783457 
L 241.9 -124.911372 
L 242.675 -128.977487 
L 243.45 -122.454795 
L 244.225 -128.167888 
L 245 -131.276621 
L 245.775 -125.547682 
L 246.55 -125.607702 
L 247.325 -127.70748 
L 248.1 -127.495466 
L 248.875 -124.288193 
L 249.65 -127.017722 
L 250.425 -128.808275 
L 251.2 -131.294978 
L 251.975 -134.141251 
L 252.75 -128.821574 
L 253.525 -132.328215 
L 254.3 -130.36944 
L 255.075 -131.628074 
L 255.85 -133.724325 
L 256.625 -129.659747 
L 257.4 -129.563607 
L 258.175 -129.983458 
L 258.95 -125.689413 
L 259.725 -129.48298 
L 260.5 -131.275568 
L 261.275 -131.46717 
L 262.05 -129.491374 
L 262.825 -131.391507 
L 263.6 -131.47892 
L 264.375 -128.827511 
L 265.15 -129.342379 
L 265.925 -122.716094 
L 266.7 -130.161507 
L 267.475 -129.835097 
L 268.25 -128.811136 
L 269.025 -128.797451 
L 269.8 -131.785573 
L 270.575 -131.954603 
L 271.35 -127.153409 
L 272.125 -131.558929 
L 272.9 -128.561414 
L 273.675 -131.670283 
L 274.45 -129.890058 
L 275.225 -129.451284 
L 276 -127.380016 
L 276.775 -126.914556 
L 277.55 -132.120687 
L 278.325 -133.317748 
L 279.1 -126.966421 
L 279.875 -129.821246 
L 280.65 -128.083202 
L 281.425 -128.350638 
L 282.2 -127.150728 
L 282.975 -126.842679 
L 283.75 -130.868089 
L 284.525 -131.472399 
L 285.3 -125.244259 
L 286.075 -131.700773 
L 286.85 -126.923476 
L 287.625 -129.75819 
L 288.4 -129.908284 
L 289.175 -122.702447 
L 289.95 -132.242763 
L 290.725 -132.877204 
L 291.5 -133.202641 
L 292.275 -133.894473 
L 293.05 -132.50952 
L 293.825 -128.303102 
L 294.6 -127.740634 
L 295.375 -127.517022 
L 296.15 -128.761446 
L 296.925 -122.482803 
L 297.7 -129.420012 
L 298.475 -134.019954 
L 299.25 -132.312399 
L 300.025 -134.999747 
L 300.8 -129.234009 
L 301.575 -131.219162 
L 302.35 -126.23709 
L 303.125 -126.414328 
L 303.9 -123.587502 
L 304.675 -131.452941 
L 305.45 -135.032686 
L 306.225 -129.639972 
L 307 -126.2721 
L 307.775 -133.407559 
L 308.55 -133.306075 
L 309.325 -131.736606 
L 310.1 -131.390589 
L 310.875 -134.338193 
L 311.65 -130.72817 
L 312.425 -131.427898 
L 313.2 -135.031555 
L 313.975 -128.907323 
L 314.75 -132.102279 
L 315.525 -130.858628 
L 316.3 -122.106208 
L 317.075 -130.837248 
L 317.85 -125.812987 
L 318.625 -126.77026 
L 319.4 -126.561779 
L 320.175 -126.033375 
L 320.95 -133.566413 
L 321.725 -127.559833 
L 322.5 -131.702652 
L 323.275 -130.876566 
L 324.05 -130.128275 
L 324.825 -131.022287 
L 325.6 -132.603925 
L 326.375 -132.847993 
L 327.15 -129.75841 
L 327.925 -128.381638 
L 328.7 -127.714719 
L 329.475 -134.002165 
L 330.25 -130.317713 
L 331.025 -131.47112 
L 331.8 -126.864687 
L 332.575 -128.68681 
L 333.35 -127.781774 
L 334.125 -128.774756 
L 334.9 -129.7848 
L 335.675 -130.41711 
L 336.45 -129.318333 
L 337.225 -129.983857 
L 338 -128.59254 
L 338.775 -131.072945 
L 339.55 -130.534935 
L 340.325 -128.832459 
L 341.1 -126.839224 
L 341.875 -127.383423 
L 342.65 -125.271366 
L 343.425 -124.979666 
L 344.2 -124.909138 
L 344.975 -122.749684 
L 345.75 -130.102038 
L 346.525 -125.516433 
L 347.3 -131.114619 
L 348.075 -124.443178 
L 348.85 -130.388919 
L 349.625 -127.113174 
L 350.4 -127.617837 
L 351.175 -128.556582 
L 351.95 -125.390984 
L 352.725 -122.265137 
L 353.5 -123.904787 
L 354.275 -123.923122 
L 355.05 -127.882971 
L 355.825 -127.07965 
L 356.6 -125.392729 
L 357.375 -124.891595 
L 358.15 -129.965164 
L 358.925 -129.908958 
L 359.7 -127.147831 
L 360.475 -129.787298 
L 361.25 -131.674332 
L 362.025 -125.03821 
L 362.8 -127.698186 
L 363.575 -133.431155 
L 364.35 -127.854428 
L 365.125 -126.79187 
L 365.9 -123.185872 
L 366.675 -126.287842 
L 367.45 -125.129677 
L 368.225 -121.568127 
L 369 -119.797702 
L 369.775 -119.601952 
L 370.55 -118.48142 
L 371.325 -121.560145 
L 372.1 -119.508672 
L 372.875 -117.387271 
L 373.65 -117.133421 
L 374.425 -122.605044 
L 375.2 -124.204012 
L 375.975 -120.039172 
L 376.75 -120.550522 
L 377.525 -119.552694 
L 378.3 -120.059894 
L 379.075 -117.966689 
L 379.85 -123.477557 
L 380.625 -124.30531 
L 381.4 -122.152638 
L 382.175 -120.264887 
L 382.95 -121.261015 
L 383.725 -119.652143 
L 384.5 -123.718516 
L 385.275 -121.169227 
L 386.05 -122.178467 
L 386.825 -120.5946 
L 387.6 -123.062324 
L 388.375 -126.47462 
L 389.15 -123.13148 
L 389.925 -119.144543 
L 390.7 -121.815149 
L 391.475 -115.562098 
L 392.25 -119.408769 
L 393.025 -111.7386 
L 393.8 -117.422791 
L 394.575 -113.378464 
L 395.35 -116.403199 
L 396.125 -114.536948 
L 396.9 -110.190836 
L 397.675 -113.221733 
L 398.45 -118.868059 
L 399.225 -113.092542 
L 400 -113.939707 
L 400.775 -114.151659 
L 401.55 -112.70137 
L 402.325 -114.816855 
L 403.1 -114.14772 
L 403.875 -114.299031 
L 404.65 -118.113133 
L 405.425 -109.379573 
L 406.2 -116.417335 
L 406.975 -115.212226 
L 407.75 -116.291647 
L 408.525 -106.609166 
L 409.3 -118.517944 
L 410.075 -112.515581 
L 410.85 -116.569388 
L 411.625 -119.66624 
L 412.4 -109.941469 
L 413.175 -110.971169 
L 413.95 -112.545286 
L 414.725 -111.294204 
L 415.5 -106.423861 
L 416.275 -108.595311 
L 417.05 -100.265332 
L 417.825 -105.999843 
L 418.6 -103.280028 
L 419.375 -102.05078 
L 420.15 -104.473731 
L 420.925 -109.387115 
L 421.7 -100.689744 
L 422.475 -99.062989 
L 423.25 -106.251242 
L 424.025 -107.650941 
L 424.8 -100.850681 
L 425.575 -98.48323 
L 426.35 -111.037298 
L 427.125 -100.63797 
L 427.9 -96.52372 
L 428.675 -101.455405 
L 429.45 -95.288042 
L 430.225 -105.525141 
L 431 -107.067928 
L 431.775 -106.174702 
L 432.55 -107.464023 
L 433.325 -103.045938 
L 434.1 -105.55018 
L 434.875 -104.380348 
L 435.65 -104.104252 
L 436.425 -100.252489 
L 437.2 -101.253568 
L 437.975 -109.47643 
L 438.75 -113.121593 
L 439.525 -117.385841 
L 440.3 -114.166996 
L 441.075 -124.171041 
L 441.85 -116.347492 
L 442.625 -118.927028 
L 443.4 -122.532892 
L 444.175 -118.985956 
L 444.95 -120.328897 
L 445.725 -116.800764 
L 446.5 -121.225472 
L 447.275 -122.63723 
L 448.05 -119.010203 
L 448.825 -118.440378 
L 449.6 -121.890862 
L 450.375 -117.973484 
L 451.15 -119.230921 
L 451.925 -119.632297 
L 452.7 -116.945984 
L 453.475 -123.601902 
L 454.25 -122.731957 
L 455.025 -120.919301 
L 455.8 -119.982303 
L 456.575 -119.631167 
L 457.35 -119.591347 
L 458.125 -122.499297 
L 458.9 -123.146026 
L 459.675 -121.909772 
L 460.45 -120.694998 
L 461.225 -121.646368 
L 462 -124.745487 
L 462.775 -124.228105 
L 463.55 -122.495095 
L 464.325 -119.11432 
L 465.1 -127.317716 
L 465.875 -126.950631 
L 466.65 -125.082039 
L 467.425 -125.817944 
L 468.2 -127.431593 
L 468.975 -126.564427 
L 469.75 -123.490623 
L 470.525 -123.068908 
L 471.3 -124.455328 
L 472.075 -127.83056 
L 472.85 -123.37017 
L 473.625 -126.686643 
L 474.4 -119.19151 
L 475.175 -123.496039 
L 475.95 -127.677432 
L 476.725 -126.124288 
L 477.5 -122.823517 
L 478.275 -129.740676 
L 479.05 -123.604996 
L 479.825 -119.581741 
L 480.6 -122.561653 
L 481.375 -125.463178 
L 482.15 -122.958273 
L 482.925 -126.308162 
L 483.7 -122.825046 
L 484.475 -126.976054 
L 485.25 -123.327998 
L 486.025 -124.772666 
L 486.8 -129.639454 
L 487.575 -126.368094 
L 488.35 -125.854881 
L 489.125 -122.221564 
L 489.9 -126.624052 
L 490.675 -121.630013 
L 491.45 -123.461831 
L 492.225 -126.800384 
L 493 -128.134818 
L 493.775 -126.113599 
L 494.55 -120.546554 
L 495.325 -122.316674 
L 496.1 -127.529655 
L 496.875 -128.369037 
L 497.65 -123.13343 
L 498.425 -128.278749 
L 499.2 -124.625999 
L 499.975 -126.36893 
L 500.75 -125.65605 
L 501.525 -128.590462 
L 502.3 -130.108011 
L 503.075 -124.340814 
L 503.85 -123.126683 
L 504.625 -129.728331 
L 505.4 -128.314376 
L 506.175 -130.077666 
L 506.95 -125.223589 
L 507.725 -130.826721 
L 508.5 -125.818265 
L 509.275 -126.849968 
L 510.05 -132.634558 
L 510.825 -128.507468 
L 511.6 -119.563488 
L 512.375 -124.536371 
L 513.15 -124.706497 
L 513.925 -126.707913 
L 514.7 -129.154135 
L 515.475 -127.950154 
L 516.25 -121.802833 
L 517.025 -127.648594 
L 517.8 -128.799317 
L 518.575 -126.382261 
L 519.35 -130.965478 
L 520.125 -127.488209 
L 520.9 -128.528766 
L 521.675 -132.449127 
L 522.45 -126.330473 
L 523.225 -128.998319 
L 524 -126.49798 
L 524.775 -120.984533 
L 525.55 -124.25482 
L 526.325 -130.656782 
L 527.1 -128.309955 
L 527.875 -126.65202 
L 528.65 -122.624855 
L 529.425 -124.51048 
L 530.2 -128.296107 
L 530.975 -129.83459 
L 531.75 -131.373386 
L 532.525 -127.472785 
L 533.3 -129.300185 
L 534.075 -131.423764 
L 534.85 -129.20296 
L 535.625 -130.868071 
L 536.4 -132.010458 
L 537.175 -129.858093 
L 537.95 -132.806022 
L 538.725 -130.615525 
L 539.5 -130.283297 
L 540.275 -125.902937 
L 541.05 -128.86173 
L 541.825 -128.58158 
L 542.6 -133.530163 
L 543.375 -126.039449 
L 544.15 -127.269824 
L 544.925 -130.820847 
L 545.7 -126.941281 
L 546.475 -131.646146 
L 547.25 -130.515805 
L 548.025 -126.947459 
L 548.8 -132.897806 
L 549.575 -122.402379 
L 550.35 -127.115183 
L 551.125 -125.204004 
L 551.9 -133.326723 
L 552.675 -131.35844 
L 553.45 -134.414921 
L 554.225 -129.071401 
L 555 -130.554197 
L 555.775 -131.060071 
L 556.55 -128.709606 
L 557.325 -131.863744 
L 558.1 -128.112592 
L 558.875 -127.062279 
L 559.65 -129.842552 
L 560.425 -132.560653 
L 561.2 -131.617324 
L 561.975 -132.506935 
L 562.75 -132.886919 
L 563.525 -132.894711 
L 564.3 -131.704669 
L 565.075 -126.306902 
L 565.85 -128.63836 
L 566.625 -128.375232 
L 567.4 -134.038094 
L 568.175 -126.502187 
L 568.95 -123.674782 
L 569.725 -128.793465 
L 570.5 -131.196623 
L 571.275 -127.729302 
L 572.05 -126.058513 
L 572.825 -123.519036 
L 573.6 -119.787338 
L 574.375 -129.545958 
L 575.15 -126.985039 
L 575.925 -132.33663 
L 576.7 -132.657305 
L 577.475 -133.48527 
L 578.25 -126.030922 
L 579.025 -129.063052 
L 579.8 -130.187308 
L 580.575 -128.455843 
L 581.35 -135.136425 
L 582.125 -124.658175 
L 582.9 -130.554159 
L 583.675 -130.238409 
L 584.45 -132.951127 
L 585.225 -126.811261 
L 586 -130.050891 
L 586.775 -125.885481 
L 587.55 -132.109075 
L 588.325 -132.975267 
L 589.1 -131.31465 
L 589.875 -130.767885 
L 590.65 -127.512364 
L 591.425 -134.065173 
L 592.2 -124.915696 
L 592.975 -127.611474 
L 593.75 -129.723846 
L 594.525 -130.218784 
L 595.3 -125.985034 
L 596.075 -124.646677 
L 596.85 -133.874463 
L 597.625 -132.617735 
L 598.4 -132.706447 
L 599.175 -131.362355 
L 599.95 -130.1129 
L 600.725 -129.318298 
L 601.5 -130.561265 
L 602.275 -129.214152 
L 603.05 -126.713936 
L 603.825 -130.709968 
L 604.6 -130.409821 
L 605.375 -126.335211 
L 606.15 -130.598555 
L 606.925 -131.212689 
L 607.7 -131.074894 
L 608.475 -130.202421 
L 609.25 -129.676399 
L 610.025 -125.575608 
L 610.8 -129.300619 
L 611.575 -129.016298 
L 612.35 -130.723978 
L 613.125 -132.720153 
L 613.9 -129.436248 
L 614.675 -128.776525 
L 615.45 -127.505186 
L 616.225 -124.559106 
L 617 -130.951558 
L 617.775 -125.98737 
L 618.55 -125.981352 
L 619.325 -129.478258 
L 620.1 -126.857245 
L 620.875 -128.71253 
L 621.65 -128.618865 
L 622.425 -130.822549 
L 623.2 -132.603318 
L 623.975 -129.459816 
L 624.75 -131.600775 
L 625.525 -130.24293 
L 626.3 -124.624107 
L 627.075 -125.323481 
L 627.85 -125.858747 
L 628.625 -130.175755 
L 629.4 -131.903293 
L 630.175 -131.05296 
L 630.95 -129.844817 
L 631.725 -129.195598 
L 632.5 -127.094218 
L 633.275 -126.549697 
L 634.05 -125.594888 
L 634.825 -126.914113 
L 635.6 -125.660351 
L 636.375 -127.759904 
L 637.15 -129.79681 
L 637.925 -126.603649 
L 638.7 -123.886369 
L 639.475 -128.492136 
L 640.25 -129.532157 
L 641.025 -125.241758 
L 641.8 -125.917574 
L 642.575 -128.721097 
L 643.35 -125.846516 
L 644.125 -127.544353 
L 644.9 -125.983248 
L 645.675 -126.095678 
L 646.45 -128.627167 
L 647.225 -125.132584 
L 647.225 -89.706787 
L 647.225 -89.706787 
L 646.45 -83.829401 
L 645.675 -92.304597 
L 644.9 -90.338559 
L 644.125 -82.832689 
L 643.35 -88.214649 
L 642.575 -95.062406 
L 641.8 -81.993655 
L 641.025 -96.213508 
L 640.25 -92.707692 
L 639.475 -90.227425 
L 638.7 -92.038727 
L 637.925 -88.919551 
L 637.15 -93.216057 
L 636.375 -92.735701 
L 635.6 -84.504074 
L 634.825 -93.911215 
L 634.05 -81.224974 
L 633.275 -77.621543 
L 632.5 -89.088058 
L 631.725 -91.042414 
L 630.95 -85.937504 
L 630.175 -88.862521 
L 629.4 -90.730806 
L 628.625 -85.82863 
L 627.85 -86.85648 
L 627.075 -87.155011 
L 626.3 -84.20347 
L 625.525 -91.494086 
L 624.75 -86.996547 
L 623.975 -81.879653 
L 623.2 -88.203774 
L 622.425 -93.78825 
L 621.65 -94.163529 
L 620.875 -79.228861 
L 620.1 -90.710135 
L 619.325 -87.826812 
L 618.55 -93.388087 
L 617.775 -94.976477 
L 617 -90.809775 
L 616.225 -84.125792 
L 615.45 -84.284039 
L 614.675 -82.464846 
L 613.9 -93.954529 
L 613.125 -93.072456 
L 612.35 -94.464266 
L 611.575 -87.327643 
L 610.8 -97.949932 
L 610.025 -96.691511 
L 609.25 -92.113845 
L 608.475 -95.993 
L 607.7 -98.639855 
L 606.925 -89.587475 
L 606.15 -92.600368 
L 605.375 -85.094276 
L 604.6 -89.741519 
L 603.825 -87.786784 
L 603.05 -88.00449 
L 602.275 -97.896343 
L 601.5 -89.79337 
L 600.725 -92.113787 
L 599.95 -85.091379 
L 599.175 -81.397344 
L 598.4 -90.052481 
L 597.625 -85.728268 
L 596.85 -100.851916 
L 596.075 -80.754594 
L 595.3 -96.003801 
L 594.525 -94.086963 
L 593.75 -91.606458 
L 592.975 -96.774135 
L 592.2 -82.465605 
L 591.425 -94.692525 
L 590.65 -91.655995 
L 589.875 -90.403098 
L 589.1 -85.331448 
L 588.325 -98.43258 
L 587.55 -95.301158 
L 586.775 -86.293188 
L 586 -91.017465 
L 585.225 -83.107074 
L 584.45 -85.42521 
L 583.675 -93.370126 
L 582.9 -88.671972 
L 582.125 -88.758091 
L 581.35 -86.676005 
L 580.575 -88.45819 
L 579.8 -92.977849 
L 579.025 -89.923083 
L 578.25 -91.835019 
L 577.475 -90.560599 
L 576.7 -98.14569 
L 575.925 -99.650309 
L 575.15 -86.607402 
L 574.375 -89.138187 
L 573.6 -89.494616 
L 572.825 -88.845733 
L 572.05 -88.162918 
L 571.275 -95.688651 
L 570.5 -98.475537 
L 569.725 -86.282833 
L 568.95 -89.693728 
L 568.175 -89.936326 
L 567.4 -93.118859 
L 566.625 -88.091953 
L 565.85 -86.137802 
L 565.075 -89.154675 
L 564.3 -87.24388 
L 563.525 -90.440679 
L 562.75 -91.599539 
L 561.975 -99.631342 
L 561.2 -96.572535 
L 560.425 -99.971823 
L 559.65 -90.232696 
L 558.875 -80.135418 
L 558.1 -92.473705 
L 557.325 -86.117566 
L 556.55 -95.733528 
L 555.775 -93.175384 
L 555 -88.668845 
L 554.225 -92.903939 
L 553.45 -95.397134 
L 552.675 -85.516035 
L 551.9 -85.366714 
L 551.125 -95.881605 
L 550.35 -88.929776 
L 549.575 -94.577577 
L 548.8 -87.067645 
L 548.025 -92.405677 
L 547.25 -83.776915 
L 546.475 -93.027187 
L 545.7 -96.460464 
L 544.925 -86.152932 
L 544.15 -91.643947 
L 543.375 -88.483315 
L 542.6 -94.118593 
L 541.825 -92.827498 
L 541.05 -94.961426 
L 540.275 -97.965785 
L 539.5 -86.723301 
L 538.725 -84.894807 
L 537.95 -91.058865 
L 537.175 -92.940781 
L 536.4 -99.339341 
L 535.625 -92.136391 
L 534.85 -91.482665 
L 534.075 -90.238473 
L 533.3 -88.188871 
L 532.525 -84.606889 
L 531.75 -90.705346 
L 530.975 -91.421902 
L 530.2 -85.789114 
L 529.425 -89.951831 
L 528.65 -91.099161 
L 527.875 -90.882937 
L 527.1 -89.270567 
L 526.325 -84.824159 
L 525.55 -90.837217 
L 524.775 -90.332332 
L 524 -89.695505 
L 523.225 -92.833489 
L 522.45 -89.577786 
L 521.675 -91.306621 
L 520.9 -91.403535 
L 520.125 -91.670443 
L 519.35 -88.383298 
L 518.575 -94.916285 
L 517.8 -89.93521 
L 517.025 -92.828729 
L 516.25 -87.824871 
L 515.475 -81.132331 
L 514.7 -84.166601 
L 513.925 -93.742475 
L 513.15 -82.898922 
L 512.375 -80.736109 
L 511.6 -95.342305 
L 510.825 -98.528431 
L 510.05 -89.307979 
L 509.275 -77.774369 
L 508.5 -88.933894 
L 507.725 -92.209845 
L 506.95 -96.853055 
L 506.175 -86.533646 
L 505.4 -96.782756 
L 504.625 -91.131665 
L 503.85 -89.477847 
L 503.075 -82.457548 
L 502.3 -86.764609 
L 501.525 -87.900762 
L 500.75 -90.721496 
L 499.975 -78.329212 
L 499.2 -90.782282 
L 498.425 -97.029882 
L 497.65 -89.408803 
L 496.875 -90.14568 
L 496.1 -84.612504 
L 495.325 -83.303795 
L 494.55 -87.155713 
L 493.775 -82.089391 
L 493 -83.321774 
L 492.225 -82.065883 
L 491.45 -84.545904 
L 490.675 -87.589622 
L 489.9 -80.464825 
L 489.125 -87.291717 
L 488.35 -86.352277 
L 487.575 -91.392271 
L 486.8 -89.986204 
L 486.025 -90.110438 
L 485.25 -87.799687 
L 484.475 -88.732484 
L 483.7 -93.755287 
L 482.925 -84.640369 
L 482.15 -85.682518 
L 481.375 -83.594681 
L 480.6 -93.167651 
L 479.825 -81.342142 
L 479.05 -86.301489 
L 478.275 -81.827548 
L 477.5 -91.626731 
L 476.725 -93.968731 
L 475.95 -87.245308 
L 475.175 -86.214935 
L 474.4 -82.958316 
L 473.625 -82.018458 
L 472.85 -88.213738 
L 472.075 -93.780443 
L 471.3 -82.856418 
L 470.525 -87.59315 
L 469.75 -80.826713 
L 468.975 -89.18113 
L 468.2 -88.207283 
L 467.425 -97.907244 
L 466.65 -85.197758 
L 465.875 -94.064567 
L 465.1 -93.76075 
L 464.325 -93.557182 
L 463.55 -83.616903 
L 462.775 -85.186437 
L 462 -82.142375 
L 461.225 -86.064044 
L 460.45 -91.424792 
L 459.675 -83.883836 
L 458.9 -83.297713 
L 458.125 -88.798919 
L 457.35 -87.824883 
L 456.575 -90.704233 
L 455.8 -84.748924 
L 455.025 -87.194411 
L 454.25 -89.659932 
L 453.475 -84.005745 
L 452.7 -81.452305 
L 451.925 -84.187309 
L 451.15 -84.575672 
L 450.375 -79.356136 
L 449.6 -84.204567 
L 448.825 -77.214591 
L 448.05 -87.280199 
L 447.275 -82.281252 
L 446.5 -80.585439 
L 445.725 -87.910128 
L 444.95 -91.608686 
L 444.175 -82.204072 
L 443.4 -89.886182 
L 442.625 -84.467793 
L 441.85 -85.50308 
L 441.075 -82.533413 
L 440.3 -72.682184 
L 439.525 -77.019183 
L 438.75 -74.214719 
L 437.975 -65.559778 
L 437.2 -61.959963 
L 436.425 -66.062925 
L 435.65 -67.62108 
L 434.875 -57.612581 
L 434.1 -65.946507 
L 433.325 -57.830487 
L 432.55 -67.363929 
L 431.775 -64.307355 
L 431 -58.319075 
L 430.225 -60.21561 
L 429.45 -62.878808 
L 428.675 -69.219313 
L 427.9 -65.73082 
L 427.125 -59.020234 
L 426.35 -63.290127 
L 425.575 -65.864796 
L 424.8 -66.872057 
L 424.025 -66.368156 
L 423.25 -60.620006 
L 422.475 -68.18502 
L 421.7 -59.624216 
L 420.925 -69.224565 
L 420.15 -68.851886 
L 419.375 -61.827935 
L 418.6 -65.707869 
L 417.825 -66.602376 
L 417.05 -62.524132 
L 416.275 -66.635902 
L 415.5 -65.275198 
L 414.725 -64.543686 
L 413.95 -81.786137 
L 413.175 -79.319407 
L 412.4 -69.052325 
L 411.625 -68.821114 
L 410.85 -79.012228 
L 410.075 -74.958945 
L 409.3 -71.883741 
L 408.525 -72.781988 
L 407.75 -77.630926 
L 406.975 -73.908532 
L 406.2 -81.581612 
L 405.425 -79.396798 
L 404.65 -76.728624 
L 403.875 -75.297687 
L 403.1 -78.212648 
L 402.325 -71.684944 
L 401.55 -76.392548 
L 400.775 -68.57176 
L 400 -64.985036 
L 399.225 -71.853366 
L 398.45 -80.362035 
L 397.675 -69.628827 
L 396.9 -78.549304 
L 396.125 -83.319303 
L 395.35 -77.04368 
L 394.575 -82.624609 
L 393.8 -72.882448 
L 393.025 -84.863565 
L 392.25 -77.786108 
L 391.475 -75.572324 
L 390.7 -82.534252 
L 389.925 -82.642564 
L 389.15 -86.894567 
L 388.375 -85.133097 
L 387.6 -84.819871 
L 386.825 -89.64315 
L 386.05 -87.986612 
L 385.275 -83.457171 
L 384.5 -88.885845 
L 383.725 -85.380117 
L 382.95 -81.434367 
L 382.175 -90.449822 
L 381.4 -83.142512 
L 380.625 -84.339476 
L 379.85 -90.533571 
L 379.075 -82.196594 
L 378.3 -83.036904 
L 377.525 -81.514194 
L 376.75 -78.859077 
L 375.975 -78.711135 
L 375.2 -84.568878 
L 374.425 -83.783692 
L 373.65 -89.366691 
L 372.875 -89.437369 
L 372.1 -85.187956 
L 371.325 -78.28603 
L 370.55 -81.887082 
L 369.775 -85.149973 
L 369 -85.504438 
L 368.225 -81.485629 
L 367.45 -87.284615 
L 366.675 -86.048647 
L 365.9 -95.015643 
L 365.125 -91.002375 
L 364.35 -88.905204 
L 363.575 -89.215462 
L 362.8 -102.904022 
L 362.025 -98.518926 
L 361.25 -96.946948 
L 360.475 -86.797117 
L 359.7 -83.779127 
L 358.925 -85.257337 
L 358.15 -88.343645 
L 357.375 -86.059664 
L 356.6 -87.564854 
L 355.825 -85.647057 
L 355.05 -91.532236 
L 354.275 -92.26935 
L 353.5 -93.468529 
L 352.725 -89.918221 
L 351.95 -90.26641 
L 351.175 -86.817159 
L 350.4 -90.067012 
L 349.625 -93.65702 
L 348.85 -85.992274 
L 348.075 -85.104534 
L 347.3 -89.376952 
L 346.525 -87.695897 
L 345.75 -92.126369 
L 344.975 -87.581065 
L 344.2 -84.039054 
L 343.425 -98.26157 
L 342.65 -90.730292 
L 341.875 -90.766322 
L 341.1 -91.179667 
L 340.325 -92.79967 
L 339.55 -89.357346 
L 338.775 -84.086243 
L 338 -91.898736 
L 337.225 -95.018994 
L 336.45 -98.66664 
L 335.675 -96.079681 
L 334.9 -78.201327 
L 334.125 -88.877774 
L 333.35 -88.926333 
L 332.575 -88.674137 
L 331.8 -94.392051 
L 331.025 -95.764749 
L 330.25 -90.710215 
L 329.475 -88.321464 
L 328.7 -91.791871 
L 327.925 -90.021067 
L 327.15 -96.132428 
L 326.375 -84.691346 
L 325.6 -92.864603 
L 324.825 -94.203365 
L 324.05 -87.311402 
L 323.275 -98.189184 
L 322.5 -85.087199 
L 321.725 -86.927946 
L 320.95 -91.556792 
L 320.175 -80.716807 
L 319.4 -93.202212 
L 318.625 -93.633408 
L 317.85 -87.313258 
L 317.075 -82.988999 
L 316.3 -92.744659 
L 315.525 -94.208466 
L 314.75 -80.338864 
L 313.975 -94.045451 
L 313.2 -93.088288 
L 312.425 -87.905084 
L 311.65 -90.582026 
L 310.875 -99.253385 
L 310.1 -91.310645 
L 309.325 -96.295887 
L 308.55 -92.216392 
L 307.775 -94.357314 
L 307 -96.906489 
L 306.225 -89.248573 
L 305.45 -80.299696 
L 304.675 -87.989532 
L 303.9 -88.318474 
L 303.125 -95.95637 
L 302.35 -89.013288 
L 301.575 -93.980156 
L 300.8 -91.595404 
L 300.025 -93.501202 
L 299.25 -88.353601 
L 298.475 -93.979895 
L 297.7 -91.837926 
L 296.925 -90.592246 
L 296.15 -86.423307 
L 295.375 -91.161883 
L 294.6 -89.423569 
L 293.825 -86.548592 
L 293.05 -92.985 
L 292.275 -89.271161 
L 291.5 -92.172536 
L 290.725 -91.492025 
L 289.95 -102.003869 
L 289.175 -95.104179 
L 288.4 -94.490714 
L 287.625 -76.259768 
L 286.85 -90.04571 
L 286.075 -88.772156 
L 285.3 -88.544785 
L 284.525 -85.884832 
L 283.75 -88.494042 
L 282.975 -79.397056 
L 282.2 -84.508923 
L 281.425 -83.088097 
L 280.65 -91.958551 
L 279.875 -91.820087 
L 279.1 -95.597696 
L 278.325 -85.105461 
L 277.55 -91.964664 
L 276.775 -97.754371 
L 276 -84.540411 
L 275.225 -95.655017 
L 274.45 -91.044145 
L 273.675 -90.716246 
L 272.9 -95.310378 
L 272.125 -90.062199 
L 271.35 -86.597206 
L 270.575 -93.544162 
L 269.8 -97.129303 
L 269.025 -90.295043 
L 268.25 -81.88326 
L 267.475 -95.558089 
L 266.7 -97.566427 
L 265.925 -81.669907 
L 265.15 -93.009097 
L 264.375 -92.848453 
L 263.6 -90.225046 
L 262.825 -86.458458 
L 262.05 -89.921939 
L 261.275 -86.669807 
L 260.5 -87.718316 
L 259.725 -96.431739 
L 258.95 -90.864663 
L 258.175 -84.826844 
L 257.4 -91.019526 
L 256.625 -94.926458 
L 255.85 -91.351656 
L 255.075 -90.744069 
L 254.3 -88.026206 
L 253.525 -91.762079 
L 252.75 -84.021232 
L 251.975 -89.693747 
L 251.2 -93.650043 
L 250.425 -89.621962 
L 249.65 -87.157082 
L 248.875 -85.852425 
L 248.1 -93.016234 
L 247.325 -88.221543 
L 246.55 -87.367201 
L 245.775 -88.040533 
L 245 -91.357719 
L 244.225 -89.353363 
L 243.45 -87.94075 
L 242.675 -88.963781 
L 241.9 -83.617161 
L 241.125 -84.583103 
L 240.35 -90.943745 
L 239.575 -91.538624 
L 238.8 -93.115225 
L 238.025 -90.818356 
L 237.25 -87.829915 
L 236.475 -97.981536 
L 235.7 -86.660443 
L 234.925 -82.890441 
L 234.15 -86.695665 
L 233.375 -84.019936 
L 232.6 -95.278052 
L 231.825 -86.379805 
L 231.05 -95.759556 
L 230.275 -85.927174 
L 229.5 -82.38728 
L 228.725 -88.247709 
L 227.95 -90.587508 
L 227.175 -93.386415 
L 226.4 -85.24662 
L 225.625 -94.003842 
L 224.85 -92.20971 
L 224.075 -89.37851 
L 223.3 -89.231357 
L 222.525 -85.858597 
L 221.75 -85.894754 
L 220.975 -84.316346 
L 220.2 -89.571478 
L 219.425 -88.758751 
L 218.65 -88.911452 
L 217.875 -87.87659 
L 217.1 -96.738203 
L 216.325 -86.232842 
L 215.55 -91.535777 
L 214.775 -96.71256 
L 214 -98.304099 
L 213.225 -96.049907 
L 212.45 -86.093908 
L 211.675 -78.481743 
L 210.9 -87.9364 
L 210.125 -83.52729 
L 209.35 -87.278946 
L 208.575 -82.931738 
L 207.8 -87.650626 
L 207.025 -91.03419 
L 206.25 -89.822989 
L 205.475 -93.967003 
L 204.7 -84.337128 
L 203.925 -85.605463 
L 203.15 -86.71089 
L 202.375 -85.002581 
L 201.6 -78.885756 
L 200.825 -91.941593 
L 200.05 -89.640571 
L 199.275 -85.553426 
L 198.5 -84.187024 
L 197.725 -84.189275 
L 196.95 -85.517656 
L 196.175 -84.961615 
L 195.4 -86.250503 
L 194.625 -81.535157 
L 193.85 -86.78777 
L 193.075 -87.093065 
L 192.3 -92.754466 
L 191.525 -88.625841 
L 190.75 -85.875546 
L 189.975 -83.714486 
L 189.2 -74.965535 
L 188.425 -85.174746 
L 187.65 -88.491925 
L 186.875 -88.669295 
L 186.1 -90.021637 
L 185.325 -85.447356 
L 184.55 -90.899931 
L 183.775 -93.24315 
L 183 -94.772473 
L 182.225 -88.288538 
L 181.45 -88.698545 
L 180.675 -86.009784 
L 179.9 -85.98535 
L 179.125 -90.657852 
L 178.35 -82.619267 
L 177.575 -78.816655 
L 176.8 -86.599032 
L 176.025 -82.883731 
L 175.25 -81.793086 
L 174.475 -87.785463 
L 173.7 -84.505777 
L 172.925 -84.822876 
L 172.15 -86.933266 
L 171.375 -82.572824 
L 170.6 -82.441925 
L 169.825 -86.991359 
L 169.05 -74.5442 
L 168.275 -81.86125 
L 167.5 -77.798592 
L 166.725 -83.638486 
L 165.95 -80.102887 
L 165.175 -85.393364 
L 164.4 -89.329366 
L 163.625 -88.552277 
L 162.85 -87.16941 
L 162.075 -84.685884 
L 161.3 -84.102644 
L 160.525 -81.520053 
L 159.75 -84.041729 
L 158.975 -71.774084 
L 158.2 -84.21201 
L 157.425 -81.287831 
L 156.65 -79.385771 
L 155.875 -73.708959 
L 155.1 -70.67869 
L 154.325 -62.519973 
L 153.55 -62.64831 
L 152.775 -59.282734 
L 152 -57.354545 
L 151.225 -65.992609 
L 150.45 -59.231497 
L 149.675 -70.398598 
L 148.9 -64.907614 
L 148.125 -67.418795 
L 147.35 -64.361964 
L 146.575 -64.743784 
L 145.8 -70.800093 
L 145.025 -60.375306 
L 144.25 -68.254756 
L 143.475 -59.23997 
L 142.7 -67.892766 
L 141.925 -64.185713 
L 141.15 -66.046503 
L 140.375 -65.455296 
L 139.6 -68.83965 
L 138.825 -57.706455 
L 138.05 -66.349859 
L 137.275 -62.078979 
L 136.5 -60.158573 
L 135.725 -64.76163 
L 134.95 -61.419228 
L 134.175 -63.285573 
L 133.4 -59.587768 
L 132.625 -62.620798 
L 131.85 -68.241745 
L 131.075 -66.752339 
L 130.3 -75.039836 
L 129.525 -80.637611 
L 128.75 -78.544779 
L 127.975 -77.729436 
L 127.2 -72.397175 
L 126.425 -86.002656 
L 125.65 -79.921825 
L 124.875 -72.344994 
L 124.1 -76.249406 
L 123.325 -77.367925 
L 122.55 -81.097618 
L 121.775 -81.384508 
L 121 -81.101981 
L 120.225 -72.339207 
L 119.45 -76.233884 
L 118.675 -68.68064 
L 117.9 -84.719903 
L 117.125 -80.787678 
L 116.35 -88.63604 
L 115.575 -73.00625 
L 114.8 -73.775544 
L 114.025 -77.679422 
L 113.25 -70.682566 
L 112.475 -84.921919 
L 111.7 -73.573613 
L 110.925 -68.608954 
L 110.15 -84.472019 
L 109.375 -81.988857 
L 108.6 -78.313127 
L 107.825 -81.130439 
L 107.05 -78.133544 
L 106.275 -90.233628 
L 105.5 -88.880737 
L 104.725 -95.159714 
L 103.95 -83.034769 
L 103.175 -90.25959 
L 102.4 -86.725542 
L 101.625 -82.078439 
L 100.85 -81.553636 
L 100.075 -90.572533 
L 99.3 -80.290979 
L 98.525 -80.371534 
L 97.75 -84.473351 
L 96.975 -86.071795 
L 96.2 -82.741929 
L 95.425 -86.977866 
L 94.65 -82.51294 
L 93.875 -92.36537 
L 93.1 -79.155159 
L 92.325 -82.869754 
L 91.55 -90.839778 
L 90.775 -95.955516 
L 90 -89.831118 
z
" id="mc967226191" style="stroke:#c44e52;stroke-opacity:0.1;stroke-width:0.8;"/>
    </defs>
    <g clip-path="url(#pe9d4ca739c)">
     <use style="fill:#c44e52;fill-opacity:0.1;stroke:#c44e52;stroke-opacity:0.1;stroke-width:0.8;" x="0" xlink:href="#mc967226191" y="360"/>
    </g>
   </g>
   <g id="line2d_16">
    <path clip-path="url(#pe9d4ca739c)" d="M 90 86.878726 
L 90.775 87.359404 
L 91.55 87.159121 
L 92.325 86.277878 
L 93.1 87.159121 
L 93.875 89.762794 
L 95.425 87.479573 
L 96.2 88.280703 
L 96.975 87.759969 
L 97.75 92.767031 
L 98.525 90.523867 
L 99.3 89.081833 
L 100.075 91.004545 
L 100.85 92.486635 
L 101.625 92.406522 
L 102.4 91.124715 
L 103.175 90.403698 
L 103.95 90.083246 
L 104.725 90.764206 
L 105.5 91.885788 
L 106.275 95.971551 
L 107.05 92.326409 
L 107.825 93.888613 
L 108.6 91.324997 
L 109.375 94.729799 
L 110.15 95.090308 
L 110.925 92.08607 
L 112.475 92.646861 
L 113.25 93.8085 
L 114.025 94.048839 
L 114.8 96.772681 
L 115.575 95.570986 
L 116.35 96.412172 
L 117.125 94.329234 
L 117.9 94.249121 
L 118.675 94.529517 
L 119.45 93.8085 
L 120.225 96.572398 
L 121 95.851381 
L 121.775 94.970138 
L 122.55 93.568161 
L 123.325 95.611042 
L 124.1 94.890025 
L 124.875 96.692568 
L 125.65 97.053076 
L 127.2 96.011607 
L 127.975 95.250534 
L 128.75 96.051664 
L 129.525 97.533754 
L 130.3 98.775505 
L 131.075 98.855618 
L 131.85 96.89285 
L 132.625 97.213302 
L 133.4 96.09172 
L 134.175 95.971551 
L 134.95 95.570986 
L 135.725 93.768443 
L 136.5 93.447991 
L 137.275 95.41076 
L 138.825 95.050251 
L 139.6 95.130364 
L 140.375 94.329234 
L 141.925 93.287765 
L 142.7 94.008782 
L 143.475 94.970138 
L 144.25 94.169008 
L 145.025 92.526692 
L 145.8 94.249121 
L 146.575 94.048839 
L 147.35 94.249121 
L 148.125 94.569573 
L 148.9 93.488048 
L 149.675 92.20624 
L 150.45 90.323585 
L 151.225 85.556862 
L 152 91.725562 
L 152.775 91.204828 
L 153.55 88.601155 
L 154.325 87.880138 
L 155.1 87.759969 
L 155.875 88.561099 
L 156.65 88.400873 
L 157.425 90.163359 
L 158.2 87.038952 
L 158.975 87.51963 
L 159.75 86.678443 
L 160.525 88.841494 
L 161.3 89.602568 
L 162.075 88.20059 
L 162.85 88.681268 
L 163.625 86.878726 
L 164.4 86.958839 
L 165.175 88.440929 
L 165.95 84.355167 
L 166.725 87.038952 
L 167.5 86.197765 
L 168.275 86.558274 
L 169.05 85.436692 
L 169.825 86.197765 
L 170.6 86.077596 
L 171.375 85.356579 
L 172.15 85.276466 
L 172.925 84.355167 
L 173.7 83.954602 
L 174.475 87.079008 
L 175.25 82.953189 
L 176.025 83.273641 
L 176.8 83.393811 
L 177.575 84.595506 
L 178.35 85.356579 
L 179.125 84.074771 
L 179.9 83.393811 
L 180.675 82.112003 
L 182.225 82.192116 
L 183.775 81.671381 
L 184.55 81.551212 
L 186.1 82.112003 
L 186.875 77.946127 
L 187.65 76.784489 
L 188.425 80.790138 
L 189.2 79.748669 
L 189.975 84.675619 
L 190.75 79.428218 
L 191.525 78.346692 
L 192.3 80.42963 
L 193.075 77.866014 
L 193.85 76.54415 
L 194.625 76.063472 
L 195.4 78.306636 
L 196.175 76.824545 
L 196.95 75.903246 
L 197.725 74.541325 
L 198.5 75.702963 
L 199.275 76.143585 
L 200.05 74.621438 
L 200.825 75.542737 
L 201.6 74.701551 
L 202.375 76.263754 
L 203.15 76.584206 
L 203.925 79.388161 
L 204.7 78.94754 
L 205.475 78.346692 
L 206.25 77.465449 
L 207.025 75.302398 
L 207.8 75.382511 
L 208.575 75.863189 
L 209.35 65.4485 
L 210.125 72.5385 
L 210.9 73.219461 
L 211.675 77.946127 
L 212.45 79.267992 
L 214 74.741607 
L 214.775 70.175167 
L 215.55 73.900421 
L 216.325 73.059235 
L 217.1 69.293924 
L 217.875 70.896184 
L 218.65 71.577144 
L 219.425 69.654432 
L 220.2 73.259517 
L 220.975 73.459799 
L 221.75 71.256692 
L 222.525 72.418331 
L 223.3 69.934828 
L 224.075 64.527201 
L 224.85 67.251043 
L 225.625 68.412681 
L 226.4 73.620025 
L 227.175 76.944715 
L 227.95 76.664319 
L 228.725 73.620025 
L 229.5 73.459799 
L 230.275 74.621438 
L 231.05 74.741607 
L 231.825 68.412681 
L 232.6 71.416918 
L 233.375 72.137935 
L 234.925 72.498444 
L 235.7 74.861777 
L 236.475 76.784489 
L 237.25 74.981946 
L 238.025 74.100703 
L 238.8 72.378274 
L 239.575 71.85754 
L 240.35 74.02059 
L 241.125 72.818896 
L 241.9 76.664319 
L 242.675 74.861777 
L 243.45 71.937653 
L 244.225 71.657257 
L 245 73.059235 
L 245.775 73.740195 
L 246.55 71.376862 
L 247.325 72.298161 
L 248.1 72.418331 
L 248.875 71.537088 
L 249.65 71.897596 
L 250.425 71.376862 
L 251.2 72.258105 
L 251.975 70.535675 
L 252.75 72.899009 
L 253.525 71.497031 
L 254.3 67.491381 
L 255.075 67.130873 
L 255.85 67.130873 
L 256.625 65.288274 
L 257.4 66.009291 
L 258.175 66.24963 
L 258.95 66.129461 
L 259.725 65.608726 
L 260.5 66.449913 
L 261.275 64.727483 
L 262.05 64.727483 
L 262.825 66.049348 
L 263.6 66.489969 
L 264.375 61.002229 
L 265.15 57.437201 
L 265.925 62.163867 
L 266.7 63.525788 
L 267.475 67.010704 
L 268.25 65.608726 
L 269.025 64.487144 
L 269.8 65.208161 
L 270.575 60.521551 
L 271.35 61.643133 
L 272.125 61.803359 
L 272.9 64.64737 
L 273.675 63.686014 
L 274.45 63.726071 
L 275.225 66.449913 
L 276 66.3698 
L 276.775 67.010704 
L 277.55 64.366975 
L 278.325 64.366975 
L 279.1 66.850478 
L 279.875 60.000817 
L 280.65 59.600252 
L 281.425 56.716184 
L 282.2 59.15963 
L 282.975 56.355675 
L 283.75 62.564432 
L 284.525 66.169517 
L 285.3 63.205336 
L 286.075 60.962173 
L 286.85 59.920704 
L 287.625 60.681777 
L 288.4 60.201099 
L 289.175 62.003641 
L 289.95 60.922116 
L 290.725 61.402794 
L 291.5 64.847653 
L 292.275 60.842003 
L 293.05 61.44285 
L 293.825 60.601664 
L 294.6 60.321269 
L 295.375 61.56302 
L 296.15 58.078105 
L 296.925 56.355675 
L 297.7 58.038048 
L 298.475 57.317031 
L 300.025 61.522963 
L 300.8 62.964997 
L 301.575 61.082342 
L 302.35 55.554545 
L 303.125 58.038048 
L 303.9 59.359913 
L 304.675 62.684602 
L 305.45 63.445675 
L 306.225 63.645958 
L 307 65.768952 
L 307.775 63.205336 
L 308.55 62.083754 
L 309.325 62.644545 
L 310.1 61.603076 
L 310.875 61.603076 
L 311.65 63.766127 
L 312.425 65.168105 
L 313.2 63.726071 
L 313.975 66.009291 
L 314.75 64.366975 
L 315.525 63.605901 
L 317.075 64.326918 
L 317.85 63.245393 
L 318.625 66.850478 
L 319.4 65.56867 
L 320.175 64.927766 
L 320.95 66.570082 
L 321.725 65.248218 
L 322.5 66.890534 
L 323.275 67.691664 
L 324.825 67.932003 
L 325.6 67.691664 
L 326.375 68.332568 
L 327.925 67.73172 
L 328.7 66.970647 
L 329.475 69.974884 
L 330.25 67.771777 
L 331.025 66.610139 
L 331.8 68.332568 
L 332.575 75.62285 
L 333.35 70.375449 
L 334.125 68.092229 
L 334.9 68.052172 
L 335.675 72.057822 
L 337.225 73.379687 
L 338 72.858952 
L 338.775 72.618613 
L 339.55 71.977709 
L 340.325 75.582794 
L 341.1 72.858952 
L 341.875 73.579969 
L 342.65 76.42398 
L 343.425 75.422568 
L 344.2 73.940477 
L 344.975 73.980534 
L 345.75 73.139348 
L 346.525 83.313698 
L 347.3 75.542737 
L 348.075 75.382511 
L 348.85 74.260929 
L 349.625 77.625675 
L 350.4 77.425393 
L 351.175 75.783076 
L 351.95 78.667144 
L 352.725 79.267992 
L 353.5 77.305223 
L 354.275 77.585619 
L 355.05 78.707201 
L 355.825 78.546975 
L 356.6 80.109178 
L 357.375 80.269404 
L 358.15 79.067709 
L 358.925 78.546975 
L 359.7 80.029065 
L 360.475 81.030477 
L 361.25 78.987596 
L 362.025 80.910308 
L 362.8 82.472511 
L 363.575 82.552624 
L 364.35 81.11059 
L 365.125 81.270816 
L 365.9 83.113415 
L 366.675 81.150647 
L 367.45 81.471099 
L 368.225 82.112003 
L 368.225 82.112003 
" style="fill:none;stroke:#4c72b0;stroke-linecap:round;stroke-width:1.2;"/>
   </g>
   <g id="line2d_17">
    <path clip-path="url(#pe9d4ca739c)" d="M 90 244.681618 
L 90.775 249.026491 
L 91.55 248.849117 
L 92.325 254.573743 
L 93.1 254.93167 
L 93.875 252.51432 
L 94.65 254.3784 
L 95.425 254.098953 
L 96.2 251.14019 
L 96.975 255.230309 
L 97.75 255.263192 
L 98.525 256.993538 
L 99.3 257.013097 
L 100.075 251.121487 
L 100.85 254.822141 
L 101.625 256.988404 
L 102.4 254.370821 
L 103.175 253.321489 
L 103.95 254.254812 
L 104.725 253.715844 
L 105.5 255.226642 
L 106.275 252.036962 
L 107.05 253.342759 
L 108.6 260.872544 
L 109.375 258.498468 
L 110.15 259.606477 
L 110.925 265.90051 
L 111.7 259.206987 
L 112.475 259.276666 
L 113.25 264.467948 
L 114.025 263.99169 
L 114.8 262.413536 
L 115.575 263.111665 
L 116.35 258.488567 
L 117.125 259.513205 
L 117.9 256.058993 
L 118.675 262.496295 
L 119.45 260.12173 
L 120.225 261.259076 
L 121 265.488797 
L 121.775 257.71257 
L 122.55 259.149167 
L 123.325 256.58647 
L 124.1 259.328863 
L 124.875 263.779232 
L 125.65 260.717541 
L 126.425 259.256985 
L 127.2 267.453848 
L 127.975 259.913061 
L 128.75 259.443771 
L 129.525 260.215001 
L 130.3 259.801576 
L 131.075 268.594006 
L 131.85 268.514182 
L 132.625 271.227237 
L 133.4 269.771326 
L 134.175 274.609571 
L 134.95 274.613972 
L 135.725 275.210272 
L 136.5 273.391422 
L 137.275 276.909568 
L 138.05 276.009006 
L 138.825 279.515661 
L 139.6 273.493862 
L 140.375 276.471328 
L 141.15 275.554507 
L 141.925 271.663643 
L 142.7 272.536457 
L 144.25 275.265892 
L 145.025 274.913833 
L 145.8 271.641518 
L 147.35 266.859382 
L 148.125 273.310986 
L 148.9 272.889127 
L 149.675 274.454812 
L 150.45 277.563566 
L 151.225 277.762089 
L 152 278.585393 
L 152.775 279.816622 
L 153.55 278.15351 
L 154.325 277.232289 
L 155.1 264.809983 
L 155.875 260.481001 
L 156.65 258.892457 
L 157.425 256.115713 
L 158.2 255.883452 
L 158.975 252.719933 
L 159.75 257.4929 
L 160.525 258.600297 
L 161.3 255.351452 
L 162.075 254.695986 
L 162.85 252.285604 
L 163.625 253.407181 
L 164.4 253.821095 
L 165.175 252.820538 
L 165.95 255.081051 
L 166.725 255.480418 
L 167.5 255.480173 
L 168.275 254.922502 
L 169.05 259.194274 
L 170.6 251.728422 
L 171.375 254.796592 
L 172.15 255.950197 
L 172.925 258.519616 
L 173.7 254.448567 
L 175.25 254.813095 
L 176.025 256.333428 
L 176.8 254.209705 
L 177.575 254.55394 
L 178.35 255.607795 
L 179.125 250.491692 
L 179.9 251.939168 
L 180.675 255.115523 
L 182.225 250.868811 
L 183 247.904792 
L 183.775 251.328566 
L 184.55 248.650961 
L 185.325 249.689413 
L 186.1 250.16506 
L 186.875 249.454463 
L 187.65 249.59602 
L 188.425 253.429429 
L 189.2 249.652863 
L 189.975 250.989953 
L 190.75 251.376974 
L 191.525 249.997954 
L 192.3 249.010966 
L 193.075 255.172855 
L 193.85 252.860389 
L 194.625 251.718398 
L 195.4 252.060555 
L 196.175 248.485811 
L 196.95 250.897293 
L 197.725 251.308151 
L 198.5 252.777631 
L 199.275 251.510707 
L 200.05 247.306169 
L 200.825 248.687634 
L 201.6 248.748389 
L 202.375 251.944669 
L 203.15 247.768369 
L 203.925 250.490592 
L 204.7 249.377572 
L 205.475 249.859942 
L 206.25 249.391385 
L 207.025 252.453688 
L 207.8 251.279302 
L 209.35 246.320281 
L 210.125 252.171674 
L 210.9 250.033404 
L 211.675 250.683246 
L 212.45 251.614369 
L 213.225 248.130574 
L 214 247.615687 
L 214.775 248.366013 
L 215.55 248.736042 
L 216.325 253.730391 
L 217.1 250.217257 
L 217.875 248.031313 
L 218.65 245.449546 
L 219.425 246.833701 
L 220.2 250.501594 
L 220.975 250.772606 
L 221.75 249.759703 
L 222.525 249.866176 
L 223.3 247.940853 
L 224.075 248.726752 
L 224.85 247.441614 
L 225.625 247.130384 
L 226.4 250.060664 
L 227.175 245.127315 
L 227.95 251.186642 
L 228.725 249.961036 
L 229.5 250.133643 
L 230.275 252.342447 
L 231.05 245.852092 
L 231.825 248.480188 
L 232.6 248.815867 
L 233.375 249.53991 
L 234.15 249.838427 
L 234.925 249.23956 
L 235.7 249.53062 
L 236.475 248.671742 
L 237.25 249.402509 
L 238.8 247.105935 
L 239.575 251.098749 
L 240.35 247.724239 
L 241.125 247.9554 
L 241.9 252.330834 
L 242.675 248.428357 
L 243.45 252.502463 
L 244.225 249.605432 
L 245 247.341497 
L 245.775 251.573296 
L 246.55 249.790141 
L 247.325 246.700089 
L 248.1 248.416011 
L 248.875 252.99669 
L 249.65 250.056264 
L 250.425 247.848071 
L 251.2 242.466946 
L 251.975 246.167845 
L 252.75 248.309782 
L 253.525 246.118092 
L 254.3 244.638955 
L 255.075 244.300342 
L 255.85 243.262624 
L 256.625 245.368866 
L 257.4 248.827235 
L 258.175 251.100461 
L 258.95 249.917274 
L 259.725 246.781748 
L 260.5 246.500345 
L 261.275 248.466741 
L 262.05 248.948378 
L 262.825 244.237876 
L 263.6 246.457071 
L 264.375 244.18849 
L 265.15 245.233299 
L 265.925 252.346359 
L 266.7 244.190813 
L 267.475 246.535184 
L 268.25 248.521751 
L 269.8 243.635464 
L 270.575 246.730528 
L 271.35 248.869776 
L 272.125 245.535605 
L 272.9 246.10819 
L 273.675 247.075619 
L 274.45 249.076488 
L 275.225 246.738596 
L 276 252.070579 
L 276.775 245.467638 
L 277.55 248.685556 
L 278.325 246.769523 
L 279.875 244.442755 
L 280.65 246.899101 
L 281.425 248.097446 
L 282.2 249.822291 
L 282.975 248.264307 
L 283.75 248.11456 
L 284.525 246.481397 
L 285.3 246.742385 
L 286.075 249.831704 
L 286.85 249.264253 
L 287.625 244.230909 
L 288.4 246.190093 
L 289.175 249.553724 
L 289.95 242.673047 
L 290.725 243.914055 
L 291.5 246.186792 
L 293.05 244.352907 
L 293.825 248.629324 
L 294.6 250.114451 
L 295.375 247.900758 
L 296.925 249.007788 
L 297.7 244.879529 
L 298.475 244.025908 
L 299.25 246.73175 
L 300.025 246.837368 
L 300.8 244.352051 
L 301.575 245.48683 
L 302.35 248.37726 
L 303.125 248.220422 
L 303.9 250.323119 
L 304.675 247.371202 
L 305.45 249.426591 
L 306.225 245.722148 
L 307 244.566709 
L 307.775 247.376703 
L 308.55 242.828418 
L 309.325 243.488895 
L 310.1 247.358489 
L 310.875 241.750726 
L 311.65 245.168266 
L 312.425 246.520882 
L 313.2 243.863936 
L 313.975 246.124448 
L 314.75 242.726101 
L 315.525 246.928683 
L 316.3 247.002029 
L 317.85 250.601466 
L 318.625 246.582981 
L 319.4 247.471563 
L 320.175 250.346223 
L 320.95 244.282373 
L 321.725 249.747234 
L 322.5 244.799093 
L 323.275 244.605338 
L 324.05 246.949831 
L 324.825 246.03839 
L 325.6 244.347895 
L 326.375 248.585317 
L 327.15 245.10311 
L 327.925 247.11657 
L 328.7 244.359263 
L 329.475 246.212952 
L 330.25 245.501744 
L 331.025 245.872139 
L 333.35 248.394496 
L 334.125 248.687267 
L 334.9 247.125494 
L 335.675 241.511986 
L 336.45 243.117033 
L 337.225 245.477662 
L 338 248.838481 
L 338.775 245.470205 
L 339.55 247.602241 
L 340.325 248.584339 
L 341.1 247.092611 
L 341.875 246.167967 
L 342.65 248.13583 
L 343.425 248.338386 
L 344.2 250.000276 
L 346.525 247.742453 
L 347.3 244.664748 
L 348.075 249.40581 
L 348.85 245.895121 
L 349.625 248.611843 
L 350.4 252.475569 
L 351.175 250.725176 
L 351.95 249.901504 
L 353.5 252.502096 
L 354.275 250.229481 
L 355.05 249.480378 
L 356.6 248.752423 
L 357.375 251.966795 
L 358.15 250.238894 
L 358.925 249.107293 
L 359.7 248.56478 
L 360.475 247.636224 
L 361.25 246.414286 
L 362.025 244.688341 
L 362.8 244.923291 
L 363.575 244.702032 
L 364.35 247.898557 
L 365.125 249.189929 
L 365.9 248.236803 
L 366.675 251.522443 
L 367.45 252.844376 
L 368.225 256.4344 
L 369 254.890108 
L 369.775 256.412396 
L 370.55 256.814208 
L 371.325 255.577845 
L 372.1 254.029152 
L 372.875 253.639076 
L 373.65 256.435745 
L 374.425 254.030741 
L 375.2 255.909734 
L 375.975 258.488689 
L 376.75 253.808993 
L 377.525 256.215708 
L 378.3 254.340749 
L 379.075 254.517879 
L 379.85 253.429674 
L 380.625 251.578552 
L 381.4 256.513736 
L 382.175 253.361829 
L 383.725 255.575889 
L 384.5 253.965586 
L 385.275 255.130681 
L 386.05 251.656788 
L 386.825 254.256035 
L 387.6 252.952071 
L 388.375 249.893558 
L 389.15 251.18383 
L 389.925 255.600705 
L 390.7 253.69543 
L 391.475 258.960668 
L 392.25 257.979304 
L 393.025 260.549457 
L 393.8 259.091712 
L 394.575 258.287355 
L 395.35 258.333685 
L 396.125 259.709038 
L 396.9 262.436273 
L 397.675 262.655577 
L 398.45 259.689479 
L 400 267.739774 
L 400.775 264.395458 
L 401.55 262.362928 
L 402.325 262.003412 
L 403.1 259.996798 
L 403.875 261.761371 
L 404.65 261.239273 
L 405.425 264.764997 
L 406.2 260.548723 
L 406.975 261.537667 
L 407.75 261.50185 
L 408.525 266.846913 
L 409.3 263.796224 
L 410.075 262.484926 
L 410.85 262.207802 
L 411.625 264.637498 
L 412.4 264.189234 
L 413.175 262.73369 
L 413.95 258.871187 
L 414.725 268.178137 
L 416.275 270.218123 
L 417.05 276.711779 
L 417.825 274.797336 
L 418.6 275.919524 
L 419.375 274.578644 
L 420.15 272.278524 
L 420.925 271.623548 
L 421.7 275.568198 
L 422.475 276.739528 
L 423.25 274.840243 
L 424.025 273.702774 
L 425.575 275.466981 
L 426.35 273.309642 
L 427.125 277.444502 
L 427.9 275.242299 
L 428.675 275.183012 
L 429.45 278.831346 
L 430.225 276.37879 
L 431 275.172499 
L 431.775 273.708642 
L 432.55 274.223039 
L 433.325 275.713912 
L 434.1 275.395103 
L 434.875 275.710856 
L 435.65 275.825397 
L 436.425 275.810361 
L 437.2 273.302796 
L 437.975 272.257499 
L 438.75 261.428627 
L 439.525 259.532642 
L 440.3 260.738444 
L 441.075 254.389646 
L 441.85 256.14224 
L 442.625 255.900444 
L 443.4 251.207912 
L 444.175 259.293046 
L 444.95 253.708632 
L 445.725 254.547828 
L 446.5 257.171035 
L 447.275 255.518558 
L 448.05 257.575047 
L 448.825 256.294065 
L 449.6 255.398026 
L 450.375 255.003916 
L 451.15 258.550666 
L 451.925 256.874229 
L 452.7 256.744774 
L 453.475 255.143517 
L 454.25 251.676102 
L 455.025 254.987168 
L 455.8 256.834623 
L 456.575 252.347214 
L 457.35 254.104454 
L 458.125 254.133547 
L 458.9 254.661758 
L 459.675 256.188814 
L 461.225 252.874325 
L 462 254.849034 
L 462.775 250.647429 
L 463.55 252.249054 
L 464.325 251.376485 
L 465.1 246.42321 
L 466.65 253.57392 
L 467.425 245.587069 
L 468.2 251.972907 
L 468.975 250.761604 
L 469.75 254.82862 
L 470.525 252.049187 
L 471.3 252.978231 
L 472.075 248.608543 
L 472.85 252.363962 
L 473.625 251.87768 
L 474.4 255.172366 
L 475.175 250.361504 
L 475.95 249.726697 
L 476.725 250.112006 
L 477.5 248.898258 
L 478.275 249.441016 
L 479.05 251.527577 
L 479.825 254.951962 
L 480.6 248.857307 
L 481.375 249.921797 
L 482.925 251.533078 
L 483.7 250.042206 
L 484.475 250.296593 
L 485.25 251.242629 
L 486.025 251.868512 
L 486.8 250.084257 
L 487.575 249.508127 
L 488.35 251.592855 
L 489.125 252.007746 
L 489.9 252.040996 
L 490.675 252.755994 
L 491.45 251.927922 
L 492.225 251.406923 
L 493 251.147769 
L 493.775 254.706744 
L 494.55 254.348572 
L 495.325 254.844756 
L 496.1 249.058396 
L 496.875 246.872085 
L 497.65 249.588318 
L 498.425 247.327561 
L 499.975 252.981165 
L 500.75 247.055694 
L 501.525 249.970694 
L 502.3 248.671742 
L 503.075 250.01409 
L 503.85 253.454367 
L 504.625 247.649304 
L 505.4 247.763234 
L 506.175 246.41832 
L 506.95 247.481343 
L 507.725 244.872194 
L 508.5 248.275431 
L 509.275 248.930164 
L 510.05 246.235689 
L 510.825 246.057093 
L 511.6 250.262731 
L 512.375 250.90964 
L 513.15 250.391575 
L 513.925 247.934374 
L 514.7 249.891358 
L 515.475 249.369993 
L 516.25 253.880505 
L 517.025 248.424079 
L 517.8 249.159735 
L 518.575 246.411597 
L 519.35 246.616475 
L 520.125 249.46632 
L 520.9 247.71556 
L 521.675 247.444425 
L 522.45 249.955413 
L 523.225 248.613677 
L 524 246.874897 
L 524.775 253.013682 
L 525.55 251.605079 
L 526.325 249.764959 
L 527.1 250.290114 
L 527.875 246.900568 
L 528.65 250.078267 
L 529.425 248.112849 
L 530.2 248.346332 
L 530.975 247.536352 
L 531.75 249.382584 
L 532.525 248.070308 
L 533.3 248.64216 
L 534.075 243.527402 
L 534.85 247.287955 
L 535.625 245.411529 
L 536.4 244.10292 
L 537.175 246.674174 
L 537.95 246.103912 
L 538.725 251.504229 
L 539.5 243.586323 
L 540.275 247.020365 
L 541.05 245.738161 
L 541.825 246.653882 
L 542.6 245.285986 
L 543.375 249.46412 
L 544.15 245.959421 
L 544.925 248.048671 
L 545.7 246.521737 
L 546.475 245.794026 
L 547.25 249.992453 
L 548.025 249.846128 
L 548.8 246.085575 
L 549.575 247.906503 
L 550.35 250.445729 
L 551.125 248.117983 
L 551.9 244.645923 
L 552.675 247.906747 
L 553.45 244.138371 
L 554.225 244.483462 
L 555 243.26947 
L 555.775 247.112903 
L 556.55 245.991693 
L 557.325 248.746188 
L 558.1 247.496379 
L 558.875 248.777482 
L 559.65 246.468806 
L 560.425 241.34158 
L 561.2 245.594893 
L 561.975 244.816818 
L 562.75 247.729129 
L 563.525 245.125114 
L 564.3 248.484467 
L 565.075 249.63037 
L 565.85 246.960222 
L 566.625 246.887854 
L 567.4 246.419542 
L 568.175 249.005221 
L 568.95 252.946571 
L 569.725 249.045316 
L 570.5 245.819208 
L 571.275 244.036787 
L 572.05 249.110227 
L 572.825 251.591143 
L 573.6 252.854277 
L 574.375 245.868594 
L 575.15 251.159993 
L 575.925 244.248878 
L 576.7 242.429662 
L 577.475 247.478898 
L 578.25 248.885667 
L 579.025 245.96321 
L 579.8 246.821232 
L 580.575 249.126852 
L 581.35 244.835766 
L 582.125 250.072033 
L 582.9 244.558152 
L 583.675 248.536664 
L 584.45 245.41104 
L 585.225 250.117263 
L 586 246.890544 
L 586.775 248.731275 
L 587.55 244.697509 
L 588.325 243.468481 
L 589.1 245.721047 
L 589.875 244.994803 
L 590.65 245.694399 
L 591.425 245.071327 
L 592.2 248.143287 
L 592.975 244.507788 
L 593.75 246.204028 
L 594.525 244.136293 
L 595.3 247.130384 
L 596.075 252.214459 
L 596.85 242.961173 
L 597.625 247.678642 
L 598.4 244.424052 
L 599.175 247.792939 
L 599.95 244.901043 
L 600.725 246.485798 
L 601.5 246.484331 
L 602.275 242.588944 
L 603.05 249.584651 
L 603.825 247.771425 
L 604.6 247.846848 
L 605.375 248.133752 
L 606.15 246.494477 
L 606.925 247.435013 
L 607.7 244.303521 
L 608.475 243.500997 
L 609.25 243.204314 
L 610.025 247.213631 
L 610.8 241.387176 
L 611.575 250.02118 
L 612.35 246.826122 
L 613.125 245.10091 
L 613.9 246.174201 
L 614.675 245.22083 
L 615.45 249.267309 
L 616.225 250.949736 
L 617 246.410741 
L 617.775 246.920738 
L 618.55 247.739153 
L 619.325 247.343208 
L 620.1 249.329286 
L 621.65 246.663417 
L 622.425 245.06436 
L 623.2 248.400608 
L 624.75 246.023843 
L 625.525 246.204517 
L 626.3 251.361938 
L 627.075 248.019455 
L 627.85 252.14967 
L 628.625 246.45157 
L 629.4 245.368499 
L 630.175 249.176116 
L 630.95 250.08059 
L 631.725 247.546376 
L 632.5 248.52224 
L 633.275 256.159843 
L 634.05 255.072127 
L 634.825 248.583728 
L 635.6 251.870468 
L 636.375 244.915835 
L 637.15 246.802773 
L 637.925 249.867643 
L 638.7 250.330332 
L 639.475 246.772457 
L 640.25 246.135206 
L 641.025 246.474796 
L 641.8 251.544691 
L 642.575 249.453851 
L 643.35 250.806834 
L 644.125 250.500738 
L 644.9 250.434483 
L 645.675 246.233 
L 646.45 249.128441 
L 647.225 249.27611 
L 647.225 249.27611 
" style="fill:none;stroke:#c44e52;stroke-linecap:round;stroke-width:1.2;"/>
   </g>
   <g id="line2d_18">
    <path clip-path="url(#pe9d4ca739c)" d="M 369 315 
L 369 43.2 
" style="fill:none;stroke:#c44e52;stroke-dasharray:4.44,1.92;stroke-dashoffset:0;stroke-width:1.2;"/>
   </g>
   <g id="patch_3">
    <path d="M 90 315 
L 90 43.2 
" style="fill:none;stroke:#262626;stroke-linecap:square;stroke-linejoin:miter;"/>
   </g>
   <g id="patch_4">
    <path d="M 648 315 
L 648 43.2 
" style="fill:none;stroke:#262626;stroke-linecap:square;stroke-linejoin:miter;"/>
   </g>
   <g id="patch_5">
    <path d="M 90 315 
L 648 315 
" style="fill:none;stroke:#262626;stroke-linecap:square;stroke-linejoin:miter;"/>
   </g>
   <g id="patch_6">
    <path d="M 90 43.2 
L 648 43.2 
" style="fill:none;stroke:#262626;stroke-linecap:square;stroke-linejoin:miter;"/>
   </g>
   <g id="text_18">
    <!-- False Prophet Mean Absolute Error 43.7324 -->
    <g style="fill:#262626;" transform="translate(250.038437 37.2)scale(0.11 -0.11)">
     <defs>
      <path d="M 9.8125 72.90625 
L 51.703125 72.90625 
L 51.703125 64.59375 
L 19.671875 64.59375 
L 19.671875 43.109375 
L 48.578125 43.109375 
L 48.578125 34.8125 
L 19.671875 34.8125 
L 19.671875 0 
L 9.8125 0 
z
" id="DejaVuSans-70"/>
      <path d="M 34.28125 27.484375 
Q 23.390625 27.484375 19.1875 25 
Q 14.984375 22.515625 14.984375 16.5 
Q 14.984375 11.71875 18.140625 8.90625 
Q 21.296875 6.109375 26.703125 6.109375 
Q 34.1875 6.109375 38.703125 11.40625 
Q 43.21875 16.703125 43.21875 25.484375 
L 43.21875 27.484375 
z
M 52.203125 31.203125 
L 52.203125 0 
L 43.21875 0 
L 43.21875 8.296875 
Q 40.140625 3.328125 35.546875 0.953125 
Q 30.953125 -1.421875 24.3125 -1.421875 
Q 15.921875 -1.421875 10.953125 3.296875 
Q 6 8.015625 6 15.921875 
Q 6 25.140625 12.171875 29.828125 
Q 18.359375 34.515625 30.609375 34.515625 
L 43.21875 34.515625 
L 43.21875 35.40625 
Q 43.21875 41.609375 39.140625 45 
Q 35.0625 48.390625 27.6875 48.390625 
Q 23 48.390625 18.546875 47.265625 
Q 14.109375 46.140625 10.015625 43.890625 
L 10.015625 52.203125 
Q 14.9375 54.109375 19.578125 55.046875 
Q 24.21875 56 28.609375 56 
Q 40.484375 56 46.34375 49.84375 
Q 52.203125 43.703125 52.203125 31.203125 
z
" id="DejaVuSans-97"/>
      <path d="M 9.421875 75.984375 
L 18.40625 75.984375 
L 18.40625 0 
L 9.421875 0 
z
" id="DejaVuSans-108"/>
      <path d="M 44.28125 53.078125 
L 44.28125 44.578125 
Q 40.484375 46.53125 36.375 47.5 
Q 32.28125 48.484375 27.875 48.484375 
Q 21.1875 48.484375 17.84375 46.4375 
Q 14.5 44.390625 14.5 40.28125 
Q 14.5 37.15625 16.890625 35.375 
Q 19.28125 33.59375 26.515625 31.984375 
L 29.59375 31.296875 
Q 39.15625 29.25 43.1875 25.515625 
Q 47.21875 21.78125 47.21875 15.09375 
Q 47.21875 7.46875 41.1875 3.015625 
Q 35.15625 -1.421875 24.609375 -1.421875 
Q 20.21875 -1.421875 15.453125 -0.5625 
Q 10.6875 0.296875 5.421875 2 
L 5.421875 11.28125 
Q 10.40625 8.6875 15.234375 7.390625 
Q 20.0625 6.109375 24.8125 6.109375 
Q 31.15625 6.109375 34.5625 8.28125 
Q 37.984375 10.453125 37.984375 14.40625 
Q 37.984375 18.0625 35.515625 20.015625 
Q 33.0625 21.96875 24.703125 23.78125 
L 21.578125 24.515625 
Q 13.234375 26.265625 9.515625 29.90625 
Q 5.8125 33.546875 5.8125 39.890625 
Q 5.8125 47.609375 11.28125 51.796875 
Q 16.75 56 26.8125 56 
Q 31.78125 56 36.171875 55.265625 
Q 40.578125 54.546875 44.28125 53.078125 
z
" id="DejaVuSans-115"/>
      <path id="DejaVuSans-32"/>
      <path d="M 19.671875 64.796875 
L 19.671875 37.40625 
L 32.078125 37.40625 
Q 38.96875 37.40625 42.71875 40.96875 
Q 46.484375 44.53125 46.484375 51.125 
Q 46.484375 57.671875 42.71875 61.234375 
Q 38.96875 64.796875 32.078125 64.796875 
z
M 9.8125 72.90625 
L 32.078125 72.90625 
Q 44.34375 72.90625 50.609375 67.359375 
Q 56.890625 61.8125 56.890625 51.125 
Q 56.890625 40.328125 50.609375 34.8125 
Q 44.34375 29.296875 32.078125 29.296875 
L 19.671875 29.296875 
L 19.671875 0 
L 9.8125 0 
z
" id="DejaVuSans-80"/>
      <path d="M 41.109375 46.296875 
Q 39.59375 47.171875 37.8125 47.578125 
Q 36.03125 48 33.890625 48 
Q 26.265625 48 22.1875 43.046875 
Q 18.109375 38.09375 18.109375 28.8125 
L 18.109375 0 
L 9.078125 0 
L 9.078125 54.6875 
L 18.109375 54.6875 
L 18.109375 46.1875 
Q 20.953125 51.171875 25.484375 53.578125 
Q 30.03125 56 36.53125 56 
Q 37.453125 56 38.578125 55.875 
Q 39.703125 55.765625 41.0625 55.515625 
z
" id="DejaVuSans-114"/>
      <path d="M 30.609375 48.390625 
Q 23.390625 48.390625 19.1875 42.75 
Q 14.984375 37.109375 14.984375 27.296875 
Q 14.984375 17.484375 19.15625 11.84375 
Q 23.34375 6.203125 30.609375 6.203125 
Q 37.796875 6.203125 41.984375 11.859375 
Q 46.1875 17.53125 46.1875 27.296875 
Q 46.1875 37.015625 41.984375 42.703125 
Q 37.796875 48.390625 30.609375 48.390625 
z
M 30.609375 56 
Q 42.328125 56 49.015625 48.375 
Q 55.71875 40.765625 55.71875 27.296875 
Q 55.71875 13.875 49.015625 6.21875 
Q 42.328125 -1.421875 30.609375 -1.421875 
Q 18.84375 -1.421875 12.171875 6.21875 
Q 5.515625 13.875 5.515625 27.296875 
Q 5.515625 40.765625 12.171875 48.375 
Q 18.84375 56 30.609375 56 
z
" id="DejaVuSans-111"/>
      <path d="M 18.109375 8.203125 
L 18.109375 -20.796875 
L 9.078125 -20.796875 
L 9.078125 54.6875 
L 18.109375 54.6875 
L 18.109375 46.390625 
Q 20.953125 51.265625 25.265625 53.625 
Q 29.59375 56 35.59375 56 
Q 45.5625 56 51.78125 48.09375 
Q 58.015625 40.1875 58.015625 27.296875 
Q 58.015625 14.40625 51.78125 6.484375 
Q 45.5625 -1.421875 35.59375 -1.421875 
Q 29.59375 -1.421875 25.265625 0.953125 
Q 20.953125 3.328125 18.109375 8.203125 
z
M 48.6875 27.296875 
Q 48.6875 37.203125 44.609375 42.84375 
Q 40.53125 48.484375 33.40625 48.484375 
Q 26.265625 48.484375 22.1875 42.84375 
Q 18.109375 37.203125 18.109375 27.296875 
Q 18.109375 17.390625 22.1875 11.75 
Q 26.265625 6.109375 33.40625 6.109375 
Q 40.53125 6.109375 44.609375 11.75 
Q 48.6875 17.390625 48.6875 27.296875 
z
" id="DejaVuSans-112"/>
      <path d="M 54.890625 33.015625 
L 54.890625 0 
L 45.90625 0 
L 45.90625 32.71875 
Q 45.90625 40.484375 42.875 44.328125 
Q 39.84375 48.1875 33.796875 48.1875 
Q 26.515625 48.1875 22.3125 43.546875 
Q 18.109375 38.921875 18.109375 30.90625 
L 18.109375 0 
L 9.078125 0 
L 9.078125 75.984375 
L 18.109375 75.984375 
L 18.109375 46.1875 
Q 21.34375 51.125 25.703125 53.5625 
Q 30.078125 56 35.796875 56 
Q 45.21875 56 50.046875 50.171875 
Q 54.890625 44.34375 54.890625 33.015625 
z
" id="DejaVuSans-104"/>
      <path d="M 18.3125 70.21875 
L 18.3125 54.6875 
L 36.8125 54.6875 
L 36.8125 47.703125 
L 18.3125 47.703125 
L 18.3125 18.015625 
Q 18.3125 11.328125 20.140625 9.421875 
Q 21.96875 7.515625 27.59375 7.515625 
L 36.8125 7.515625 
L 36.8125 0 
L 27.59375 0 
Q 17.1875 0 13.234375 3.875 
Q 9.28125 7.765625 9.28125 18.015625 
L 9.28125 47.703125 
L 2.6875 47.703125 
L 2.6875 54.6875 
L 9.28125 54.6875 
L 9.28125 70.21875 
z
" id="DejaVuSans-116"/>
      <path d="M 9.8125 72.90625 
L 24.515625 72.90625 
L 43.109375 23.296875 
L 61.8125 72.90625 
L 76.515625 72.90625 
L 76.515625 0 
L 66.890625 0 
L 66.890625 64.015625 
L 48.09375 14.015625 
L 38.1875 14.015625 
L 19.390625 64.015625 
L 19.390625 0 
L 9.8125 0 
z
" id="DejaVuSans-77"/>
      <path d="M 54.890625 33.015625 
L 54.890625 0 
L 45.90625 0 
L 45.90625 32.71875 
Q 45.90625 40.484375 42.875 44.328125 
Q 39.84375 48.1875 33.796875 48.1875 
Q 26.515625 48.1875 22.3125 43.546875 
Q 18.109375 38.921875 18.109375 30.90625 
L 18.109375 0 
L 9.078125 0 
L 9.078125 54.6875 
L 18.109375 54.6875 
L 18.109375 46.1875 
Q 21.34375 51.125 25.703125 53.5625 
Q 30.078125 56 35.796875 56 
Q 45.21875 56 50.046875 50.171875 
Q 54.890625 44.34375 54.890625 33.015625 
z
" id="DejaVuSans-110"/>
      <path d="M 34.1875 63.1875 
L 20.796875 26.90625 
L 47.609375 26.90625 
z
M 28.609375 72.90625 
L 39.796875 72.90625 
L 67.578125 0 
L 57.328125 0 
L 50.6875 18.703125 
L 17.828125 18.703125 
L 11.1875 0 
L 0.78125 0 
z
" id="DejaVuSans-65"/>
      <path d="M 48.6875 27.296875 
Q 48.6875 37.203125 44.609375 42.84375 
Q 40.53125 48.484375 33.40625 48.484375 
Q 26.265625 48.484375 22.1875 42.84375 
Q 18.109375 37.203125 18.109375 27.296875 
Q 18.109375 17.390625 22.1875 11.75 
Q 26.265625 6.109375 33.40625 6.109375 
Q 40.53125 6.109375 44.609375 11.75 
Q 48.6875 17.390625 48.6875 27.296875 
z
M 18.109375 46.390625 
Q 20.953125 51.265625 25.265625 53.625 
Q 29.59375 56 35.59375 56 
Q 45.5625 56 51.78125 48.09375 
Q 58.015625 40.1875 58.015625 27.296875 
Q 58.015625 14.40625 51.78125 6.484375 
Q 45.5625 -1.421875 35.59375 -1.421875 
Q 29.59375 -1.421875 25.265625 0.953125 
Q 20.953125 3.328125 18.109375 8.203125 
L 18.109375 0 
L 9.078125 0 
L 9.078125 75.984375 
L 18.109375 75.984375 
z
" id="DejaVuSans-98"/>
      <path d="M 8.5 21.578125 
L 8.5 54.6875 
L 17.484375 54.6875 
L 17.484375 21.921875 
Q 17.484375 14.15625 20.5 10.265625 
Q 23.53125 6.390625 29.59375 6.390625 
Q 36.859375 6.390625 41.078125 11.03125 
Q 45.3125 15.671875 45.3125 23.6875 
L 45.3125 54.6875 
L 54.296875 54.6875 
L 54.296875 0 
L 45.3125 0 
L 45.3125 8.40625 
Q 42.046875 3.421875 37.71875 1 
Q 33.40625 -1.421875 27.6875 -1.421875 
Q 18.265625 -1.421875 13.375 4.4375 
Q 8.5 10.296875 8.5 21.578125 
z
M 31.109375 56 
z
" id="DejaVuSans-117"/>
      <path d="M 9.8125 72.90625 
L 55.90625 72.90625 
L 55.90625 64.59375 
L 19.671875 64.59375 
L 19.671875 43.015625 
L 54.390625 43.015625 
L 54.390625 34.71875 
L 19.671875 34.71875 
L 19.671875 8.296875 
L 56.78125 8.296875 
L 56.78125 0 
L 9.8125 0 
z
" id="DejaVuSans-69"/>
      <path d="M 10.6875 12.40625 
L 21 12.40625 
L 21 0 
L 10.6875 0 
z
" id="DejaVuSans-46"/>
     </defs>
     <use xlink:href="#DejaVuSans-70"/>
     <use x="48.394531" xlink:href="#DejaVuSans-97"/>
     <use x="109.673828" xlink:href="#DejaVuSans-108"/>
     <use x="137.457031" xlink:href="#DejaVuSans-115"/>
     <use x="189.556641" xlink:href="#DejaVuSans-101"/>
     <use x="251.080078" xlink:href="#DejaVuSans-32"/>
     <use x="282.867188" xlink:href="#DejaVuSans-80"/>
     <use x="341.419922" xlink:href="#DejaVuSans-114"/>
     <use x="380.283203" xlink:href="#DejaVuSans-111"/>
     <use x="441.464844" xlink:href="#DejaVuSans-112"/>
     <use x="504.941406" xlink:href="#DejaVuSans-104"/>
     <use x="568.320312" xlink:href="#DejaVuSans-101"/>
     <use x="629.84375" xlink:href="#DejaVuSans-116"/>
     <use x="669.052734" xlink:href="#DejaVuSans-32"/>
     <use x="700.839844" xlink:href="#DejaVuSans-77"/>
     <use x="787.119141" xlink:href="#DejaVuSans-101"/>
     <use x="848.642578" xlink:href="#DejaVuSans-97"/>
     <use x="909.921875" xlink:href="#DejaVuSans-110"/>
     <use x="973.300781" xlink:href="#DejaVuSans-32"/>
     <use x="1005.087891" xlink:href="#DejaVuSans-65"/>
     <use x="1073.496094" xlink:href="#DejaVuSans-98"/>
     <use x="1136.972656" xlink:href="#DejaVuSans-115"/>
     <use x="1189.072266" xlink:href="#DejaVuSans-111"/>
     <use x="1250.253906" xlink:href="#DejaVuSans-108"/>
     <use x="1278.037109" xlink:href="#DejaVuSans-117"/>
     <use x="1341.416016" xlink:href="#DejaVuSans-116"/>
     <use x="1380.625" xlink:href="#DejaVuSans-101"/>
     <use x="1442.148438" xlink:href="#DejaVuSans-32"/>
     <use x="1473.935547" xlink:href="#DejaVuSans-69"/>
     <use x="1537.119141" xlink:href="#DejaVuSans-114"/>
     <use x="1576.482422" xlink:href="#DejaVuSans-114"/>
     <use x="1615.345703" xlink:href="#DejaVuSans-111"/>
     <use x="1676.527344" xlink:href="#DejaVuSans-114"/>
     <use x="1717.640625" xlink:href="#DejaVuSans-32"/>
     <use x="1749.427734" xlink:href="#DejaVuSans-52"/>
     <use x="1813.050781" xlink:href="#DejaVuSans-51"/>
     <use x="1876.673828" xlink:href="#DejaVuSans-46"/>
     <use x="1908.460938" xlink:href="#DejaVuSans-55"/>
     <use x="1972.083984" xlink:href="#DejaVuSans-51"/>
     <use x="2035.707031" xlink:href="#DejaVuSans-50"/>
     <use x="2099.330078" xlink:href="#DejaVuSans-52"/>
    </g>
   </g>
   <g id="legend_1">
    <g id="patch_7">
     <path d="M 492.539062 80.55625 
L 641 80.55625 
Q 643 80.55625 643 78.55625 
L 643 50.2 
Q 643 48.2 641 48.2 
L 492.539062 48.2 
Q 490.539062 48.2 490.539062 50.2 
L 490.539062 78.55625 
Q 490.539062 80.55625 492.539062 80.55625 
z
" style="fill:#ffffff;opacity:0.8;stroke:#cccccc;stroke-linejoin:miter;stroke-width:0.8;"/>
    </g>
    <g id="line2d_19">
     <path d="M 494.539062 56.298437 
L 514.539062 56.298437 
" style="fill:none;stroke:#4c72b0;stroke-linecap:round;stroke-width:1.2;"/>
    </g>
    <g id="line2d_20"/>
    <g id="text_19">
     <!-- Ground Truth -->
     <g style="fill:#262626;" transform="translate(522.539062 59.798437)scale(0.1 -0.1)">
      <defs>
       <path d="M 59.515625 10.40625 
L 59.515625 29.984375 
L 43.40625 29.984375 
L 43.40625 38.09375 
L 69.28125 38.09375 
L 69.28125 6.78125 
Q 63.578125 2.734375 56.6875 0.65625 
Q 49.8125 -1.421875 42 -1.421875 
Q 24.90625 -1.421875 15.25 8.5625 
Q 5.609375 18.5625 5.609375 36.375 
Q 5.609375 54.25 15.25 64.234375 
Q 24.90625 74.21875 42 74.21875 
Q 49.125 74.21875 55.546875 72.453125 
Q 61.96875 70.703125 67.390625 67.28125 
L 67.390625 56.78125 
Q 61.921875 61.421875 55.765625 63.765625 
Q 49.609375 66.109375 42.828125 66.109375 
Q 29.4375 66.109375 22.71875 58.640625 
Q 16.015625 51.171875 16.015625 36.375 
Q 16.015625 21.625 22.71875 14.15625 
Q 29.4375 6.6875 42.828125 6.6875 
Q 48.046875 6.6875 52.140625 7.59375 
Q 56.25 8.5 59.515625 10.40625 
z
" id="DejaVuSans-71"/>
       <path d="M 45.40625 46.390625 
L 45.40625 75.984375 
L 54.390625 75.984375 
L 54.390625 0 
L 45.40625 0 
L 45.40625 8.203125 
Q 42.578125 3.328125 38.25 0.953125 
Q 33.9375 -1.421875 27.875 -1.421875 
Q 17.96875 -1.421875 11.734375 6.484375 
Q 5.515625 14.40625 5.515625 27.296875 
Q 5.515625 40.1875 11.734375 48.09375 
Q 17.96875 56 27.875 56 
Q 33.9375 56 38.25 53.625 
Q 42.578125 51.265625 45.40625 46.390625 
z
M 14.796875 27.296875 
Q 14.796875 17.390625 18.875 11.75 
Q 22.953125 6.109375 30.078125 6.109375 
Q 37.203125 6.109375 41.296875 11.75 
Q 45.40625 17.390625 45.40625 27.296875 
Q 45.40625 37.203125 41.296875 42.84375 
Q 37.203125 48.484375 30.078125 48.484375 
Q 22.953125 48.484375 18.875 42.84375 
Q 14.796875 37.203125 14.796875 27.296875 
z
" id="DejaVuSans-100"/>
      </defs>
      <use xlink:href="#DejaVuSans-71"/>
      <use x="77.490234" xlink:href="#DejaVuSans-114"/>
      <use x="116.353516" xlink:href="#DejaVuSans-111"/>
      <use x="177.535156" xlink:href="#DejaVuSans-117"/>
      <use x="240.914062" xlink:href="#DejaVuSans-110"/>
      <use x="304.292969" xlink:href="#DejaVuSans-100"/>
      <use x="367.769531" xlink:href="#DejaVuSans-32"/>
      <use x="399.556641" xlink:href="#DejaVuSans-84"/>
      <use x="445.890625" xlink:href="#DejaVuSans-114"/>
      <use x="487.003906" xlink:href="#DejaVuSans-117"/>
      <use x="550.382812" xlink:href="#DejaVuSans-116"/>
      <use x="589.591797" xlink:href="#DejaVuSans-104"/>
     </g>
    </g>
    <g id="line2d_21">
     <path d="M 494.539062 70.976562 
L 514.539062 70.976562 
" style="fill:none;stroke:#c44e52;stroke-linecap:round;stroke-width:1.2;"/>
    </g>
    <g id="line2d_22"/>
    <g id="text_20">
     <!-- Out-of-sample Forecast -->
     <g style="fill:#262626;" transform="translate(522.539062 74.476562)scale(0.1 -0.1)">
      <defs>
       <path d="M 39.40625 66.21875 
Q 28.65625 66.21875 22.328125 58.203125 
Q 16.015625 50.203125 16.015625 36.375 
Q 16.015625 22.609375 22.328125 14.59375 
Q 28.65625 6.59375 39.40625 6.59375 
Q 50.140625 6.59375 56.421875 14.59375 
Q 62.703125 22.609375 62.703125 36.375 
Q 62.703125 50.203125 56.421875 58.203125 
Q 50.140625 66.21875 39.40625 66.21875 
z
M 39.40625 74.21875 
Q 54.734375 74.21875 63.90625 63.9375 
Q 73.09375 53.65625 73.09375 36.375 
Q 73.09375 19.140625 63.90625 8.859375 
Q 54.734375 -1.421875 39.40625 -1.421875 
Q 24.03125 -1.421875 14.8125 8.828125 
Q 5.609375 19.09375 5.609375 36.375 
Q 5.609375 53.65625 14.8125 63.9375 
Q 24.03125 74.21875 39.40625 74.21875 
z
" id="DejaVuSans-79"/>
       <path d="M 4.890625 31.390625 
L 31.203125 31.390625 
L 31.203125 23.390625 
L 4.890625 23.390625 
z
" id="DejaVuSans-45"/>
       <path d="M 37.109375 75.984375 
L 37.109375 68.5 
L 28.515625 68.5 
Q 23.6875 68.5 21.796875 66.546875 
Q 19.921875 64.59375 19.921875 59.515625 
L 19.921875 54.6875 
L 34.71875 54.6875 
L 34.71875 47.703125 
L 19.921875 47.703125 
L 19.921875 0 
L 10.890625 0 
L 10.890625 47.703125 
L 2.296875 47.703125 
L 2.296875 54.6875 
L 10.890625 54.6875 
L 10.890625 58.5 
Q 10.890625 67.625 15.140625 71.796875 
Q 19.390625 75.984375 28.609375 75.984375 
z
" id="DejaVuSans-102"/>
       <path d="M 48.78125 52.59375 
L 48.78125 44.1875 
Q 44.96875 46.296875 41.140625 47.34375 
Q 37.3125 48.390625 33.40625 48.390625 
Q 24.65625 48.390625 19.8125 42.84375 
Q 14.984375 37.3125 14.984375 27.296875 
Q 14.984375 17.28125 19.8125 11.734375 
Q 24.65625 6.203125 33.40625 6.203125 
Q 37.3125 6.203125 41.140625 7.25 
Q 44.96875 8.296875 48.78125 10.40625 
L 48.78125 2.09375 
Q 45.015625 0.34375 40.984375 -0.53125 
Q 36.96875 -1.421875 32.421875 -1.421875 
Q 20.0625 -1.421875 12.78125 6.34375 
Q 5.515625 14.109375 5.515625 27.296875 
Q 5.515625 40.671875 12.859375 48.328125 
Q 20.21875 56 33.015625 56 
Q 37.15625 56 41.109375 55.140625 
Q 45.0625 54.296875 48.78125 52.59375 
z
" id="DejaVuSans-99"/>
      </defs>
      <use xlink:href="#DejaVuSans-79"/>
      <use x="78.710938" xlink:href="#DejaVuSans-117"/>
      <use x="142.089844" xlink:href="#DejaVuSans-116"/>
      <use x="181.298828" xlink:href="#DejaVuSans-45"/>
      <use x="219.257812" xlink:href="#DejaVuSans-111"/>
      <use x="280.439453" xlink:href="#DejaVuSans-102"/>
      <use x="310.144531" xlink:href="#DejaVuSans-45"/>
      <use x="346.228516" xlink:href="#DejaVuSans-115"/>
      <use x="398.328125" xlink:href="#DejaVuSans-97"/>
      <use x="459.607422" xlink:href="#DejaVuSans-109"/>
      <use x="557.019531" xlink:href="#DejaVuSans-112"/>
      <use x="620.496094" xlink:href="#DejaVuSans-108"/>
      <use x="648.279297" xlink:href="#DejaVuSans-101"/>
      <use x="709.802734" xlink:href="#DejaVuSans-32"/>
      <use x="741.589844" xlink:href="#DejaVuSans-70"/>
      <use x="795.484375" xlink:href="#DejaVuSans-111"/>
      <use x="856.666016" xlink:href="#DejaVuSans-114"/>
      <use x="895.529297" xlink:href="#DejaVuSans-101"/>
      <use x="957.052734" xlink:href="#DejaVuSans-99"/>
      <use x="1012.033203" xlink:href="#DejaVuSans-97"/>
      <use x="1073.3125" xlink:href="#DejaVuSans-115"/>
      <use x="1125.412109" xlink:href="#DejaVuSans-116"/>
     </g>
    </g>
   </g>
  </g>
 </g>
 <defs>
  <clipPath id="pe9d4ca739c">
   <rect height="271.8" width="558" x="90" y="43.2"/>
  </clipPath>
 </defs>
</svg>
