<?xml version="1.0" encoding="utf-8" standalone="no"?>
<!DOCTYPE svg PUBLIC "-//W3C//DTD SVG 1.1//EN"
  "http://www.w3.org/Graphics/SVG/1.1/DTD/svg11.dtd">
<!-- Created with matplotlib (https://matplotlib.org/) -->
<svg height="360pt" version="1.1" viewBox="0 0 720 360" width="720pt" xmlns="http://www.w3.org/2000/svg" xmlns:xlink="http://www.w3.org/1999/xlink">
 <metadata>
  <rdf:RDF xmlns:cc="http://creativecommons.org/ns#" xmlns:dc="http://purl.org/dc/elements/1.1/" xmlns:rdf="http://www.w3.org/1999/02/22-rdf-syntax-ns#">
   <cc:Work>
    <dc:type rdf:resource="http://purl.org/dc/dcmitype/StillImage"/>
    <dc:date>2021-01-27T13:31:44.418499</dc:date>
    <dc:format>image/svg+xml</dc:format>
    <dc:creator>
     <cc:Agent>
      <dc:title>Matplotlib v3.3.1, https://matplotlib.org/</dc:title>
     </cc:Agent>
    </dc:creator>
   </cc:Work>
  </rdf:RDF>
 </metadata>
 <defs>
  <style type="text/css">*{stroke-linecap:butt;stroke-linejoin:round;}</style>
 </defs>
 <g id="figure_1">
  <g id="patch_1">
   <path d="M 0 360 
L 720 360 
L 720 0 
L 0 0 
z
" style="fill:#ffffff;"/>
  </g>
  <g id="axes_1">
   <g id="patch_2">
    <path d="M 90 315 
L 648 315 
L 648 43.2 
L 90 43.2 
z
" style="fill:#ffffff;"/>
   </g>
   <g id="matplotlib.axis_1">
    <g id="xtick_1">
     <g id="line2d_1">
      <defs>
       <path d="M 0 0 
L 0 3 
" id="m7a9924f7e1" style="stroke:#262626;"/>
      </defs>
      <g>
       <use style="fill:#262626;stroke:#262626;" x="90" xlink:href="#m7a9924f7e1" y="315"/>
      </g>
     </g>
     <g id="text_1">
      <!-- 0 -->
      <g style="fill:#262626;" transform="translate(86.81875 329.098437)scale(0.1 -0.1)">
       <defs>
        <path d="M 31.78125 66.40625 
Q 24.171875 66.40625 20.328125 58.90625 
Q 16.5 51.421875 16.5 36.375 
Q 16.5 21.390625 20.328125 13.890625 
Q 24.171875 6.390625 31.78125 6.390625 
Q 39.453125 6.390625 43.28125 13.890625 
Q 47.125 21.390625 47.125 36.375 
Q 47.125 51.421875 43.28125 58.90625 
Q 39.453125 66.40625 31.78125 66.40625 
z
M 31.78125 74.21875 
Q 44.046875 74.21875 50.515625 64.515625 
Q 56.984375 54.828125 56.984375 36.375 
Q 56.984375 17.96875 50.515625 8.265625 
Q 44.046875 -1.421875 31.78125 -1.421875 
Q 19.53125 -1.421875 13.0625 8.265625 
Q 6.59375 17.96875 6.59375 36.375 
Q 6.59375 54.828125 13.0625 64.515625 
Q 19.53125 74.21875 31.78125 74.21875 
z
" id="DejaVuSans-48"/>
       </defs>
       <use xlink:href="#DejaVuSans-48"/>
      </g>
     </g>
    </g>
    <g id="xtick_2">
     <g id="line2d_2">
      <g>
       <use style="fill:#262626;stroke:#262626;" x="189.465241" xlink:href="#m7a9924f7e1" y="315"/>
      </g>
     </g>
     <g id="text_2">
      <!-- 100 -->
      <g style="fill:#262626;" transform="translate(179.921491 329.098437)scale(0.1 -0.1)">
       <defs>
        <path d="M 12.40625 8.296875 
L 28.515625 8.296875 
L 28.515625 63.921875 
L 10.984375 60.40625 
L 10.984375 69.390625 
L 28.421875 72.90625 
L 38.28125 72.90625 
L 38.28125 8.296875 
L 54.390625 8.296875 
L 54.390625 0 
L 12.40625 0 
z
" id="DejaVuSans-49"/>
       </defs>
       <use xlink:href="#DejaVuSans-49"/>
       <use x="63.623047" xlink:href="#DejaVuSans-48"/>
       <use x="127.246094" xlink:href="#DejaVuSans-48"/>
      </g>
     </g>
    </g>
    <g id="xtick_3">
     <g id="line2d_3">
      <g>
       <use style="fill:#262626;stroke:#262626;" x="288.930481" xlink:href="#m7a9924f7e1" y="315"/>
      </g>
     </g>
     <g id="text_3">
      <!-- 200 -->
      <g style="fill:#262626;" transform="translate(279.386731 329.098437)scale(0.1 -0.1)">
       <defs>
        <path d="M 19.1875 8.296875 
L 53.609375 8.296875 
L 53.609375 0 
L 7.328125 0 
L 7.328125 8.296875 
Q 12.9375 14.109375 22.625 23.890625 
Q 32.328125 33.6875 34.8125 36.53125 
Q 39.546875 41.84375 41.421875 45.53125 
Q 43.3125 49.21875 43.3125 52.78125 
Q 43.3125 58.59375 39.234375 62.25 
Q 35.15625 65.921875 28.609375 65.921875 
Q 23.96875 65.921875 18.8125 64.3125 
Q 13.671875 62.703125 7.8125 59.421875 
L 7.8125 69.390625 
Q 13.765625 71.78125 18.9375 73 
Q 24.125 74.21875 28.421875 74.21875 
Q 39.75 74.21875 46.484375 68.546875 
Q 53.21875 62.890625 53.21875 53.421875 
Q 53.21875 48.921875 51.53125 44.890625 
Q 49.859375 40.875 45.40625 35.40625 
Q 44.1875 33.984375 37.640625 27.21875 
Q 31.109375 20.453125 19.1875 8.296875 
z
" id="DejaVuSans-50"/>
       </defs>
       <use xlink:href="#DejaVuSans-50"/>
       <use x="63.623047" xlink:href="#DejaVuSans-48"/>
       <use x="127.246094" xlink:href="#DejaVuSans-48"/>
      </g>
     </g>
    </g>
    <g id="xtick_4">
     <g id="line2d_4">
      <g>
       <use style="fill:#262626;stroke:#262626;" x="388.395722" xlink:href="#m7a9924f7e1" y="315"/>
      </g>
     </g>
     <g id="text_4">
      <!-- 300 -->
      <g style="fill:#262626;" transform="translate(378.851972 329.098437)scale(0.1 -0.1)">
       <defs>
        <path d="M 40.578125 39.3125 
Q 47.65625 37.796875 51.625 33 
Q 55.609375 28.21875 55.609375 21.1875 
Q 55.609375 10.40625 48.1875 4.484375 
Q 40.765625 -1.421875 27.09375 -1.421875 
Q 22.515625 -1.421875 17.65625 -0.515625 
Q 12.796875 0.390625 7.625 2.203125 
L 7.625 11.71875 
Q 11.71875 9.328125 16.59375 8.109375 
Q 21.484375 6.890625 26.8125 6.890625 
Q 36.078125 6.890625 40.9375 10.546875 
Q 45.796875 14.203125 45.796875 21.1875 
Q 45.796875 27.640625 41.28125 31.265625 
Q 36.765625 34.90625 28.71875 34.90625 
L 20.21875 34.90625 
L 20.21875 43.015625 
L 29.109375 43.015625 
Q 36.375 43.015625 40.234375 45.921875 
Q 44.09375 48.828125 44.09375 54.296875 
Q 44.09375 59.90625 40.109375 62.90625 
Q 36.140625 65.921875 28.71875 65.921875 
Q 24.65625 65.921875 20.015625 65.03125 
Q 15.375 64.15625 9.8125 62.3125 
L 9.8125 71.09375 
Q 15.4375 72.65625 20.34375 73.4375 
Q 25.25 74.21875 29.59375 74.21875 
Q 40.828125 74.21875 47.359375 69.109375 
Q 53.90625 64.015625 53.90625 55.328125 
Q 53.90625 49.265625 50.4375 45.09375 
Q 46.96875 40.921875 40.578125 39.3125 
z
" id="DejaVuSans-51"/>
       </defs>
       <use xlink:href="#DejaVuSans-51"/>
       <use x="63.623047" xlink:href="#DejaVuSans-48"/>
       <use x="127.246094" xlink:href="#DejaVuSans-48"/>
      </g>
     </g>
    </g>
    <g id="xtick_5">
     <g id="line2d_5">
      <g>
       <use style="fill:#262626;stroke:#262626;" x="487.860963" xlink:href="#m7a9924f7e1" y="315"/>
      </g>
     </g>
     <g id="text_5">
      <!-- 400 -->
      <g style="fill:#262626;" transform="translate(478.317213 329.098437)scale(0.1 -0.1)">
       <defs>
        <path d="M 37.796875 64.3125 
L 12.890625 25.390625 
L 37.796875 25.390625 
z
M 35.203125 72.90625 
L 47.609375 72.90625 
L 47.609375 25.390625 
L 58.015625 25.390625 
L 58.015625 17.1875 
L 47.609375 17.1875 
L 47.609375 0 
L 37.796875 0 
L 37.796875 17.1875 
L 4.890625 17.1875 
L 4.890625 26.703125 
z
" id="DejaVuSans-52"/>
       </defs>
       <use xlink:href="#DejaVuSans-52"/>
       <use x="63.623047" xlink:href="#DejaVuSans-48"/>
       <use x="127.246094" xlink:href="#DejaVuSans-48"/>
      </g>
     </g>
    </g>
    <g id="xtick_6">
     <g id="line2d_6">
      <g>
       <use style="fill:#262626;stroke:#262626;" x="587.326203" xlink:href="#m7a9924f7e1" y="315"/>
      </g>
     </g>
     <g id="text_6">
      <!-- 500 -->
      <g style="fill:#262626;" transform="translate(577.782453 329.098437)scale(0.1 -0.1)">
       <defs>
        <path d="M 10.796875 72.90625 
L 49.515625 72.90625 
L 49.515625 64.59375 
L 19.828125 64.59375 
L 19.828125 46.734375 
Q 21.96875 47.46875 24.109375 47.828125 
Q 26.265625 48.1875 28.421875 48.1875 
Q 40.625 48.1875 47.75 41.5 
Q 54.890625 34.8125 54.890625 23.390625 
Q 54.890625 11.625 47.5625 5.09375 
Q 40.234375 -1.421875 26.90625 -1.421875 
Q 22.3125 -1.421875 17.546875 -0.640625 
Q 12.796875 0.140625 7.71875 1.703125 
L 7.71875 11.625 
Q 12.109375 9.234375 16.796875 8.0625 
Q 21.484375 6.890625 26.703125 6.890625 
Q 35.15625 6.890625 40.078125 11.328125 
Q 45.015625 15.765625 45.015625 23.390625 
Q 45.015625 31 40.078125 35.4375 
Q 35.15625 39.890625 26.703125 39.890625 
Q 22.75 39.890625 18.8125 39.015625 
Q 14.890625 38.140625 10.796875 36.28125 
z
" id="DejaVuSans-53"/>
       </defs>
       <use xlink:href="#DejaVuSans-53"/>
       <use x="63.623047" xlink:href="#DejaVuSans-48"/>
       <use x="127.246094" xlink:href="#DejaVuSans-48"/>
      </g>
     </g>
    </g>
    <g id="text_7">
     <!-- Time -->
     <g style="fill:#262626;" transform="translate(354.319687 344.29625)scale(0.12 -0.12)">
      <defs>
       <path d="M -0.296875 72.90625 
L 61.375 72.90625 
L 61.375 64.59375 
L 35.5 64.59375 
L 35.5 0 
L 25.59375 0 
L 25.59375 64.59375 
L -0.296875 64.59375 
z
" id="DejaVuSans-84"/>
       <path d="M 9.421875 54.6875 
L 18.40625 54.6875 
L 18.40625 0 
L 9.421875 0 
z
M 9.421875 75.984375 
L 18.40625 75.984375 
L 18.40625 64.59375 
L 9.421875 64.59375 
z
" id="DejaVuSans-105"/>
       <path d="M 52 44.1875 
Q 55.375 50.25 60.0625 53.125 
Q 64.75 56 71.09375 56 
Q 79.640625 56 84.28125 50.015625 
Q 88.921875 44.046875 88.921875 33.015625 
L 88.921875 0 
L 79.890625 0 
L 79.890625 32.71875 
Q 79.890625 40.578125 77.09375 44.375 
Q 74.3125 48.1875 68.609375 48.1875 
Q 61.625 48.1875 57.5625 43.546875 
Q 53.515625 38.921875 53.515625 30.90625 
L 53.515625 0 
L 44.484375 0 
L 44.484375 32.71875 
Q 44.484375 40.625 41.703125 44.40625 
Q 38.921875 48.1875 33.109375 48.1875 
Q 26.21875 48.1875 22.15625 43.53125 
Q 18.109375 38.875 18.109375 30.90625 
L 18.109375 0 
L 9.078125 0 
L 9.078125 54.6875 
L 18.109375 54.6875 
L 18.109375 46.1875 
Q 21.1875 51.21875 25.484375 53.609375 
Q 29.78125 56 35.6875 56 
Q 41.65625 56 45.828125 52.96875 
Q 50 49.953125 52 44.1875 
z
" id="DejaVuSans-109"/>
       <path d="M 56.203125 29.59375 
L 56.203125 25.203125 
L 14.890625 25.203125 
Q 15.484375 15.921875 20.484375 11.0625 
Q 25.484375 6.203125 34.421875 6.203125 
Q 39.59375 6.203125 44.453125 7.46875 
Q 49.3125 8.734375 54.109375 11.28125 
L 54.109375 2.78125 
Q 49.265625 0.734375 44.1875 -0.34375 
Q 39.109375 -1.421875 33.890625 -1.421875 
Q 20.796875 -1.421875 13.15625 6.1875 
Q 5.515625 13.8125 5.515625 26.8125 
Q 5.515625 40.234375 12.765625 48.109375 
Q 20.015625 56 32.328125 56 
Q 43.359375 56 49.78125 48.890625 
Q 56.203125 41.796875 56.203125 29.59375 
z
M 47.21875 32.234375 
Q 47.125 39.59375 43.09375 43.984375 
Q 39.0625 48.390625 32.421875 48.390625 
Q 24.90625 48.390625 20.390625 44.140625 
Q 15.875 39.890625 15.1875 32.171875 
z
" id="DejaVuSans-101"/>
      </defs>
      <use xlink:href="#DejaVuSans-84"/>
      <use x="57.958984" xlink:href="#DejaVuSans-105"/>
      <use x="85.742188" xlink:href="#DejaVuSans-109"/>
      <use x="183.154297" xlink:href="#DejaVuSans-101"/>
     </g>
    </g>
   </g>
   <g id="matplotlib.axis_2">
    <g id="ytick_1">
     <g id="line2d_7">
      <defs>
       <path d="M 0 0 
L -3 0 
" id="mfd24930ce0" style="stroke:#262626;"/>
      </defs>
      <g>
       <use style="fill:#262626;stroke:#262626;" x="90" xlink:href="#mfd24930ce0" y="288.056681"/>
      </g>
     </g>
     <g id="text_8">
      <!-- 0.2 -->
      <g style="fill:#262626;" transform="translate(67.596875 291.8559)scale(0.1 -0.1)">
       <defs>
        <path d="M 10.6875 12.40625 
L 21 12.40625 
L 21 0 
L 10.6875 0 
z
" id="DejaVuSans-46"/>
       </defs>
       <use xlink:href="#DejaVuSans-48"/>
       <use x="63.623047" xlink:href="#DejaVuSans-46"/>
       <use x="95.410156" xlink:href="#DejaVuSans-50"/>
      </g>
     </g>
    </g>
    <g id="ytick_2">
     <g id="line2d_8">
      <g>
       <use style="fill:#262626;stroke:#262626;" x="90" xlink:href="#mfd24930ce0" y="255.221424"/>
      </g>
     </g>
     <g id="text_9">
      <!-- 0.3 -->
      <g style="fill:#262626;" transform="translate(67.596875 259.020643)scale(0.1 -0.1)">
       <use xlink:href="#DejaVuSans-48"/>
       <use x="63.623047" xlink:href="#DejaVuSans-46"/>
       <use x="95.410156" xlink:href="#DejaVuSans-51"/>
      </g>
     </g>
    </g>
    <g id="ytick_3">
     <g id="line2d_9">
      <g>
       <use style="fill:#262626;stroke:#262626;" x="90" xlink:href="#mfd24930ce0" y="222.386166"/>
      </g>
     </g>
     <g id="text_10">
      <!-- 0.4 -->
      <g style="fill:#262626;" transform="translate(67.596875 226.185385)scale(0.1 -0.1)">
       <use xlink:href="#DejaVuSans-48"/>
       <use x="63.623047" xlink:href="#DejaVuSans-46"/>
       <use x="95.410156" xlink:href="#DejaVuSans-52"/>
      </g>
     </g>
    </g>
    <g id="ytick_4">
     <g id="line2d_10">
      <g>
       <use style="fill:#262626;stroke:#262626;" x="90" xlink:href="#mfd24930ce0" y="189.550909"/>
      </g>
     </g>
     <g id="text_11">
      <!-- 0.5 -->
      <g style="fill:#262626;" transform="translate(67.596875 193.350128)scale(0.1 -0.1)">
       <use xlink:href="#DejaVuSans-48"/>
       <use x="63.623047" xlink:href="#DejaVuSans-46"/>
       <use x="95.410156" xlink:href="#DejaVuSans-53"/>
      </g>
     </g>
    </g>
    <g id="ytick_5">
     <g id="line2d_11">
      <g>
       <use style="fill:#262626;stroke:#262626;" x="90" xlink:href="#mfd24930ce0" y="156.715651"/>
      </g>
     </g>
     <g id="text_12">
      <!-- 0.6 -->
      <g style="fill:#262626;" transform="translate(67.596875 160.51487)scale(0.1 -0.1)">
       <defs>
        <path d="M 33.015625 40.375 
Q 26.375 40.375 22.484375 35.828125 
Q 18.609375 31.296875 18.609375 23.390625 
Q 18.609375 15.53125 22.484375 10.953125 
Q 26.375 6.390625 33.015625 6.390625 
Q 39.65625 6.390625 43.53125 10.953125 
Q 47.40625 15.53125 47.40625 23.390625 
Q 47.40625 31.296875 43.53125 35.828125 
Q 39.65625 40.375 33.015625 40.375 
z
M 52.59375 71.296875 
L 52.59375 62.3125 
Q 48.875 64.0625 45.09375 64.984375 
Q 41.3125 65.921875 37.59375 65.921875 
Q 27.828125 65.921875 22.671875 59.328125 
Q 17.53125 52.734375 16.796875 39.40625 
Q 19.671875 43.65625 24.015625 45.921875 
Q 28.375 48.1875 33.59375 48.1875 
Q 44.578125 48.1875 50.953125 41.515625 
Q 57.328125 34.859375 57.328125 23.390625 
Q 57.328125 12.15625 50.6875 5.359375 
Q 44.046875 -1.421875 33.015625 -1.421875 
Q 20.359375 -1.421875 13.671875 8.265625 
Q 6.984375 17.96875 6.984375 36.375 
Q 6.984375 53.65625 15.1875 63.9375 
Q 23.390625 74.21875 37.203125 74.21875 
Q 40.921875 74.21875 44.703125 73.484375 
Q 48.484375 72.75 52.59375 71.296875 
z
" id="DejaVuSans-54"/>
       </defs>
       <use xlink:href="#DejaVuSans-48"/>
       <use x="63.623047" xlink:href="#DejaVuSans-46"/>
       <use x="95.410156" xlink:href="#DejaVuSans-54"/>
      </g>
     </g>
    </g>
    <g id="ytick_6">
     <g id="line2d_12">
      <g>
       <use style="fill:#262626;stroke:#262626;" x="90" xlink:href="#mfd24930ce0" y="123.880394"/>
      </g>
     </g>
     <g id="text_13">
      <!-- 0.7 -->
      <g style="fill:#262626;" transform="translate(67.596875 127.679613)scale(0.1 -0.1)">
       <defs>
        <path d="M 8.203125 72.90625 
L 55.078125 72.90625 
L 55.078125 68.703125 
L 28.609375 0 
L 18.3125 0 
L 43.21875 64.59375 
L 8.203125 64.59375 
z
" id="DejaVuSans-55"/>
       </defs>
       <use xlink:href="#DejaVuSans-48"/>
       <use x="63.623047" xlink:href="#DejaVuSans-46"/>
       <use x="95.410156" xlink:href="#DejaVuSans-55"/>
      </g>
     </g>
    </g>
    <g id="ytick_7">
     <g id="line2d_13">
      <g>
       <use style="fill:#262626;stroke:#262626;" x="90" xlink:href="#mfd24930ce0" y="91.045136"/>
      </g>
     </g>
     <g id="text_14">
      <!-- 0.8 -->
      <g style="fill:#262626;" transform="translate(67.596875 94.844355)scale(0.1 -0.1)">
       <defs>
        <path d="M 31.78125 34.625 
Q 24.75 34.625 20.71875 30.859375 
Q 16.703125 27.09375 16.703125 20.515625 
Q 16.703125 13.921875 20.71875 10.15625 
Q 24.75 6.390625 31.78125 6.390625 
Q 38.8125 6.390625 42.859375 10.171875 
Q 46.921875 13.96875 46.921875 20.515625 
Q 46.921875 27.09375 42.890625 30.859375 
Q 38.875 34.625 31.78125 34.625 
z
M 21.921875 38.8125 
Q 15.578125 40.375 12.03125 44.71875 
Q 8.5 49.078125 8.5 55.328125 
Q 8.5 64.0625 14.71875 69.140625 
Q 20.953125 74.21875 31.78125 74.21875 
Q 42.671875 74.21875 48.875 69.140625 
Q 55.078125 64.0625 55.078125 55.328125 
Q 55.078125 49.078125 51.53125 44.71875 
Q 48 40.375 41.703125 38.8125 
Q 48.828125 37.15625 52.796875 32.3125 
Q 56.78125 27.484375 56.78125 20.515625 
Q 56.78125 9.90625 50.3125 4.234375 
Q 43.84375 -1.421875 31.78125 -1.421875 
Q 19.734375 -1.421875 13.25 4.234375 
Q 6.78125 9.90625 6.78125 20.515625 
Q 6.78125 27.484375 10.78125 32.3125 
Q 14.796875 37.15625 21.921875 38.8125 
z
M 18.3125 54.390625 
Q 18.3125 48.734375 21.84375 45.5625 
Q 25.390625 42.390625 31.78125 42.390625 
Q 38.140625 42.390625 41.71875 45.5625 
Q 45.3125 48.734375 45.3125 54.390625 
Q 45.3125 60.0625 41.71875 63.234375 
Q 38.140625 66.40625 31.78125 66.40625 
Q 25.390625 66.40625 21.84375 63.234375 
Q 18.3125 60.0625 18.3125 54.390625 
z
" id="DejaVuSans-56"/>
       </defs>
       <use xlink:href="#DejaVuSans-48"/>
       <use x="63.623047" xlink:href="#DejaVuSans-46"/>
       <use x="95.410156" xlink:href="#DejaVuSans-56"/>
      </g>
     </g>
    </g>
    <g id="ytick_8">
     <g id="line2d_14">
      <g>
       <use style="fill:#262626;stroke:#262626;" x="90" xlink:href="#mfd24930ce0" y="58.209879"/>
      </g>
     </g>
     <g id="text_15">
      <!-- 0.9 -->
      <g style="fill:#262626;" transform="translate(67.596875 62.009098)scale(0.1 -0.1)">
       <defs>
        <path d="M 10.984375 1.515625 
L 10.984375 10.5 
Q 14.703125 8.734375 18.5 7.8125 
Q 22.3125 6.890625 25.984375 6.890625 
Q 35.75 6.890625 40.890625 13.453125 
Q 46.046875 20.015625 46.78125 33.40625 
Q 43.953125 29.203125 39.59375 26.953125 
Q 35.25 24.703125 29.984375 24.703125 
Q 19.046875 24.703125 12.671875 31.3125 
Q 6.296875 37.9375 6.296875 49.421875 
Q 6.296875 60.640625 12.9375 67.421875 
Q 19.578125 74.21875 30.609375 74.21875 
Q 43.265625 74.21875 49.921875 64.515625 
Q 56.59375 54.828125 56.59375 36.375 
Q 56.59375 19.140625 48.40625 8.859375 
Q 40.234375 -1.421875 26.421875 -1.421875 
Q 22.703125 -1.421875 18.890625 -0.6875 
Q 15.09375 0.046875 10.984375 1.515625 
z
M 30.609375 32.421875 
Q 37.25 32.421875 41.125 36.953125 
Q 45.015625 41.5 45.015625 49.421875 
Q 45.015625 57.28125 41.125 61.84375 
Q 37.25 66.40625 30.609375 66.40625 
Q 23.96875 66.40625 20.09375 61.84375 
Q 16.21875 57.28125 16.21875 49.421875 
Q 16.21875 41.5 20.09375 36.953125 
Q 23.96875 32.421875 30.609375 32.421875 
z
" id="DejaVuSans-57"/>
       </defs>
       <use xlink:href="#DejaVuSans-48"/>
       <use x="63.623047" xlink:href="#DejaVuSans-46"/>
       <use x="95.410156" xlink:href="#DejaVuSans-57"/>
      </g>
     </g>
    </g>
    <g id="text_16">
     <!-- Y -->
     <g style="fill:#262626;" transform="translate(61.10125 182.764687)rotate(-90)scale(0.12 -0.12)">
      <defs>
       <path d="M -0.203125 72.90625 
L 10.40625 72.90625 
L 30.609375 42.921875 
L 50.6875 72.90625 
L 61.28125 72.90625 
L 35.5 34.71875 
L 35.5 0 
L 25.59375 0 
L 25.59375 34.71875 
z
" id="DejaVuSans-89"/>
      </defs>
      <use xlink:href="#DejaVuSans-89"/>
     </g>
    </g>
   </g>
   <g id="PolyCollection_1">
    <defs>
     <path d="M 90 -99.890942 
L 90 -125.98259 
L 90.994652 -122.133211 
L 91.989305 -138.004944 
L 92.983957 -131.116515 
L 93.97861 -138.638838 
L 94.973262 -130.502662 
L 95.967914 -116.344237 
L 96.962567 -116.650622 
L 97.957219 -118.155833 
L 98.951872 -114.618073 
L 99.946524 -112.60323 
L 100.941176 -118.363612 
L 101.935829 -119.483166 
L 102.930481 -108.811411 
L 103.925134 -110.519603 
L 104.919786 -117.860228 
L 105.914439 -117.825443 
L 106.909091 -120.614374 
L 107.903743 -120.075216 
L 108.898396 -124.449069 
L 109.893048 -116.872985 
L 110.887701 -110.982619 
L 111.882353 -122.135611 
L 112.877005 -119.495915 
L 113.871658 -122.258599 
L 114.86631 -122.433874 
L 115.860963 -114.097303 
L 116.855615 -114.960361 
L 117.850267 -120.890976 
L 118.84492 -125.376491 
L 119.839572 -124.306395 
L 120.834225 -125.436726 
L 121.828877 -126.650056 
L 122.823529 -128.195791 
L 123.818182 -124.388721 
L 124.812834 -129.585052 
L 125.807487 -124.998784 
L 126.802139 -131.478045 
L 127.796791 -130.457338 
L 128.791444 -129.986545 
L 129.786096 -126.225877 
L 130.780749 -122.200169 
L 131.775401 -129.682369 
L 132.770053 -133.399768 
L 133.764706 -133.730416 
L 134.759358 -133.521945 
L 135.754011 -133.608947 
L 136.748663 -130.190527 
L 137.743316 -122.30125 
L 138.737968 -129.832613 
L 139.73262 -132.378362 
L 140.727273 -131.383995 
L 141.721925 -138.469291 
L 142.716578 -134.164771 
L 143.71123 -135.553516 
L 144.705882 -133.74419 
L 145.700535 -147.628786 
L 146.695187 -150.9983 
L 147.68984 -132.326002 
L 148.684492 -148.451454 
L 149.679144 -162.075855 
L 150.673797 -150.520835 
L 151.668449 -179.725979 
L 152.663102 -199.557624 
L 153.657754 -177.23353 
L 154.652406 -155.220639 
L 155.647059 -155.098115 
L 156.641711 -171.800153 
L 157.636364 -160.286432 
L 158.631016 -201.399129 
L 159.625668 -203.834764 
L 160.620321 -191.283966 
L 161.614973 -153.719337 
L 162.609626 -164.592923 
L 163.604278 -174.754091 
L 164.59893 -153.225051 
L 165.593583 -191.37163 
L 166.588235 -198.529061 
L 167.582888 -167.348355 
L 168.57754 -149.279205 
L 169.572193 -146.523701 
L 170.566845 -163.211548 
L 171.561497 -157.979357 
L 172.55615 -186.10548 
L 173.550802 -210.26056 
L 174.545455 -166.810289 
L 175.540107 -154.043259 
L 176.534759 -151.712987 
L 177.529412 -152.722117 
L 178.524064 -152.821879 
L 179.518717 -194.786319 
L 180.513369 -204.341155 
L 181.508021 -187.134059 
L 182.502674 -157.613816 
L 183.497326 -153.634772 
L 184.491979 -156.863493 
L 185.486631 -148.129163 
L 186.481283 -189.54098 
L 187.475936 -220.319772 
L 188.470588 -187.337667 
L 189.465241 -153.003756 
L 190.459893 -150.777316 
L 191.454545 -151.305143 
L 192.449198 -147.618323 
L 193.44385 -197.730721 
L 194.438503 -218.215497 
L 195.433155 -186.536332 
L 196.427807 -159.793774 
L 197.42246 -152.370178 
L 198.417112 -154.195144 
L 199.411765 -154.468934 
L 200.406417 -196.300163 
L 201.40107 -203.321299 
L 202.395722 -177.796312 
L 203.390374 -154.31193 
L 204.385027 -149.58631 
L 205.379679 -157.857433 
L 206.374332 -146.967606 
L 207.368984 -195.432527 
L 208.363636 -214.237606 
L 209.358289 -182.950534 
L 210.352941 -152.216217 
L 211.347594 -154.238446 
L 212.342246 -158.679025 
L 213.336898 -153.392697 
L 214.331551 -198.07575 
L 215.326203 -221.305704 
L 216.320856 -181.831859 
L 217.315508 -156.203163 
L 218.31016 -151.866508 
L 219.304813 -154.530806 
L 220.299465 -147.524449 
L 221.294118 -196.361527 
L 222.28877 -214.211507 
L 223.283422 -174.612344 
L 224.278075 -154.713485 
L 225.272727 -151.838301 
L 226.26738 -161.510177 
L 227.262032 -149.505718 
L 228.256684 -195.294987 
L 229.251337 -218.649707 
L 230.245989 -171.827638 
L 231.240642 -155.923159 
L 232.235294 -156.070167 
L 233.229947 -161.862324 
L 234.224599 -154.087267 
L 235.219251 -198.71579 
L 236.213904 -205.075727 
L 237.208556 -185.932487 
L 238.203209 -155.297542 
L 239.197861 -156.718776 
L 240.192513 -162.769885 
L 241.187166 -151.702505 
L 242.181818 -203.76747 
L 243.176471 -213.502125 
L 244.171123 -175.203161 
L 245.165775 -152.533384 
L 246.160428 -147.652889 
L 247.15508 -151.989294 
L 248.149733 -141.970135 
L 249.144385 -184.563722 
L 250.139037 -206.745518 
L 251.13369 -172.844974 
L 252.128342 -151.275859 
L 253.122995 -149.972303 
L 254.117647 -155.947917 
L 255.112299 -148.449192 
L 256.106952 -191.282011 
L 257.101604 -210.138182 
L 258.096257 -179.898108 
L 259.090909 -154.501214 
L 260.085561 -151.285887 
L 261.080214 -156.310781 
L 262.074866 -153.025401 
L 263.069519 -191.031041 
L 264.064171 -227.846735 
L 265.058824 -184.901737 
L 266.053476 -155.206588 
L 267.048128 -156.40648 
L 268.042781 -168.957105 
L 269.037433 -181.274637 
L 270.032086 -226.51073 
L 271.026738 -244.497684 
L 272.02139 -206.437876 
L 273.016043 -209.251328 
L 274.010695 -212.735163 
L 275.005348 -218.070955 
L 276 -214.840415 
L 276.994652 -223.398144 
L 277.989305 -251.532444 
L 278.983957 -208.005199 
L 279.97861 -195.584891 
L 280.973262 -200.200778 
L 281.967914 -210.036374 
L 282.962567 -183.112005 
L 283.957219 -207.751087 
L 284.951872 -248.106202 
L 285.946524 -228.10345 
L 286.941176 -204.190663 
L 287.935829 -191.779021 
L 288.930481 -178.884446 
L 289.925134 -177.025183 
L 290.919786 -216.126449 
L 291.914439 -235.758578 
L 292.909091 -209.717484 
L 293.903743 -201.587642 
L 294.898396 -201.73237 
L 295.893048 -186.562979 
L 296.887701 -205.874747 
L 297.882353 -224.30715 
L 298.877005 -238.210851 
L 299.871658 -232.91874 
L 300.86631 -203.851375 
L 301.860963 -216.890129 
L 302.855615 -227.416965 
L 303.850267 -215.049715 
L 304.84492 -226.9754 
L 305.839572 -200.659941 
L 306.834225 -200.761566 
L 307.828877 -223.100096 
L 308.823529 -213.804505 
L 309.818182 -222.697396 
L 310.812834 -205.399761 
L 311.807487 -225.74207 
L 312.802139 -178.905185 
L 313.796791 -162.696485 
L 314.791444 -166.287772 
L 315.786096 -164.66441 
L 316.780749 -158.920396 
L 317.775401 -162.116089 
L 318.770053 -195.6902 
L 319.764706 -172.145351 
L 320.759358 -177.75459 
L 321.754011 -176.654909 
L 322.748663 -200.827226 
L 323.743316 -156.765211 
L 324.737968 -154.022362 
L 325.73262 -152.515874 
L 326.727273 -142.814984 
L 327.721925 -143.395808 
L 328.716578 -135.053439 
L 329.71123 -133.6064 
L 330.705882 -125.651207 
L 331.700535 -120.133308 
L 332.695187 -119.120514 
L 333.68984 -118.694439 
L 334.684492 -121.515352 
L 335.679144 -121.711957 
L 336.673797 -114.560579 
L 337.668449 -107.809367 
L 338.663102 -107.733746 
L 339.657754 -113.363862 
L 340.652406 -109.620793 
L 341.647059 -113.380756 
L 342.641711 -117.485909 
L 343.636364 -113.67795 
L 344.631016 -109.323926 
L 345.625668 -108.860745 
L 346.620321 -115.840228 
L 347.614973 -115.900727 
L 348.609626 -124.586972 
L 349.604278 -117.597262 
L 350.59893 -112.582683 
L 351.593583 -106.211437 
L 352.588235 -107.05442 
L 353.582888 -111.467919 
L 354.57754 -111.856288 
L 355.572193 -111.252749 
L 356.566845 -114.377921 
L 357.561497 -111.386661 
L 358.55615 -105.56869 
L 359.550802 -107.911501 
L 360.545455 -116.343406 
L 361.540107 -112.503912 
L 362.534759 -114.481925 
L 363.529412 -116.037072 
L 364.524064 -114.302525 
L 365.518717 -107.62165 
L 366.513369 -109.799438 
L 367.508021 -119.83836 
L 368.502674 -113.775776 
L 369.497326 -119.191404 
L 370.491979 -118.478201 
L 371.486631 -121.023922 
L 372.481283 -109.674594 
L 373.475936 -114.080624 
L 374.470588 -119.632355 
L 375.465241 -116.870518 
L 376.459893 -116.214937 
L 377.454545 -122.616813 
L 378.449198 -123.784752 
L 379.44385 -125.952691 
L 380.438503 -120.430943 
L 381.433155 -126.587687 
L 382.427807 -128.000153 
L 383.42246 -125.366526 
L 384.417112 -126.237684 
L 385.411765 -114.1193 
L 386.406417 -106.108882 
L 387.40107 -107.382608 
L 388.395722 -108.370684 
L 389.390374 -107.62165 
L 390.385027 -108.84336 
L 391.379679 -106.907732 
L 392.374332 -107.198304 
L 393.368984 -104.942209 
L 394.363636 -107.285244 
L 395.358289 -107.62165 
L 396.352941 -106.276441 
L 397.347594 -107.62165 
L 398.342246 -106.806737 
L 399.336898 -105.648046 
L 400.331551 -99.628713 
L 401.326203 -103.887444 
L 402.320856 -107.376494 
L 403.315508 -106.443781 
L 404.31016 -107.88464 
L 405.304813 -106.778079 
L 406.299465 -106.958023 
L 407.294118 -106.794485 
L 408.28877 -106.275555 
L 409.283422 -107.62165 
L 410.278075 -107.120813 
L 411.272727 -108.533305 
L 412.26738 -106.979723 
L 413.262032 -106.47101 
L 414.256684 -106.295723 
L 415.251337 -106.87177 
L 416.245989 -107.613411 
L 417.240642 -107.62165 
L 418.235294 -106.513133 
L 419.229947 -106.013349 
L 420.224599 -103.914047 
L 421.219251 -105.244786 
L 422.213904 -106.293875 
L 423.208556 -107.596096 
L 424.203209 -106.550596 
L 425.197861 -106.669615 
L 426.192513 -107.420177 
L 427.187166 -105.41714 
L 428.181818 -104.562945 
L 429.176471 -105.496594 
L 430.171123 -107.611344 
L 431.165775 -107.561627 
L 432.160428 -108.297728 
L 433.15508 -107.237002 
L 434.149733 -106.212777 
L 435.144385 -104.599826 
L 436.139037 -107.080102 
L 437.13369 -108.366049 
L 438.128342 -107.62165 
L 439.122995 -106.761259 
L 440.117647 -105.379405 
L 441.112299 -106.034096 
L 442.106952 -106.693698 
L 443.101604 -105.536861 
L 444.096257 -107.349178 
L 445.090909 -106.756779 
L 446.085561 -107.62165 
L 447.080214 -108.176592 
L 448.074866 -107.62165 
L 449.069519 -106.192088 
L 450.064171 -107.008744 
L 451.058824 -108.559244 
L 452.053476 -107.62165 
L 453.048128 -108.318037 
L 454.042781 -107.072009 
L 455.037433 -108.094861 
L 456.032086 -105.871967 
L 457.026738 -105.985615 
L 458.02139 -113.808296 
L 459.016043 -109.692695 
L 460.010695 -112.251601 
L 461.005348 -113.318608 
L 462 -114.957032 
L 462.994652 -107.148002 
L 463.989305 -107.581934 
L 464.983957 -120.796952 
L 465.97861 -114.505164 
L 466.973262 -113.341699 
L 467.967914 -119.486504 
L 468.962567 -117.988474 
L 469.957219 -124.100881 
L 470.951872 -120.14115 
L 471.946524 -122.770016 
L 472.941176 -122.815712 
L 473.935829 -118.443144 
L 474.930481 -123.232113 
L 475.925134 -123.871451 
L 476.919786 -112.596528 
L 477.914439 -124.26404 
L 478.909091 -125.185346 
L 479.903743 -129.570473 
L 480.898396 -124.729581 
L 481.893048 -128.86469 
L 482.887701 -130.066188 
L 483.882353 -127.092264 
L 484.877005 -131.591166 
L 485.871658 -135.533326 
L 486.86631 -133.123488 
L 487.860963 -129.525956 
L 488.855615 -134.816093 
L 489.850267 -133.844897 
L 490.84492 -126.10168 
L 491.839572 -129.715047 
L 492.834225 -136.592634 
L 493.828877 -131.48291 
L 494.823529 -134.472497 
L 495.818182 -141.584582 
L 496.812834 -137.996298 
L 497.807487 -129.082872 
L 498.802139 -132.441836 
L 499.796791 -131.798952 
L 500.791444 -138.923319 
L 501.786096 -129.680838 
L 502.780749 -136.535443 
L 503.775401 -132.243999 
L 504.770053 -127.94136 
L 505.764706 -145.614639 
L 506.759358 -144.930578 
L 507.754011 -142.353095 
L 508.748663 -132.239609 
L 509.743316 -144.527918 
L 510.737968 -151.734729 
L 511.73262 -151.820421 
L 512.727273 -181.114433 
L 513.721925 -205.601566 
L 514.716578 -182.204751 
L 515.71123 -154.625121 
L 516.705882 -167.751074 
L 517.700535 -156.113082 
L 518.695187 -155.323277 
L 519.68984 -204.222792 
L 520.684492 -226.368169 
L 521.679144 -181.304162 
L 522.673797 -155.389005 
L 523.668449 -161.578062 
L 524.663102 -172.538068 
L 525.657754 -153.31578 
L 526.652406 -187.480066 
L 527.647059 -214.799085 
L 528.641711 -173.497564 
L 529.636364 -153.667139 
L 530.631016 -162.41885 
L 531.625668 -153.654757 
L 532.620321 -152.171475 
L 533.614973 -178.25992 
L 534.609626 -183.010558 
L 535.604278 -172.354551 
L 536.59893 -150.876212 
L 537.593583 -148.522221 
L 538.588235 -154.04487 
L 539.582888 -145.878606 
L 540.57754 -191.342613 
L 541.572193 -195.442812 
L 542.566845 -183.701262 
L 543.561497 -153.374144 
L 544.55615 -152.580338 
L 545.550802 -152.482309 
L 546.545455 -149.484456 
L 547.540107 -201.044989 
L 548.534759 -175.156366 
L 549.529412 -154.33097 
L 550.524064 -152.521289 
L 551.518717 -150.648652 
L 552.513369 -145.315634 
L 553.508021 -192.570113 
L 554.502674 -214.312567 
L 555.497326 -177.358052 
L 556.491979 -153.277512 
L 557.486631 -161.88803 
L 558.481283 -152.186516 
L 559.475936 -148.218654 
L 560.470588 -194.809281 
L 561.465241 -202.306089 
L 562.459893 -178.129609 
L 563.454545 -157.114574 
L 564.449198 -156.723707 
L 565.44385 -154.854769 
L 566.438503 -148.784554 
L 567.433155 -206.201909 
L 568.427807 -209.067136 
L 569.42246 -182.680727 
L 570.417112 -157.237282 
L 571.411765 -155.038625 
L 572.406417 -157.510237 
L 573.40107 -151.795066 
L 574.395722 -200.263163 
L 575.390374 -228.274218 
L 576.385027 -188.638655 
L 577.379679 -159.919885 
L 578.374332 -158.167543 
L 579.368984 -157.457534 
L 580.363636 -155.803925 
L 581.358289 -202.727933 
L 582.352941 -227.587054 
L 583.347594 -176.483264 
L 584.342246 -155.759238 
L 585.336898 -157.654319 
L 586.331551 -154.202048 
L 587.326203 -148.87209 
L 588.320856 -195.045585 
L 589.315508 -218.161534 
L 590.31016 -180.528748 
L 591.304813 -162.172266 
L 592.299465 -163.538169 
L 593.294118 -162.383295 
L 594.28877 -152.565643 
L 595.283422 -197.737349 
L 596.278075 -230.088602 
L 597.272727 -180.857527 
L 598.26738 -154.266031 
L 599.262032 -155.440221 
L 600.256684 -159.687934 
L 601.251337 -154.494434 
L 602.245989 -197.608164 
L 603.240642 -214.00763 
L 604.235294 -184.516758 
L 605.229947 -158.756623 
L 606.224599 -151.802378 
L 607.219251 -154.62013 
L 608.213904 -149.932764 
L 609.208556 -197.759653 
L 610.203209 -209.453267 
L 611.197861 -188.191393 
L 612.192513 -154.27576 
L 613.187166 -152.829515 
L 614.181818 -152.552309 
L 615.176471 -146.462725 
L 616.171123 -193.934204 
L 617.165775 -214.386631 
L 618.160428 -186.568848 
L 619.15508 -157.460279 
L 620.149733 -155.55662 
L 621.144385 -152.051377 
L 622.139037 -146.967014 
L 623.13369 -186.154033 
L 624.128342 -205.994689 
L 625.122995 -176.775274 
L 626.117647 -155.392169 
L 627.112299 -157.286024 
L 628.106952 -162.253805 
L 629.101604 -162.210165 
L 630.096257 -203.368278 
L 631.090909 -225.264499 
L 632.085561 -209.947938 
L 633.080214 -226.390536 
L 634.074866 -220.374006 
L 635.069519 -205.410343 
L 636.064171 -195.924686 
L 637.058824 -234.334061 
L 638.053476 -233.450682 
L 639.048128 -213.90776 
L 640.042781 -202.357921 
L 641.037433 -209.735884 
L 642.032086 -199.145066 
L 643.026738 -200.974932 
L 644.02139 -216.719493 
L 645.016043 -243.886955 
L 646.010695 -219.130787 
L 647.005348 -214.479143 
L 647.005348 -139.394957 
L 647.005348 -139.394957 
L 646.010695 -147.194212 
L 645.016043 -150.334025 
L 644.02139 -146.92865 
L 643.026738 -130.475717 
L 642.032086 -135.367791 
L 641.037433 -140.065505 
L 640.042781 -142.72695 
L 639.048128 -152.199346 
L 638.053476 -168.326827 
L 637.058824 -163.939318 
L 636.064171 -134.772025 
L 635.069519 -141.559765 
L 634.074866 -137.386921 
L 633.080214 -139.74559 
L 632.085561 -150.020673 
L 631.090909 -175.424844 
L 630.096257 -153.550109 
L 629.101604 -126.419795 
L 628.106952 -135.769249 
L 627.112299 -136.29118 
L 626.117647 -130.232884 
L 625.122995 -137.35452 
L 624.128342 -147.955452 
L 623.13369 -146.542031 
L 622.139037 -129.682907 
L 621.144385 -132.121285 
L 620.149733 -136.210433 
L 619.15508 -142.030488 
L 618.160428 -149.503535 
L 617.165775 -166.658798 
L 616.171123 -149.805639 
L 615.176471 -130.055439 
L 614.181818 -133.85903 
L 613.187166 -133.041991 
L 612.192513 -136.095966 
L 611.197861 -152.331905 
L 610.203209 -169.634325 
L 609.208556 -153.597625 
L 608.213904 -119.630732 
L 607.219251 -133.48484 
L 606.224599 -136.022202 
L 605.229947 -134.110684 
L 604.235294 -144.891043 
L 603.240642 -163.814654 
L 602.245989 -156.909815 
L 601.251337 -127.489088 
L 600.256684 -131.245502 
L 599.262032 -138.901641 
L 598.26738 -137.723201 
L 597.272727 -139.12589 
L 596.278075 -166.346771 
L 595.283422 -153.885923 
L 594.28877 -131.218414 
L 593.294118 -141.298907 
L 592.299465 -137.290235 
L 591.304813 -136.847615 
L 590.31016 -148.684498 
L 589.315508 -163.041212 
L 588.320856 -153.704188 
L 587.326203 -130.336809 
L 586.331551 -137.276405 
L 585.336898 -134.965127 
L 584.342246 -139.376947 
L 583.347594 -145.276256 
L 582.352941 -169.284204 
L 581.358289 -155.765523 
L 580.363636 -131.150305 
L 579.368984 -136.417273 
L 578.374332 -138.711567 
L 577.379679 -140.345139 
L 576.385027 -149.338062 
L 575.390374 -164.420845 
L 574.395722 -149.156458 
L 573.40107 -129.401045 
L 572.406417 -138.757395 
L 571.411765 -132.808382 
L 570.417112 -138.714971 
L 569.42246 -149.884868 
L 568.427807 -150.533727 
L 567.433155 -158.309534 
L 566.438503 -133.956505 
L 565.44385 -134.180141 
L 564.449198 -135.045575 
L 563.454545 -135.63426 
L 562.459893 -145.660027 
L 561.465241 -150.945029 
L 560.470588 -143.993076 
L 559.475936 -120.468795 
L 558.481283 -120.343625 
L 557.486631 -120.869475 
L 556.491979 -117.058393 
L 555.497326 -124.544152 
L 554.502674 -131.184465 
L 553.508021 -118.123597 
L 552.513369 -110.623838 
L 551.518717 -121.437944 
L 550.524064 -122.556623 
L 549.529412 -128.018468 
L 548.534759 -136.675449 
L 547.540107 -147.227015 
L 546.545455 -128.938305 
L 545.550802 -132.466845 
L 544.55615 -128.160471 
L 543.561497 -130.574199 
L 542.566845 -143.764149 
L 541.572193 -149.806877 
L 540.57754 -138.829313 
L 539.582888 -115.095232 
L 538.588235 -120.681784 
L 537.593583 -119.516192 
L 536.59893 -124.11624 
L 535.604278 -133.119683 
L 534.609626 -132.446593 
L 533.614973 -135.203949 
L 532.620321 -129.957068 
L 531.625668 -130.131644 
L 530.631016 -133.911546 
L 529.636364 -131.325347 
L 528.641711 -143.08668 
L 527.647059 -152.232626 
L 526.652406 -146.36239 
L 525.657754 -132.162836 
L 524.663102 -136.140574 
L 523.668449 -134.139624 
L 522.673797 -135.265932 
L 521.679144 -145.696404 
L 520.684492 -155.418314 
L 519.68984 -148.266438 
L 518.695187 -124.444416 
L 517.700535 -130.728642 
L 516.705882 -130.008866 
L 515.71123 -140.152481 
L 514.716578 -142.212002 
L 513.721925 -148.019155 
L 512.727273 -146.826014 
L 511.73262 -121.269755 
L 510.737968 -124.383898 
L 509.743316 -120.304093 
L 508.748663 -118.038714 
L 507.754011 -118.150456 
L 506.759358 -125.267 
L 505.764706 -113.544326 
L 504.770053 -113.091757 
L 503.775401 -121.176011 
L 502.780749 -122.961606 
L 501.786096 -118.461487 
L 500.791444 -120.76324 
L 499.796791 -115.134167 
L 498.802139 -107.54401 
L 497.807487 -104.641178 
L 496.812834 -119.755941 
L 495.818182 -118.160572 
L 494.823529 -116.668797 
L 493.828877 -114.481279 
L 492.834225 -120.090461 
L 491.839572 -117.568501 
L 490.84492 -110.495849 
L 489.850267 -119.682442 
L 488.855615 -118.118152 
L 487.860963 -119.531348 
L 486.86631 -118.208855 
L 485.871658 -122.165041 
L 484.877005 -118.81455 
L 483.882353 -109.401522 
L 482.887701 -117.428565 
L 481.893048 -115.089581 
L 480.898396 -114.514694 
L 479.903743 -116.625203 
L 478.909091 -113.680994 
L 477.914439 -107.503207 
L 476.919786 -101.092679 
L 475.925134 -111.589179 
L 474.930481 -109.180714 
L 473.935829 -107.007 
L 472.941176 -110.923032 
L 471.946524 -105.23146 
L 470.951872 -102.356522 
L 469.957219 -103.523135 
L 468.962567 -107.779054 
L 467.967914 -109.513569 
L 466.973262 -106.693376 
L 465.97861 -104.655944 
L 464.983957 -105.165517 
L 463.989305 -97.506637 
L 462.994652 -99.603405 
L 462 -104.299278 
L 461.005348 -105.658516 
L 460.010695 -105.283932 
L 459.016043 -104.891574 
L 458.02139 -101.59143 
L 457.026738 -95.744209 
L 456.032086 -95.307813 
L 455.037433 -102.528382 
L 454.042781 -100.147717 
L 453.048128 -103.869598 
L 452.053476 -104.178812 
L 451.058824 -103.912757 
L 450.064171 -92.959561 
L 449.069519 -94.152423 
L 448.074866 -100.294982 
L 447.080214 -102.68976 
L 446.085561 -98.142968 
L 445.090909 -95.790393 
L 444.096257 -98.34986 
L 443.101604 -93.063979 
L 442.106952 -92.392244 
L 441.112299 -94.708675 
L 440.117647 -93.877076 
L 439.122995 -96.728597 
L 438.128342 -98.241462 
L 437.13369 -95.273394 
L 436.139037 -91.587112 
L 435.144385 -88.04081 
L 434.149733 -93.74039 
L 433.15508 -94.807355 
L 432.160428 -100.079947 
L 431.165775 -97.791751 
L 430.171123 -100.022451 
L 429.176471 -87.123289 
L 428.181818 -89.175466 
L 427.187166 -95.450358 
L 426.192513 -96.42866 
L 425.197861 -97.243349 
L 424.203209 -96.491788 
L 423.208556 -96.472807 
L 422.213904 -90.769301 
L 421.219251 -90.703834 
L 420.224599 -94.75301 
L 419.229947 -97.466639 
L 418.235294 -93.98064 
L 417.240642 -98.009208 
L 416.245989 -97.094094 
L 415.251337 -88.620247 
L 414.256684 -87.223111 
L 413.262032 -96.378093 
L 412.26738 -96.77454 
L 411.272727 -98.990401 
L 410.278075 -101.6587 
L 409.283422 -99.938853 
L 408.28877 -88.695515 
L 407.294118 -89.03643 
L 406.299465 -97.873885 
L 405.304813 -99.803482 
L 404.31016 -98.678282 
L 403.315508 -98.223508 
L 402.320856 -98.396291 
L 401.326203 -94.734425 
L 400.331551 -87.934329 
L 399.336898 -96.396216 
L 398.342246 -97.728382 
L 397.347594 -100.844531 
L 396.352941 -99.348113 
L 395.358289 -97.573734 
L 394.363636 -92.993704 
L 393.368984 -89.076658 
L 392.374332 -96.360722 
L 391.379679 -100.597417 
L 390.385027 -103.267445 
L 389.390374 -102.31712 
L 388.395722 -101.626172 
L 387.40107 -93.917386 
L 386.406417 -94.047289 
L 385.411765 -102.499763 
L 384.417112 -110.563387 
L 383.42246 -113.863492 
L 382.427807 -113.399046 
L 381.433155 -111.822176 
L 380.438503 -109.417001 
L 379.44385 -108.455156 
L 378.449198 -107.149024 
L 377.454545 -109.829572 
L 376.459893 -108.531567 
L 375.465241 -106.64923 
L 374.470588 -108.331366 
L 373.475936 -100.836148 
L 372.481283 -98.683225 
L 371.486631 -107.662763 
L 370.491979 -107.27884 
L 369.497326 -107.834529 
L 368.502674 -103.718455 
L 367.508021 -105.459946 
L 366.513369 -100.740039 
L 365.518717 -98.341015 
L 364.524064 -104.112052 
L 363.529412 -103.92059 
L 362.534759 -105.371161 
L 361.540107 -104.745926 
L 360.545455 -104.022078 
L 359.550802 -92.944505 
L 358.55615 -95.555311 
L 357.561497 -100.77348 
L 356.566845 -105.743508 
L 355.572193 -103.068728 
L 354.57754 -105.573782 
L 353.582888 -105.614 
L 352.588235 -99.421103 
L 351.593583 -97.535216 
L 350.59893 -103.297884 
L 349.604278 -107.912216 
L 348.609626 -109.428055 
L 347.614973 -106.617151 
L 346.620321 -105.32012 
L 345.625668 -97.827213 
L 344.631016 -96.408949 
L 343.636364 -103.130211 
L 342.641711 -106.283236 
L 341.647059 -105.554207 
L 340.652406 -103.343786 
L 339.657754 -104.295771 
L 338.663102 -101.841009 
L 337.668449 -92.164389 
L 336.673797 -100.590088 
L 335.679144 -106.086458 
L 334.684492 -108.471505 
L 333.68984 -105.626276 
L 332.695187 -105.906157 
L 331.700535 -101.747383 
L 330.705882 -98.107901 
L 329.71123 -105.43652 
L 328.716578 -106.613772 
L 327.721925 -108.372838 
L 326.727273 -105.031511 
L 325.73262 -107.468369 
L 324.737968 -104.969447 
L 323.743316 -103.768578 
L 322.748663 -113.514539 
L 321.754011 -112.841564 
L 320.759358 -116.534462 
L 319.764706 -108.074055 
L 318.770053 -110.536739 
L 317.775401 -105.989826 
L 316.780749 -102.949117 
L 315.786096 -108.433761 
L 314.791444 -110.345052 
L 313.796791 -111.1755 
L 312.802139 -107.316899 
L 311.807487 -109.726845 
L 310.812834 -107.143941 
L 309.818182 -104.342401 
L 308.823529 -108.292078 
L 307.828877 -113.747546 
L 306.834225 -117.429556 
L 305.839572 -116.039617 
L 304.84492 -116.6414 
L 303.850267 -115.602569 
L 302.855615 -116.277121 
L 301.860963 -121.217728 
L 300.86631 -126.98631 
L 299.871658 -131.854937 
L 298.877005 -131.965794 
L 297.882353 -131.577233 
L 296.887701 -139.81262 
L 295.893048 -134.753095 
L 294.898396 -146.155985 
L 293.903743 -149.615614 
L 292.909091 -148.697737 
L 291.914439 -163.677815 
L 290.919786 -145.829353 
L 289.925134 -129.151728 
L 288.930481 -131.229402 
L 287.935829 -138.410671 
L 286.941176 -140.460531 
L 285.946524 -153.045121 
L 284.951872 -163.018788 
L 283.957219 -141.531218 
L 282.962567 -128.4665 
L 281.967914 -133.405338 
L 280.973262 -140.716326 
L 279.97861 -141.497815 
L 278.983957 -139.429919 
L 277.989305 -172.794125 
L 276.994652 -152.838811 
L 276 -132.88033 
L 275.005348 -142.329082 
L 274.010695 -143.30531 
L 273.016043 -138.558246 
L 272.02139 -150.134451 
L 271.026738 -177.942308 
L 270.032086 -160.596158 
L 269.037433 -139.044313 
L 268.042781 -140.374817 
L 267.048128 -131.542559 
L 266.053476 -134.179658 
L 265.058824 -144.754338 
L 264.064171 -170.158453 
L 263.069519 -144.706299 
L 262.074866 -126.988511 
L 261.080214 -125.740327 
L 260.085561 -115.109087 
L 259.090909 -123.587856 
L 258.096257 -132.025843 
L 257.101604 -143.877163 
L 256.106952 -140.921306 
L 255.112299 -106.652177 
L 254.117647 -121.195962 
L 253.122995 -119.623137 
L 252.128342 -127.423675 
L 251.13369 -139.869933 
L 250.139037 -148.746585 
L 249.144385 -146.278246 
L 248.149733 -122.57073 
L 247.15508 -131.104102 
L 246.160428 -130.798241 
L 245.165775 -139.02068 
L 244.171123 -139.955303 
L 243.176471 -165.957679 
L 242.181818 -158.317456 
L 241.187166 -131.751869 
L 240.192513 -132.871996 
L 239.197861 -133.514739 
L 238.203209 -136.032569 
L 237.208556 -147.022403 
L 236.213904 -152.781878 
L 235.219251 -157.918726 
L 234.224599 -135.975945 
L 233.229947 -137.39088 
L 232.235294 -133.192455 
L 231.240642 -134.916631 
L 230.245989 -141.400348 
L 229.251337 -164.97349 
L 228.256684 -148.442562 
L 227.262032 -117.351775 
L 226.26738 -135.588935 
L 225.272727 -131.244217 
L 224.278075 -138.340294 
L 223.283422 -139.388872 
L 222.28877 -152.609855 
L 221.294118 -153.415394 
L 220.299465 -125.344953 
L 219.304813 -135.321879 
L 218.31016 -129.98882 
L 217.315508 -136.688611 
L 216.320856 -140.433746 
L 215.326203 -160.883886 
L 214.331551 -152.67839 
L 213.336898 -132.019875 
L 212.342246 -136.907951 
L 211.347594 -133.691944 
L 210.352941 -124.155573 
L 209.358289 -147.439519 
L 208.363636 -169.909796 
L 207.368984 -158.729411 
L 206.374332 -122.677272 
L 205.379679 -128.80831 
L 204.385027 -127.878808 
L 203.390374 -133.928222 
L 202.395722 -138.052263 
L 201.40107 -160.45191 
L 200.406417 -154.743108 
L 199.411765 -131.48243 
L 198.417112 -136.298725 
L 197.42246 -130.567374 
L 196.427807 -135.068533 
L 195.433155 -140.539735 
L 194.438503 -163.702013 
L 193.44385 -156.566447 
L 192.449198 -125.701579 
L 191.454545 -128.349673 
L 190.459893 -133.034509 
L 189.465241 -134.465977 
L 188.470588 -152.502202 
L 187.475936 -159.455872 
L 186.481283 -142.97067 
L 185.486631 -130.467523 
L 184.491979 -137.983869 
L 183.497326 -134.776887 
L 182.502674 -138.690893 
L 181.508021 -143.359282 
L 180.513369 -153.864859 
L 179.518717 -149.627428 
L 178.524064 -120.24956 
L 177.529412 -121.228528 
L 176.534759 -125.576762 
L 175.540107 -122.892447 
L 174.545455 -132.666343 
L 173.550802 -147.557692 
L 172.55615 -131.586733 
L 171.561497 -125.574939 
L 170.566845 -131.88018 
L 169.572193 -115.57972 
L 168.57754 -129.572778 
L 167.582888 -137.766653 
L 166.588235 -148.932639 
L 165.593583 -149.699374 
L 164.59893 -127.690958 
L 163.604278 -137.177186 
L 162.609626 -126.590667 
L 161.614973 -131.010296 
L 160.620321 -141.628273 
L 159.625668 -144.228159 
L 158.631016 -154.992016 
L 157.636364 -114.276289 
L 156.641711 -131.323324 
L 155.647059 -122.823823 
L 154.652406 -123.570877 
L 153.657754 -138.550953 
L 152.663102 -139.950012 
L 151.668449 -135.826939 
L 150.673797 -118.783244 
L 149.679144 -122.502671 
L 148.684492 -119.548447 
L 147.68984 -113.1936 
L 146.695187 -117.38992 
L 145.700535 -116.596067 
L 144.705882 -105.746299 
L 143.71123 -104.413975 
L 142.716578 -115.457968 
L 141.721925 -116.833786 
L 140.727273 -119.784105 
L 139.73262 -117.286695 
L 138.737968 -109.426961 
L 137.743316 -101.329319 
L 136.748663 -113.834891 
L 135.754011 -117.953793 
L 134.759358 -116.615534 
L 133.764706 -118.155846 
L 132.770053 -116.761433 
L 131.775401 -111.634808 
L 130.780749 -105.312113 
L 129.786096 -114.346439 
L 128.791444 -115.339969 
L 127.796791 -112.28084 
L 126.802139 -116.457744 
L 125.807487 -114.986398 
L 124.812834 -110.837012 
L 123.818182 -104.486622 
L 122.823529 -117.249871 
L 121.828877 -114.972658 
L 120.834225 -110.738671 
L 119.839572 -110.602905 
L 118.84492 -111.599483 
L 117.850267 -102.869803 
L 116.855615 -101.759062 
L 115.860963 -102.723041 
L 114.86631 -106.450382 
L 113.871658 -106.90505 
L 112.877005 -105.247657 
L 111.882353 -106.544117 
L 110.887701 -100.155465 
L 109.893048 -101.473503 
L 108.898396 -114.306534 
L 107.903743 -109.835843 
L 106.909091 -107.017815 
L 105.914439 -104.847938 
L 104.919786 -102.581768 
L 103.925134 -99.11361 
L 102.930481 -97.594676 
L 101.935829 -105.234543 
L 100.941176 -105.50094 
L 99.946524 -104.546431 
L 98.951872 -103.9417 
L 97.957219 -104.828419 
L 96.962567 -96.153813 
L 95.967914 -98.849382 
L 94.973262 -104.154337 
L 93.97861 -105.392547 
L 92.983957 -103.07574 
L 91.989305 -105.288974 
L 90.994652 -105.122585 
L 90 -99.890942 
z
" id="m24b7ed389a" style="stroke:#c44e52;stroke-opacity:0.1;stroke-width:0.8;"/>
    </defs>
    <g clip-path="url(#pde7007e143)">
     <use style="fill:#c44e52;fill-opacity:0.1;stroke:#c44e52;stroke-opacity:0.1;stroke-width:0.8;" x="0" xlink:href="#m24b7ed389a" y="360"/>
    </g>
   </g>
   <g id="line2d_15">
    <path clip-path="url(#pde7007e143)" d="M 90 281.519408 
L 90.994652 271.748476 
L 91.989305 264.89156 
L 92.983957 268.684955 
L 93.97861 250.073492 
L 94.973262 255.12691 
L 95.967914 269.414731 
L 97.957219 265.765068 
L 98.951872 256.033513 
L 99.946524 260.223443 
L 100.941176 225.533108 
L 101.935829 257.176049 
L 102.930481 268.779445 
L 103.925134 267.413757 
L 105.914439 250.134946 
L 106.909091 249.44353 
L 107.903743 238.50233 
L 108.898396 243.831566 
L 109.893048 258.747901 
L 110.887701 262.809404 
L 111.882353 225.988377 
L 112.877005 224.9792 
L 113.871658 238.612164 
L 115.860963 253.479297 
L 116.855615 253.969265 
L 117.850267 250.012117 
L 118.84492 223.491583 
L 119.839572 243.743026 
L 120.834225 251.551872 
L 121.828877 248.190808 
L 122.823529 232.676099 
L 123.818182 250.75434 
L 124.812834 242.299444 
L 125.807487 219.042 
L 126.802139 208.830693 
L 127.796791 227.541637 
L 128.791444 233.617598 
L 129.786096 237.236143 
L 130.780749 244.528306 
L 131.775401 232.023591 
L 132.770053 223.0726 
L 133.764706 226.591135 
L 134.759358 235.199941 
L 135.754011 240.098373 
L 136.748663 242.265233 
L 137.743316 236.094742 
L 138.737968 212.771187 
L 139.73262 219.788138 
L 140.727273 238.143431 
L 141.721925 242.282338 
L 142.716578 211.957254 
L 143.71123 234.067856 
L 144.705882 236.392226 
L 145.700535 219.002035 
L 146.695187 224.251538 
L 147.68984 215.909216 
L 148.684492 213.883739 
L 149.679144 198.884774 
L 150.673797 231.929218 
L 151.668449 202.73473 
L 152.663102 118.213791 
L 153.657754 146.028029 
L 154.652406 200.875257 
L 155.647059 204.284898 
L 156.641711 189.484308 
L 157.636364 208.304811 
L 158.631016 150.294894 
L 159.625668 161.242475 
L 160.620321 183.414844 
L 161.614973 208.617992 
L 162.609626 196.724294 
L 163.604278 191.215549 
L 164.59893 226.591135 
L 165.593583 184.897451 
L 166.588235 165.61796 
L 167.582888 216.0396 
L 168.57754 228.40168 
L 169.572193 227.226499 
L 170.566845 198.891037 
L 171.561497 226.000159 
L 172.55615 220.661333 
L 173.550802 209.651711 
L 174.545455 204.850196 
L 175.540107 223.68029 
L 176.534759 223.325696 
L 177.529412 219.353028 
L 178.524064 233.687624 
L 179.518717 181.89646 
L 180.513369 150.154137 
L 181.508021 198.609483 
L 182.502674 206.077476 
L 183.497326 217.868463 
L 184.491979 210.088504 
L 185.486631 234.323184 
L 186.481283 187.264292 
L 187.475936 172.941438 
L 188.470588 213.512627 
L 189.465241 221.648002 
L 190.459893 221.120398 
L 191.454545 214.590538 
L 192.449198 226.507879 
L 193.44385 204.886207 
L 194.438503 93.446692 
L 195.433155 165.615064 
L 196.427807 197.174395 
L 197.42246 202.054196 
L 198.417112 154.842177 
L 199.411765 216.414313 
L 200.406417 200.430714 
L 201.40107 175.391182 
L 202.395722 202.297937 
L 203.390374 211.183364 
L 204.385027 214.916479 
L 205.379679 212.21266 
L 206.374332 233.24128 
L 207.368984 188.014539 
L 208.363636 172.257498 
L 209.358289 189.363239 
L 210.352941 223.981767 
L 211.347594 227.009688 
L 212.342246 226.758078 
L 213.336898 248.466059 
L 214.331551 222.657648 
L 215.326203 190.496107 
L 216.320856 218.643997 
L 217.315508 225.777633 
L 218.31016 229.81426 
L 219.304813 233.185854 
L 220.299465 253.701314 
L 221.294118 217.956104 
L 222.28877 204.413051 
L 223.283422 224.341801 
L 224.278075 235.549798 
L 225.272727 234.98266 
L 226.26738 231.714363 
L 227.262032 255.63598 
L 228.256684 226.448577 
L 229.251337 188.698518 
L 230.245989 225.918038 
L 231.240642 236.60164 
L 232.235294 229.660704 
L 233.229947 237.220916 
L 234.224599 249.645741 
L 235.219251 236.706738 
L 236.213904 185.764696 
L 237.208556 222.788267 
L 238.203209 222.952079 
L 239.197861 222.182104 
L 240.192513 218.416735 
L 241.187166 247.781141 
L 242.181818 230.408094 
L 243.176471 202.934084 
L 244.171123 218.269206 
L 245.165775 230.032755 
L 246.160428 225.002138 
L 247.15508 230.590421 
L 248.149733 247.684184 
L 249.144385 216.801786 
L 250.139037 198.441444 
L 252.128342 227.6757 
L 253.122995 230.786682 
L 254.117647 242.419338 
L 255.112299 255.869368 
L 256.106952 239.101917 
L 257.101604 219.393306 
L 258.096257 189.297832 
L 259.090909 227.45654 
L 260.085561 234.508563 
L 261.080214 230.747383 
L 262.074866 243.25065 
L 263.069519 218.416735 
L 264.064171 202.823975 
L 266.053476 238.533683 
L 267.048128 241.856936 
L 268.042781 222.139125 
L 269.037433 216.329726 
L 270.032086 194.752012 
L 271.026738 196.742221 
L 272.02139 206.457003 
L 273.016043 213.56547 
L 274.010695 217.10659 
L 275.005348 214.771299 
L 276 221.91425 
L 276.994652 153.534655 
L 277.989305 118.535348 
L 278.983957 159.007232 
L 279.97861 187.154105 
L 280.973262 200.600123 
L 281.967914 201.311111 
L 282.962567 216.602902 
L 283.957219 197.168367 
L 284.951872 159.042226 
L 285.946524 193.994327 
L 286.941176 206.591771 
L 287.935829 209.893808 
L 288.930481 218.04394 
L 289.925134 238.518026 
L 290.919786 231.513914 
L 291.914439 219.676385 
L 292.909091 222.074775 
L 293.903743 223.182434 
L 294.898396 219.473979 
L 295.893048 209.315045 
L 296.887701 231.700977 
L 297.882353 190.428938 
L 298.877005 136.362606 
L 299.871658 180.090809 
L 300.86631 204.299106 
L 301.860963 225.105514 
L 302.855615 240.2286 
L 303.850267 243.320637 
L 304.84492 238.190089 
L 305.839572 217.269424 
L 306.834225 228.438904 
L 307.828877 241.402176 
L 308.823529 239.117809 
L 309.818182 243.478538 
L 310.812834 256.529666 
L 311.807487 226.389276 
L 312.802139 242.937039 
L 313.796791 243.70768 
L 314.791444 245.567192 
L 315.786096 248.053809 
L 316.780749 232.566617 
L 317.775401 263.334523 
L 318.770053 257.563698 
L 319.764706 255.103874 
L 320.759358 248.347888 
L 321.754011 256.696316 
L 322.748663 261.271156 
L 323.743316 276.679377 
L 324.737968 276.227592 
L 325.73262 262.809404 
L 326.727273 251.530657 
L 327.721925 244.080357 
L 328.716578 216.7354 
L 329.71123 238.81688 
L 330.705882 268.277812 
L 331.700535 269.57502 
L 332.695187 254.419543 
L 333.68984 253.280432 
L 334.684492 248.942034 
L 335.679144 252.235029 
L 336.673797 248.053809 
L 337.668449 271.951587 
L 338.663102 276.755137 
L 339.657754 263.837956 
L 340.652406 257.539351 
L 341.647059 263.27894 
L 342.641711 260.171736 
L 343.636364 265.882887 
L 344.631016 286.444614 
L 345.625668 282.374206 
L 346.620321 264.604272 
L 347.614973 235.579077 
L 348.609626 247.645472 
L 349.604278 266.267992 
L 350.59893 265.267916 
L 351.593583 282.590586 
L 352.588235 240.704145 
L 353.582888 274.791056 
L 354.57754 266.776827 
L 355.572193 269.255029 
L 356.566845 271.311663 
L 357.561497 269.28693 
L 358.55615 285.879256 
L 359.550802 287.11364 
L 360.545455 271.680994 
L 361.540107 276.528266 
L 362.534759 274.538175 
L 363.529412 268.371441 
L 364.524064 266.387162 
L 365.518717 291.627104 
L 366.513369 277.289181 
L 367.508021 270.945464 
L 368.502674 268.842543 
L 369.497326 263.922446 
L 370.491979 262.836882 
L 371.486631 267.109286 
L 372.481283 286.682347 
L 373.475936 264.71896 
L 374.470588 250.795949 
L 375.465241 260.954178 
L 376.459893 253.723586 
L 377.454545 257.490736 
L 378.449198 264.091894 
L 380.438503 274.574205 
L 381.433155 264.375796 
L 382.427807 263.112642 
L 384.417112 253.946876 
L 385.411765 246.049508 
L 386.406417 272.258035 
L 387.40107 282.851668 
L 388.395722 264.176873 
L 389.390374 268.937386 
L 390.385027 246.574998 
L 391.379679 262.781926 
L 392.374332 265.912381 
L 393.368984 276.831016 
L 394.363636 281.43484 
L 396.352941 248.802686 
L 398.342246 266.837088 
L 399.336898 265.122795 
L 400.331551 289.7444 
L 401.326203 286.921411 
L 402.320856 272.326437 
L 403.315508 270.418251 
L 404.31016 272.429245 
L 405.304813 202.243646 
L 406.299465 223.116518 
L 407.294118 259.581268 
L 408.28877 271.579967 
L 409.283422 276.717228 
L 410.278075 270.945464 
L 411.272727 260.639491 
L 412.26738 267.413757 
L 413.262032 266.178806 
L 414.256684 290.362913 
L 415.251337 281.43484 
L 417.240642 269.735936 
L 418.235294 271.378578 
L 419.229947 275.595536 
L 420.224599 282.547216 
L 421.219251 292.490866 
L 422.213904 299.392639 
L 423.208556 276.641545 
L 424.203209 276.641545 
L 425.197861 282.07312 
L 426.192513 276.003461 
L 428.181818 293.932334 
L 429.176471 299.074057 
L 430.171123 283.246246 
L 431.165775 281.689013 
L 432.160428 278.298807 
L 433.15508 284.001563 
L 434.149733 283.246246 
L 435.144385 302.645455 
L 436.139037 285.645868 
L 437.13369 266.716646 
L 438.128342 275.154887 
L 439.122995 263.613492 
L 440.117647 265.882887 
L 441.112299 266.746727 
L 442.106952 258.823016 
L 443.101604 291.84143 
L 444.096257 280.103852 
L 445.090909 277.791048 
L 446.085561 287.54924 
L 447.080214 286.302565 
L 448.074866 295.016899 
L 449.069519 301.288124 
L 450.064171 300.16694 
L 451.058824 284.588155 
L 452.053476 283.644483 
L 453.048128 278.614258 
L 454.042781 271.91767 
L 455.037433 269.99459 
L 456.032086 291.148702 
L 457.026738 279.252108 
L 458.02139 272.946907 
L 459.016043 274.646384 
L 460.010695 269.897419 
L 461.005348 231.287787 
L 462 261.457142 
L 462.994652 276.340088 
L 463.989305 270.059509 
L 464.983957 259.40315 
L 465.97861 260.430958 
L 466.973262 257.979393 
L 467.967914 261.510435 
L 468.962567 270.483815 
L 469.957219 284.361597 
L 470.951872 285.692448 
L 471.946524 266.060203 
L 472.941176 268.810994 
L 473.935829 267.936312 
L 474.930481 265.238853 
L 475.925134 264.776402 
L 476.919786 280.309136 
L 477.914439 286.066887 
L 478.909091 270.648117 
L 479.903743 266.536609 
L 480.898396 266.776827 
L 481.893048 242.815696 
L 483.882353 278.181086 
L 484.877005 275.337938 
L 485.871658 267.018357 
L 486.86631 252.429138 
L 487.860963 254.374314 
L 488.855615 253.302489 
L 489.850267 265.971447 
L 490.84492 264.205232 
L 491.839572 268.937386 
L 492.834225 259.836987 
L 493.828877 246.030876 
L 494.823529 251.235286 
L 496.812834 242.832997 
L 497.807487 268.716406 
L 498.802139 257.85674 
L 499.796791 241.13491 
L 500.791444 237.419135 
L 502.780749 253.412891 
L 503.775401 254.737558 
L 504.770053 265.882887 
L 505.764706 244.312708 
L 507.754011 255.357539 
L 508.748663 249.706608 
L 509.743316 232.334971 
L 510.737968 228.750519 
L 511.73262 247.106908 
L 512.727273 247.452342 
L 513.721925 249.161977 
L 514.716578 239.758301 
L 515.71123 231.754563 
L 516.705882 226.841766 
L 517.700535 206.419622 
L 518.695187 241.94168 
L 519.68984 201.484004 
L 520.684492 189.378348 
L 521.679144 216.953895 
L 522.673797 232.091073 
L 523.668449 217.693652 
L 524.663102 160.667547 
L 525.657754 230.278336 
L 526.652406 216.565091 
L 527.647059 211.450982 
L 528.641711 221.235947 
L 529.636364 234.852862 
L 530.631016 230.019877 
L 531.625668 209.991039 
L 532.620321 252.106093 
L 533.614973 217.37507 
L 534.609626 168.496865 
L 535.604278 210.992034 
L 536.59893 228.96369 
L 537.593583 235.593716 
L 538.588235 240.17975 
L 539.582888 258.598102 
L 540.57754 218.972091 
L 541.572193 203.747899 
L 542.566845 231.956148 
L 543.561497 243.849259 
L 544.55615 246.049508 
L 545.550802 238.690802 
L 546.545455 263.084988 
L 547.540107 227.724472 
L 548.534759 223.914598 
L 549.529412 241.856936 
L 550.524064 246.461837 
L 551.518717 242.556768 
L 552.513369 262.86438 
L 553.508021 222.278982 
L 554.502674 203.099814 
L 555.497326 218.024408 
L 556.491979 244.817414 
L 557.486631 238.081311 
L 558.481283 241.268347 
L 559.475936 237.710474 
L 561.465241 216.640714 
L 562.459893 232.758338 
L 563.454545 243.390741 
L 564.449198 244.456323 
L 565.44385 230.512174 
L 566.438503 251.61544 
L 567.433155 231.195058 
L 568.427807 174.937636 
L 569.42246 215.594235 
L 570.417112 231.128906 
L 571.411765 235.593716 
L 572.406417 221.005162 
L 573.40107 250.75434 
L 574.395722 214.159695 
L 575.390374 184.838463 
L 576.385027 227.057755 
L 577.379679 242.72923 
L 578.374332 236.917756 
L 579.368984 249.403213 
L 580.363636 271.445609 
L 581.358289 239.452871 
L 582.352941 164.45785 
L 583.347594 198.491194 
L 584.342246 218.624152 
L 585.336898 228.092531 
L 586.331551 232.923324 
L 587.326203 254.216353 
L 588.320856 224.116457 
L 589.315508 206.084874 
L 590.31016 221.946308 
L 591.304813 232.66236 
L 592.299465 240.737103 
L 593.294118 226.758078 
L 594.28877 252.907266 
L 595.283422 234.280557 
L 596.278075 55.554545 
L 597.272727 82.684492 
L 598.26738 204.398764 
L 599.262032 232.785777 
L 600.256684 231.687551 
L 601.251337 258.647989 
L 602.245989 234.60873 
L 603.240642 213.706657 
L 604.235294 236.035519 
L 605.229947 244.835537 
L 606.224599 223.948182 
L 607.219251 241.001942 
L 608.213904 265.064864 
L 609.208556 247.413865 
L 610.203209 221.383437 
L 611.197861 224.967732 
L 612.192513 243.548917 
L 613.187166 252.885424 
L 614.181818 255.61271 
L 615.176471 271.078275 
L 616.171123 239.919882 
L 617.165775 219.625735 
L 618.160428 230.434124 
L 619.15508 244.94451 
L 620.149733 263.473792 
L 621.144385 265.442728 
L 622.139037 273.295512 
L 623.13369 197.168367 
L 624.128342 181.069415 
L 625.122995 181.186021 
L 626.117647 218.269206 
L 628.106952 252.994789 
L 629.101604 242.781055 
L 630.096257 224.420987 
L 631.090909 179.141755 
L 632.085561 210.611881 
L 633.080214 219.951167 
L 634.074866 222.408427 
L 635.069519 222.646806 
L 636.064171 244.492295 
L 637.058824 223.017761 
L 638.053476 214.83471 
L 639.048128 229.367877 
L 640.042781 232.307806 
L 641.037433 234.195383 
L 642.032086 234.266349 
L 643.026738 243.128407 
L 644.02139 180.062352 
L 645.016043 134.173983 
L 646.010695 186.470321 
L 647.005348 196.622914 
L 647.005348 196.622914 
" style="fill:none;stroke:#4c72b0;stroke-linecap:round;stroke-width:1.2;"/>
   </g>
   <g id="line2d_16">
    <path clip-path="url(#pde7007e143)" d="M 90 250.162219 
L 90.994652 247.043057 
L 91.989305 244.910671 
L 92.983957 248.757897 
L 93.97861 244.723618 
L 94.973262 245.970244 
L 95.967914 253.803095 
L 96.962567 253.257984 
L 97.957219 249.583377 
L 98.951872 250.524582 
L 99.946524 251.675632 
L 100.941176 248.231017 
L 101.935829 248.928285 
L 102.930481 255.902219 
L 103.925134 253.615846 
L 104.919786 249.168318 
L 105.914439 248.741849 
L 106.909091 245.967406 
L 107.903743 244.482744 
L 108.898396 239.524414 
L 109.893048 251.16936 
L 110.887701 253.002245 
L 111.882353 244.283733 
L 112.877005 247.091466 
L 114.86631 244.495152 
L 115.860963 251.49077 
L 116.855615 251.635667 
L 117.850267 247.623141 
L 118.84492 240.160042 
L 119.839572 241.467163 
L 120.834225 239.916721 
L 121.828877 237.866526 
L 122.823529 236.696571 
L 123.818182 246.240407 
L 124.812834 238.184912 
L 125.807487 239.292337 
L 126.802139 236.01129 
L 127.796791 237.579962 
L 128.791444 236.813637 
L 129.786096 239.188305 
L 130.780749 247.645893 
L 131.775401 239.396828 
L 132.770053 234.666729 
L 133.764706 234.855231 
L 135.754011 233.860527 
L 136.748663 238.266574 
L 137.743316 247.014111 
L 139.73262 233.564785 
L 140.727273 234.893972 
L 141.721925 233.017541 
L 142.716578 233.196843 
L 143.71123 242.705314 
L 144.705882 237.062613 
L 145.700535 228.055619 
L 146.695187 226.158109 
L 147.68984 237.219938 
L 148.684492 229.504182 
L 149.679144 219.638799 
L 150.673797 226.037961 
L 151.668449 200.381502 
L 152.663102 187.679752 
L 154.652406 215.166973 
L 155.647059 217.180384 
L 156.641711 206.760427 
L 157.636364 215.133408 
L 158.631016 180.884524 
L 159.625668 180.977136 
L 160.620321 196.36695 
L 161.614973 214.713896 
L 162.609626 213.107902 
L 163.604278 202.265879 
L 164.59893 216.305291 
L 165.593583 186.544947 
L 166.588235 184.852515 
L 167.582888 207.824423 
L 168.57754 217.677467 
L 169.572193 223.111478 
L 170.566845 209.466732 
L 171.561497 215.175985 
L 173.550802 179.651432 
L 174.545455 208.996188 
L 175.540107 219.975758 
L 176.534759 217.794728 
L 177.529412 217.015378 
L 178.524064 220.220332 
L 179.518717 184.441322 
L 180.513369 171.251257 
L 181.508021 192.853856 
L 182.502674 210.193994 
L 183.497326 213.846367 
L 184.491979 211.884996 
L 185.486631 220.829215 
L 186.481283 191.661639 
L 187.475936 171.189607 
L 188.470588 191.286613 
L 189.465241 213.646573 
L 190.459893 218.27908 
L 191.454545 218.12156 
L 192.449198 221.887545 
L 193.44385 182.451308 
L 194.438503 170.882866 
L 195.433155 192.299625 
L 196.427807 210.571906 
L 197.42246 214.555114 
L 198.417112 213.121934 
L 199.411765 216.880375 
L 200.406417 182.250545 
L 201.40107 179.895174 
L 202.395722 203.441079 
L 203.390374 214.887445 
L 204.385027 217.693897 
L 205.379679 215.306947 
L 206.374332 222.112038 
L 207.368984 181.820171 
L 208.363636 165.876028 
L 210.352941 216.575336 
L 211.347594 214.50734 
L 212.342246 210.975506 
L 213.336898 216.268614 
L 214.331551 181.251037 
L 215.326203 162.934221 
L 216.320856 197.661878 
L 217.315508 211.400322 
L 218.31016 215.900399 
L 219.304813 213.439734 
L 220.299465 221.43167 
L 221.294118 183.017957 
L 222.28877 175.573118 
L 223.283422 200.733874 
L 224.278075 212.389477 
L 225.272727 216.182334 
L 226.26738 210.471241 
L 227.262032 222.417351 
L 228.256684 184.810711 
L 229.251337 166.217489 
L 230.245989 203.581797 
L 231.240642 212.903303 
L 232.235294 212.038367 
L 233.229947 209.729399 
L 234.224599 215.398727 
L 235.219251 178.291851 
L 236.213904 171.862861 
L 237.208556 190.483278 
L 238.203209 214.146093 
L 239.197861 213.126876 
L 240.192513 211.173069 
L 241.187166 218.018096 
L 242.181818 183.79081 
L 243.176471 171.500674 
L 244.171123 201.301844 
L 245.165775 213.345292 
L 246.160428 219.523778 
L 247.15508 216.884103 
L 248.149733 224.106289 
L 249.144385 189.259042 
L 250.139037 179.950482 
L 251.13369 200.748621 
L 252.128342 217.666468 
L 253.122995 219.206145 
L 254.117647 216.530635 
L 255.112299 226.725756 
L 256.106952 187.624071 
L 257.101604 172.627905 
L 258.096257 200.920545 
L 259.090909 214.146973 
L 260.085561 218.661269 
L 261.080214 216.15148 
L 262.074866 216.941535 
L 263.069519 185.7554 
L 264.064171 162.752638 
L 265.058824 199.420295 
L 266.053476 212.702912 
L 267.048128 214.157865 
L 269.037433 195.367667 
L 270.032086 164.288949 
L 271.026738 148.325332 
L 272.02139 180.313805 
L 273.016043 191.153909 
L 274.010695 190.842617 
L 275.005348 184.498803 
L 276 190.420747 
L 276.994652 171.905155 
L 277.989305 146.235094 
L 278.983957 183.074127 
L 279.97861 193.79694 
L 280.973262 194.326981 
L 281.967914 195.414482 
L 282.962567 207.085204 
L 283.957219 179.000568 
L 284.951872 146.947765 
L 285.946524 174.87082 
L 286.941176 191.819119 
L 287.935829 196.30486 
L 288.930481 205.144197 
L 289.925134 205.729585 
L 290.919786 176.734383 
L 291.914439 153.978709 
L 292.909091 180.28206 
L 293.903743 185.081402 
L 294.898396 187.933025 
L 295.893048 198.321824 
L 296.887701 191.917416 
L 297.882353 189.743158 
L 298.877005 176.792725 
L 299.871658 185.434528 
L 300.86631 196.492598 
L 301.860963 197.104526 
L 302.855615 201.270099 
L 303.850267 201.310475 
L 304.84492 189.72025 
L 305.839572 205.937345 
L 306.834225 203.22693 
L 307.828877 200.851468 
L 308.823529 205.988221 
L 309.818182 216.256069 
L 310.812834 215.820313 
L 311.807487 209.792879 
L 312.802139 220.909546 
L 313.796791 222.898738 
L 314.791444 224.189105 
L 315.786096 224.240461 
L 316.780749 232.021389 
L 317.775401 231.518767 
L 318.770053 218.680821 
L 319.764706 226.326501 
L 320.759358 221.119997 
L 321.754011 222.977395 
L 322.748663 217.048424 
L 323.743316 235.115745 
L 324.737968 233.63761 
L 325.73262 235.527907 
L 326.727273 241.196892 
L 327.721925 239.102534 
L 328.716578 240.750294 
L 329.71123 242.968147 
L 330.705882 250.77352 
L 331.700535 249.934007 
L 332.695187 247.025863 
L 333.68984 247.853956 
L 334.684492 244.269612 
L 335.679144 244.212601 
L 337.668449 255.696015 
L 338.663102 251.272168 
L 339.657754 249.576097 
L 340.652406 251.646451 
L 341.647059 248.93585 
L 342.641711 248.117914 
L 343.636364 251.334161 
L 344.631016 256.847495 
L 345.625668 253.330985 
L 346.620321 248.298832 
L 347.614973 248.532132 
L 348.609626 243.110529 
L 349.604278 245.827911 
L 350.59893 251.602396 
L 351.593583 258.391624 
L 352.588235 255.502611 
L 353.582888 251.616125 
L 354.57754 251.213875 
L 355.572193 253.205141 
L 356.566845 250.478678 
L 357.561497 254.220023 
L 358.55615 258.872786 
L 359.550802 257.259843 
L 360.545455 250.597368 
L 361.540107 251.850746 
L 362.534759 250.011882 
L 363.529412 251.198835 
L 364.524064 250.130641 
L 365.518717 256.230919 
L 366.513369 253.565137 
L 367.508021 247.040835 
L 368.502674 250.098407 
L 369.497326 246.841217 
L 370.491979 246.940219 
L 371.486631 246.366965 
L 372.481283 255.70266 
L 373.475936 252.290416 
L 374.470588 246.089384 
L 375.465241 248.32858 
L 376.459893 246.418339 
L 377.454545 243.495869 
L 379.44385 243.556119 
L 380.438503 243.879271 
L 381.433155 239.442831 
L 382.427807 238.302027 
L 383.42246 241.403712 
L 384.417112 241.652924 
L 385.411765 252.534226 
L 386.406417 259.748672 
L 387.40107 258.886721 
L 388.395722 254.379314 
L 389.390374 255.11459 
L 390.385027 253.633088 
L 391.379679 255.57159 
L 392.374332 258.42927 
L 393.368984 262.978686 
L 394.363636 260.111152 
L 395.358289 255.465191 
L 396.352941 256.390377 
L 397.347594 254.489814 
L 399.336898 258.621509 
L 400.331551 264.3286 
L 401.326203 260.451752 
L 402.320856 255.366081 
L 403.315508 256.384427 
L 404.31016 254.731393 
L 405.304813 256.407658 
L 406.299465 258.36124 
L 407.294118 264.006191 
L 408.28877 261.677388 
L 409.283422 254.759605 
L 411.272727 255.637908 
L 412.26738 256.345324 
L 413.262032 257.851309 
L 414.256684 264.859521 
L 415.251337 262.393816 
L 416.245989 257.03079 
L 417.240642 255.014355 
L 418.235294 259.387874 
L 419.229947 258.309121 
L 420.224599 259.238056 
L 421.219251 262.301361 
L 422.213904 261.512636 
L 423.208556 256.871 
L 424.203209 256.745577 
L 425.197861 257.506481 
L 426.192513 257.607284 
L 427.187166 258.888414 
L 428.181818 262.694481 
L 429.176471 262.16217 
L 430.171123 255.136696 
L 431.165775 255.335961 
L 432.160428 255.123279 
L 433.15508 257.711335 
L 434.149733 258.46397 
L 435.144385 263.868497 
L 437.13369 255.401799 
L 438.128342 256.575502 
L 439.122995 257.054423 
L 440.117647 259.760689 
L 441.112299 258.797886 
L 442.106952 260.571744 
L 443.101604 260.594242 
L 444.096257 255.786562 
L 445.090909 258.463627 
L 446.085561 256.857398 
L 447.080214 253.91654 
L 448.074866 255.631665 
L 449.069519 260.003324 
L 450.064171 258.460584 
L 451.058824 253.495375 
L 452.053476 253.751622 
L 453.048128 253.476351 
L 454.042781 255.43325 
L 455.037433 253.810258 
L 456.032086 259.296417 
L 457.026738 257.723899 
L 458.02139 251.701065 
L 459.016043 252.394634 
L 460.010695 250.101215 
L 461.005348 250.249723 
L 462 250.515315 
L 462.994652 256.990835 
L 463.989305 256.885346 
L 464.983957 247.461991 
L 465.97861 250.37815 
L 466.973262 249.09105 
L 467.967914 244.637905 
L 468.962567 246.653509 
L 469.957219 246.586947 
L 470.951872 249.372251 
L 471.946524 245.70653 
L 472.941176 243.402161 
L 473.935829 246.409679 
L 474.930481 243.327056 
L 475.925134 242.008496 
L 476.919786 251.690359 
L 477.914439 243.534796 
L 478.909091 239.168392 
L 479.903743 236.46467 
L 480.898396 240.166823 
L 481.893048 237.599445 
L 482.887701 234.659458 
L 483.882353 239.532487 
L 484.877005 233.676116 
L 485.871658 232.140803 
L 486.86631 234.562169 
L 487.860963 234.905098 
L 488.855615 233.726767 
L 489.850267 232.262185 
L 490.84492 241.245204 
L 492.834225 230.499443 
L 493.828877 234.304141 
L 494.823529 234.483395 
L 495.818182 231.162256 
L 496.812834 230.247267 
L 497.807487 246.360898 
L 498.802139 239.513512 
L 499.796791 234.993394 
L 500.791444 231.793618 
L 501.786096 235.140747 
L 502.780749 230.014554 
L 503.775401 233.567358 
L 504.770053 239.241471 
L 505.764706 232.627621 
L 506.759358 227.233026 
L 507.754011 230.863558 
L 508.748663 233.717695 
L 509.743316 227.865014 
L 510.737968 220.064651 
L 511.73262 223.747635 
L 512.727273 196.9208 
L 513.721925 178.182036 
L 514.716578 192.606768 
L 515.71123 211.640678 
L 516.705882 210.467131 
L 518.695187 217.520299 
L 519.68984 181.995139 
L 520.684492 167.995252 
L 521.679144 195.68484 
L 522.673797 213.572917 
L 524.663102 206.514778 
L 525.657754 216.162489 
L 526.652406 189.867006 
L 527.647059 172.417866 
L 528.641711 198.498954 
L 529.636364 213.217041 
L 530.631016 210.14117 
L 531.625668 217.081578 
L 532.620321 219.66385 
L 533.614973 202.868725 
L 534.609626 198.326952 
L 535.604278 201.573866 
L 536.59893 220.60026 
L 537.593583 223.616556 
L 538.588235 220.08387 
L 539.582888 227.867685 
L 540.57754 195.140483 
L 541.572193 181.460881 
L 543.561497 214.168081 
L 544.55615 216.021311 
L 545.550802 215.839503 
L 546.545455 217.302685 
L 547.540107 182.132002 
L 548.534759 197.808849 
L 549.529412 216.386668 
L 551.518717 224.236184 
L 552.513369 229.88096 
L 553.508021 197.841974 
L 554.502674 178.186655 
L 555.497326 206.636002 
L 556.491979 219.572824 
L 557.486631 215.378148 
L 558.481283 220.068859 
L 559.475936 222.180685 
L 560.470588 190.319103 
L 561.465241 176.737162 
L 562.459893 197.999259 
L 563.454545 212.692246 
L 564.449198 213.477878 
L 565.44385 214.105727 
L 566.438503 219.090204 
L 567.433155 176.253926 
L 568.427807 171.367785 
L 569.42246 195.750297 
L 570.417112 211.895751 
L 571.411765 213.951015 
L 572.406417 211.395909 
L 573.40107 217.633852 
L 574.395722 180.675992 
L 575.390374 161.067194 
L 576.385027 192.20354 
L 577.379679 209.798202 
L 578.374332 211.13103 
L 579.368984 211.308386 
L 580.363636 217.02487 
L 581.358289 180.226008 
L 582.352941 164.907247 
L 583.347594 197.264238 
L 584.342246 210.774704 
L 585.336898 210.578424 
L 586.331551 211.989057 
L 587.326203 218.843772 
L 588.320856 182.571085 
L 589.315508 165.437493 
L 590.31016 194.385303 
L 591.304813 206.322421 
L 592.299465 209.336554 
L 593.294118 208.329383 
L 594.28877 215.963282 
L 595.283422 179.240121 
L 596.278075 168.562214 
L 597.272727 199.971834 
L 598.26738 213.415397 
L 599.262032 213.206434 
L 600.256684 212.083029 
L 601.251337 217.249843 
L 602.245989 178.177652 
L 603.240642 167.221773 
L 604.235294 191.074978 
L 605.229947 210.496508 
L 606.224599 213.63758 
L 607.219251 216.349591 
L 608.213904 222.112303 
L 609.208556 184.548729 
L 610.203209 168.327358 
L 612.192513 212.849354 
L 613.187166 216.537436 
L 614.181818 215.388579 
L 615.176471 220.109186 
L 616.171123 185.922598 
L 617.165775 166.478121 
L 618.160428 190.674636 
L 619.15508 209.352583 
L 620.149733 212.101504 
L 621.144385 216.317542 
L 622.139037 221.237151 
L 623.13369 191.082288 
L 624.128342 183.564193 
L 625.122995 201.249119 
L 626.117647 214.323644 
L 627.112299 214.715384 
L 628.106952 209.817255 
L 629.101604 210.84751 
L 630.096257 174.829426 
L 631.090909 158.27317 
L 632.085561 182.056202 
L 633.080214 191.353331 
L 634.074866 191.613307 
L 635.069519 189.399368 
L 636.064171 196.9272 
L 637.058824 162.945788 
L 638.053476 156.956723 
L 639.048128 178.569294 
L 640.042781 192.191895 
L 641.037433 190.003868 
L 642.032086 191.541099 
L 643.026738 198.793366 
L 644.02139 178.372778 
L 645.016043 155.005265 
L 646.010695 179.270652 
L 647.005348 187.586044 
L 647.005348 187.586044 
" style="fill:none;stroke:#c44e52;stroke-linecap:round;stroke-width:1.2;"/>
   </g>
   <g id="patch_3">
    <path d="M 90 315 
L 90 43.2 
" style="fill:none;stroke:#262626;stroke-linecap:square;stroke-linejoin:miter;"/>
   </g>
   <g id="patch_4">
    <path d="M 648 315 
L 648 43.2 
" style="fill:none;stroke:#262626;stroke-linecap:square;stroke-linejoin:miter;"/>
   </g>
   <g id="patch_5">
    <path d="M 90 315 
L 648 315 
" style="fill:none;stroke:#262626;stroke-linecap:square;stroke-linejoin:miter;"/>
   </g>
   <g id="patch_6">
    <path d="M 90 43.2 
L 648 43.2 
" style="fill:none;stroke:#262626;stroke-linecap:square;stroke-linejoin:miter;"/>
   </g>
   <g id="text_17">
    <!-- False Prophet Mean Absolute Error 0.06679999828338623 -->
    <g style="fill:#262626;" transform="translate(208.045938 37.2)scale(0.11 -0.11)">
     <defs>
      <path d="M 9.8125 72.90625 
L 51.703125 72.90625 
L 51.703125 64.59375 
L 19.671875 64.59375 
L 19.671875 43.109375 
L 48.578125 43.109375 
L 48.578125 34.8125 
L 19.671875 34.8125 
L 19.671875 0 
L 9.8125 0 
z
" id="DejaVuSans-70"/>
      <path d="M 34.28125 27.484375 
Q 23.390625 27.484375 19.1875 25 
Q 14.984375 22.515625 14.984375 16.5 
Q 14.984375 11.71875 18.140625 8.90625 
Q 21.296875 6.109375 26.703125 6.109375 
Q 34.1875 6.109375 38.703125 11.40625 
Q 43.21875 16.703125 43.21875 25.484375 
L 43.21875 27.484375 
z
M 52.203125 31.203125 
L 52.203125 0 
L 43.21875 0 
L 43.21875 8.296875 
Q 40.140625 3.328125 35.546875 0.953125 
Q 30.953125 -1.421875 24.3125 -1.421875 
Q 15.921875 -1.421875 10.953125 3.296875 
Q 6 8.015625 6 15.921875 
Q 6 25.140625 12.171875 29.828125 
Q 18.359375 34.515625 30.609375 34.515625 
L 43.21875 34.515625 
L 43.21875 35.40625 
Q 43.21875 41.609375 39.140625 45 
Q 35.0625 48.390625 27.6875 48.390625 
Q 23 48.390625 18.546875 47.265625 
Q 14.109375 46.140625 10.015625 43.890625 
L 10.015625 52.203125 
Q 14.9375 54.109375 19.578125 55.046875 
Q 24.21875 56 28.609375 56 
Q 40.484375 56 46.34375 49.84375 
Q 52.203125 43.703125 52.203125 31.203125 
z
" id="DejaVuSans-97"/>
      <path d="M 9.421875 75.984375 
L 18.40625 75.984375 
L 18.40625 0 
L 9.421875 0 
z
" id="DejaVuSans-108"/>
      <path d="M 44.28125 53.078125 
L 44.28125 44.578125 
Q 40.484375 46.53125 36.375 47.5 
Q 32.28125 48.484375 27.875 48.484375 
Q 21.1875 48.484375 17.84375 46.4375 
Q 14.5 44.390625 14.5 40.28125 
Q 14.5 37.15625 16.890625 35.375 
Q 19.28125 33.59375 26.515625 31.984375 
L 29.59375 31.296875 
Q 39.15625 29.25 43.1875 25.515625 
Q 47.21875 21.78125 47.21875 15.09375 
Q 47.21875 7.46875 41.1875 3.015625 
Q 35.15625 -1.421875 24.609375 -1.421875 
Q 20.21875 -1.421875 15.453125 -0.5625 
Q 10.6875 0.296875 5.421875 2 
L 5.421875 11.28125 
Q 10.40625 8.6875 15.234375 7.390625 
Q 20.0625 6.109375 24.8125 6.109375 
Q 31.15625 6.109375 34.5625 8.28125 
Q 37.984375 10.453125 37.984375 14.40625 
Q 37.984375 18.0625 35.515625 20.015625 
Q 33.0625 21.96875 24.703125 23.78125 
L 21.578125 24.515625 
Q 13.234375 26.265625 9.515625 29.90625 
Q 5.8125 33.546875 5.8125 39.890625 
Q 5.8125 47.609375 11.28125 51.796875 
Q 16.75 56 26.8125 56 
Q 31.78125 56 36.171875 55.265625 
Q 40.578125 54.546875 44.28125 53.078125 
z
" id="DejaVuSans-115"/>
      <path id="DejaVuSans-32"/>
      <path d="M 19.671875 64.796875 
L 19.671875 37.40625 
L 32.078125 37.40625 
Q 38.96875 37.40625 42.71875 40.96875 
Q 46.484375 44.53125 46.484375 51.125 
Q 46.484375 57.671875 42.71875 61.234375 
Q 38.96875 64.796875 32.078125 64.796875 
z
M 9.8125 72.90625 
L 32.078125 72.90625 
Q 44.34375 72.90625 50.609375 67.359375 
Q 56.890625 61.8125 56.890625 51.125 
Q 56.890625 40.328125 50.609375 34.8125 
Q 44.34375 29.296875 32.078125 29.296875 
L 19.671875 29.296875 
L 19.671875 0 
L 9.8125 0 
z
" id="DejaVuSans-80"/>
      <path d="M 41.109375 46.296875 
Q 39.59375 47.171875 37.8125 47.578125 
Q 36.03125 48 33.890625 48 
Q 26.265625 48 22.1875 43.046875 
Q 18.109375 38.09375 18.109375 28.8125 
L 18.109375 0 
L 9.078125 0 
L 9.078125 54.6875 
L 18.109375 54.6875 
L 18.109375 46.1875 
Q 20.953125 51.171875 25.484375 53.578125 
Q 30.03125 56 36.53125 56 
Q 37.453125 56 38.578125 55.875 
Q 39.703125 55.765625 41.0625 55.515625 
z
" id="DejaVuSans-114"/>
      <path d="M 30.609375 48.390625 
Q 23.390625 48.390625 19.1875 42.75 
Q 14.984375 37.109375 14.984375 27.296875 
Q 14.984375 17.484375 19.15625 11.84375 
Q 23.34375 6.203125 30.609375 6.203125 
Q 37.796875 6.203125 41.984375 11.859375 
Q 46.1875 17.53125 46.1875 27.296875 
Q 46.1875 37.015625 41.984375 42.703125 
Q 37.796875 48.390625 30.609375 48.390625 
z
M 30.609375 56 
Q 42.328125 56 49.015625 48.375 
Q 55.71875 40.765625 55.71875 27.296875 
Q 55.71875 13.875 49.015625 6.21875 
Q 42.328125 -1.421875 30.609375 -1.421875 
Q 18.84375 -1.421875 12.171875 6.21875 
Q 5.515625 13.875 5.515625 27.296875 
Q 5.515625 40.765625 12.171875 48.375 
Q 18.84375 56 30.609375 56 
z
" id="DejaVuSans-111"/>
      <path d="M 18.109375 8.203125 
L 18.109375 -20.796875 
L 9.078125 -20.796875 
L 9.078125 54.6875 
L 18.109375 54.6875 
L 18.109375 46.390625 
Q 20.953125 51.265625 25.265625 53.625 
Q 29.59375 56 35.59375 56 
Q 45.5625 56 51.78125 48.09375 
Q 58.015625 40.1875 58.015625 27.296875 
Q 58.015625 14.40625 51.78125 6.484375 
Q 45.5625 -1.421875 35.59375 -1.421875 
Q 29.59375 -1.421875 25.265625 0.953125 
Q 20.953125 3.328125 18.109375 8.203125 
z
M 48.6875 27.296875 
Q 48.6875 37.203125 44.609375 42.84375 
Q 40.53125 48.484375 33.40625 48.484375 
Q 26.265625 48.484375 22.1875 42.84375 
Q 18.109375 37.203125 18.109375 27.296875 
Q 18.109375 17.390625 22.1875 11.75 
Q 26.265625 6.109375 33.40625 6.109375 
Q 40.53125 6.109375 44.609375 11.75 
Q 48.6875 17.390625 48.6875 27.296875 
z
" id="DejaVuSans-112"/>
      <path d="M 54.890625 33.015625 
L 54.890625 0 
L 45.90625 0 
L 45.90625 32.71875 
Q 45.90625 40.484375 42.875 44.328125 
Q 39.84375 48.1875 33.796875 48.1875 
Q 26.515625 48.1875 22.3125 43.546875 
Q 18.109375 38.921875 18.109375 30.90625 
L 18.109375 0 
L 9.078125 0 
L 9.078125 75.984375 
L 18.109375 75.984375 
L 18.109375 46.1875 
Q 21.34375 51.125 25.703125 53.5625 
Q 30.078125 56 35.796875 56 
Q 45.21875 56 50.046875 50.171875 
Q 54.890625 44.34375 54.890625 33.015625 
z
" id="DejaVuSans-104"/>
      <path d="M 18.3125 70.21875 
L 18.3125 54.6875 
L 36.8125 54.6875 
L 36.8125 47.703125 
L 18.3125 47.703125 
L 18.3125 18.015625 
Q 18.3125 11.328125 20.140625 9.421875 
Q 21.96875 7.515625 27.59375 7.515625 
L 36.8125 7.515625 
L 36.8125 0 
L 27.59375 0 
Q 17.1875 0 13.234375 3.875 
Q 9.28125 7.765625 9.28125 18.015625 
L 9.28125 47.703125 
L 2.6875 47.703125 
L 2.6875 54.6875 
L 9.28125 54.6875 
L 9.28125 70.21875 
z
" id="DejaVuSans-116"/>
      <path d="M 9.8125 72.90625 
L 24.515625 72.90625 
L 43.109375 23.296875 
L 61.8125 72.90625 
L 76.515625 72.90625 
L 76.515625 0 
L 66.890625 0 
L 66.890625 64.015625 
L 48.09375 14.015625 
L 38.1875 14.015625 
L 19.390625 64.015625 
L 19.390625 0 
L 9.8125 0 
z
" id="DejaVuSans-77"/>
      <path d="M 54.890625 33.015625 
L 54.890625 0 
L 45.90625 0 
L 45.90625 32.71875 
Q 45.90625 40.484375 42.875 44.328125 
Q 39.84375 48.1875 33.796875 48.1875 
Q 26.515625 48.1875 22.3125 43.546875 
Q 18.109375 38.921875 18.109375 30.90625 
L 18.109375 0 
L 9.078125 0 
L 9.078125 54.6875 
L 18.109375 54.6875 
L 18.109375 46.1875 
Q 21.34375 51.125 25.703125 53.5625 
Q 30.078125 56 35.796875 56 
Q 45.21875 56 50.046875 50.171875 
Q 54.890625 44.34375 54.890625 33.015625 
z
" id="DejaVuSans-110"/>
      <path d="M 34.1875 63.1875 
L 20.796875 26.90625 
L 47.609375 26.90625 
z
M 28.609375 72.90625 
L 39.796875 72.90625 
L 67.578125 0 
L 57.328125 0 
L 50.6875 18.703125 
L 17.828125 18.703125 
L 11.1875 0 
L 0.78125 0 
z
" id="DejaVuSans-65"/>
      <path d="M 48.6875 27.296875 
Q 48.6875 37.203125 44.609375 42.84375 
Q 40.53125 48.484375 33.40625 48.484375 
Q 26.265625 48.484375 22.1875 42.84375 
Q 18.109375 37.203125 18.109375 27.296875 
Q 18.109375 17.390625 22.1875 11.75 
Q 26.265625 6.109375 33.40625 6.109375 
Q 40.53125 6.109375 44.609375 11.75 
Q 48.6875 17.390625 48.6875 27.296875 
z
M 18.109375 46.390625 
Q 20.953125 51.265625 25.265625 53.625 
Q 29.59375 56 35.59375 56 
Q 45.5625 56 51.78125 48.09375 
Q 58.015625 40.1875 58.015625 27.296875 
Q 58.015625 14.40625 51.78125 6.484375 
Q 45.5625 -1.421875 35.59375 -1.421875 
Q 29.59375 -1.421875 25.265625 0.953125 
Q 20.953125 3.328125 18.109375 8.203125 
L 18.109375 0 
L 9.078125 0 
L 9.078125 75.984375 
L 18.109375 75.984375 
z
" id="DejaVuSans-98"/>
      <path d="M 8.5 21.578125 
L 8.5 54.6875 
L 17.484375 54.6875 
L 17.484375 21.921875 
Q 17.484375 14.15625 20.5 10.265625 
Q 23.53125 6.390625 29.59375 6.390625 
Q 36.859375 6.390625 41.078125 11.03125 
Q 45.3125 15.671875 45.3125 23.6875 
L 45.3125 54.6875 
L 54.296875 54.6875 
L 54.296875 0 
L 45.3125 0 
L 45.3125 8.40625 
Q 42.046875 3.421875 37.71875 1 
Q 33.40625 -1.421875 27.6875 -1.421875 
Q 18.265625 -1.421875 13.375 4.4375 
Q 8.5 10.296875 8.5 21.578125 
z
M 31.109375 56 
z
" id="DejaVuSans-117"/>
      <path d="M 9.8125 72.90625 
L 55.90625 72.90625 
L 55.90625 64.59375 
L 19.671875 64.59375 
L 19.671875 43.015625 
L 54.390625 43.015625 
L 54.390625 34.71875 
L 19.671875 34.71875 
L 19.671875 8.296875 
L 56.78125 8.296875 
L 56.78125 0 
L 9.8125 0 
z
" id="DejaVuSans-69"/>
     </defs>
     <use xlink:href="#DejaVuSans-70"/>
     <use x="48.394531" xlink:href="#DejaVuSans-97"/>
     <use x="109.673828" xlink:href="#DejaVuSans-108"/>
     <use x="137.457031" xlink:href="#DejaVuSans-115"/>
     <use x="189.556641" xlink:href="#DejaVuSans-101"/>
     <use x="251.080078" xlink:href="#DejaVuSans-32"/>
     <use x="282.867188" xlink:href="#DejaVuSans-80"/>
     <use x="341.419922" xlink:href="#DejaVuSans-114"/>
     <use x="380.283203" xlink:href="#DejaVuSans-111"/>
     <use x="441.464844" xlink:href="#DejaVuSans-112"/>
     <use x="504.941406" xlink:href="#DejaVuSans-104"/>
     <use x="568.320312" xlink:href="#DejaVuSans-101"/>
     <use x="629.84375" xlink:href="#DejaVuSans-116"/>
     <use x="669.052734" xlink:href="#DejaVuSans-32"/>
     <use x="700.839844" xlink:href="#DejaVuSans-77"/>
     <use x="787.119141" xlink:href="#DejaVuSans-101"/>
     <use x="848.642578" xlink:href="#DejaVuSans-97"/>
     <use x="909.921875" xlink:href="#DejaVuSans-110"/>
     <use x="973.300781" xlink:href="#DejaVuSans-32"/>
     <use x="1005.087891" xlink:href="#DejaVuSans-65"/>
     <use x="1073.496094" xlink:href="#DejaVuSans-98"/>
     <use x="1136.972656" xlink:href="#DejaVuSans-115"/>
     <use x="1189.072266" xlink:href="#DejaVuSans-111"/>
     <use x="1250.253906" xlink:href="#DejaVuSans-108"/>
     <use x="1278.037109" xlink:href="#DejaVuSans-117"/>
     <use x="1341.416016" xlink:href="#DejaVuSans-116"/>
     <use x="1380.625" xlink:href="#DejaVuSans-101"/>
     <use x="1442.148438" xlink:href="#DejaVuSans-32"/>
     <use x="1473.935547" xlink:href="#DejaVuSans-69"/>
     <use x="1537.119141" xlink:href="#DejaVuSans-114"/>
     <use x="1576.482422" xlink:href="#DejaVuSans-114"/>
     <use x="1615.345703" xlink:href="#DejaVuSans-111"/>
     <use x="1676.527344" xlink:href="#DejaVuSans-114"/>
     <use x="1717.640625" xlink:href="#DejaVuSans-32"/>
     <use x="1749.427734" xlink:href="#DejaVuSans-48"/>
     <use x="1813.050781" xlink:href="#DejaVuSans-46"/>
     <use x="1844.837891" xlink:href="#DejaVuSans-48"/>
     <use x="1908.460938" xlink:href="#DejaVuSans-54"/>
     <use x="1972.083984" xlink:href="#DejaVuSans-54"/>
     <use x="2035.707031" xlink:href="#DejaVuSans-55"/>
     <use x="2099.330078" xlink:href="#DejaVuSans-57"/>
     <use x="2162.953125" xlink:href="#DejaVuSans-57"/>
     <use x="2226.576172" xlink:href="#DejaVuSans-57"/>
     <use x="2290.199219" xlink:href="#DejaVuSans-57"/>
     <use x="2353.822266" xlink:href="#DejaVuSans-56"/>
     <use x="2417.445312" xlink:href="#DejaVuSans-50"/>
     <use x="2481.068359" xlink:href="#DejaVuSans-56"/>
     <use x="2544.691406" xlink:href="#DejaVuSans-51"/>
     <use x="2608.314453" xlink:href="#DejaVuSans-51"/>
     <use x="2671.9375" xlink:href="#DejaVuSans-56"/>
     <use x="2735.560547" xlink:href="#DejaVuSans-54"/>
     <use x="2799.183594" xlink:href="#DejaVuSans-50"/>
     <use x="2862.806641" xlink:href="#DejaVuSans-51"/>
    </g>
   </g>
   <g id="legend_1">
    <g id="patch_7">
     <path d="M 97 80.55625 
L 245.460938 80.55625 
Q 247.460938 80.55625 247.460938 78.55625 
L 247.460938 50.2 
Q 247.460938 48.2 245.460938 48.2 
L 97 48.2 
Q 95 48.2 95 50.2 
L 95 78.55625 
Q 95 80.55625 97 80.55625 
z
" style="fill:#ffffff;opacity:0.8;stroke:#cccccc;stroke-linejoin:miter;stroke-width:0.8;"/>
    </g>
    <g id="line2d_17">
     <path d="M 99 56.298437 
L 119 56.298437 
" style="fill:none;stroke:#4c72b0;stroke-linecap:round;stroke-width:1.2;"/>
    </g>
    <g id="line2d_18"/>
    <g id="text_18">
     <!-- Ground Truth -->
     <g style="fill:#262626;" transform="translate(127 59.798437)scale(0.1 -0.1)">
      <defs>
       <path d="M 59.515625 10.40625 
L 59.515625 29.984375 
L 43.40625 29.984375 
L 43.40625 38.09375 
L 69.28125 38.09375 
L 69.28125 6.78125 
Q 63.578125 2.734375 56.6875 0.65625 
Q 49.8125 -1.421875 42 -1.421875 
Q 24.90625 -1.421875 15.25 8.5625 
Q 5.609375 18.5625 5.609375 36.375 
Q 5.609375 54.25 15.25 64.234375 
Q 24.90625 74.21875 42 74.21875 
Q 49.125 74.21875 55.546875 72.453125 
Q 61.96875 70.703125 67.390625 67.28125 
L 67.390625 56.78125 
Q 61.921875 61.421875 55.765625 63.765625 
Q 49.609375 66.109375 42.828125 66.109375 
Q 29.4375 66.109375 22.71875 58.640625 
Q 16.015625 51.171875 16.015625 36.375 
Q 16.015625 21.625 22.71875 14.15625 
Q 29.4375 6.6875 42.828125 6.6875 
Q 48.046875 6.6875 52.140625 7.59375 
Q 56.25 8.5 59.515625 10.40625 
z
" id="DejaVuSans-71"/>
       <path d="M 45.40625 46.390625 
L 45.40625 75.984375 
L 54.390625 75.984375 
L 54.390625 0 
L 45.40625 0 
L 45.40625 8.203125 
Q 42.578125 3.328125 38.25 0.953125 
Q 33.9375 -1.421875 27.875 -1.421875 
Q 17.96875 -1.421875 11.734375 6.484375 
Q 5.515625 14.40625 5.515625 27.296875 
Q 5.515625 40.1875 11.734375 48.09375 
Q 17.96875 56 27.875 56 
Q 33.9375 56 38.25 53.625 
Q 42.578125 51.265625 45.40625 46.390625 
z
M 14.796875 27.296875 
Q 14.796875 17.390625 18.875 11.75 
Q 22.953125 6.109375 30.078125 6.109375 
Q 37.203125 6.109375 41.296875 11.75 
Q 45.40625 17.390625 45.40625 27.296875 
Q 45.40625 37.203125 41.296875 42.84375 
Q 37.203125 48.484375 30.078125 48.484375 
Q 22.953125 48.484375 18.875 42.84375 
Q 14.796875 37.203125 14.796875 27.296875 
z
" id="DejaVuSans-100"/>
      </defs>
      <use xlink:href="#DejaVuSans-71"/>
      <use x="77.490234" xlink:href="#DejaVuSans-114"/>
      <use x="116.353516" xlink:href="#DejaVuSans-111"/>
      <use x="177.535156" xlink:href="#DejaVuSans-117"/>
      <use x="240.914062" xlink:href="#DejaVuSans-110"/>
      <use x="304.292969" xlink:href="#DejaVuSans-100"/>
      <use x="367.769531" xlink:href="#DejaVuSans-32"/>
      <use x="399.556641" xlink:href="#DejaVuSans-84"/>
      <use x="445.890625" xlink:href="#DejaVuSans-114"/>
      <use x="487.003906" xlink:href="#DejaVuSans-117"/>
      <use x="550.382812" xlink:href="#DejaVuSans-116"/>
      <use x="589.591797" xlink:href="#DejaVuSans-104"/>
     </g>
    </g>
    <g id="line2d_19">
     <path d="M 99 70.976562 
L 119 70.976562 
" style="fill:none;stroke:#c44e52;stroke-linecap:round;stroke-width:1.2;"/>
    </g>
    <g id="line2d_20"/>
    <g id="text_19">
     <!-- Out-of-sample Forecast -->
     <g style="fill:#262626;" transform="translate(127 74.476562)scale(0.1 -0.1)">
      <defs>
       <path d="M 39.40625 66.21875 
Q 28.65625 66.21875 22.328125 58.203125 
Q 16.015625 50.203125 16.015625 36.375 
Q 16.015625 22.609375 22.328125 14.59375 
Q 28.65625 6.59375 39.40625 6.59375 
Q 50.140625 6.59375 56.421875 14.59375 
Q 62.703125 22.609375 62.703125 36.375 
Q 62.703125 50.203125 56.421875 58.203125 
Q 50.140625 66.21875 39.40625 66.21875 
z
M 39.40625 74.21875 
Q 54.734375 74.21875 63.90625 63.9375 
Q 73.09375 53.65625 73.09375 36.375 
Q 73.09375 19.140625 63.90625 8.859375 
Q 54.734375 -1.421875 39.40625 -1.421875 
Q 24.03125 -1.421875 14.8125 8.828125 
Q 5.609375 19.09375 5.609375 36.375 
Q 5.609375 53.65625 14.8125 63.9375 
Q 24.03125 74.21875 39.40625 74.21875 
z
" id="DejaVuSans-79"/>
       <path d="M 4.890625 31.390625 
L 31.203125 31.390625 
L 31.203125 23.390625 
L 4.890625 23.390625 
z
" id="DejaVuSans-45"/>
       <path d="M 37.109375 75.984375 
L 37.109375 68.5 
L 28.515625 68.5 
Q 23.6875 68.5 21.796875 66.546875 
Q 19.921875 64.59375 19.921875 59.515625 
L 19.921875 54.6875 
L 34.71875 54.6875 
L 34.71875 47.703125 
L 19.921875 47.703125 
L 19.921875 0 
L 10.890625 0 
L 10.890625 47.703125 
L 2.296875 47.703125 
L 2.296875 54.6875 
L 10.890625 54.6875 
L 10.890625 58.5 
Q 10.890625 67.625 15.140625 71.796875 
Q 19.390625 75.984375 28.609375 75.984375 
z
" id="DejaVuSans-102"/>
       <path d="M 48.78125 52.59375 
L 48.78125 44.1875 
Q 44.96875 46.296875 41.140625 47.34375 
Q 37.3125 48.390625 33.40625 48.390625 
Q 24.65625 48.390625 19.8125 42.84375 
Q 14.984375 37.3125 14.984375 27.296875 
Q 14.984375 17.28125 19.8125 11.734375 
Q 24.65625 6.203125 33.40625 6.203125 
Q 37.3125 6.203125 41.140625 7.25 
Q 44.96875 8.296875 48.78125 10.40625 
L 48.78125 2.09375 
Q 45.015625 0.34375 40.984375 -0.53125 
Q 36.96875 -1.421875 32.421875 -1.421875 
Q 20.0625 -1.421875 12.78125 6.34375 
Q 5.515625 14.109375 5.515625 27.296875 
Q 5.515625 40.671875 12.859375 48.328125 
Q 20.21875 56 33.015625 56 
Q 37.15625 56 41.109375 55.140625 
Q 45.0625 54.296875 48.78125 52.59375 
z
" id="DejaVuSans-99"/>
      </defs>
      <use xlink:href="#DejaVuSans-79"/>
      <use x="78.710938" xlink:href="#DejaVuSans-117"/>
      <use x="142.089844" xlink:href="#DejaVuSans-116"/>
      <use x="181.298828" xlink:href="#DejaVuSans-45"/>
      <use x="219.257812" xlink:href="#DejaVuSans-111"/>
      <use x="280.439453" xlink:href="#DejaVuSans-102"/>
      <use x="310.144531" xlink:href="#DejaVuSans-45"/>
      <use x="346.228516" xlink:href="#DejaVuSans-115"/>
      <use x="398.328125" xlink:href="#DejaVuSans-97"/>
      <use x="459.607422" xlink:href="#DejaVuSans-109"/>
      <use x="557.019531" xlink:href="#DejaVuSans-112"/>
      <use x="620.496094" xlink:href="#DejaVuSans-108"/>
      <use x="648.279297" xlink:href="#DejaVuSans-101"/>
      <use x="709.802734" xlink:href="#DejaVuSans-32"/>
      <use x="741.589844" xlink:href="#DejaVuSans-70"/>
      <use x="795.484375" xlink:href="#DejaVuSans-111"/>
      <use x="856.666016" xlink:href="#DejaVuSans-114"/>
      <use x="895.529297" xlink:href="#DejaVuSans-101"/>
      <use x="957.052734" xlink:href="#DejaVuSans-99"/>
      <use x="1012.033203" xlink:href="#DejaVuSans-97"/>
      <use x="1073.3125" xlink:href="#DejaVuSans-115"/>
      <use x="1125.412109" xlink:href="#DejaVuSans-116"/>
     </g>
    </g>
   </g>
  </g>
 </g>
 <defs>
  <clipPath id="pde7007e143">
   <rect height="271.8" width="558" x="90" y="43.2"/>
  </clipPath>
 </defs>
</svg>
