<?xml version="1.0" encoding="utf-8" standalone="no"?>
<!DOCTYPE svg PUBLIC "-//W3C//DTD SVG 1.1//EN"
  "http://www.w3.org/Graphics/SVG/1.1/DTD/svg11.dtd">
<!-- Created with matplotlib (https://matplotlib.org/) -->
<svg height="360pt" version="1.1" viewBox="0 0 720 360" width="720pt" xmlns="http://www.w3.org/2000/svg" xmlns:xlink="http://www.w3.org/1999/xlink">
 <metadata>
  <rdf:RDF xmlns:cc="http://creativecommons.org/ns#" xmlns:dc="http://purl.org/dc/elements/1.1/" xmlns:rdf="http://www.w3.org/1999/02/22-rdf-syntax-ns#">
   <cc:Work>
    <dc:type rdf:resource="http://purl.org/dc/dcmitype/StillImage"/>
    <dc:date>2021-01-27T13:33:48.478352</dc:date>
    <dc:format>image/svg+xml</dc:format>
    <dc:creator>
     <cc:Agent>
      <dc:title>Matplotlib v3.3.1, https://matplotlib.org/</dc:title>
     </cc:Agent>
    </dc:creator>
   </cc:Work>
  </rdf:RDF>
 </metadata>
 <defs>
  <style type="text/css">*{stroke-linecap:butt;stroke-linejoin:round;}</style>
 </defs>
 <g id="figure_1">
  <g id="patch_1">
   <path d="M 0 360 
L 720 360 
L 720 0 
L 0 0 
z
" style="fill:#ffffff;"/>
  </g>
  <g id="axes_1">
   <g id="patch_2">
    <path d="M 90 315 
L 648 315 
L 648 43.2 
L 90 43.2 
z
" style="fill:#ffffff;"/>
   </g>
   <g id="matplotlib.axis_1">
    <g id="xtick_1">
     <g id="line2d_1">
      <defs>
       <path d="M 0 0 
L 0 3 
" id="m4311be3570" style="stroke:#262626;"/>
      </defs>
      <g>
       <use style="fill:#262626;stroke:#262626;" x="90" xlink:href="#m4311be3570" y="315"/>
      </g>
     </g>
     <g id="text_1">
      <!-- 0 -->
      <g style="fill:#262626;" transform="translate(86.81875 329.098437)scale(0.1 -0.1)">
       <defs>
        <path d="M 31.78125 66.40625 
Q 24.171875 66.40625 20.328125 58.90625 
Q 16.5 51.421875 16.5 36.375 
Q 16.5 21.390625 20.328125 13.890625 
Q 24.171875 6.390625 31.78125 6.390625 
Q 39.453125 6.390625 43.28125 13.890625 
Q 47.125 21.390625 47.125 36.375 
Q 47.125 51.421875 43.28125 58.90625 
Q 39.453125 66.40625 31.78125 66.40625 
z
M 31.78125 74.21875 
Q 44.046875 74.21875 50.515625 64.515625 
Q 56.984375 54.828125 56.984375 36.375 
Q 56.984375 17.96875 50.515625 8.265625 
Q 44.046875 -1.421875 31.78125 -1.421875 
Q 19.53125 -1.421875 13.0625 8.265625 
Q 6.59375 17.96875 6.59375 36.375 
Q 6.59375 54.828125 13.0625 64.515625 
Q 19.53125 74.21875 31.78125 74.21875 
z
" id="DejaVuSans-48"/>
       </defs>
       <use xlink:href="#DejaVuSans-48"/>
      </g>
     </g>
    </g>
    <g id="xtick_2">
     <g id="line2d_2">
      <g>
       <use style="fill:#262626;stroke:#262626;" x="189.465241" xlink:href="#m4311be3570" y="315"/>
      </g>
     </g>
     <g id="text_2">
      <!-- 100 -->
      <g style="fill:#262626;" transform="translate(179.921491 329.098437)scale(0.1 -0.1)">
       <defs>
        <path d="M 12.40625 8.296875 
L 28.515625 8.296875 
L 28.515625 63.921875 
L 10.984375 60.40625 
L 10.984375 69.390625 
L 28.421875 72.90625 
L 38.28125 72.90625 
L 38.28125 8.296875 
L 54.390625 8.296875 
L 54.390625 0 
L 12.40625 0 
z
" id="DejaVuSans-49"/>
       </defs>
       <use xlink:href="#DejaVuSans-49"/>
       <use x="63.623047" xlink:href="#DejaVuSans-48"/>
       <use x="127.246094" xlink:href="#DejaVuSans-48"/>
      </g>
     </g>
    </g>
    <g id="xtick_3">
     <g id="line2d_3">
      <g>
       <use style="fill:#262626;stroke:#262626;" x="288.930481" xlink:href="#m4311be3570" y="315"/>
      </g>
     </g>
     <g id="text_3">
      <!-- 200 -->
      <g style="fill:#262626;" transform="translate(279.386731 329.098437)scale(0.1 -0.1)">
       <defs>
        <path d="M 19.1875 8.296875 
L 53.609375 8.296875 
L 53.609375 0 
L 7.328125 0 
L 7.328125 8.296875 
Q 12.9375 14.109375 22.625 23.890625 
Q 32.328125 33.6875 34.8125 36.53125 
Q 39.546875 41.84375 41.421875 45.53125 
Q 43.3125 49.21875 43.3125 52.78125 
Q 43.3125 58.59375 39.234375 62.25 
Q 35.15625 65.921875 28.609375 65.921875 
Q 23.96875 65.921875 18.8125 64.3125 
Q 13.671875 62.703125 7.8125 59.421875 
L 7.8125 69.390625 
Q 13.765625 71.78125 18.9375 73 
Q 24.125 74.21875 28.421875 74.21875 
Q 39.75 74.21875 46.484375 68.546875 
Q 53.21875 62.890625 53.21875 53.421875 
Q 53.21875 48.921875 51.53125 44.890625 
Q 49.859375 40.875 45.40625 35.40625 
Q 44.1875 33.984375 37.640625 27.21875 
Q 31.109375 20.453125 19.1875 8.296875 
z
" id="DejaVuSans-50"/>
       </defs>
       <use xlink:href="#DejaVuSans-50"/>
       <use x="63.623047" xlink:href="#DejaVuSans-48"/>
       <use x="127.246094" xlink:href="#DejaVuSans-48"/>
      </g>
     </g>
    </g>
    <g id="xtick_4">
     <g id="line2d_4">
      <g>
       <use style="fill:#262626;stroke:#262626;" x="388.395722" xlink:href="#m4311be3570" y="315"/>
      </g>
     </g>
     <g id="text_4">
      <!-- 300 -->
      <g style="fill:#262626;" transform="translate(378.851972 329.098437)scale(0.1 -0.1)">
       <defs>
        <path d="M 40.578125 39.3125 
Q 47.65625 37.796875 51.625 33 
Q 55.609375 28.21875 55.609375 21.1875 
Q 55.609375 10.40625 48.1875 4.484375 
Q 40.765625 -1.421875 27.09375 -1.421875 
Q 22.515625 -1.421875 17.65625 -0.515625 
Q 12.796875 0.390625 7.625 2.203125 
L 7.625 11.71875 
Q 11.71875 9.328125 16.59375 8.109375 
Q 21.484375 6.890625 26.8125 6.890625 
Q 36.078125 6.890625 40.9375 10.546875 
Q 45.796875 14.203125 45.796875 21.1875 
Q 45.796875 27.640625 41.28125 31.265625 
Q 36.765625 34.90625 28.71875 34.90625 
L 20.21875 34.90625 
L 20.21875 43.015625 
L 29.109375 43.015625 
Q 36.375 43.015625 40.234375 45.921875 
Q 44.09375 48.828125 44.09375 54.296875 
Q 44.09375 59.90625 40.109375 62.90625 
Q 36.140625 65.921875 28.71875 65.921875 
Q 24.65625 65.921875 20.015625 65.03125 
Q 15.375 64.15625 9.8125 62.3125 
L 9.8125 71.09375 
Q 15.4375 72.65625 20.34375 73.4375 
Q 25.25 74.21875 29.59375 74.21875 
Q 40.828125 74.21875 47.359375 69.109375 
Q 53.90625 64.015625 53.90625 55.328125 
Q 53.90625 49.265625 50.4375 45.09375 
Q 46.96875 40.921875 40.578125 39.3125 
z
" id="DejaVuSans-51"/>
       </defs>
       <use xlink:href="#DejaVuSans-51"/>
       <use x="63.623047" xlink:href="#DejaVuSans-48"/>
       <use x="127.246094" xlink:href="#DejaVuSans-48"/>
      </g>
     </g>
    </g>
    <g id="xtick_5">
     <g id="line2d_5">
      <g>
       <use style="fill:#262626;stroke:#262626;" x="487.860963" xlink:href="#m4311be3570" y="315"/>
      </g>
     </g>
     <g id="text_5">
      <!-- 400 -->
      <g style="fill:#262626;" transform="translate(478.317213 329.098437)scale(0.1 -0.1)">
       <defs>
        <path d="M 37.796875 64.3125 
L 12.890625 25.390625 
L 37.796875 25.390625 
z
M 35.203125 72.90625 
L 47.609375 72.90625 
L 47.609375 25.390625 
L 58.015625 25.390625 
L 58.015625 17.1875 
L 47.609375 17.1875 
L 47.609375 0 
L 37.796875 0 
L 37.796875 17.1875 
L 4.890625 17.1875 
L 4.890625 26.703125 
z
" id="DejaVuSans-52"/>
       </defs>
       <use xlink:href="#DejaVuSans-52"/>
       <use x="63.623047" xlink:href="#DejaVuSans-48"/>
       <use x="127.246094" xlink:href="#DejaVuSans-48"/>
      </g>
     </g>
    </g>
    <g id="xtick_6">
     <g id="line2d_6">
      <g>
       <use style="fill:#262626;stroke:#262626;" x="587.326203" xlink:href="#m4311be3570" y="315"/>
      </g>
     </g>
     <g id="text_6">
      <!-- 500 -->
      <g style="fill:#262626;" transform="translate(577.782453 329.098437)scale(0.1 -0.1)">
       <defs>
        <path d="M 10.796875 72.90625 
L 49.515625 72.90625 
L 49.515625 64.59375 
L 19.828125 64.59375 
L 19.828125 46.734375 
Q 21.96875 47.46875 24.109375 47.828125 
Q 26.265625 48.1875 28.421875 48.1875 
Q 40.625 48.1875 47.75 41.5 
Q 54.890625 34.8125 54.890625 23.390625 
Q 54.890625 11.625 47.5625 5.09375 
Q 40.234375 -1.421875 26.90625 -1.421875 
Q 22.3125 -1.421875 17.546875 -0.640625 
Q 12.796875 0.140625 7.71875 1.703125 
L 7.71875 11.625 
Q 12.109375 9.234375 16.796875 8.0625 
Q 21.484375 6.890625 26.703125 6.890625 
Q 35.15625 6.890625 40.078125 11.328125 
Q 45.015625 15.765625 45.015625 23.390625 
Q 45.015625 31 40.078125 35.4375 
Q 35.15625 39.890625 26.703125 39.890625 
Q 22.75 39.890625 18.8125 39.015625 
Q 14.890625 38.140625 10.796875 36.28125 
z
" id="DejaVuSans-53"/>
       </defs>
       <use xlink:href="#DejaVuSans-53"/>
       <use x="63.623047" xlink:href="#DejaVuSans-48"/>
       <use x="127.246094" xlink:href="#DejaVuSans-48"/>
      </g>
     </g>
    </g>
    <g id="text_7">
     <!-- Time -->
     <g style="fill:#262626;" transform="translate(354.319687 344.29625)scale(0.12 -0.12)">
      <defs>
       <path d="M -0.296875 72.90625 
L 61.375 72.90625 
L 61.375 64.59375 
L 35.5 64.59375 
L 35.5 0 
L 25.59375 0 
L 25.59375 64.59375 
L -0.296875 64.59375 
z
" id="DejaVuSans-84"/>
       <path d="M 9.421875 54.6875 
L 18.40625 54.6875 
L 18.40625 0 
L 9.421875 0 
z
M 9.421875 75.984375 
L 18.40625 75.984375 
L 18.40625 64.59375 
L 9.421875 64.59375 
z
" id="DejaVuSans-105"/>
       <path d="M 52 44.1875 
Q 55.375 50.25 60.0625 53.125 
Q 64.75 56 71.09375 56 
Q 79.640625 56 84.28125 50.015625 
Q 88.921875 44.046875 88.921875 33.015625 
L 88.921875 0 
L 79.890625 0 
L 79.890625 32.71875 
Q 79.890625 40.578125 77.09375 44.375 
Q 74.3125 48.1875 68.609375 48.1875 
Q 61.625 48.1875 57.5625 43.546875 
Q 53.515625 38.921875 53.515625 30.90625 
L 53.515625 0 
L 44.484375 0 
L 44.484375 32.71875 
Q 44.484375 40.625 41.703125 44.40625 
Q 38.921875 48.1875 33.109375 48.1875 
Q 26.21875 48.1875 22.15625 43.53125 
Q 18.109375 38.875 18.109375 30.90625 
L 18.109375 0 
L 9.078125 0 
L 9.078125 54.6875 
L 18.109375 54.6875 
L 18.109375 46.1875 
Q 21.1875 51.21875 25.484375 53.609375 
Q 29.78125 56 35.6875 56 
Q 41.65625 56 45.828125 52.96875 
Q 50 49.953125 52 44.1875 
z
" id="DejaVuSans-109"/>
       <path d="M 56.203125 29.59375 
L 56.203125 25.203125 
L 14.890625 25.203125 
Q 15.484375 15.921875 20.484375 11.0625 
Q 25.484375 6.203125 34.421875 6.203125 
Q 39.59375 6.203125 44.453125 7.46875 
Q 49.3125 8.734375 54.109375 11.28125 
L 54.109375 2.78125 
Q 49.265625 0.734375 44.1875 -0.34375 
Q 39.109375 -1.421875 33.890625 -1.421875 
Q 20.796875 -1.421875 13.15625 6.1875 
Q 5.515625 13.8125 5.515625 26.8125 
Q 5.515625 40.234375 12.765625 48.109375 
Q 20.015625 56 32.328125 56 
Q 43.359375 56 49.78125 48.890625 
Q 56.203125 41.796875 56.203125 29.59375 
z
M 47.21875 32.234375 
Q 47.125 39.59375 43.09375 43.984375 
Q 39.0625 48.390625 32.421875 48.390625 
Q 24.90625 48.390625 20.390625 44.140625 
Q 15.875 39.890625 15.1875 32.171875 
z
" id="DejaVuSans-101"/>
      </defs>
      <use xlink:href="#DejaVuSans-84"/>
      <use x="57.958984" xlink:href="#DejaVuSans-105"/>
      <use x="85.742188" xlink:href="#DejaVuSans-109"/>
      <use x="183.154297" xlink:href="#DejaVuSans-101"/>
     </g>
    </g>
   </g>
   <g id="matplotlib.axis_2">
    <g id="ytick_1">
     <g id="line2d_7">
      <defs>
       <path d="M 0 0 
L -3 0 
" id="md5ab1d0c1f" style="stroke:#262626;"/>
      </defs>
      <g>
       <use style="fill:#262626;stroke:#262626;" x="90" xlink:href="#md5ab1d0c1f" y="284.447782"/>
      </g>
     </g>
     <g id="text_8">
      <!-- 0.2 -->
      <g style="fill:#262626;" transform="translate(67.596875 288.247)scale(0.1 -0.1)">
       <defs>
        <path d="M 10.6875 12.40625 
L 21 12.40625 
L 21 0 
L 10.6875 0 
z
" id="DejaVuSans-46"/>
       </defs>
       <use xlink:href="#DejaVuSans-48"/>
       <use x="63.623047" xlink:href="#DejaVuSans-46"/>
       <use x="95.410156" xlink:href="#DejaVuSans-50"/>
      </g>
     </g>
    </g>
    <g id="ytick_2">
     <g id="line2d_8">
      <g>
       <use style="fill:#262626;stroke:#262626;" x="90" xlink:href="#md5ab1d0c1f" y="252.122189"/>
      </g>
     </g>
     <g id="text_9">
      <!-- 0.3 -->
      <g style="fill:#262626;" transform="translate(67.596875 255.921408)scale(0.1 -0.1)">
       <use xlink:href="#DejaVuSans-48"/>
       <use x="63.623047" xlink:href="#DejaVuSans-46"/>
       <use x="95.410156" xlink:href="#DejaVuSans-51"/>
      </g>
     </g>
    </g>
    <g id="ytick_3">
     <g id="line2d_9">
      <g>
       <use style="fill:#262626;stroke:#262626;" x="90" xlink:href="#md5ab1d0c1f" y="219.796597"/>
      </g>
     </g>
     <g id="text_10">
      <!-- 0.4 -->
      <g style="fill:#262626;" transform="translate(67.596875 223.595816)scale(0.1 -0.1)">
       <use xlink:href="#DejaVuSans-48"/>
       <use x="63.623047" xlink:href="#DejaVuSans-46"/>
       <use x="95.410156" xlink:href="#DejaVuSans-52"/>
      </g>
     </g>
    </g>
    <g id="ytick_4">
     <g id="line2d_10">
      <g>
       <use style="fill:#262626;stroke:#262626;" x="90" xlink:href="#md5ab1d0c1f" y="187.471005"/>
      </g>
     </g>
     <g id="text_11">
      <!-- 0.5 -->
      <g style="fill:#262626;" transform="translate(67.596875 191.270223)scale(0.1 -0.1)">
       <use xlink:href="#DejaVuSans-48"/>
       <use x="63.623047" xlink:href="#DejaVuSans-46"/>
       <use x="95.410156" xlink:href="#DejaVuSans-53"/>
      </g>
     </g>
    </g>
    <g id="ytick_5">
     <g id="line2d_11">
      <g>
       <use style="fill:#262626;stroke:#262626;" x="90" xlink:href="#md5ab1d0c1f" y="155.145412"/>
      </g>
     </g>
     <g id="text_12">
      <!-- 0.6 -->
      <g style="fill:#262626;" transform="translate(67.596875 158.944631)scale(0.1 -0.1)">
       <defs>
        <path d="M 33.015625 40.375 
Q 26.375 40.375 22.484375 35.828125 
Q 18.609375 31.296875 18.609375 23.390625 
Q 18.609375 15.53125 22.484375 10.953125 
Q 26.375 6.390625 33.015625 6.390625 
Q 39.65625 6.390625 43.53125 10.953125 
Q 47.40625 15.53125 47.40625 23.390625 
Q 47.40625 31.296875 43.53125 35.828125 
Q 39.65625 40.375 33.015625 40.375 
z
M 52.59375 71.296875 
L 52.59375 62.3125 
Q 48.875 64.0625 45.09375 64.984375 
Q 41.3125 65.921875 37.59375 65.921875 
Q 27.828125 65.921875 22.671875 59.328125 
Q 17.53125 52.734375 16.796875 39.40625 
Q 19.671875 43.65625 24.015625 45.921875 
Q 28.375 48.1875 33.59375 48.1875 
Q 44.578125 48.1875 50.953125 41.515625 
Q 57.328125 34.859375 57.328125 23.390625 
Q 57.328125 12.15625 50.6875 5.359375 
Q 44.046875 -1.421875 33.015625 -1.421875 
Q 20.359375 -1.421875 13.671875 8.265625 
Q 6.984375 17.96875 6.984375 36.375 
Q 6.984375 53.65625 15.1875 63.9375 
Q 23.390625 74.21875 37.203125 74.21875 
Q 40.921875 74.21875 44.703125 73.484375 
Q 48.484375 72.75 52.59375 71.296875 
z
" id="DejaVuSans-54"/>
       </defs>
       <use xlink:href="#DejaVuSans-48"/>
       <use x="63.623047" xlink:href="#DejaVuSans-46"/>
       <use x="95.410156" xlink:href="#DejaVuSans-54"/>
      </g>
     </g>
    </g>
    <g id="ytick_6">
     <g id="line2d_12">
      <g>
       <use style="fill:#262626;stroke:#262626;" x="90" xlink:href="#md5ab1d0c1f" y="122.81982"/>
      </g>
     </g>
     <g id="text_13">
      <!-- 0.7 -->
      <g style="fill:#262626;" transform="translate(67.596875 126.619039)scale(0.1 -0.1)">
       <defs>
        <path d="M 8.203125 72.90625 
L 55.078125 72.90625 
L 55.078125 68.703125 
L 28.609375 0 
L 18.3125 0 
L 43.21875 64.59375 
L 8.203125 64.59375 
z
" id="DejaVuSans-55"/>
       </defs>
       <use xlink:href="#DejaVuSans-48"/>
       <use x="63.623047" xlink:href="#DejaVuSans-46"/>
       <use x="95.410156" xlink:href="#DejaVuSans-55"/>
      </g>
     </g>
    </g>
    <g id="ytick_7">
     <g id="line2d_13">
      <g>
       <use style="fill:#262626;stroke:#262626;" x="90" xlink:href="#md5ab1d0c1f" y="90.494228"/>
      </g>
     </g>
     <g id="text_14">
      <!-- 0.8 -->
      <g style="fill:#262626;" transform="translate(67.596875 94.293446)scale(0.1 -0.1)">
       <defs>
        <path d="M 31.78125 34.625 
Q 24.75 34.625 20.71875 30.859375 
Q 16.703125 27.09375 16.703125 20.515625 
Q 16.703125 13.921875 20.71875 10.15625 
Q 24.75 6.390625 31.78125 6.390625 
Q 38.8125 6.390625 42.859375 10.171875 
Q 46.921875 13.96875 46.921875 20.515625 
Q 46.921875 27.09375 42.890625 30.859375 
Q 38.875 34.625 31.78125 34.625 
z
M 21.921875 38.8125 
Q 15.578125 40.375 12.03125 44.71875 
Q 8.5 49.078125 8.5 55.328125 
Q 8.5 64.0625 14.71875 69.140625 
Q 20.953125 74.21875 31.78125 74.21875 
Q 42.671875 74.21875 48.875 69.140625 
Q 55.078125 64.0625 55.078125 55.328125 
Q 55.078125 49.078125 51.53125 44.71875 
Q 48 40.375 41.703125 38.8125 
Q 48.828125 37.15625 52.796875 32.3125 
Q 56.78125 27.484375 56.78125 20.515625 
Q 56.78125 9.90625 50.3125 4.234375 
Q 43.84375 -1.421875 31.78125 -1.421875 
Q 19.734375 -1.421875 13.25 4.234375 
Q 6.78125 9.90625 6.78125 20.515625 
Q 6.78125 27.484375 10.78125 32.3125 
Q 14.796875 37.15625 21.921875 38.8125 
z
M 18.3125 54.390625 
Q 18.3125 48.734375 21.84375 45.5625 
Q 25.390625 42.390625 31.78125 42.390625 
Q 38.140625 42.390625 41.71875 45.5625 
Q 45.3125 48.734375 45.3125 54.390625 
Q 45.3125 60.0625 41.71875 63.234375 
Q 38.140625 66.40625 31.78125 66.40625 
Q 25.390625 66.40625 21.84375 63.234375 
Q 18.3125 60.0625 18.3125 54.390625 
z
" id="DejaVuSans-56"/>
       </defs>
       <use xlink:href="#DejaVuSans-48"/>
       <use x="63.623047" xlink:href="#DejaVuSans-46"/>
       <use x="95.410156" xlink:href="#DejaVuSans-56"/>
      </g>
     </g>
    </g>
    <g id="ytick_8">
     <g id="line2d_14">
      <g>
       <use style="fill:#262626;stroke:#262626;" x="90" xlink:href="#md5ab1d0c1f" y="58.168635"/>
      </g>
     </g>
     <g id="text_15">
      <!-- 0.9 -->
      <g style="fill:#262626;" transform="translate(67.596875 61.967854)scale(0.1 -0.1)">
       <defs>
        <path d="M 10.984375 1.515625 
L 10.984375 10.5 
Q 14.703125 8.734375 18.5 7.8125 
Q 22.3125 6.890625 25.984375 6.890625 
Q 35.75 6.890625 40.890625 13.453125 
Q 46.046875 20.015625 46.78125 33.40625 
Q 43.953125 29.203125 39.59375 26.953125 
Q 35.25 24.703125 29.984375 24.703125 
Q 19.046875 24.703125 12.671875 31.3125 
Q 6.296875 37.9375 6.296875 49.421875 
Q 6.296875 60.640625 12.9375 67.421875 
Q 19.578125 74.21875 30.609375 74.21875 
Q 43.265625 74.21875 49.921875 64.515625 
Q 56.59375 54.828125 56.59375 36.375 
Q 56.59375 19.140625 48.40625 8.859375 
Q 40.234375 -1.421875 26.421875 -1.421875 
Q 22.703125 -1.421875 18.890625 -0.6875 
Q 15.09375 0.046875 10.984375 1.515625 
z
M 30.609375 32.421875 
Q 37.25 32.421875 41.125 36.953125 
Q 45.015625 41.5 45.015625 49.421875 
Q 45.015625 57.28125 41.125 61.84375 
Q 37.25 66.40625 30.609375 66.40625 
Q 23.96875 66.40625 20.09375 61.84375 
Q 16.21875 57.28125 16.21875 49.421875 
Q 16.21875 41.5 20.09375 36.953125 
Q 23.96875 32.421875 30.609375 32.421875 
z
" id="DejaVuSans-57"/>
       </defs>
       <use xlink:href="#DejaVuSans-48"/>
       <use x="63.623047" xlink:href="#DejaVuSans-46"/>
       <use x="95.410156" xlink:href="#DejaVuSans-57"/>
      </g>
     </g>
    </g>
    <g id="text_16">
     <!-- Y -->
     <g style="fill:#262626;" transform="translate(61.10125 182.764687)rotate(-90)scale(0.12 -0.12)">
      <defs>
       <path d="M -0.203125 72.90625 
L 10.40625 72.90625 
L 30.609375 42.921875 
L 50.6875 72.90625 
L 61.28125 72.90625 
L 35.5 34.71875 
L 35.5 0 
L 25.59375 0 
L 25.59375 34.71875 
z
" id="DejaVuSans-89"/>
      </defs>
      <use xlink:href="#DejaVuSans-89"/>
     </g>
    </g>
   </g>
   <g id="PolyCollection_1">
    <defs>
     <path d="M 90 -81.794908 
L 90 -136.982423 
L 90.994652 -147.442072 
L 91.989305 -138.413178 
L 92.983957 -133.02452 
L 93.97861 -133.046487 
L 94.973262 -132.756974 
L 95.967914 -122.937887 
L 96.962567 -138.909364 
L 97.957219 -150.026914 
L 98.951872 -143.411856 
L 99.946524 -135.593996 
L 100.941176 -135.302157 
L 101.935829 -137.664519 
L 102.930481 -129.275323 
L 103.925134 -146.479312 
L 104.919786 -157.083973 
L 105.914439 -147.58779 
L 106.909091 -141.06024 
L 107.903743 -141.457054 
L 108.898396 -143.93892 
L 109.893048 -137.261682 
L 110.887701 -152.375427 
L 111.882353 -165.182434 
L 112.877005 -155.242491 
L 113.871658 -148.831971 
L 114.86631 -150.666526 
L 115.860963 -151.408935 
L 116.855615 -143.315951 
L 117.850267 -159.28534 
L 118.84492 -172.54323 
L 119.839572 -162.710338 
L 120.834225 -154.371906 
L 121.828877 -155.63152 
L 122.823529 -155.493788 
L 123.818182 -148.156278 
L 124.812834 -165.475834 
L 125.807487 -176.423188 
L 126.802139 -164.243171 
L 127.796791 -158.550913 
L 128.791444 -156.632791 
L 129.786096 -156.814176 
L 130.780749 -148.246971 
L 131.775401 -164.8272 
L 132.770053 -172.132735 
L 133.764706 -164.817426 
L 134.759358 -159.46965 
L 135.754011 -158.37887 
L 136.748663 -157.021456 
L 137.743316 -148.972533 
L 138.737968 -168.770628 
L 139.73262 -176.12445 
L 140.727273 -169.440111 
L 141.721925 -163.077991 
L 142.716578 -164.139299 
L 143.71123 -165.359078 
L 144.705882 -156.85023 
L 145.700535 -176.426301 
L 146.695187 -188.538892 
L 147.68984 -178.034155 
L 148.684492 -175.360779 
L 149.679144 -175.459101 
L 150.673797 -176.732307 
L 151.668449 -170.415716 
L 152.663102 -188.908612 
L 153.657754 -199.71927 
L 154.652406 -191.754197 
L 155.647059 -186.419445 
L 156.641711 -184.885393 
L 157.636364 -186.193054 
L 158.631016 -180.806948 
L 159.625668 -193.973784 
L 160.620321 -209.730863 
L 161.614973 -199.352214 
L 162.609626 -192.289471 
L 163.604278 -191.429538 
L 164.59893 -191.513346 
L 165.593583 -180.929249 
L 166.588235 -196.938786 
L 167.582888 -206.279264 
L 168.57754 -196.069913 
L 169.572193 -189.6019 
L 170.566845 -185.98989 
L 171.561497 -185.553126 
L 172.55615 -178.261915 
L 173.550802 -191.233161 
L 174.545455 -201.332767 
L 175.540107 -191.400136 
L 176.534759 -181.780064 
L 177.529412 -183.407817 
L 178.524064 -181.119281 
L 179.518717 -172.728043 
L 180.513369 -188.94678 
L 181.508021 -197.436935 
L 182.502674 -188.484139 
L 183.497326 -182.540343 
L 184.491979 -181.722981 
L 185.486631 -180.306562 
L 186.481283 -173.158354 
L 187.475936 -187.38309 
L 188.470588 -198.54306 
L 189.465241 -189.447093 
L 190.459893 -183.594659 
L 191.454545 -183.422696 
L 192.449198 -182.352721 
L 193.44385 -174.802588 
L 194.438503 -191.267967 
L 195.433155 -199.224555 
L 196.427807 -191.701346 
L 197.42246 -183.228289 
L 198.417112 -181.207074 
L 199.411765 -181.84987 
L 200.406417 -171.993247 
L 201.40107 -187.746003 
L 202.395722 -198.334528 
L 203.390374 -187.362173 
L 204.385027 -178.539827 
L 205.379679 -177.820351 
L 206.374332 -178.022423 
L 207.368984 -167.284376 
L 208.363636 -184.502037 
L 209.358289 -191.442864 
L 210.352941 -184.454111 
L 211.347594 -176.198367 
L 212.342246 -175.297573 
L 213.336898 -173.843466 
L 214.331551 -165.528806 
L 215.326203 -181.14796 
L 216.320856 -190.486574 
L 217.315508 -182.061463 
L 218.31016 -175.299096 
L 219.304813 -174.03934 
L 220.299465 -174.12511 
L 221.294118 -167.928461 
L 222.28877 -184.835686 
L 223.283422 -197.394682 
L 224.278075 -187.688205 
L 225.272727 -181.001936 
L 226.26738 -182.900233 
L 227.262032 -182.877498 
L 228.256684 -174.173091 
L 229.251337 -190.740175 
L 230.245989 -202.154836 
L 231.240642 -193.993308 
L 232.235294 -185.480843 
L 233.229947 -186.519376 
L 234.224599 -186.233942 
L 235.219251 -177.899297 
L 236.213904 -194.257045 
L 237.208556 -204.801795 
L 238.203209 -195.590563 
L 239.197861 -185.402644 
L 240.192513 -186.709405 
L 241.187166 -185.861011 
L 242.181818 -174.677652 
L 243.176471 -190.612736 
L 244.171123 -203.947759 
L 245.165775 -190.018195 
L 246.160428 -182.695884 
L 247.15508 -182.32567 
L 248.149733 -183.259481 
L 249.144385 -173.96365 
L 250.139037 -187.420367 
L 251.13369 -199.825639 
L 252.128342 -188.319016 
L 253.122995 -179.472809 
L 254.117647 -180.697964 
L 255.112299 -182.675325 
L 256.106952 -170.864026 
L 257.101604 -189.628648 
L 258.096257 -201.619961 
L 259.090909 -190.140461 
L 260.085561 -183.93501 
L 261.080214 -184.940604 
L 262.074866 -183.430828 
L 263.069519 -176.579004 
L 264.064171 -194.586291 
L 265.058824 -204.73456 
L 266.053476 -196.330463 
L 267.048128 -187.698466 
L 268.042781 -189.487262 
L 269.037433 -191.134107 
L 270.032086 -182.06922 
L 271.026738 -201.74355 
L 272.02139 -209.756856 
L 273.016043 -202.21351 
L 274.010695 -195.760658 
L 275.005348 -196.899975 
L 276 -197.688225 
L 276.994652 -189.801679 
L 277.989305 -205.796015 
L 278.983957 -217.059597 
L 279.97861 -208.638787 
L 280.973262 -202.030214 
L 281.967914 -203.282706 
L 282.962567 -203.937188 
L 283.957219 -196.752001 
L 284.951872 -214.828079 
L 285.946524 -226.557836 
L 286.941176 -216.889845 
L 287.935829 -210.081878 
L 288.930481 -209.632752 
L 289.925134 -213.180854 
L 290.919786 -204.897587 
L 291.914439 -218.984444 
L 292.909091 -230.432877 
L 293.903743 -218.358037 
L 294.898396 -212.326917 
L 295.893048 -211.62729 
L 296.887701 -210.729648 
L 297.882353 -203.293978 
L 298.877005 -214.449961 
L 299.871658 -223.637546 
L 300.86631 -214.121882 
L 301.860963 -206.839925 
L 302.855615 -202.09417 
L 303.850267 -199.007885 
L 304.84492 -187.263566 
L 305.839572 -201.93789 
L 306.834225 -207.460994 
L 307.828877 -195.630381 
L 308.823529 -185.114688 
L 309.818182 -179.41577 
L 310.812834 -176.526534 
L 311.807487 -163.591154 
L 312.802139 -176.61598 
L 313.796791 -183.277171 
L 314.791444 -169.52789 
L 315.786096 -159.838141 
L 316.780749 -154.848869 
L 317.775401 -154.370194 
L 318.770053 -141.638898 
L 319.764706 -156.986269 
L 320.759358 -164.803455 
L 321.754011 -154.509681 
L 322.748663 -145.84537 
L 323.743316 -145.770539 
L 324.737968 -143.318647 
L 325.73262 -134.186466 
L 326.727273 -149.865813 
L 327.721925 -159.416389 
L 328.716578 -152.439974 
L 329.71123 -146.814684 
L 330.705882 -150.468446 
L 331.700535 -147.045301 
L 332.695187 -140.088175 
L 333.68984 -156.796972 
L 334.684492 -168.742927 
L 335.679144 -160.502856 
L 336.673797 -155.393393 
L 337.668449 -155.786345 
L 338.663102 -155.47417 
L 339.657754 -148.781371 
L 340.652406 -165.823963 
L 341.647059 -175.552783 
L 342.641711 -163.886233 
L 343.636364 -156.734931 
L 344.631016 -158.140483 
L 345.625668 -156.459011 
L 346.620321 -150.197586 
L 347.614973 -163.251136 
L 348.609626 -170.19568 
L 349.604278 -159.287496 
L 350.59893 -149.8281 
L 351.593583 -147.316313 
L 352.588235 -147.602931 
L 353.582888 -136.359964 
L 354.57754 -150.966708 
L 355.572193 -160.821457 
L 356.566845 -149.082411 
L 357.561497 -139.329111 
L 358.55615 -138.236543 
L 359.550802 -137.135387 
L 360.545455 -128.615231 
L 361.540107 -143.394426 
L 362.534759 -153.656319 
L 363.529412 -142.741252 
L 364.524064 -134.226107 
L 365.518717 -134.617164 
L 366.513369 -138.219475 
L 367.508021 -130.232349 
L 368.502674 -144.199381 
L 369.497326 -157.667691 
L 370.491979 -148.685838 
L 371.486631 -142.788557 
L 372.481283 -144.7929 
L 373.475936 -144.309889 
L 374.470588 -137.130752 
L 375.465241 -154.949553 
L 376.459893 -168.121323 
L 377.454545 -155.177107 
L 378.449198 -150.100254 
L 379.44385 -150.551948 
L 380.438503 -153.071485 
L 381.433155 -144.650039 
L 382.427807 -160.697219 
L 383.42246 -172.402058 
L 384.417112 -159.432814 
L 385.411765 -152.836732 
L 386.406417 -151.672803 
L 387.40107 -150.322227 
L 388.395722 -143.026073 
L 389.390374 -155.055385 
L 390.385027 -166.860682 
L 391.379679 -153.589076 
L 392.374332 -145.684931 
L 393.368984 -143.250593 
L 394.363636 -142.375671 
L 395.358289 -131.623304 
L 396.352941 -146.902536 
L 397.347594 -155.71241 
L 398.342246 -142.480951 
L 399.336898 -138.706983 
L 400.331551 -134.835949 
L 401.326203 -135.406222 
L 402.320856 -127.048769 
L 403.315508 -140.607031 
L 404.31016 -152.644753 
L 405.304813 -141.980837 
L 406.299465 -132.549039 
L 407.294118 -130.657563 
L 408.28877 -133.026597 
L 409.283422 -123.636702 
L 410.278075 -141.153921 
L 411.272727 -148.9425 
L 412.26738 -141.353092 
L 413.262032 -131.500618 
L 414.256684 -131.110683 
L 415.251337 -131.849226 
L 416.245989 -123.14942 
L 417.240642 -138.716728 
L 418.235294 -147.993501 
L 419.229947 -139.652803 
L 420.224599 -131.455246 
L 421.219251 -129.528057 
L 422.213904 -131.960355 
L 423.208556 -120.712518 
L 424.203209 -137.668916 
L 425.197861 -146.683406 
L 426.192513 -137.403063 
L 427.187166 -128.888187 
L 428.181818 -127.820132 
L 429.176471 -127.008661 
L 430.171123 -117.626621 
L 431.165775 -133.538396 
L 432.160428 -143.772595 
L 433.15508 -134.247191 
L 434.149733 -126.45076 
L 435.144385 -125.433102 
L 436.139037 -126.522158 
L 437.13369 -116.220465 
L 438.128342 -132.387258 
L 439.122995 -141.592594 
L 440.117647 -130.73312 
L 441.112299 -128.810132 
L 442.106952 -126.770647 
L 443.101604 -127.279453 
L 444.096257 -117.564069 
L 445.090909 -136.818354 
L 446.085561 -146.540665 
L 447.080214 -137.400185 
L 448.074866 -131.109703 
L 449.069519 -131.549414 
L 450.064171 -132.129966 
L 451.058824 -122.945399 
L 452.053476 -137.211531 
L 453.048128 -149.237308 
L 454.042781 -142.571443 
L 455.037433 -133.474117 
L 456.032086 -135.503806 
L 457.026738 -134.901194 
L 458.02139 -127.728769 
L 459.016043 -143.522172 
L 460.010695 -154.314952 
L 461.005348 -147.385781 
L 462 -139.947145 
L 462.994652 -138.121088 
L 463.989305 -139.244833 
L 464.983957 -129.741981 
L 465.97861 -146.362119 
L 466.973262 -161.177047 
L 467.967914 -151.995034 
L 468.962567 -144.829284 
L 469.957219 -144.391883 
L 470.951872 -146.668497 
L 471.946524 -139.141008 
L 472.941176 -153.875602 
L 473.935829 -169.091072 
L 474.930481 -161.300983 
L 475.925134 -152.06787 
L 476.919786 -153.719011 
L 477.914439 -152.942341 
L 478.909091 -148.394968 
L 479.903743 -160.736327 
L 480.898396 -174.581993 
L 481.893048 -168.973439 
L 482.887701 -160.202306 
L 483.882353 -158.595237 
L 484.877005 -160.111545 
L 485.871658 -154.152909 
L 486.86631 -166.240836 
L 487.860963 -179.754604 
L 488.855615 -168.134492 
L 489.850267 -162.246543 
L 490.84492 -161.040479 
L 491.839572 -160.696442 
L 492.834225 -150.517929 
L 493.828877 -167.600753 
L 494.823529 -177.857517 
L 495.818182 -172.500073 
L 496.812834 -163.314703 
L 497.807487 -160.046113 
L 498.802139 -161.519889 
L 499.796791 -152.746662 
L 500.791444 -169.147624 
L 501.786096 -182.904477 
L 502.780749 -175.84585 
L 503.775401 -167.104316 
L 504.770053 -167.614237 
L 505.764706 -168.040633 
L 506.759358 -160.56308 
L 507.754011 -179.316008 
L 508.748663 -187.815645 
L 509.743316 -181.418951 
L 510.737968 -177.253044 
L 511.73262 -178.381416 
L 512.727273 -178.788291 
L 513.721925 -175.796617 
L 514.716578 -191.097732 
L 515.71123 -202.159335 
L 516.705882 -196.318748 
L 517.700535 -189.427528 
L 518.695187 -190.575343 
L 519.68984 -193.26968 
L 520.684492 -183.593862 
L 521.679144 -199.30578 
L 522.673797 -214.084967 
L 523.668449 -203.717938 
L 524.663102 -198.268888 
L 525.657754 -195.948857 
L 526.652406 -199.358482 
L 527.647059 -186.005976 
L 528.641711 -200.760473 
L 529.636364 -211.404363 
L 530.631016 -202.319436 
L 531.625668 -196.42105 
L 532.620321 -193.465134 
L 533.614973 -191.904225 
L 534.609626 -184.311059 
L 535.604278 -199.87203 
L 536.59893 -208.03861 
L 537.593583 -196.766278 
L 538.588235 -189.025143 
L 539.582888 -188.597411 
L 540.57754 -188.246979 
L 541.572193 -177.643263 
L 542.566845 -195.170012 
L 543.561497 -206.649733 
L 544.55615 -197.166816 
L 545.550802 -185.3909 
L 546.545455 -184.689577 
L 547.540107 -186.366526 
L 548.534759 -177.156332 
L 549.529412 -192.37549 
L 550.524064 -204.820207 
L 551.518717 -194.097538 
L 552.513369 -188.779152 
L 553.508021 -190.361683 
L 554.502674 -189.713845 
L 555.497326 -180.467993 
L 556.491979 -197.864958 
L 557.486631 -205.223328 
L 558.481283 -199.43987 
L 559.475936 -192.136439 
L 560.470588 -187.604435 
L 561.465241 -190.656758 
L 562.459893 -179.959425 
L 563.454545 -197.310053 
L 564.449198 -205.191077 
L 565.44385 -196.444422 
L 566.438503 -184.43907 
L 567.433155 -184.726013 
L 568.427807 -184.651451 
L 569.42246 -173.475744 
L 570.417112 -190.782774 
L 571.411765 -201.068712 
L 572.406417 -189.084791 
L 573.40107 -182.808352 
L 574.395722 -183.420662 
L 575.390374 -181.320026 
L 576.385027 -174.972985 
L 577.379679 -188.440844 
L 578.374332 -199.909049 
L 579.368984 -192.027185 
L 580.363636 -182.645188 
L 581.358289 -181.218879 
L 582.352941 -183.268498 
L 583.347594 -177.015553 
L 584.342246 -189.973954 
L 585.336898 -205.29997 
L 586.331551 -193.514532 
L 587.326203 -186.514766 
L 588.320856 -187.702641 
L 589.315508 -190.432673 
L 590.31016 -182.492684 
L 591.304813 -196.395349 
L 592.299465 -210.262292 
L 593.294118 -197.908937 
L 594.28877 -194.773922 
L 595.283422 -193.890933 
L 596.278075 -195.427407 
L 597.272727 -185.426536 
L 598.26738 -202.021877 
L 599.262032 -211.760286 
L 600.256684 -200.804495 
L 601.251337 -193.920246 
L 602.245989 -194.969256 
L 603.240642 -194.576696 
L 604.235294 -186.490264 
L 605.229947 -201.472847 
L 606.224599 -209.953808 
L 607.219251 -199.187049 
L 608.213904 -194.517639 
L 609.208556 -189.633027 
L 610.203209 -192.075429 
L 611.197861 -182.577005 
L 612.192513 -197.908255 
L 613.187166 -205.894231 
L 614.181818 -198.136398 
L 615.176471 -190.820367 
L 616.171123 -189.330192 
L 617.165775 -188.368819 
L 618.160428 -182.324679 
L 619.15508 -198.632127 
L 620.149733 -208.965339 
L 621.144385 -199.808058 
L 622.139037 -193.194049 
L 623.13369 -194.556699 
L 624.128342 -193.798051 
L 625.122995 -183.445403 
L 626.117647 -200.593531 
L 627.112299 -210.060598 
L 628.106952 -203.698421 
L 629.101604 -194.153506 
L 630.096257 -198.423727 
L 631.090909 -197.24854 
L 632.085561 -191.588939 
L 633.080214 -204.820576 
L 634.074866 -218.710396 
L 635.069519 -210.665425 
L 636.064171 -204.594142 
L 637.058824 -205.03679 
L 638.053476 -204.417786 
L 639.048128 -198.204505 
L 640.042781 -214.698681 
L 641.037433 -224.612601 
L 642.032086 -218.403548 
L 643.026738 -215.602809 
L 644.02139 -214.479442 
L 645.016043 -215.198801 
L 646.010695 -207.26865 
L 647.005348 -222.636102 
L 647.005348 -146.842236 
L 647.005348 -146.842236 
L 646.010695 -129.330261 
L 645.016043 -137.619883 
L 644.02139 -139.330491 
L 643.026738 -134.944979 
L 642.032086 -142.824946 
L 641.037433 -153.574068 
L 640.042781 -141.523481 
L 639.048128 -122.49114 
L 638.053476 -134.203035 
L 637.058824 -130.275685 
L 636.064171 -128.868806 
L 635.069519 -137.215025 
L 634.074866 -144.455538 
L 633.080214 -134.700038 
L 632.085561 -114.009147 
L 631.090909 -122.570178 
L 630.096257 -123.767819 
L 629.101604 -125.211099 
L 628.106952 -132.02769 
L 627.112299 -139.703424 
L 626.117647 -129.384852 
L 625.122995 -110.416752 
L 624.128342 -119.725262 
L 623.13369 -118.05648 
L 622.139037 -119.124315 
L 621.144385 -127.664262 
L 620.149733 -135.383375 
L 619.15508 -126.08419 
L 618.160428 -108.620065 
L 617.165775 -117.908922 
L 616.171123 -119.169855 
L 615.176471 -117.325173 
L 614.181818 -126.779576 
L 613.187166 -136.156702 
L 612.192513 -124.035386 
L 611.197861 -110.730221 
L 610.203209 -119.838079 
L 609.208556 -118.368235 
L 608.213904 -121.237722 
L 607.219251 -131.058445 
L 606.224599 -142.137521 
L 605.229947 -130.01144 
L 604.235294 -113.754942 
L 603.240642 -121.593249 
L 602.245989 -123.54786 
L 601.251337 -124.599067 
L 600.256684 -133.457446 
L 599.262032 -140.608491 
L 598.26738 -131.957167 
L 597.272727 -115.434113 
L 596.278075 -122.460546 
L 595.283422 -123.098958 
L 594.28877 -123.059597 
L 593.294118 -129.895828 
L 592.299465 -138.026306 
L 591.304813 -130.583492 
L 590.31016 -113.967299 
L 589.315508 -119.679336 
L 588.320856 -118.537716 
L 587.326203 -117.745819 
L 586.331551 -124.233261 
L 585.336898 -135.564198 
L 584.342246 -121.574142 
L 583.347594 -106.90083 
L 582.352941 -113.736705 
L 581.358289 -114.255853 
L 580.363636 -114.203727 
L 579.368984 -121.797997 
L 578.374332 -131.09439 
L 577.379679 -121.482578 
L 576.385027 -103.433099 
L 575.390374 -113.326701 
L 574.395722 -114.463237 
L 573.40107 -114.373114 
L 572.406417 -123.185294 
L 571.411765 -131.567536 
L 570.417112 -121.390181 
L 569.42246 -107.044464 
L 568.427807 -117.882052 
L 567.433155 -117.833273 
L 566.438503 -119.864264 
L 565.44385 -126.88933 
L 564.449198 -136.249998 
L 563.454545 -127.449042 
L 562.459893 -112.505676 
L 561.465241 -122.888968 
L 560.470588 -122.410558 
L 559.475936 -122.187378 
L 558.481283 -130.531205 
L 557.486631 -138.877756 
L 556.491979 -130.629209 
L 555.497326 -113.52313 
L 554.502674 -121.649095 
L 553.508021 -122.00559 
L 552.513369 -124.082158 
L 551.518717 -131.693872 
L 550.524064 -140.936536 
L 549.529412 -128.367662 
L 548.534759 -113.894019 
L 547.540107 -120.449835 
L 546.545455 -121.052488 
L 545.550802 -121.097949 
L 544.55615 -130.995277 
L 543.561497 -139.656199 
L 542.566845 -126.427743 
L 541.572193 -113.02273 
L 540.57754 -124.172096 
L 539.582888 -124.979262 
L 538.588235 -123.317723 
L 537.593583 -131.859242 
L 536.59893 -143.160256 
L 535.604278 -132.943266 
L 534.609626 -119.208293 
L 533.614973 -127.560772 
L 532.620321 -131.102386 
L 531.625668 -129.763592 
L 530.631016 -137.117754 
L 529.636364 -147.723352 
L 528.641711 -136.724512 
L 527.647059 -123.667186 
L 526.652406 -130.626356 
L 525.657754 -130.139555 
L 524.663102 -131.793191 
L 523.668449 -141.060638 
L 522.673797 -146.768737 
L 521.679144 -137.579046 
L 520.684492 -119.502266 
L 519.68984 -127.778836 
L 518.695187 -128.467789 
L 517.700535 -125.890105 
L 516.705882 -129.398769 
L 515.71123 -141.927072 
L 514.716578 -127.589947 
L 513.721925 -109.240332 
L 512.727273 -116.893193 
L 511.73262 -112.430073 
L 510.737968 -112.500804 
L 509.743316 -117.682283 
L 508.748663 -124.332587 
L 507.754011 -114.148443 
L 506.759358 -96.962292 
L 505.764706 -104.446485 
L 504.770053 -101.965606 
L 503.775401 -103.307897 
L 502.780749 -110.320294 
L 501.786096 -116.729507 
L 500.791444 -107.152797 
L 499.796791 -90.135288 
L 498.802139 -99.342625 
L 497.807487 -101.86798 
L 496.812834 -99.554979 
L 495.818182 -107.070289 
L 494.823529 -114.310421 
L 493.828877 -105.919351 
L 492.834225 -93.31361 
L 491.839572 -100.790083 
L 490.84492 -99.668365 
L 489.850267 -99.97206 
L 488.855615 -107.084741 
L 487.860963 -117.419713 
L 486.86631 -105.003169 
L 485.871658 -91.718256 
L 484.877005 -96.766847 
L 483.882353 -97.312564 
L 482.887701 -97.650857 
L 481.893048 -104.91767 
L 480.898396 -112.823705 
L 479.903743 -101.020454 
L 478.909091 -83.698326 
L 477.914439 -91.401323 
L 476.919786 -92.144566 
L 475.925134 -89.750094 
L 474.930481 -94.801434 
L 473.935829 -104.241643 
L 472.941176 -91.97955 
L 471.946524 -77.409981 
L 470.951872 -83.823198 
L 469.957219 -81.870268 
L 468.962567 -83.334236 
L 467.967914 -87.638008 
L 466.973262 -96.758684 
L 465.97861 -86.043863 
L 464.983957 -69.651804 
L 463.989305 -77.684037 
L 462.994652 -75.883134 
L 462 -75.742809 
L 461.005348 -83.097679 
L 460.010695 -95.381986 
L 459.016043 -82.068474 
L 458.02139 -65.248367 
L 457.026738 -72.169527 
L 456.032086 -74.01602 
L 455.037433 -71.979303 
L 454.042781 -80.469307 
L 453.048128 -88.858111 
L 452.053476 -76.761781 
L 451.058824 -62.975444 
L 450.064171 -72.217808 
L 449.069519 -70.570521 
L 448.074866 -72.061571 
L 447.080214 -76.028899 
L 446.085561 -88.251295 
L 445.090909 -76.457695 
L 444.096257 -58.56535 
L 443.101604 -66.640266 
L 442.106952 -67.115127 
L 441.112299 -65.806465 
L 440.117647 -75.461951 
L 439.122995 -82.990739 
L 438.128342 -71.838801 
L 437.13369 -57.354545 
L 436.139037 -64.604706 
L 435.144385 -65.096464 
L 434.149733 -65.444182 
L 433.15508 -74.831783 
L 432.160428 -83.012953 
L 431.165775 -75.222674 
L 430.171123 -58.234004 
L 429.176471 -68.429645 
L 428.181818 -68.223857 
L 427.187166 -70.518933 
L 426.192513 -76.173286 
L 425.197861 -87.192568 
L 424.203209 -77.708174 
L 423.208556 -63.008818 
L 422.213904 -71.567251 
L 421.219251 -73.864804 
L 420.224599 -72.961386 
L 419.229947 -78.05628 
L 418.235294 -91.317328 
L 417.240642 -80.560292 
L 416.245989 -65.861295 
L 415.251337 -74.094459 
L 414.256684 -73.945346 
L 413.262032 -76.179496 
L 412.26738 -78.99085 
L 411.272727 -89.694033 
L 410.278075 -78.831523 
L 409.283422 -64.455619 
L 408.28877 -73.021621 
L 407.294118 -73.422815 
L 406.299465 -72.827779 
L 405.304813 -83.133518 
L 404.31016 -91.63859 
L 403.315508 -81.606903 
L 402.320856 -68.721416 
L 401.326203 -77.652677 
L 400.331551 -75.78649 
L 399.336898 -79.618446 
L 398.342246 -84.700612 
L 397.347594 -98.669013 
L 396.352941 -89.650269 
L 395.358289 -75.178817 
L 394.363636 -85.906795 
L 393.368984 -84.887812 
L 392.374332 -86.156725 
L 391.379679 -95.665378 
L 390.385027 -107.84056 
L 389.390374 -95.302941 
L 388.395722 -84.772923 
L 387.40107 -93.456525 
L 386.406417 -94.472524 
L 385.411765 -93.676305 
L 384.417112 -104.011787 
L 383.42246 -112.124851 
L 382.427807 -103.114111 
L 381.433155 -85.657373 
L 380.438503 -93.606831 
L 379.44385 -95.084652 
L 378.449198 -93.722247 
L 377.454545 -100.612999 
L 376.459893 -108.530094 
L 375.465241 -98.104408 
L 374.470588 -79.918458 
L 373.475936 -87.763831 
L 372.481283 -87.076571 
L 371.486631 -86.674385 
L 370.491979 -91.680602 
L 369.497326 -101.609472 
L 368.502674 -89.805232 
L 367.508021 -74.059664 
L 366.513369 -82.0673 
L 365.518717 -79.088707 
L 364.524064 -79.016169 
L 363.529412 -88.340818 
L 362.534759 -99.513294 
L 361.540107 -86.551724 
L 360.545455 -70.857451 
L 359.550802 -81.299791 
L 358.55615 -81.814421 
L 357.561497 -84.493149 
L 356.566845 -93.134588 
L 355.572193 -104.031223 
L 354.57754 -98.064022 
L 353.582888 -82.984773 
L 352.588235 -92.458921 
L 351.593583 -93.530796 
L 350.59893 -95.270371 
L 349.604278 -104.10266 
L 348.609626 -114.265707 
L 347.614973 -104.805988 
L 346.620321 -90.984433 
L 345.625668 -100.378632 
L 344.631016 -104.352632 
L 343.636364 -101.494937 
L 342.641711 -111.034978 
L 341.647059 -118.973783 
L 340.652406 -109.207689 
L 339.657754 -92.100458 
L 338.663102 -100.73236 
L 337.668449 -97.308928 
L 336.673797 -99.447111 
L 335.679144 -104.062991 
L 334.684492 -115.196228 
L 333.68984 -98.995664 
L 332.695187 -85.431932 
L 331.700535 -92.595999 
L 330.705882 -89.968963 
L 329.71123 -87.593984 
L 328.716578 -94.956922 
L 327.721925 -108.068133 
L 326.727273 -93.33444 
L 325.73262 -78.053939 
L 324.737968 -85.096256 
L 323.743316 -89.752902 
L 322.748663 -88.560103 
L 321.754011 -98.302137 
L 320.759358 -107.984505 
L 319.764706 -98.455549 
L 318.770053 -85.072027 
L 317.775401 -97.976302 
L 316.780749 -100.274163 
L 315.786096 -104.370563 
L 314.791444 -116.220377 
L 313.796791 -127.86225 
L 312.802139 -119.797917 
L 311.807487 -107.107334 
L 310.812834 -119.893157 
L 309.818182 -124.739146 
L 308.823529 -127.396345 
L 307.828877 -140.143811 
L 306.834225 -151.472917 
L 305.839572 -146.824646 
L 304.84492 -132.123744 
L 303.850267 -142.435398 
L 302.855615 -147.246456 
L 301.860963 -148.757399 
L 300.86631 -159.205436 
L 299.871658 -169.043789 
L 298.877005 -161.692837 
L 297.882353 -149.117755 
L 296.887701 -157.641697 
L 295.893048 -155.493773 
L 294.898396 -159.70676 
L 293.903743 -166.417818 
L 292.909091 -174.433511 
L 291.914439 -163.528359 
L 290.919786 -149.312455 
L 289.925134 -155.829356 
L 288.930481 -157.092538 
L 287.935829 -154.151968 
L 286.941176 -161.015308 
L 285.946524 -172.133085 
L 284.951872 -160.355167 
L 283.957219 -142.596269 
L 282.962567 -150.452793 
L 281.967914 -148.315413 
L 280.973262 -147.339431 
L 279.97861 -154.933656 
L 278.983957 -162.568246 
L 277.989305 -152.47547 
L 276.994652 -136.019625 
L 276 -144.461214 
L 275.005348 -141.419095 
L 274.010695 -140.042043 
L 273.016043 -146.18302 
L 272.02139 -157.505725 
L 271.026738 -143.794464 
L 270.032086 -127.751199 
L 269.037433 -135.395783 
L 268.042781 -133.092099 
L 267.048128 -134.2051 
L 266.053476 -141.375483 
L 265.058824 -150.238427 
L 264.064171 -137.205589 
L 263.069519 -121.719917 
L 262.074866 -130.507616 
L 261.080214 -127.190283 
L 260.085561 -127.835195 
L 259.090909 -136.821936 
L 258.096257 -145.739076 
L 257.101604 -134.661559 
L 256.106952 -117.252755 
L 255.112299 -125.67596 
L 254.117647 -124.375616 
L 253.122995 -126.755213 
L 252.128342 -136.050591 
L 251.13369 -144.598673 
L 250.139037 -131.509086 
L 249.144385 -118.168452 
L 248.149733 -128.845813 
L 247.15508 -126.45369 
L 246.160428 -127.389382 
L 245.165775 -138.80073 
L 244.171123 -145.616686 
L 243.176471 -138.492352 
L 242.181818 -124.044266 
L 241.187166 -130.438827 
L 240.192513 -132.98327 
L 239.197861 -132.899857 
L 238.203209 -140.243282 
L 237.208556 -151.495758 
L 236.213904 -140.845496 
L 235.219251 -125.670781 
L 234.224599 -132.743154 
L 233.229947 -130.840949 
L 232.235294 -132.814502 
L 231.240642 -139.375375 
L 230.245989 -149.105277 
L 229.251337 -137.793384 
L 228.256684 -121.918153 
L 227.262032 -127.266988 
L 226.26738 -127.49305 
L 225.272727 -128.003601 
L 224.278075 -132.342054 
L 223.283422 -141.574811 
L 222.28877 -130.841642 
L 221.294118 -112.295662 
L 220.299465 -121.798762 
L 219.304813 -122.65797 
L 218.31016 -120.897261 
L 217.315508 -129.509288 
L 216.320856 -136.909844 
L 215.326203 -127.588051 
L 214.331551 -112.151238 
L 213.336898 -120.880172 
L 212.342246 -119.751094 
L 211.347594 -121.675337 
L 210.352941 -130.953369 
L 209.358289 -137.232448 
L 208.363636 -128.700796 
L 207.368984 -114.622741 
L 206.374332 -123.524982 
L 205.379679 -123.462405 
L 204.385027 -125.95904 
L 203.390374 -133.254755 
L 202.395722 -144.791427 
L 201.40107 -134.242355 
L 200.406417 -119.240567 
L 199.411765 -128.639036 
L 198.417112 -129.817642 
L 197.42246 -129.397557 
L 196.427807 -136.919192 
L 195.433155 -144.625102 
L 194.438503 -134.424027 
L 193.44385 -119.485014 
L 192.449198 -129.201425 
L 191.454545 -129.357559 
L 190.459893 -128.984619 
L 189.465241 -135.292713 
L 188.470588 -143.425753 
L 187.475936 -133.293409 
L 186.481283 -119.695553 
L 185.486631 -127.885791 
L 184.491979 -128.058204 
L 183.497326 -126.858541 
L 182.502674 -133.604988 
L 181.508021 -143.82477 
L 180.513369 -131.693564 
L 179.518717 -120.196071 
L 178.524064 -127.314767 
L 177.529412 -127.017896 
L 176.534759 -128.600921 
L 175.540107 -136.89477 
L 174.545455 -149.889867 
L 173.550802 -137.153434 
L 172.55615 -122.026862 
L 171.561497 -130.842084 
L 170.566845 -131.210572 
L 169.572193 -132.867735 
L 168.57754 -143.321038 
L 167.582888 -152.745339 
L 166.588235 -142.318079 
L 165.593583 -126.725925 
L 164.59893 -137.289834 
L 163.604278 -134.958972 
L 162.609626 -136.614239 
L 161.614973 -145.667423 
L 160.620321 -153.848682 
L 159.625668 -141.952618 
L 158.631016 -125.40852 
L 157.636364 -133.161475 
L 156.641711 -134.27496 
L 155.647059 -132.310571 
L 154.652406 -137.945516 
L 153.657754 -144.291917 
L 152.663102 -134.284089 
L 151.668449 -117.623978 
L 150.673797 -123.066536 
L 149.679144 -121.184752 
L 148.684492 -122.49321 
L 147.68984 -124.390652 
L 146.695187 -132.204477 
L 145.700535 -120.717914 
L 144.705882 -103.827026 
L 143.71123 -112.047047 
L 142.716578 -109.448783 
L 141.721925 -110.608277 
L 140.727273 -113.160066 
L 139.73262 -124.996072 
L 138.737968 -111.084322 
L 137.743316 -94.640715 
L 136.748663 -104.598307 
L 135.754011 -105.507463 
L 134.759358 -102.997483 
L 133.764706 -109.803197 
L 132.770053 -122.09855 
L 131.775401 -109.765741 
L 130.780749 -96.434832 
L 129.786096 -103.594873 
L 128.791444 -103.977221 
L 127.796791 -102.219776 
L 126.802139 -110.242711 
L 125.807487 -120.406005 
L 124.812834 -109.543618 
L 123.818182 -94.040213 
L 122.823529 -102.367473 
L 121.828877 -101.270818 
L 120.834225 -102.048358 
L 119.839572 -109.120391 
L 118.84492 -117.120774 
L 117.850267 -105.668907 
L 116.855615 -87.999471 
L 115.860963 -95.59646 
L 114.86631 -96.730295 
L 113.871658 -96.205727 
L 112.877005 -100.742455 
L 111.882353 -112.552998 
L 110.887701 -98.224876 
L 109.893048 -80.553957 
L 108.898396 -91.516955 
L 107.903743 -89.01577 
L 106.909091 -88.518872 
L 105.914439 -94.011922 
L 104.919786 -103.146147 
L 103.925134 -92.5238 
L 102.930481 -74.708987 
L 101.935829 -83.059885 
L 100.941176 -82.509084 
L 99.946524 -82.074426 
L 98.951872 -90.713535 
L 97.957219 -97.523761 
L 96.962567 -85.01079 
L 95.967914 -70.056305 
L 94.973262 -77.681268 
L 93.97861 -77.779867 
L 92.983957 -77.626353 
L 91.989305 -84.551712 
L 90.994652 -94.395948 
L 90 -81.794908 
z
" id="ma5483e97ac" style="stroke:#c44e52;stroke-opacity:0.1;stroke-width:0.8;"/>
    </defs>
    <g clip-path="url(#p4ea604378e)">
     <use style="fill:#c44e52;fill-opacity:0.1;stroke:#c44e52;stroke-opacity:0.1;stroke-width:0.8;" x="0" xlink:href="#ma5483e97ac" y="360"/>
    </g>
   </g>
   <g id="line2d_15">
    <path clip-path="url(#p4ea604378e)" d="M 90 278.011983 
L 90.994652 268.392725 
L 91.989305 261.642242 
L 92.983957 265.376742 
L 93.97861 247.054181 
L 94.973262 252.029138 
L 95.967914 266.095213 
L 97.957219 262.502186 
L 98.951872 252.921681 
L 99.946524 257.046584 
L 100.941176 222.894686 
L 101.935829 254.046489 
L 102.930481 265.469771 
L 103.925134 264.125276 
L 105.914439 247.114682 
L 106.909091 246.433979 
L 107.903743 235.662639 
L 108.898396 240.909126 
L 109.893048 255.593953 
L 110.887701 259.592394 
L 111.882353 223.34293 
L 112.877005 222.349394 
L 113.871658 235.77076 
L 115.860963 250.40711 
L 116.855615 250.889475 
L 117.850267 246.993765 
L 118.84492 220.884844 
L 119.839572 240.82198 
L 120.834225 248.509595 
L 121.828877 245.200711 
L 122.823529 229.926791 
L 123.818182 247.724465 
L 124.812834 239.400793 
L 125.807487 216.504352 
L 126.802139 206.451529 
L 127.796791 224.872068 
L 128.791444 230.853712 
L 129.786096 234.416083 
L 130.780749 241.595049 
L 131.775401 229.284421 
L 132.770053 220.472394 
L 133.764706 223.936301 
L 134.759358 232.41147 
L 135.754011 237.233885 
L 136.748663 239.367125 
L 137.743316 233.292412 
L 138.737968 210.330878 
L 139.73262 217.238909 
L 140.727273 235.309301 
L 141.721925 239.383956 
L 142.716578 209.52959 
L 143.71123 231.296985 
L 144.705882 233.585255 
L 145.700535 216.465005 
L 146.695187 221.633022 
L 147.68984 213.42022 
L 148.684492 211.42616 
L 149.679144 196.659979 
L 150.673797 229.191546 
L 151.668449 200.45019 
L 152.663102 117.241192 
L 153.657754 144.623726 
L 154.652406 198.619571 
L 155.647059 201.976289 
L 156.641711 187.405458 
L 157.636364 205.933849 
L 158.631016 148.824323 
L 159.625668 159.601965 
L 160.620321 181.430216 
L 161.614973 206.242155 
L 162.609626 194.533052 
L 163.604278 189.109797 
L 164.59893 223.936301 
L 165.593583 182.889813 
L 166.588235 163.909561 
L 167.582888 213.548576 
L 168.57754 225.718752 
L 169.572193 224.561821 
L 170.566845 196.666158 
L 171.561497 223.354486 
L 172.55615 218.098581 
L 173.550802 207.259834 
L 174.545455 202.532817 
L 175.540107 221.070661 
L 176.534759 220.721557 
L 177.529412 216.810533 
L 178.524064 230.922671 
L 179.518717 179.93541 
L 180.513369 148.685776 
L 181.508021 196.389004 
L 182.502674 203.741043 
L 183.497326 215.349027 
L 184.491979 207.689811 
L 185.486631 231.548367 
L 186.481283 185.219925 
L 187.475936 171.119359 
L 188.470588 211.060817 
L 189.465241 219.069912 
L 190.459893 218.550492 
L 191.454545 212.121955 
L 192.449198 223.854367 
L 193.44385 202.568286 
L 194.438503 92.858545 
L 195.433155 163.906696 
L 196.427807 194.976154 
L 197.42246 199.780213 
L 198.417112 153.301037 
L 199.411765 213.917449 
L 200.406417 198.181945 
L 201.40107 173.531083 
L 202.395722 200.020193 
L 203.390374 208.767703 
L 204.385027 212.442833 
L 205.379679 209.781004 
L 206.374332 230.483253 
L 207.368984 185.95848 
L 208.363636 170.446048 
L 209.358289 187.286288 
L 210.352941 221.367457 
L 211.347594 224.348349 
L 212.342246 224.100642 
L 213.336898 245.471703 
L 214.331551 220.063897 
L 215.326203 188.401535 
L 216.320856 216.112503 
L 217.315508 223.135462 
L 218.31016 227.109434 
L 219.304813 230.428643 
L 220.299465 250.62569 
L 221.294118 215.435318 
L 222.28877 202.102455 
L 223.283422 221.721913 
L 224.278075 232.755901 
L 225.272727 232.197606 
L 226.26738 228.980016 
L 227.262032 252.530324 
L 228.256684 223.795939 
L 229.251337 186.63186 
L 230.245989 223.273662 
L 231.240642 233.791449 
L 232.235294 226.958243 
L 233.229947 234.401104 
L 234.224599 246.63306 
L 235.219251 233.894921 
L 236.213904 183.743613 
L 237.208556 220.192474 
L 238.203209 220.353742 
L 239.197861 219.595741 
L 240.192513 215.888811 
L 241.187166 244.797426 
L 242.181818 227.694017 
L 243.176471 200.64647 
L 244.171123 215.743554 
L 245.165775 227.324543 
L 246.160428 222.371975 
L 247.15508 227.873537 
L 248.149733 244.701965 
L 249.144385 214.298887 
L 250.139037 196.223572 
L 252.128342 225.00401 
L 253.122995 228.066723 
L 254.117647 239.518839 
L 255.112299 252.760098 
L 256.106952 236.25291 
L 257.101604 216.850201 
L 258.096257 187.221877 
L 259.090909 224.788318 
L 260.085561 231.730847 
L 261.080214 228.028015 
L 262.074866 240.337228 
L 263.069519 215.888811 
L 264.064171 200.538066 
L 266.053476 235.693503 
L 267.048128 238.965176 
L 268.042781 219.553435 
L 269.037433 213.834174 
L 270.032086 192.591387 
L 271.026738 194.550688 
L 272.02139 204.114707 
L 273.016043 211.112818 
L 274.010695 214.598985 
L 275.005348 212.299922 
L 276 219.332016 
L 276.994652 152.013831 
L 277.989305 117.55775 
L 278.983957 157.401445 
L 279.97861 185.111416 
L 280.973262 198.348742 
L 281.967914 199.048666 
L 282.962567 214.10309 
L 283.957219 194.970216 
L 284.951872 157.435892 
L 285.946524 191.84545 
L 286.941176 204.247375 
L 287.935829 207.498175 
L 288.930481 215.521784 
L 289.925134 235.678068 
L 290.919786 228.782656 
L 291.914439 217.128914 
L 292.909091 219.490055 
L 293.903743 220.580547 
L 294.898396 216.929647 
L 295.893048 206.928381 
L 296.887701 228.966831 
L 297.882353 188.335417 
L 298.877005 135.108285 
L 299.871658 178.157743 
L 300.86631 201.990289 
L 301.860963 222.473742 
L 302.855615 237.362123 
L 303.850267 240.406141 
L 304.84492 235.355222 
L 305.839572 214.759276 
L 306.834225 225.755417 
L 307.828877 238.517468 
L 308.823529 236.268554 
L 309.818182 240.561606 
L 310.812834 253.410136 
L 311.807487 223.737592 
L 312.802139 240.028488 
L 313.796791 240.787171 
L 314.791444 242.617837 
L 315.786096 245.065858 
L 316.780749 229.819054 
L 317.775401 260.109374 
L 318.770053 254.42812 
L 319.764706 252.006496 
L 320.759358 245.355353 
L 321.754011 253.574207 
L 322.748663 258.078046 
L 323.743316 273.247088 
L 324.737968 272.802322 
L 325.73262 259.592394 
L 326.727273 248.488747 
L 327.721925 241.154087 
L 328.716578 214.233522 
L 329.71123 235.972288 
L 330.705882 264.975943 
L 331.700535 266.253018 
L 332.695187 251.332777 
L 333.68984 250.211341 
L 334.684492 245.940308 
L 335.679144 249.182162 
L 336.673797 245.065858 
L 337.668449 268.592677 
L 338.663102 273.321669 
L 339.657754 260.604997 
L 340.652406 254.404168 
L 341.647059 260.054659 
L 342.641711 256.99566 
L 343.636364 262.618167 
L 344.631016 282.860738 
L 345.625668 278.853533 
L 346.620321 261.359407 
L 347.614973 232.78473 
L 348.609626 244.663841 
L 349.604278 262.997301 
L 350.59893 262.012756 
L 351.593583 279.066542 
L 352.588235 237.830247 
L 353.582888 271.38807 
L 354.57754 263.498235 
L 355.572193 265.93799 
L 356.566845 267.962686 
L 357.561497 265.969388 
L 358.55615 282.304172 
L 359.550802 283.519387 
L 360.545455 268.326282 
L 361.540107 273.098317 
L 362.534759 271.139123 
L 363.529412 265.068101 
L 364.524064 263.114639 
L 365.518717 287.962792 
L 366.513369 273.847423 
L 367.508021 267.602166 
L 368.502674 265.531904 
L 369.497326 260.688164 
L 370.491979 259.619448 
L 371.486631 263.825534 
L 372.481283 283.094803 
L 373.475936 261.472316 
L 374.470588 247.765429 
L 375.465241 257.765978 
L 376.459893 250.64761 
L 377.454545 254.356304 
L 378.449198 260.854986 
L 380.438503 271.174598 
L 381.433155 261.134483 
L 382.427807 259.890933 
L 384.417112 250.86743 
L 385.411765 243.09265 
L 386.406417 268.894376 
L 387.40107 279.323567 
L 388.395722 260.938643 
L 389.390374 265.625273 
L 390.385027 243.609971 
L 391.379679 259.565357 
L 392.374332 262.647212 
L 393.368984 273.396381 
L 394.363636 277.928735 
L 396.352941 245.803099 
L 398.342246 263.557557 
L 399.336898 261.869869 
L 400.331551 286.109322 
L 401.326203 283.330161 
L 402.320856 268.961711 
L 403.315508 267.083157 
L 404.31016 269.062913 
L 405.304813 199.966747 
L 406.299465 220.515622 
L 407.294118 256.41437 
L 408.28877 268.226812 
L 409.283422 273.284363 
L 410.278075 267.602166 
L 411.272727 257.456178 
L 412.26738 264.125276 
L 413.262032 262.909509 
L 414.256684 286.718234 
L 415.251337 277.928735 
L 417.240642 266.411409 
L 418.235294 268.028564 
L 419.229947 272.180076 
L 420.224599 279.023855 
L 421.219251 288.813156 
L 422.213904 295.607796 
L 423.208556 273.209847 
L 424.203209 273.209847 
L 425.197861 278.557097 
L 426.192513 272.581667 
L 428.181818 290.232237 
L 429.176471 295.294159 
L 430.171123 279.712033 
L 431.165775 278.178969 
L 432.160428 274.84137 
L 433.15508 280.455605 
L 434.149733 279.712033 
L 435.144385 298.810116 
L 436.139037 282.074398 
L 437.13369 263.438995 
L 438.128342 271.746249 
L 439.122995 260.384008 
L 440.117647 262.618167 
L 441.112299 263.468604 
L 442.106952 255.667887 
L 443.101604 288.173798 
L 444.096257 276.618412 
L 445.090909 274.3415 
L 446.085561 283.948242 
L 447.080214 282.720914 
L 448.074866 291.299978 
L 449.069519 297.473859 
L 450.064171 296.370077 
L 451.058824 281.033102 
L 452.053476 280.104072 
L 453.048128 275.151922 
L 454.042781 268.559287 
L 455.037433 266.666066 
L 456.032086 287.491814 
L 457.026738 275.779898 
L 458.02139 269.572562 
L 459.016043 271.245637 
L 460.010695 266.570392 
L 461.005348 228.560081 
L 462 258.261146 
L 462.994652 272.913079 
L 463.989305 266.729969 
L 464.983957 256.239017 
L 465.97861 257.250889 
L 466.973262 254.837382 
L 467.967914 258.313605 
L 468.962567 267.147688 
L 469.957219 280.810061 
L 470.951872 282.120254 
L 471.946524 262.792733 
L 472.941176 265.500826 
L 473.935829 264.639725 
L 474.930481 261.984141 
L 475.925134 261.528883 
L 476.919786 276.820513 
L 477.914439 282.488888 
L 478.909091 267.309446 
L 479.903743 263.261767 
L 480.898396 263.498235 
L 481.893048 239.909023 
L 483.882353 274.725494 
L 484.877005 271.926474 
L 485.871658 263.736021 
L 486.86631 249.37325 
L 487.860963 251.288239 
L 488.855615 250.233049 
L 489.850267 262.705361 
L 490.84492 260.966565 
L 491.839572 265.625273 
L 492.834225 256.666131 
L 493.828877 243.074289 
L 494.823529 248.197945 
L 496.812834 239.926069 
L 497.807487 265.407729 
L 498.802139 254.716602 
L 499.796791 238.254361 
L 500.791444 234.596244 
L 502.780749 250.341754 
L 503.775401 251.645854 
L 504.770053 262.618167 
L 505.764706 241.382818 
L 507.754011 252.256219 
L 508.748663 246.692966 
L 509.743316 229.591015 
L 510.737968 226.062192 
L 511.73262 244.133649 
L 512.727273 244.473729 
L 513.721925 246.156819 
L 514.716578 236.899085 
L 515.71123 229.019598 
L 516.705882 224.183051 
L 517.700535 204.077928 
L 518.695187 239.048603 
L 519.68984 199.218897 
L 520.684492 187.301166 
L 521.679144 214.448672 
L 522.673797 229.350885 
L 523.668449 215.176966 
L 524.663102 159.035982 
L 525.657754 227.56625 
L 526.652406 214.065897 
L 527.647059 209.031165 
L 528.641711 218.664223 
L 529.636364 232.0698 
L 530.631016 227.311859 
L 531.625668 207.593885 
L 532.620321 249.055245 
L 533.614973 214.863315 
L 534.609626 166.743757 
L 535.604278 208.579341 
L 536.59893 226.272067 
L 537.593583 232.799151 
L 538.588235 237.313989 
L 539.582888 255.446468 
L 540.57754 216.435518 
L 541.572193 201.447667 
L 542.566845 229.218061 
L 543.561497 240.926576 
L 544.55615 243.09265 
L 545.550802 235.848158 
L 546.545455 259.863707 
L 547.540107 225.05209 
L 548.534759 221.301323 
L 549.529412 238.965176 
L 550.524064 243.498587 
L 551.518717 239.654151 
L 552.513369 259.646519 
L 553.508021 219.691082 
L 554.502674 200.809595 
L 555.497326 215.502554 
L 556.491979 241.879679 
L 557.486631 235.248148 
L 558.481283 238.385711 
L 559.475936 234.883066 
L 561.465241 214.140316 
L 562.459893 230.007772 
L 563.454545 240.475167 
L 564.449198 241.524188 
L 565.44385 227.796507 
L 566.438503 248.572199 
L 567.433155 228.468769 
L 568.427807 173.084577 
L 569.42246 213.1101 
L 570.417112 228.403666 
L 571.411765 232.799151 
L 572.406417 218.437064 
L 573.40107 247.724465 
L 574.395722 211.697841 
L 575.390374 182.83171 
L 576.385027 224.395695 
L 577.379679 239.823896 
L 578.374332 234.102622 
L 579.368984 246.394275 
L 580.363636 268.094544 
L 581.358289 236.598419 
L 582.352941 162.76745 
L 583.347594 196.272522 
L 584.342246 216.093005 
L 585.336898 225.414431 
L 586.331551 230.170197 
L 587.326203 251.13272 
L 588.320856 221.500033 
L 589.315508 203.748338 
L 590.31016 219.363577 
L 591.304813 229.913309 
L 592.299465 237.862722 
L 593.294118 224.100642 
L 594.28877 249.843992 
L 595.283422 231.506367 
L 596.278075 55.554545 
L 597.272727 82.263345 
L 598.26738 202.088418 
L 599.262032 230.0348 
L 600.256684 228.953649 
L 601.251337 255.495573 
L 602.245989 231.829431 
L 603.240642 211.251797 
L 604.235294 233.234084 
L 605.229947 241.897531 
L 606.224599 221.334377 
L 607.219251 238.123415 
L 608.213904 261.812849 
L 609.208556 244.435808 
L 610.203209 218.809411 
L 611.197861 222.338107 
L 612.192513 240.630883 
L 613.187166 249.822481 
L 614.181818 252.507414 
L 615.176471 267.732912 
L 616.171123 237.058185 
L 617.165775 217.07901 
L 618.160428 227.719617 
L 619.15508 242.004804 
L 620.149733 260.24647 
L 621.144385 262.184855 
L 622.139037 269.915744 
L 623.13369 194.970216 
L 624.128342 179.121155 
L 625.122995 179.235943 
L 626.117647 215.743554 
L 628.106952 249.930142 
L 629.101604 239.874952 
L 630.096257 221.799845 
L 631.090909 177.223458 
L 632.085561 208.205095 
L 633.080214 217.39941 
L 634.074866 219.818538 
L 635.069519 220.0532 
L 636.064171 241.559604 
L 637.058824 220.41842 
L 638.053476 212.362387 
L 639.048128 226.669952 
L 640.042781 229.564267 
L 641.037433 231.422491 
L 642.032086 231.492376 
L 643.026738 240.216896 
L 644.02139 178.129735 
L 645.016043 132.953653 
L 646.010695 184.438258 
L 647.005348 194.433253 
L 647.005348 194.433253 
" style="fill:none;stroke:#4c72b0;stroke-linecap:round;stroke-width:1.2;"/>
   </g>
   <g id="line2d_16">
    <path clip-path="url(#p4ea604378e)" d="M 90 250.625686 
L 90.994652 239.217696 
L 91.989305 248.285008 
L 92.983957 255.271278 
L 93.97861 255.211386 
L 94.973262 254.690487 
L 95.967914 262.690424 
L 96.962567 246.945688 
L 97.957219 235.463341 
L 98.951872 244.413384 
L 99.946524 251.237343 
L 100.941176 250.970076 
L 101.935829 250.198882 
L 102.930481 257.909872 
L 103.925134 241.843828 
L 104.919786 230.015942 
L 105.914439 238.605929 
L 106.909091 245.066304 
L 107.903743 244.443824 
L 108.898396 243.338188 
L 109.893048 250.747983 
L 110.887701 234.426089 
L 111.882353 222.398976 
L 112.877005 230.856393 
L 113.871658 237.259239 
L 114.86631 236.660659 
L 115.860963 235.664435 
L 116.855615 243.270711 
L 117.850267 227.231236 
L 118.84492 215.568592 
L 119.839572 224.465898 
L 120.834225 231.374777 
L 121.828877 231.336645 
L 122.823529 230.941373 
L 123.818182 239.173355 
L 124.812834 223.767168 
L 125.807487 212.727269 
L 126.802139 222.218201 
L 127.796791 229.673114 
L 128.791444 230.115588 
L 129.786096 230.11885 
L 130.780749 238.652361 
L 131.775401 223.437968 
L 132.770053 212.470026 
L 133.764706 221.905986 
L 134.759358 229.17519 
L 135.754011 229.300907 
L 136.748663 228.85965 
L 137.743316 236.827771 
L 138.737968 220.937512 
L 139.73262 209.196933 
L 140.727273 217.780202 
L 141.721925 224.136003 
L 142.716578 223.309111 
L 143.71123 221.899168 
L 144.705882 228.906697 
L 145.700535 212.088522 
L 146.695187 199.47705 
L 147.68984 207.26991 
L 148.684492 212.937732 
L 149.679144 211.545113 
L 150.673797 209.708852 
L 151.668449 216.443472 
L 152.663102 199.516242 
L 153.657754 186.966149 
L 154.652406 194.993324 
L 155.647059 201.066729 
L 156.641711 200.245128 
L 157.636364 199.13545 
L 158.631016 206.738547 
L 159.625668 190.804552 
L 160.620321 179.352285 
L 161.614973 188.559196 
L 162.609626 195.869634 
L 163.604278 196.316461 
L 164.59893 196.48009 
L 165.593583 205.334927 
L 166.588235 190.605425 
L 167.582888 180.286155 
L 168.57754 190.532377 
L 169.572193 198.768878 
L 170.566845 200.012086 
L 171.561497 200.829514 
L 172.55615 210.186518 
L 173.550802 195.802552 
L 174.545455 185.671333 
L 175.540107 195.951387 
L 176.534759 204.074754 
L 177.529412 205.068852 
L 178.524064 205.515574 
L 179.518717 214.397601 
L 180.513369 199.454141 
L 181.508021 188.700506 
L 182.502674 198.318023 
L 183.497326 205.762081 
L 184.491979 206.083315 
L 185.486631 205.886042 
L 186.481283 214.173942 
L 187.475936 198.705195 
L 188.470588 187.511537 
L 189.465241 196.78772 
L 190.459893 203.999189 
L 191.454545 204.203016 
L 192.449198 204.006174 
L 193.44385 212.411173 
L 194.438503 197.171274 
L 195.433155 186.309711 
L 196.427807 196.009442 
L 197.42246 203.721196 
L 198.417112 204.484869 
L 199.411765 204.888327 
L 200.406417 213.913627 
L 201.40107 199.292849 
L 202.395722 189.027965 
L 203.390374 199.281218 
L 204.385027 207.483805 
L 205.379679 208.657846 
L 206.374332 209.375724 
L 207.368984 218.606768 
L 208.363636 204.073466 
L 209.358289 193.77162 
L 210.352941 203.860917 
L 211.347594 211.773684 
L 212.342246 212.536843 
L 213.336898 212.731107 
L 214.331551 221.337436 
L 215.326203 206.092912 
L 216.320856 195.010484 
L 217.315508 204.269049 
L 218.31016 211.32166 
L 219.304813 211.216892 
L 220.299465 210.557429 
L 221.294118 218.345893 
L 222.28877 202.340116 
L 223.283422 190.572302 
L 224.278075 199.238573 
L 225.272727 205.806705 
L 226.26738 205.337091 
L 227.262032 204.441011 
L 228.256684 212.126246 
L 229.251337 196.152219 
L 230.245989 184.549143 
L 231.240642 193.507642 
L 232.235294 200.486674 
L 233.229947 200.534757 
L 234.224599 200.248607 
L 235.219251 208.619165 
L 236.213904 193.387242 
L 237.208556 182.563181 
L 238.203209 192.317055 
L 239.197861 200.087151 
L 240.192513 200.901764 
L 241.187166 201.33838 
L 242.181818 210.370212 
L 243.176471 195.722291 
L 244.171123 185.391529 
L 245.165775 195.537219 
L 246.160428 203.589753 
L 247.15508 204.572561 
L 248.149733 205.061333 
L 249.144385 214.030517 
L 250.139037 199.209277 
L 251.13369 188.601332 
L 252.128342 198.375176 
L 253.122995 205.972427 
L 254.117647 206.429367 
L 255.112299 206.335709 
L 256.106952 214.680629 
L 257.101604 199.208242 
L 258.096257 187.936976 
L 259.090909 197.049333 
L 260.085561 203.999846 
L 261.080214 203.83624 
L 262.074866 203.157918 
L 263.069519 210.961761 
L 264.064171 194.997457 
L 265.058824 183.286811 
L 266.053476 192.013527 
L 267.048128 198.631258 
L 268.042781 198.184961 
L 269.037433 197.269621 
L 270.032086 204.87637 
L 271.026738 188.748178 
L 272.02139 176.899566 
L 273.016043 185.506811 
L 274.010695 192.016429 
L 275.005348 191.46695 
L 276 190.448048 
L 276.994652 197.947013 
L 277.989305 181.704756 
L 278.983957 169.735759 
L 279.97861 178.218446 
L 280.973262 184.603753 
L 281.967914 183.936889 
L 282.962567 182.816371 
L 283.957219 190.240305 
L 284.951872 173.962114 
L 285.946524 162.01013 
L 286.941176 170.577533 
L 287.935829 177.130432 
L 288.930481 176.729096 
L 289.925134 175.986416 
L 290.919786 183.91362 
L 291.914439 168.275423 
L 292.909091 157.109078 
L 293.903743 166.613818 
L 294.898396 174.258492 
L 295.893048 175.102432 
L 296.887701 175.753653 
L 297.882353 185.214385 
L 298.877005 171.236181 
L 299.871658 161.839025 
L 300.86631 173.200956 
L 301.860963 182.766009 
L 303.850267 188.176779 
L 304.84492 199.569326 
L 305.839572 187.46063 
L 306.834225 179.836034 
L 307.828877 192.83919 
L 308.823529 203.880836 
L 310.812834 211.628227 
L 311.807487 223.827162 
L 312.802139 212.254439 
L 313.796791 204.879509 
L 314.791444 217.835552 
L 315.786096 228.528656 
L 316.780749 231.960226 
L 317.775401 234.686652 
L 318.770053 245.666228 
L 319.764706 232.615494 
L 320.759358 223.529417 
L 321.754011 234.571878 
L 322.748663 243.184242 
L 323.743316 244.407023 
L 324.737968 244.838708 
L 325.73262 253.481749 
L 326.727273 238.097908 
L 327.721925 226.727405 
L 328.716578 235.578364 
L 329.71123 242.134354 
L 330.705882 241.475061 
L 331.700535 240.234188 
L 332.695187 247.444614 
L 333.68984 230.89302 
L 334.684492 218.638439 
L 335.679144 226.901265 
L 336.673797 233.170498 
L 337.668449 232.524308 
L 338.663102 231.587982 
L 339.657754 239.3793 
L 340.652406 223.663554 
L 341.647059 212.472637 
L 342.641711 221.994731 
L 343.636364 229.682366 
L 344.631016 230.57389 
L 345.625668 231.25241 
L 346.620321 240.692217 
L 347.614973 226.614874 
L 348.609626 217.009393 
L 349.604278 228.022961 
L 350.59893 237.070007 
L 351.593583 239.154582 
L 352.588235 240.830121 
L 353.582888 251.046562 
L 354.57754 237.506989 
L 355.572193 228.188207 
L 356.566845 239.231715 
L 357.561497 248.052838 
L 358.55615 249.663014 
L 359.550802 250.629298 
L 360.545455 259.921059 
L 361.540107 245.266065 
L 362.534759 234.670371 
L 363.529412 244.308488 
L 364.524064 251.631635 
L 365.518717 251.689071 
L 366.513369 251.086615 
L 367.508021 258.832342 
L 368.502674 242.691687 
L 369.497326 230.706381 
L 370.491979 239.083748 
L 371.486631 245.304157 
L 372.481283 244.441672 
L 373.475936 243.122006 
L 374.470588 250.367791 
L 375.465241 233.9534 
L 376.459893 221.923753 
L 377.454545 230.483638 
L 378.449198 237.105333 
L 379.44385 236.849573 
L 380.438503 236.323947 
L 381.433155 244.528734 
L 382.427807 229.21239 
L 383.42246 218.391101 
L 384.417112 228.238908 
L 385.411765 236.196169 
L 386.406417 237.291387 
L 387.40107 238.100446 
L 388.395722 247.593268 
L 389.390374 233.490048 
L 390.385027 223.781499 
L 391.379679 234.619564 
L 392.374332 243.426369 
L 393.368984 245.216419 
L 394.363636 246.556079 
L 395.358289 256.410348 
L 396.352941 242.499082 
L 397.347594 232.817095 
L 398.342246 243.524622 
L 399.336898 252.055896 
L 400.331551 253.44088 
L 401.326203 254.264211 
L 402.320856 263.511354 
L 403.315508 248.924176 
L 404.31016 238.52037 
L 405.304813 248.483226 
L 406.299465 256.269546 
L 407.294118 256.930736 
L 408.28877 257.071165 
L 409.283422 265.693803 
L 410.278075 250.555358 
L 411.272727 239.685355 
L 412.26738 249.275659 
L 413.262032 256.788251 
L 414.256684 257.276284 
L 415.251337 257.342509 
L 416.245989 265.985084 
L 417.240642 250.952969 
L 418.235294 240.265349 
L 419.229947 250.101569 
L 420.224599 257.909379 
L 421.219251 258.726496 
L 422.213904 259.13956 
L 423.208556 268.130479 
L 424.203209 253.432356 
L 425.197861 243.049404 
L 426.192513 253.147343 
L 427.187166 261.162049 
L 428.181818 262.121447 
L 429.176471 262.604731 
L 430.171123 271.58889 
L 431.165775 256.804721 
L 432.160428 246.25675 
L 433.15508 256.113555 
L 434.149733 263.816239 
L 435.144385 264.400098 
L 436.139037 264.453536 
L 437.13369 272.964231 
L 438.128342 257.674751 
L 439.122995 246.602055 
L 440.117647 255.927369 
L 441.112299 263.104229 
L 442.106952 263.179724 
L 443.101604 262.753024 
L 444.096257 270.82119 
L 445.090909 255.134506 
L 446.085561 243.715743 
L 447.080214 252.74987 
L 448.074866 259.692021 
L 449.069519 259.588719 
L 450.064171 259.036474 
L 451.058824 267.02774 
L 452.053476 251.306449 
L 453.048128 239.887545 
L 454.042781 248.947028 
L 455.037433 255.930265 
L 456.032086 255.873617 
L 457.026738 255.363433 
L 458.02139 263.382409 
L 459.016043 247.665511 
L 460.010695 236.219874 
L 461.005348 245.215157 
L 462 252.092134 
L 462.994652 251.884521 
L 463.989305 251.178111 
L 464.983957 258.957203 
L 465.97861 242.960508 
L 466.973262 231.200959 
L 467.967914 239.855907 
L 468.962567 246.375471 
L 469.957219 245.804069 
L 470.951872 244.739203 
L 471.946524 252.177487 
L 472.941176 235.870129 
L 473.935829 223.842296 
L 474.930481 232.282865 
L 475.925134 238.652338 
L 476.919786 238.003966 
L 477.914439 236.942165 
L 478.909091 244.468235 
L 479.903743 228.335589 
L 480.898396 216.568947 
L 481.893048 225.353989 
L 482.887701 232.145264 
L 483.882353 231.987396 
L 484.877005 231.473664 
L 485.871658 239.591971 
L 486.86631 224.080404 
L 487.860963 212.946826 
L 488.855615 222.358981 
L 489.850267 229.752908 
L 490.84492 230.154678 
L 491.839572 230.139525 
L 492.834225 238.678359 
L 493.828877 223.493861 
L 494.823529 212.580566 
L 495.818182 222.095426 
L 496.812834 229.466602 
L 497.807487 229.715516 
L 498.802139 229.416201 
L 499.796791 237.541951 
L 500.791444 221.821439 
L 501.786096 210.258738 
L 502.780749 219.023698 
L 503.775401 225.560479 
L 504.770053 224.909227 
L 505.764706 223.66499 
L 506.759358 230.823838 
L 507.754011 214.138412 
L 508.748663 201.637323 
L 509.743316 209.514888 
L 510.737968 215.239011 
L 511.73262 213.872222 
L 512.727273 212.029974 
L 513.721925 218.726208 
L 514.716578 201.728396 
L 515.71123 189.076517 
L 516.705882 196.972456 
L 517.700535 202.887654 
L 518.695187 201.884016 
L 519.68984 200.572197 
L 520.684492 207.957261 
L 521.679144 191.793931 
L 522.673797 180.105878 
L 523.668449 189.075533 
L 524.663102 196.152231 
L 525.657754 196.373691 
L 526.652406 196.324927 
L 527.647059 204.984572 
L 528.641711 190.080822 
L 529.636364 179.611414 
L 530.631016 189.734111 
L 531.625668 197.875487 
L 532.620321 199.052993 
L 533.614973 199.834383 
L 534.609626 209.184476 
L 535.604278 194.821431 
L 536.59893 184.736959 
L 537.593583 195.086932 
L 538.588235 203.300167 
L 539.582888 204.400391 
L 540.57754 204.965442 
L 541.572193 213.97371 
L 542.566845 199.159989 
L 543.561497 188.535189 
L 544.55615 198.276375 
L 545.550802 205.834925 
L 546.545455 206.257839 
L 547.540107 206.14627 
L 548.534759 214.501292 
L 549.529412 199.079109 
L 550.524064 187.910165 
L 551.518717 197.188629 
L 552.513369 204.380093 
L 553.508021 204.542484 
L 554.502674 204.284315 
L 555.497326 212.610267 
L 556.491979 197.276334 
L 557.486631 186.308961 
L 558.481283 195.894692 
L 559.475936 203.488113 
L 560.470588 204.133128 
L 561.465241 204.42164 
L 562.459893 213.339654 
L 563.454545 198.62299 
L 564.449198 188.277034 
L 565.44385 198.467028 
L 566.438503 206.626648 
L 567.433155 207.779913 
L 568.427807 208.500459 
L 569.42246 217.758188 
L 570.417112 203.275464 
L 571.411765 193.047268 
L 572.406417 203.231793 
L 573.40107 211.259243 
L 574.395722 212.153846 
L 575.390374 212.493128 
L 576.385027 221.254461 
L 577.379679 206.171038 
L 578.374332 195.251731 
L 579.368984 204.671285 
L 580.363636 211.878647 
L 581.358289 211.918445 
L 582.352941 211.389686 
L 583.347594 219.291688 
L 584.342246 203.379443 
L 585.336898 191.682857 
L 586.331551 200.396355 
L 587.326203 206.986665 
L 588.320856 206.513803 
L 589.315508 205.589353 
L 590.31016 213.22206 
L 591.304813 197.17295 
L 592.299465 185.474416 
L 593.294118 194.319786 
L 594.28877 201.171153 
L 595.283422 201.080522 
L 596.278075 200.648337 
L 597.272727 208.869413 
L 598.26738 193.488463 
L 599.262032 182.51966 
L 600.256684 192.136727 
L 601.251337 199.781322 
L 602.245989 200.484756 
L 603.240642 200.827085 
L 604.235294 209.783597 
L 605.229947 195.080856 
L 606.224599 184.716731 
L 607.219251 194.850891 
L 608.213904 202.913528 
L 609.208556 203.927321 
L 610.203209 204.466694 
L 611.197861 213.504373 
L 612.192513 198.767408 
L 613.187166 188.257093 
L 614.181818 198.139262 
L 615.176471 205.852739 
L 616.171123 206.430959 
L 617.165775 206.460834 
L 618.160428 214.928862 
L 619.15508 199.57669 
L 620.149733 188.420552 
L 621.144385 197.641095 
L 622.139037 204.691367 
L 623.13369 204.618026 
L 624.128342 204.019824 
L 625.122995 211.893416 
L 626.117647 195.988663 
L 627.112299 184.327916 
L 628.106952 193.095748 
L 629.101604 199.746947 
L 630.096257 199.327799 
L 631.090909 198.434739 
L 632.085561 206.060386 
L 633.080214 189.949157 
L 634.074866 178.116888 
L 635.069519 186.740972 
L 636.064171 193.268764 
L 637.058824 192.7393 
L 638.053476 191.742374 
L 639.048128 199.264978 
L 640.042781 183.047287 
L 641.037433 171.10261 
L 642.032086 179.607775 
L 643.026738 186.011728 
L 644.02139 185.357352 
L 645.016043 184.240562 
L 646.010695 191.656666 
L 647.005348 175.356186 
L 647.005348 175.356186 
" style="fill:none;stroke:#c44e52;stroke-linecap:round;stroke-width:1.2;"/>
   </g>
   <g id="patch_3">
    <path d="M 90 315 
L 90 43.2 
" style="fill:none;stroke:#262626;stroke-linecap:square;stroke-linejoin:miter;"/>
   </g>
   <g id="patch_4">
    <path d="M 648 315 
L 648 43.2 
" style="fill:none;stroke:#262626;stroke-linecap:square;stroke-linejoin:miter;"/>
   </g>
   <g id="patch_5">
    <path d="M 90 315 
L 648 315 
" style="fill:none;stroke:#262626;stroke-linecap:square;stroke-linejoin:miter;"/>
   </g>
   <g id="patch_6">
    <path d="M 90 43.2 
L 648 43.2 
" style="fill:none;stroke:#262626;stroke-linecap:square;stroke-linejoin:miter;"/>
   </g>
   <g id="text_17">
    <!-- Prophet Mean Absolute Error 0.0769 -->
    <g style="fill:#262626;" transform="translate(269.095078 37.2)scale(0.11 -0.11)">
     <defs>
      <path d="M 19.671875 64.796875 
L 19.671875 37.40625 
L 32.078125 37.40625 
Q 38.96875 37.40625 42.71875 40.96875 
Q 46.484375 44.53125 46.484375 51.125 
Q 46.484375 57.671875 42.71875 61.234375 
Q 38.96875 64.796875 32.078125 64.796875 
z
M 9.8125 72.90625 
L 32.078125 72.90625 
Q 44.34375 72.90625 50.609375 67.359375 
Q 56.890625 61.8125 56.890625 51.125 
Q 56.890625 40.328125 50.609375 34.8125 
Q 44.34375 29.296875 32.078125 29.296875 
L 19.671875 29.296875 
L 19.671875 0 
L 9.8125 0 
z
" id="DejaVuSans-80"/>
      <path d="M 41.109375 46.296875 
Q 39.59375 47.171875 37.8125 47.578125 
Q 36.03125 48 33.890625 48 
Q 26.265625 48 22.1875 43.046875 
Q 18.109375 38.09375 18.109375 28.8125 
L 18.109375 0 
L 9.078125 0 
L 9.078125 54.6875 
L 18.109375 54.6875 
L 18.109375 46.1875 
Q 20.953125 51.171875 25.484375 53.578125 
Q 30.03125 56 36.53125 56 
Q 37.453125 56 38.578125 55.875 
Q 39.703125 55.765625 41.0625 55.515625 
z
" id="DejaVuSans-114"/>
      <path d="M 30.609375 48.390625 
Q 23.390625 48.390625 19.1875 42.75 
Q 14.984375 37.109375 14.984375 27.296875 
Q 14.984375 17.484375 19.15625 11.84375 
Q 23.34375 6.203125 30.609375 6.203125 
Q 37.796875 6.203125 41.984375 11.859375 
Q 46.1875 17.53125 46.1875 27.296875 
Q 46.1875 37.015625 41.984375 42.703125 
Q 37.796875 48.390625 30.609375 48.390625 
z
M 30.609375 56 
Q 42.328125 56 49.015625 48.375 
Q 55.71875 40.765625 55.71875 27.296875 
Q 55.71875 13.875 49.015625 6.21875 
Q 42.328125 -1.421875 30.609375 -1.421875 
Q 18.84375 -1.421875 12.171875 6.21875 
Q 5.515625 13.875 5.515625 27.296875 
Q 5.515625 40.765625 12.171875 48.375 
Q 18.84375 56 30.609375 56 
z
" id="DejaVuSans-111"/>
      <path d="M 18.109375 8.203125 
L 18.109375 -20.796875 
L 9.078125 -20.796875 
L 9.078125 54.6875 
L 18.109375 54.6875 
L 18.109375 46.390625 
Q 20.953125 51.265625 25.265625 53.625 
Q 29.59375 56 35.59375 56 
Q 45.5625 56 51.78125 48.09375 
Q 58.015625 40.1875 58.015625 27.296875 
Q 58.015625 14.40625 51.78125 6.484375 
Q 45.5625 -1.421875 35.59375 -1.421875 
Q 29.59375 -1.421875 25.265625 0.953125 
Q 20.953125 3.328125 18.109375 8.203125 
z
M 48.6875 27.296875 
Q 48.6875 37.203125 44.609375 42.84375 
Q 40.53125 48.484375 33.40625 48.484375 
Q 26.265625 48.484375 22.1875 42.84375 
Q 18.109375 37.203125 18.109375 27.296875 
Q 18.109375 17.390625 22.1875 11.75 
Q 26.265625 6.109375 33.40625 6.109375 
Q 40.53125 6.109375 44.609375 11.75 
Q 48.6875 17.390625 48.6875 27.296875 
z
" id="DejaVuSans-112"/>
      <path d="M 54.890625 33.015625 
L 54.890625 0 
L 45.90625 0 
L 45.90625 32.71875 
Q 45.90625 40.484375 42.875 44.328125 
Q 39.84375 48.1875 33.796875 48.1875 
Q 26.515625 48.1875 22.3125 43.546875 
Q 18.109375 38.921875 18.109375 30.90625 
L 18.109375 0 
L 9.078125 0 
L 9.078125 75.984375 
L 18.109375 75.984375 
L 18.109375 46.1875 
Q 21.34375 51.125 25.703125 53.5625 
Q 30.078125 56 35.796875 56 
Q 45.21875 56 50.046875 50.171875 
Q 54.890625 44.34375 54.890625 33.015625 
z
" id="DejaVuSans-104"/>
      <path d="M 18.3125 70.21875 
L 18.3125 54.6875 
L 36.8125 54.6875 
L 36.8125 47.703125 
L 18.3125 47.703125 
L 18.3125 18.015625 
Q 18.3125 11.328125 20.140625 9.421875 
Q 21.96875 7.515625 27.59375 7.515625 
L 36.8125 7.515625 
L 36.8125 0 
L 27.59375 0 
Q 17.1875 0 13.234375 3.875 
Q 9.28125 7.765625 9.28125 18.015625 
L 9.28125 47.703125 
L 2.6875 47.703125 
L 2.6875 54.6875 
L 9.28125 54.6875 
L 9.28125 70.21875 
z
" id="DejaVuSans-116"/>
      <path id="DejaVuSans-32"/>
      <path d="M 9.8125 72.90625 
L 24.515625 72.90625 
L 43.109375 23.296875 
L 61.8125 72.90625 
L 76.515625 72.90625 
L 76.515625 0 
L 66.890625 0 
L 66.890625 64.015625 
L 48.09375 14.015625 
L 38.1875 14.015625 
L 19.390625 64.015625 
L 19.390625 0 
L 9.8125 0 
z
" id="DejaVuSans-77"/>
      <path d="M 34.28125 27.484375 
Q 23.390625 27.484375 19.1875 25 
Q 14.984375 22.515625 14.984375 16.5 
Q 14.984375 11.71875 18.140625 8.90625 
Q 21.296875 6.109375 26.703125 6.109375 
Q 34.1875 6.109375 38.703125 11.40625 
Q 43.21875 16.703125 43.21875 25.484375 
L 43.21875 27.484375 
z
M 52.203125 31.203125 
L 52.203125 0 
L 43.21875 0 
L 43.21875 8.296875 
Q 40.140625 3.328125 35.546875 0.953125 
Q 30.953125 -1.421875 24.3125 -1.421875 
Q 15.921875 -1.421875 10.953125 3.296875 
Q 6 8.015625 6 15.921875 
Q 6 25.140625 12.171875 29.828125 
Q 18.359375 34.515625 30.609375 34.515625 
L 43.21875 34.515625 
L 43.21875 35.40625 
Q 43.21875 41.609375 39.140625 45 
Q 35.0625 48.390625 27.6875 48.390625 
Q 23 48.390625 18.546875 47.265625 
Q 14.109375 46.140625 10.015625 43.890625 
L 10.015625 52.203125 
Q 14.9375 54.109375 19.578125 55.046875 
Q 24.21875 56 28.609375 56 
Q 40.484375 56 46.34375 49.84375 
Q 52.203125 43.703125 52.203125 31.203125 
z
" id="DejaVuSans-97"/>
      <path d="M 54.890625 33.015625 
L 54.890625 0 
L 45.90625 0 
L 45.90625 32.71875 
Q 45.90625 40.484375 42.875 44.328125 
Q 39.84375 48.1875 33.796875 48.1875 
Q 26.515625 48.1875 22.3125 43.546875 
Q 18.109375 38.921875 18.109375 30.90625 
L 18.109375 0 
L 9.078125 0 
L 9.078125 54.6875 
L 18.109375 54.6875 
L 18.109375 46.1875 
Q 21.34375 51.125 25.703125 53.5625 
Q 30.078125 56 35.796875 56 
Q 45.21875 56 50.046875 50.171875 
Q 54.890625 44.34375 54.890625 33.015625 
z
" id="DejaVuSans-110"/>
      <path d="M 34.1875 63.1875 
L 20.796875 26.90625 
L 47.609375 26.90625 
z
M 28.609375 72.90625 
L 39.796875 72.90625 
L 67.578125 0 
L 57.328125 0 
L 50.6875 18.703125 
L 17.828125 18.703125 
L 11.1875 0 
L 0.78125 0 
z
" id="DejaVuSans-65"/>
      <path d="M 48.6875 27.296875 
Q 48.6875 37.203125 44.609375 42.84375 
Q 40.53125 48.484375 33.40625 48.484375 
Q 26.265625 48.484375 22.1875 42.84375 
Q 18.109375 37.203125 18.109375 27.296875 
Q 18.109375 17.390625 22.1875 11.75 
Q 26.265625 6.109375 33.40625 6.109375 
Q 40.53125 6.109375 44.609375 11.75 
Q 48.6875 17.390625 48.6875 27.296875 
z
M 18.109375 46.390625 
Q 20.953125 51.265625 25.265625 53.625 
Q 29.59375 56 35.59375 56 
Q 45.5625 56 51.78125 48.09375 
Q 58.015625 40.1875 58.015625 27.296875 
Q 58.015625 14.40625 51.78125 6.484375 
Q 45.5625 -1.421875 35.59375 -1.421875 
Q 29.59375 -1.421875 25.265625 0.953125 
Q 20.953125 3.328125 18.109375 8.203125 
L 18.109375 0 
L 9.078125 0 
L 9.078125 75.984375 
L 18.109375 75.984375 
z
" id="DejaVuSans-98"/>
      <path d="M 44.28125 53.078125 
L 44.28125 44.578125 
Q 40.484375 46.53125 36.375 47.5 
Q 32.28125 48.484375 27.875 48.484375 
Q 21.1875 48.484375 17.84375 46.4375 
Q 14.5 44.390625 14.5 40.28125 
Q 14.5 37.15625 16.890625 35.375 
Q 19.28125 33.59375 26.515625 31.984375 
L 29.59375 31.296875 
Q 39.15625 29.25 43.1875 25.515625 
Q 47.21875 21.78125 47.21875 15.09375 
Q 47.21875 7.46875 41.1875 3.015625 
Q 35.15625 -1.421875 24.609375 -1.421875 
Q 20.21875 -1.421875 15.453125 -0.5625 
Q 10.6875 0.296875 5.421875 2 
L 5.421875 11.28125 
Q 10.40625 8.6875 15.234375 7.390625 
Q 20.0625 6.109375 24.8125 6.109375 
Q 31.15625 6.109375 34.5625 8.28125 
Q 37.984375 10.453125 37.984375 14.40625 
Q 37.984375 18.0625 35.515625 20.015625 
Q 33.0625 21.96875 24.703125 23.78125 
L 21.578125 24.515625 
Q 13.234375 26.265625 9.515625 29.90625 
Q 5.8125 33.546875 5.8125 39.890625 
Q 5.8125 47.609375 11.28125 51.796875 
Q 16.75 56 26.8125 56 
Q 31.78125 56 36.171875 55.265625 
Q 40.578125 54.546875 44.28125 53.078125 
z
" id="DejaVuSans-115"/>
      <path d="M 9.421875 75.984375 
L 18.40625 75.984375 
L 18.40625 0 
L 9.421875 0 
z
" id="DejaVuSans-108"/>
      <path d="M 8.5 21.578125 
L 8.5 54.6875 
L 17.484375 54.6875 
L 17.484375 21.921875 
Q 17.484375 14.15625 20.5 10.265625 
Q 23.53125 6.390625 29.59375 6.390625 
Q 36.859375 6.390625 41.078125 11.03125 
Q 45.3125 15.671875 45.3125 23.6875 
L 45.3125 54.6875 
L 54.296875 54.6875 
L 54.296875 0 
L 45.3125 0 
L 45.3125 8.40625 
Q 42.046875 3.421875 37.71875 1 
Q 33.40625 -1.421875 27.6875 -1.421875 
Q 18.265625 -1.421875 13.375 4.4375 
Q 8.5 10.296875 8.5 21.578125 
z
M 31.109375 56 
z
" id="DejaVuSans-117"/>
      <path d="M 9.8125 72.90625 
L 55.90625 72.90625 
L 55.90625 64.59375 
L 19.671875 64.59375 
L 19.671875 43.015625 
L 54.390625 43.015625 
L 54.390625 34.71875 
L 19.671875 34.71875 
L 19.671875 8.296875 
L 56.78125 8.296875 
L 56.78125 0 
L 9.8125 0 
z
" id="DejaVuSans-69"/>
     </defs>
     <use xlink:href="#DejaVuSans-80"/>
     <use x="58.552734" xlink:href="#DejaVuSans-114"/>
     <use x="97.416016" xlink:href="#DejaVuSans-111"/>
     <use x="158.597656" xlink:href="#DejaVuSans-112"/>
     <use x="222.074219" xlink:href="#DejaVuSans-104"/>
     <use x="285.453125" xlink:href="#DejaVuSans-101"/>
     <use x="346.976562" xlink:href="#DejaVuSans-116"/>
     <use x="386.185547" xlink:href="#DejaVuSans-32"/>
     <use x="417.972656" xlink:href="#DejaVuSans-77"/>
     <use x="504.251953" xlink:href="#DejaVuSans-101"/>
     <use x="565.775391" xlink:href="#DejaVuSans-97"/>
     <use x="627.054688" xlink:href="#DejaVuSans-110"/>
     <use x="690.433594" xlink:href="#DejaVuSans-32"/>
     <use x="722.220703" xlink:href="#DejaVuSans-65"/>
     <use x="790.628906" xlink:href="#DejaVuSans-98"/>
     <use x="854.105469" xlink:href="#DejaVuSans-115"/>
     <use x="906.205078" xlink:href="#DejaVuSans-111"/>
     <use x="967.386719" xlink:href="#DejaVuSans-108"/>
     <use x="995.169922" xlink:href="#DejaVuSans-117"/>
     <use x="1058.548828" xlink:href="#DejaVuSans-116"/>
     <use x="1097.757812" xlink:href="#DejaVuSans-101"/>
     <use x="1159.28125" xlink:href="#DejaVuSans-32"/>
     <use x="1191.068359" xlink:href="#DejaVuSans-69"/>
     <use x="1254.251953" xlink:href="#DejaVuSans-114"/>
     <use x="1293.615234" xlink:href="#DejaVuSans-114"/>
     <use x="1332.478516" xlink:href="#DejaVuSans-111"/>
     <use x="1393.660156" xlink:href="#DejaVuSans-114"/>
     <use x="1434.773438" xlink:href="#DejaVuSans-32"/>
     <use x="1466.560547" xlink:href="#DejaVuSans-48"/>
     <use x="1530.183594" xlink:href="#DejaVuSans-46"/>
     <use x="1561.970703" xlink:href="#DejaVuSans-48"/>
     <use x="1625.59375" xlink:href="#DejaVuSans-55"/>
     <use x="1689.216797" xlink:href="#DejaVuSans-54"/>
     <use x="1752.839844" xlink:href="#DejaVuSans-57"/>
    </g>
   </g>
   <g id="legend_1">
    <g id="patch_7">
     <path d="M 97 80.55625 
L 245.460938 80.55625 
Q 247.460938 80.55625 247.460938 78.55625 
L 247.460938 50.2 
Q 247.460938 48.2 245.460938 48.2 
L 97 48.2 
Q 95 48.2 95 50.2 
L 95 78.55625 
Q 95 80.55625 97 80.55625 
z
" style="fill:#ffffff;opacity:0.8;stroke:#cccccc;stroke-linejoin:miter;stroke-width:0.8;"/>
    </g>
    <g id="line2d_17">
     <path d="M 99 56.298437 
L 119 56.298437 
" style="fill:none;stroke:#4c72b0;stroke-linecap:round;stroke-width:1.2;"/>
    </g>
    <g id="line2d_18"/>
    <g id="text_18">
     <!-- Ground Truth -->
     <g style="fill:#262626;" transform="translate(127 59.798437)scale(0.1 -0.1)">
      <defs>
       <path d="M 59.515625 10.40625 
L 59.515625 29.984375 
L 43.40625 29.984375 
L 43.40625 38.09375 
L 69.28125 38.09375 
L 69.28125 6.78125 
Q 63.578125 2.734375 56.6875 0.65625 
Q 49.8125 -1.421875 42 -1.421875 
Q 24.90625 -1.421875 15.25 8.5625 
Q 5.609375 18.5625 5.609375 36.375 
Q 5.609375 54.25 15.25 64.234375 
Q 24.90625 74.21875 42 74.21875 
Q 49.125 74.21875 55.546875 72.453125 
Q 61.96875 70.703125 67.390625 67.28125 
L 67.390625 56.78125 
Q 61.921875 61.421875 55.765625 63.765625 
Q 49.609375 66.109375 42.828125 66.109375 
Q 29.4375 66.109375 22.71875 58.640625 
Q 16.015625 51.171875 16.015625 36.375 
Q 16.015625 21.625 22.71875 14.15625 
Q 29.4375 6.6875 42.828125 6.6875 
Q 48.046875 6.6875 52.140625 7.59375 
Q 56.25 8.5 59.515625 10.40625 
z
" id="DejaVuSans-71"/>
       <path d="M 45.40625 46.390625 
L 45.40625 75.984375 
L 54.390625 75.984375 
L 54.390625 0 
L 45.40625 0 
L 45.40625 8.203125 
Q 42.578125 3.328125 38.25 0.953125 
Q 33.9375 -1.421875 27.875 -1.421875 
Q 17.96875 -1.421875 11.734375 6.484375 
Q 5.515625 14.40625 5.515625 27.296875 
Q 5.515625 40.1875 11.734375 48.09375 
Q 17.96875 56 27.875 56 
Q 33.9375 56 38.25 53.625 
Q 42.578125 51.265625 45.40625 46.390625 
z
M 14.796875 27.296875 
Q 14.796875 17.390625 18.875 11.75 
Q 22.953125 6.109375 30.078125 6.109375 
Q 37.203125 6.109375 41.296875 11.75 
Q 45.40625 17.390625 45.40625 27.296875 
Q 45.40625 37.203125 41.296875 42.84375 
Q 37.203125 48.484375 30.078125 48.484375 
Q 22.953125 48.484375 18.875 42.84375 
Q 14.796875 37.203125 14.796875 27.296875 
z
" id="DejaVuSans-100"/>
      </defs>
      <use xlink:href="#DejaVuSans-71"/>
      <use x="77.490234" xlink:href="#DejaVuSans-114"/>
      <use x="116.353516" xlink:href="#DejaVuSans-111"/>
      <use x="177.535156" xlink:href="#DejaVuSans-117"/>
      <use x="240.914062" xlink:href="#DejaVuSans-110"/>
      <use x="304.292969" xlink:href="#DejaVuSans-100"/>
      <use x="367.769531" xlink:href="#DejaVuSans-32"/>
      <use x="399.556641" xlink:href="#DejaVuSans-84"/>
      <use x="445.890625" xlink:href="#DejaVuSans-114"/>
      <use x="487.003906" xlink:href="#DejaVuSans-117"/>
      <use x="550.382812" xlink:href="#DejaVuSans-116"/>
      <use x="589.591797" xlink:href="#DejaVuSans-104"/>
     </g>
    </g>
    <g id="line2d_19">
     <path d="M 99 70.976562 
L 119 70.976562 
" style="fill:none;stroke:#c44e52;stroke-linecap:round;stroke-width:1.2;"/>
    </g>
    <g id="line2d_20"/>
    <g id="text_19">
     <!-- Out-of-sample Forecast -->
     <g style="fill:#262626;" transform="translate(127 74.476562)scale(0.1 -0.1)">
      <defs>
       <path d="M 39.40625 66.21875 
Q 28.65625 66.21875 22.328125 58.203125 
Q 16.015625 50.203125 16.015625 36.375 
Q 16.015625 22.609375 22.328125 14.59375 
Q 28.65625 6.59375 39.40625 6.59375 
Q 50.140625 6.59375 56.421875 14.59375 
Q 62.703125 22.609375 62.703125 36.375 
Q 62.703125 50.203125 56.421875 58.203125 
Q 50.140625 66.21875 39.40625 66.21875 
z
M 39.40625 74.21875 
Q 54.734375 74.21875 63.90625 63.9375 
Q 73.09375 53.65625 73.09375 36.375 
Q 73.09375 19.140625 63.90625 8.859375 
Q 54.734375 -1.421875 39.40625 -1.421875 
Q 24.03125 -1.421875 14.8125 8.828125 
Q 5.609375 19.09375 5.609375 36.375 
Q 5.609375 53.65625 14.8125 63.9375 
Q 24.03125 74.21875 39.40625 74.21875 
z
" id="DejaVuSans-79"/>
       <path d="M 4.890625 31.390625 
L 31.203125 31.390625 
L 31.203125 23.390625 
L 4.890625 23.390625 
z
" id="DejaVuSans-45"/>
       <path d="M 37.109375 75.984375 
L 37.109375 68.5 
L 28.515625 68.5 
Q 23.6875 68.5 21.796875 66.546875 
Q 19.921875 64.59375 19.921875 59.515625 
L 19.921875 54.6875 
L 34.71875 54.6875 
L 34.71875 47.703125 
L 19.921875 47.703125 
L 19.921875 0 
L 10.890625 0 
L 10.890625 47.703125 
L 2.296875 47.703125 
L 2.296875 54.6875 
L 10.890625 54.6875 
L 10.890625 58.5 
Q 10.890625 67.625 15.140625 71.796875 
Q 19.390625 75.984375 28.609375 75.984375 
z
" id="DejaVuSans-102"/>
       <path d="M 9.8125 72.90625 
L 51.703125 72.90625 
L 51.703125 64.59375 
L 19.671875 64.59375 
L 19.671875 43.109375 
L 48.578125 43.109375 
L 48.578125 34.8125 
L 19.671875 34.8125 
L 19.671875 0 
L 9.8125 0 
z
" id="DejaVuSans-70"/>
       <path d="M 48.78125 52.59375 
L 48.78125 44.1875 
Q 44.96875 46.296875 41.140625 47.34375 
Q 37.3125 48.390625 33.40625 48.390625 
Q 24.65625 48.390625 19.8125 42.84375 
Q 14.984375 37.3125 14.984375 27.296875 
Q 14.984375 17.28125 19.8125 11.734375 
Q 24.65625 6.203125 33.40625 6.203125 
Q 37.3125 6.203125 41.140625 7.25 
Q 44.96875 8.296875 48.78125 10.40625 
L 48.78125 2.09375 
Q 45.015625 0.34375 40.984375 -0.53125 
Q 36.96875 -1.421875 32.421875 -1.421875 
Q 20.0625 -1.421875 12.78125 6.34375 
Q 5.515625 14.109375 5.515625 27.296875 
Q 5.515625 40.671875 12.859375 48.328125 
Q 20.21875 56 33.015625 56 
Q 37.15625 56 41.109375 55.140625 
Q 45.0625 54.296875 48.78125 52.59375 
z
" id="DejaVuSans-99"/>
      </defs>
      <use xlink:href="#DejaVuSans-79"/>
      <use x="78.710938" xlink:href="#DejaVuSans-117"/>
      <use x="142.089844" xlink:href="#DejaVuSans-116"/>
      <use x="181.298828" xlink:href="#DejaVuSans-45"/>
      <use x="219.257812" xlink:href="#DejaVuSans-111"/>
      <use x="280.439453" xlink:href="#DejaVuSans-102"/>
      <use x="310.144531" xlink:href="#DejaVuSans-45"/>
      <use x="346.228516" xlink:href="#DejaVuSans-115"/>
      <use x="398.328125" xlink:href="#DejaVuSans-97"/>
      <use x="459.607422" xlink:href="#DejaVuSans-109"/>
      <use x="557.019531" xlink:href="#DejaVuSans-112"/>
      <use x="620.496094" xlink:href="#DejaVuSans-108"/>
      <use x="648.279297" xlink:href="#DejaVuSans-101"/>
      <use x="709.802734" xlink:href="#DejaVuSans-32"/>
      <use x="741.589844" xlink:href="#DejaVuSans-70"/>
      <use x="795.484375" xlink:href="#DejaVuSans-111"/>
      <use x="856.666016" xlink:href="#DejaVuSans-114"/>
      <use x="895.529297" xlink:href="#DejaVuSans-101"/>
      <use x="957.052734" xlink:href="#DejaVuSans-99"/>
      <use x="1012.033203" xlink:href="#DejaVuSans-97"/>
      <use x="1073.3125" xlink:href="#DejaVuSans-115"/>
      <use x="1125.412109" xlink:href="#DejaVuSans-116"/>
     </g>
    </g>
   </g>
  </g>
 </g>
 <defs>
  <clipPath id="p4ea604378e">
   <rect height="271.8" width="558" x="90" y="43.2"/>
  </clipPath>
 </defs>
</svg>
