<?xml version="1.0" encoding="utf-8" standalone="no"?>
<!DOCTYPE svg PUBLIC "-//W3C//DTD SVG 1.1//EN"
  "http://www.w3.org/Graphics/SVG/1.1/DTD/svg11.dtd">
<!-- Created with matplotlib (https://matplotlib.org/) -->
<svg height="360pt" version="1.1" viewBox="0 0 720 360" width="720pt" xmlns="http://www.w3.org/2000/svg" xmlns:xlink="http://www.w3.org/1999/xlink">
 <metadata>
  <rdf:RDF xmlns:cc="http://creativecommons.org/ns#" xmlns:dc="http://purl.org/dc/elements/1.1/" xmlns:rdf="http://www.w3.org/1999/02/22-rdf-syntax-ns#">
   <cc:Work>
    <dc:type rdf:resource="http://purl.org/dc/dcmitype/StillImage"/>
    <dc:date>2021-03-20T14:18:03.490577</dc:date>
    <dc:format>image/svg+xml</dc:format>
    <dc:creator>
     <cc:Agent>
      <dc:title>Matplotlib v3.3.1, https://matplotlib.org/</dc:title>
     </cc:Agent>
    </dc:creator>
   </cc:Work>
  </rdf:RDF>
 </metadata>
 <defs>
  <style type="text/css">*{stroke-linecap:butt;stroke-linejoin:round;}</style>
 </defs>
 <g id="figure_1">
  <g id="patch_1">
   <path d="M 0 360 
L 720 360 
L 720 0 
L 0 0 
z
" style="fill:#ffffff;"/>
  </g>
  <g id="axes_1">
   <g id="patch_2">
    <path d="M 90 315 
L 648 315 
L 648 43.2 
L 90 43.2 
z
" style="fill:#ffffff;"/>
   </g>
   <g id="matplotlib.axis_1">
    <g id="xtick_1">
     <g id="line2d_1">
      <defs>
       <path d="M 0 0 
L 0 3 
" id="mf3dd929731" style="stroke:#262626;"/>
      </defs>
      <g>
       <use style="fill:#262626;stroke:#262626;" x="90" xlink:href="#mf3dd929731" y="315"/>
      </g>
     </g>
     <g id="text_1">
      <!-- 0 -->
      <g style="fill:#262626;" transform="translate(86.81875 329.098437)scale(0.1 -0.1)">
       <defs>
        <path d="M 31.78125 66.40625 
Q 24.171875 66.40625 20.328125 58.90625 
Q 16.5 51.421875 16.5 36.375 
Q 16.5 21.390625 20.328125 13.890625 
Q 24.171875 6.390625 31.78125 6.390625 
Q 39.453125 6.390625 43.28125 13.890625 
Q 47.125 21.390625 47.125 36.375 
Q 47.125 51.421875 43.28125 58.90625 
Q 39.453125 66.40625 31.78125 66.40625 
z
M 31.78125 74.21875 
Q 44.046875 74.21875 50.515625 64.515625 
Q 56.984375 54.828125 56.984375 36.375 
Q 56.984375 17.96875 50.515625 8.265625 
Q 44.046875 -1.421875 31.78125 -1.421875 
Q 19.53125 -1.421875 13.0625 8.265625 
Q 6.59375 17.96875 6.59375 36.375 
Q 6.59375 54.828125 13.0625 64.515625 
Q 19.53125 74.21875 31.78125 74.21875 
z
" id="DejaVuSans-48"/>
       </defs>
       <use xlink:href="#DejaVuSans-48"/>
      </g>
     </g>
    </g>
    <g id="xtick_2">
     <g id="line2d_2">
      <g>
       <use style="fill:#262626;stroke:#262626;" x="167.5" xlink:href="#mf3dd929731" y="315"/>
      </g>
     </g>
     <g id="text_2">
      <!-- 100 -->
      <g style="fill:#262626;" transform="translate(157.95625 329.098437)scale(0.1 -0.1)">
       <defs>
        <path d="M 12.40625 8.296875 
L 28.515625 8.296875 
L 28.515625 63.921875 
L 10.984375 60.40625 
L 10.984375 69.390625 
L 28.421875 72.90625 
L 38.28125 72.90625 
L 38.28125 8.296875 
L 54.390625 8.296875 
L 54.390625 0 
L 12.40625 0 
z
" id="DejaVuSans-49"/>
       </defs>
       <use xlink:href="#DejaVuSans-49"/>
       <use x="63.623047" xlink:href="#DejaVuSans-48"/>
       <use x="127.246094" xlink:href="#DejaVuSans-48"/>
      </g>
     </g>
    </g>
    <g id="xtick_3">
     <g id="line2d_3">
      <g>
       <use style="fill:#262626;stroke:#262626;" x="245" xlink:href="#mf3dd929731" y="315"/>
      </g>
     </g>
     <g id="text_3">
      <!-- 200 -->
      <g style="fill:#262626;" transform="translate(235.45625 329.098437)scale(0.1 -0.1)">
       <defs>
        <path d="M 19.1875 8.296875 
L 53.609375 8.296875 
L 53.609375 0 
L 7.328125 0 
L 7.328125 8.296875 
Q 12.9375 14.109375 22.625 23.890625 
Q 32.328125 33.6875 34.8125 36.53125 
Q 39.546875 41.84375 41.421875 45.53125 
Q 43.3125 49.21875 43.3125 52.78125 
Q 43.3125 58.59375 39.234375 62.25 
Q 35.15625 65.921875 28.609375 65.921875 
Q 23.96875 65.921875 18.8125 64.3125 
Q 13.671875 62.703125 7.8125 59.421875 
L 7.8125 69.390625 
Q 13.765625 71.78125 18.9375 73 
Q 24.125 74.21875 28.421875 74.21875 
Q 39.75 74.21875 46.484375 68.546875 
Q 53.21875 62.890625 53.21875 53.421875 
Q 53.21875 48.921875 51.53125 44.890625 
Q 49.859375 40.875 45.40625 35.40625 
Q 44.1875 33.984375 37.640625 27.21875 
Q 31.109375 20.453125 19.1875 8.296875 
z
" id="DejaVuSans-50"/>
       </defs>
       <use xlink:href="#DejaVuSans-50"/>
       <use x="63.623047" xlink:href="#DejaVuSans-48"/>
       <use x="127.246094" xlink:href="#DejaVuSans-48"/>
      </g>
     </g>
    </g>
    <g id="xtick_4">
     <g id="line2d_4">
      <g>
       <use style="fill:#262626;stroke:#262626;" x="322.5" xlink:href="#mf3dd929731" y="315"/>
      </g>
     </g>
     <g id="text_4">
      <!-- 300 -->
      <g style="fill:#262626;" transform="translate(312.95625 329.098437)scale(0.1 -0.1)">
       <defs>
        <path d="M 40.578125 39.3125 
Q 47.65625 37.796875 51.625 33 
Q 55.609375 28.21875 55.609375 21.1875 
Q 55.609375 10.40625 48.1875 4.484375 
Q 40.765625 -1.421875 27.09375 -1.421875 
Q 22.515625 -1.421875 17.65625 -0.515625 
Q 12.796875 0.390625 7.625 2.203125 
L 7.625 11.71875 
Q 11.71875 9.328125 16.59375 8.109375 
Q 21.484375 6.890625 26.8125 6.890625 
Q 36.078125 6.890625 40.9375 10.546875 
Q 45.796875 14.203125 45.796875 21.1875 
Q 45.796875 27.640625 41.28125 31.265625 
Q 36.765625 34.90625 28.71875 34.90625 
L 20.21875 34.90625 
L 20.21875 43.015625 
L 29.109375 43.015625 
Q 36.375 43.015625 40.234375 45.921875 
Q 44.09375 48.828125 44.09375 54.296875 
Q 44.09375 59.90625 40.109375 62.90625 
Q 36.140625 65.921875 28.71875 65.921875 
Q 24.65625 65.921875 20.015625 65.03125 
Q 15.375 64.15625 9.8125 62.3125 
L 9.8125 71.09375 
Q 15.4375 72.65625 20.34375 73.4375 
Q 25.25 74.21875 29.59375 74.21875 
Q 40.828125 74.21875 47.359375 69.109375 
Q 53.90625 64.015625 53.90625 55.328125 
Q 53.90625 49.265625 50.4375 45.09375 
Q 46.96875 40.921875 40.578125 39.3125 
z
" id="DejaVuSans-51"/>
       </defs>
       <use xlink:href="#DejaVuSans-51"/>
       <use x="63.623047" xlink:href="#DejaVuSans-48"/>
       <use x="127.246094" xlink:href="#DejaVuSans-48"/>
      </g>
     </g>
    </g>
    <g id="xtick_5">
     <g id="line2d_5">
      <g>
       <use style="fill:#262626;stroke:#262626;" x="400" xlink:href="#mf3dd929731" y="315"/>
      </g>
     </g>
     <g id="text_5">
      <!-- 400 -->
      <g style="fill:#262626;" transform="translate(390.45625 329.098437)scale(0.1 -0.1)">
       <defs>
        <path d="M 37.796875 64.3125 
L 12.890625 25.390625 
L 37.796875 25.390625 
z
M 35.203125 72.90625 
L 47.609375 72.90625 
L 47.609375 25.390625 
L 58.015625 25.390625 
L 58.015625 17.1875 
L 47.609375 17.1875 
L 47.609375 0 
L 37.796875 0 
L 37.796875 17.1875 
L 4.890625 17.1875 
L 4.890625 26.703125 
z
" id="DejaVuSans-52"/>
       </defs>
       <use xlink:href="#DejaVuSans-52"/>
       <use x="63.623047" xlink:href="#DejaVuSans-48"/>
       <use x="127.246094" xlink:href="#DejaVuSans-48"/>
      </g>
     </g>
    </g>
    <g id="xtick_6">
     <g id="line2d_6">
      <g>
       <use style="fill:#262626;stroke:#262626;" x="477.5" xlink:href="#mf3dd929731" y="315"/>
      </g>
     </g>
     <g id="text_6">
      <!-- 500 -->
      <g style="fill:#262626;" transform="translate(467.95625 329.098437)scale(0.1 -0.1)">
       <defs>
        <path d="M 10.796875 72.90625 
L 49.515625 72.90625 
L 49.515625 64.59375 
L 19.828125 64.59375 
L 19.828125 46.734375 
Q 21.96875 47.46875 24.109375 47.828125 
Q 26.265625 48.1875 28.421875 48.1875 
Q 40.625 48.1875 47.75 41.5 
Q 54.890625 34.8125 54.890625 23.390625 
Q 54.890625 11.625 47.5625 5.09375 
Q 40.234375 -1.421875 26.90625 -1.421875 
Q 22.3125 -1.421875 17.546875 -0.640625 
Q 12.796875 0.140625 7.71875 1.703125 
L 7.71875 11.625 
Q 12.109375 9.234375 16.796875 8.0625 
Q 21.484375 6.890625 26.703125 6.890625 
Q 35.15625 6.890625 40.078125 11.328125 
Q 45.015625 15.765625 45.015625 23.390625 
Q 45.015625 31 40.078125 35.4375 
Q 35.15625 39.890625 26.703125 39.890625 
Q 22.75 39.890625 18.8125 39.015625 
Q 14.890625 38.140625 10.796875 36.28125 
z
" id="DejaVuSans-53"/>
       </defs>
       <use xlink:href="#DejaVuSans-53"/>
       <use x="63.623047" xlink:href="#DejaVuSans-48"/>
       <use x="127.246094" xlink:href="#DejaVuSans-48"/>
      </g>
     </g>
    </g>
    <g id="xtick_7">
     <g id="line2d_7">
      <g>
       <use style="fill:#262626;stroke:#262626;" x="555" xlink:href="#mf3dd929731" y="315"/>
      </g>
     </g>
     <g id="text_7">
      <!-- 600 -->
      <g style="fill:#262626;" transform="translate(545.45625 329.098437)scale(0.1 -0.1)">
       <defs>
        <path d="M 33.015625 40.375 
Q 26.375 40.375 22.484375 35.828125 
Q 18.609375 31.296875 18.609375 23.390625 
Q 18.609375 15.53125 22.484375 10.953125 
Q 26.375 6.390625 33.015625 6.390625 
Q 39.65625 6.390625 43.53125 10.953125 
Q 47.40625 15.53125 47.40625 23.390625 
Q 47.40625 31.296875 43.53125 35.828125 
Q 39.65625 40.375 33.015625 40.375 
z
M 52.59375 71.296875 
L 52.59375 62.3125 
Q 48.875 64.0625 45.09375 64.984375 
Q 41.3125 65.921875 37.59375 65.921875 
Q 27.828125 65.921875 22.671875 59.328125 
Q 17.53125 52.734375 16.796875 39.40625 
Q 19.671875 43.65625 24.015625 45.921875 
Q 28.375 48.1875 33.59375 48.1875 
Q 44.578125 48.1875 50.953125 41.515625 
Q 57.328125 34.859375 57.328125 23.390625 
Q 57.328125 12.15625 50.6875 5.359375 
Q 44.046875 -1.421875 33.015625 -1.421875 
Q 20.359375 -1.421875 13.671875 8.265625 
Q 6.984375 17.96875 6.984375 36.375 
Q 6.984375 53.65625 15.1875 63.9375 
Q 23.390625 74.21875 37.203125 74.21875 
Q 40.921875 74.21875 44.703125 73.484375 
Q 48.484375 72.75 52.59375 71.296875 
z
" id="DejaVuSans-54"/>
       </defs>
       <use xlink:href="#DejaVuSans-54"/>
       <use x="63.623047" xlink:href="#DejaVuSans-48"/>
       <use x="127.246094" xlink:href="#DejaVuSans-48"/>
      </g>
     </g>
    </g>
    <g id="xtick_8">
     <g id="line2d_8">
      <g>
       <use style="fill:#262626;stroke:#262626;" x="632.5" xlink:href="#mf3dd929731" y="315"/>
      </g>
     </g>
     <g id="text_8">
      <!-- 700 -->
      <g style="fill:#262626;" transform="translate(622.95625 329.098437)scale(0.1 -0.1)">
       <defs>
        <path d="M 8.203125 72.90625 
L 55.078125 72.90625 
L 55.078125 68.703125 
L 28.609375 0 
L 18.3125 0 
L 43.21875 64.59375 
L 8.203125 64.59375 
z
" id="DejaVuSans-55"/>
       </defs>
       <use xlink:href="#DejaVuSans-55"/>
       <use x="63.623047" xlink:href="#DejaVuSans-48"/>
       <use x="127.246094" xlink:href="#DejaVuSans-48"/>
      </g>
     </g>
    </g>
    <g id="text_9">
     <!-- Time -->
     <g style="fill:#262626;" transform="translate(354.319687 344.29625)scale(0.12 -0.12)">
      <defs>
       <path d="M -0.296875 72.90625 
L 61.375 72.90625 
L 61.375 64.59375 
L 35.5 64.59375 
L 35.5 0 
L 25.59375 0 
L 25.59375 64.59375 
L -0.296875 64.59375 
z
" id="DejaVuSans-84"/>
       <path d="M 9.421875 54.6875 
L 18.40625 54.6875 
L 18.40625 0 
L 9.421875 0 
z
M 9.421875 75.984375 
L 18.40625 75.984375 
L 18.40625 64.59375 
L 9.421875 64.59375 
z
" id="DejaVuSans-105"/>
       <path d="M 52 44.1875 
Q 55.375 50.25 60.0625 53.125 
Q 64.75 56 71.09375 56 
Q 79.640625 56 84.28125 50.015625 
Q 88.921875 44.046875 88.921875 33.015625 
L 88.921875 0 
L 79.890625 0 
L 79.890625 32.71875 
Q 79.890625 40.578125 77.09375 44.375 
Q 74.3125 48.1875 68.609375 48.1875 
Q 61.625 48.1875 57.5625 43.546875 
Q 53.515625 38.921875 53.515625 30.90625 
L 53.515625 0 
L 44.484375 0 
L 44.484375 32.71875 
Q 44.484375 40.625 41.703125 44.40625 
Q 38.921875 48.1875 33.109375 48.1875 
Q 26.21875 48.1875 22.15625 43.53125 
Q 18.109375 38.875 18.109375 30.90625 
L 18.109375 0 
L 9.078125 0 
L 9.078125 54.6875 
L 18.109375 54.6875 
L 18.109375 46.1875 
Q 21.1875 51.21875 25.484375 53.609375 
Q 29.78125 56 35.6875 56 
Q 41.65625 56 45.828125 52.96875 
Q 50 49.953125 52 44.1875 
z
" id="DejaVuSans-109"/>
       <path d="M 56.203125 29.59375 
L 56.203125 25.203125 
L 14.890625 25.203125 
Q 15.484375 15.921875 20.484375 11.0625 
Q 25.484375 6.203125 34.421875 6.203125 
Q 39.59375 6.203125 44.453125 7.46875 
Q 49.3125 8.734375 54.109375 11.28125 
L 54.109375 2.78125 
Q 49.265625 0.734375 44.1875 -0.34375 
Q 39.109375 -1.421875 33.890625 -1.421875 
Q 20.796875 -1.421875 13.15625 6.1875 
Q 5.515625 13.8125 5.515625 26.8125 
Q 5.515625 40.234375 12.765625 48.109375 
Q 20.015625 56 32.328125 56 
Q 43.359375 56 49.78125 48.890625 
Q 56.203125 41.796875 56.203125 29.59375 
z
M 47.21875 32.234375 
Q 47.125 39.59375 43.09375 43.984375 
Q 39.0625 48.390625 32.421875 48.390625 
Q 24.90625 48.390625 20.390625 44.140625 
Q 15.875 39.890625 15.1875 32.171875 
z
" id="DejaVuSans-101"/>
      </defs>
      <use xlink:href="#DejaVuSans-84"/>
      <use x="57.958984" xlink:href="#DejaVuSans-105"/>
      <use x="85.742188" xlink:href="#DejaVuSans-109"/>
      <use x="183.154297" xlink:href="#DejaVuSans-101"/>
     </g>
    </g>
   </g>
   <g id="matplotlib.axis_2">
    <g id="ytick_1">
     <g id="line2d_9">
      <defs>
       <path d="M 0 0 
L -3 0 
" id="ma932232cf5" style="stroke:#262626;"/>
      </defs>
      <g>
       <use style="fill:#262626;stroke:#262626;" x="90" xlink:href="#ma932232cf5" y="277.857102"/>
      </g>
     </g>
     <g id="text_10">
      <!-- 408 -->
      <g style="fill:#262626;" transform="translate(64.4125 281.656321)scale(0.1 -0.1)">
       <defs>
        <path d="M 31.78125 34.625 
Q 24.75 34.625 20.71875 30.859375 
Q 16.703125 27.09375 16.703125 20.515625 
Q 16.703125 13.921875 20.71875 10.15625 
Q 24.75 6.390625 31.78125 6.390625 
Q 38.8125 6.390625 42.859375 10.171875 
Q 46.921875 13.96875 46.921875 20.515625 
Q 46.921875 27.09375 42.890625 30.859375 
Q 38.875 34.625 31.78125 34.625 
z
M 21.921875 38.8125 
Q 15.578125 40.375 12.03125 44.71875 
Q 8.5 49.078125 8.5 55.328125 
Q 8.5 64.0625 14.71875 69.140625 
Q 20.953125 74.21875 31.78125 74.21875 
Q 42.671875 74.21875 48.875 69.140625 
Q 55.078125 64.0625 55.078125 55.328125 
Q 55.078125 49.078125 51.53125 44.71875 
Q 48 40.375 41.703125 38.8125 
Q 48.828125 37.15625 52.796875 32.3125 
Q 56.78125 27.484375 56.78125 20.515625 
Q 56.78125 9.90625 50.3125 4.234375 
Q 43.84375 -1.421875 31.78125 -1.421875 
Q 19.734375 -1.421875 13.25 4.234375 
Q 6.78125 9.90625 6.78125 20.515625 
Q 6.78125 27.484375 10.78125 32.3125 
Q 14.796875 37.15625 21.921875 38.8125 
z
M 18.3125 54.390625 
Q 18.3125 48.734375 21.84375 45.5625 
Q 25.390625 42.390625 31.78125 42.390625 
Q 38.140625 42.390625 41.71875 45.5625 
Q 45.3125 48.734375 45.3125 54.390625 
Q 45.3125 60.0625 41.71875 63.234375 
Q 38.140625 66.40625 31.78125 66.40625 
Q 25.390625 66.40625 21.84375 63.234375 
Q 18.3125 60.0625 18.3125 54.390625 
z
" id="DejaVuSans-56"/>
       </defs>
       <use xlink:href="#DejaVuSans-52"/>
       <use x="63.623047" xlink:href="#DejaVuSans-48"/>
       <use x="127.246094" xlink:href="#DejaVuSans-56"/>
      </g>
     </g>
    </g>
    <g id="ytick_2">
     <g id="line2d_10">
      <g>
       <use style="fill:#262626;stroke:#262626;" x="90" xlink:href="#ma932232cf5" y="238.09214"/>
      </g>
     </g>
     <g id="text_11">
      <!-- 410 -->
      <g style="fill:#262626;" transform="translate(64.4125 241.891359)scale(0.1 -0.1)">
       <use xlink:href="#DejaVuSans-52"/>
       <use x="63.623047" xlink:href="#DejaVuSans-49"/>
       <use x="127.246094" xlink:href="#DejaVuSans-48"/>
      </g>
     </g>
    </g>
    <g id="ytick_3">
     <g id="line2d_11">
      <g>
       <use style="fill:#262626;stroke:#262626;" x="90" xlink:href="#ma932232cf5" y="198.327178"/>
      </g>
     </g>
     <g id="text_12">
      <!-- 412 -->
      <g style="fill:#262626;" transform="translate(64.4125 202.126397)scale(0.1 -0.1)">
       <use xlink:href="#DejaVuSans-52"/>
       <use x="63.623047" xlink:href="#DejaVuSans-49"/>
       <use x="127.246094" xlink:href="#DejaVuSans-50"/>
      </g>
     </g>
    </g>
    <g id="ytick_4">
     <g id="line2d_12">
      <g>
       <use style="fill:#262626;stroke:#262626;" x="90" xlink:href="#ma932232cf5" y="158.562216"/>
      </g>
     </g>
     <g id="text_13">
      <!-- 414 -->
      <g style="fill:#262626;" transform="translate(64.4125 162.361435)scale(0.1 -0.1)">
       <use xlink:href="#DejaVuSans-52"/>
       <use x="63.623047" xlink:href="#DejaVuSans-49"/>
       <use x="127.246094" xlink:href="#DejaVuSans-52"/>
      </g>
     </g>
    </g>
    <g id="ytick_5">
     <g id="line2d_13">
      <g>
       <use style="fill:#262626;stroke:#262626;" x="90" xlink:href="#ma932232cf5" y="118.797254"/>
      </g>
     </g>
     <g id="text_14">
      <!-- 416 -->
      <g style="fill:#262626;" transform="translate(64.4125 122.596472)scale(0.1 -0.1)">
       <use xlink:href="#DejaVuSans-52"/>
       <use x="63.623047" xlink:href="#DejaVuSans-49"/>
       <use x="127.246094" xlink:href="#DejaVuSans-54"/>
      </g>
     </g>
    </g>
    <g id="ytick_6">
     <g id="line2d_14">
      <g>
       <use style="fill:#262626;stroke:#262626;" x="90" xlink:href="#ma932232cf5" y="79.032292"/>
      </g>
     </g>
     <g id="text_15">
      <!-- 418 -->
      <g style="fill:#262626;" transform="translate(64.4125 82.83151)scale(0.1 -0.1)">
       <use xlink:href="#DejaVuSans-52"/>
       <use x="63.623047" xlink:href="#DejaVuSans-49"/>
       <use x="127.246094" xlink:href="#DejaVuSans-56"/>
      </g>
     </g>
    </g>
    <g id="text_16">
     <!-- Y -->
     <g style="fill:#262626;" transform="translate(57.916875 182.764687)rotate(-90)scale(0.12 -0.12)">
      <defs>
       <path d="M -0.203125 72.90625 
L 10.40625 72.90625 
L 30.609375 42.921875 
L 50.6875 72.90625 
L 61.28125 72.90625 
L 35.5 34.71875 
L 35.5 0 
L 25.59375 0 
L 25.59375 34.71875 
z
" id="DejaVuSans-89"/>
      </defs>
      <use xlink:href="#DejaVuSans-89"/>
     </g>
    </g>
   </g>
   <g id="PolyCollection_1">
    <defs>
     <path d="M 90 -103.09402 
L 90 -139.347941 
L 90.775 -135.233037 
L 91.55 -136.158899 
L 92.325 -132.946627 
L 93.1 -133.15907 
L 93.875 -129.126793 
L 94.65 -128.698897 
L 95.425 -129.080296 
L 96.2 -126.17565 
L 96.975 -124.959835 
L 97.75 -123.435244 
L 98.525 -122.110121 
L 99.3 -121.388997 
L 100.075 -119.893314 
L 100.85 -120.138156 
L 101.625 -118.205734 
L 102.4 -116.442322 
L 103.175 -114.401843 
L 103.95 -114.350962 
L 104.725 -113.394785 
L 105.5 -112.171756 
L 106.275 -111.357869 
L 107.05 -108.77102 
L 107.825 -108.832633 
L 108.6 -107.519206 
L 109.375 -106.835412 
L 110.15 -106.624423 
L 110.925 -105.880285 
L 111.7 -103.884867 
L 112.475 -103.087162 
L 113.25 -101.995797 
L 114.025 -100.709619 
L 114.8 -99.764016 
L 115.575 -99.807632 
L 116.35 -99.549391 
L 117.125 -98.945633 
L 117.9 -97.496004 
L 118.675 -97.918444 
L 119.45 -95.478842 
L 120.225 -97.329591 
L 121 -95.35507 
L 121.775 -95.753338 
L 122.55 -94.194557 
L 123.325 -95.811602 
L 124.1 -93.948651 
L 124.875 -94.939214 
L 125.65 -92.806462 
L 126.425 -92.461585 
L 127.2 -94.342656 
L 127.975 -92.858831 
L 128.75 -92.570379 
L 129.525 -93.633003 
L 130.3 -93.230001 
L 131.075 -92.859669 
L 131.85 -92.477065 
L 132.625 -93.157539 
L 133.4 -92.114812 
L 134.175 -94.814331 
L 134.95 -94.151228 
L 135.725 -94.715369 
L 136.5 -93.970588 
L 137.275 -94.995861 
L 138.05 -97.277008 
L 138.825 -97.410609 
L 139.6 -97.258993 
L 140.375 -98.667569 
L 141.15 -98.18982 
L 141.925 -99.357336 
L 142.7 -100.04937 
L 143.475 -100.179847 
L 144.25 -102.497444 
L 145.025 -101.481306 
L 145.8 -102.097823 
L 146.575 -103.434699 
L 147.35 -104.11852 
L 148.125 -104.929694 
L 148.9 -105.103163 
L 149.675 -106.05341 
L 150.45 -107.45259 
L 151.225 -108.44446 
L 152 -110.649672 
L 152.775 -111.431184 
L 153.55 -112.34487 
L 154.325 -111.892368 
L 155.1 -114.420306 
L 155.875 -113.333878 
L 156.65 -114.784022 
L 157.425 -115.302369 
L 158.2 -116.727511 
L 158.975 -118.007215 
L 159.75 -119.769069 
L 160.525 -118.938592 
L 161.3 -120.967978 
L 162.075 -122.406403 
L 162.85 -123.198907 
L 163.625 -125.720548 
L 164.4 -125.93287 
L 165.175 -125.748861 
L 165.95 -128.539299 
L 166.725 -128.285487 
L 167.5 -130.99004 
L 168.275 -130.84272 
L 169.05 -131.326547 
L 169.825 -132.701424 
L 170.6 -133.000384 
L 171.375 -135.361531 
L 172.15 -136.056722 
L 172.925 -135.938553 
L 173.7 -135.57739 
L 174.475 -138.450773 
L 175.25 -140.535855 
L 176.025 -142.064681 
L 176.8 -141.269451 
L 177.575 -142.770619 
L 178.35 -144.853856 
L 179.125 -144.255798 
L 179.9 -144.970548 
L 180.675 -147.026253 
L 181.45 -147.818376 
L 182.225 -147.792238 
L 183 -149.488954 
L 183.775 -150.158009 
L 184.55 -150.207084 
L 185.325 -150.409137 
L 186.1 -151.845798 
L 186.875 -151.985371 
L 187.65 -153.283959 
L 188.425 -153.963333 
L 189.2 -156.207732 
L 189.975 -156.255588 
L 190.75 -155.752392 
L 191.525 -157.307786 
L 192.3 -158.484521 
L 193.075 -159.341522 
L 193.85 -160.455469 
L 194.625 -161.546701 
L 195.4 -161.129958 
L 196.175 -163.383961 
L 196.95 -163.947497 
L 197.725 -164.952764 
L 198.5 -165.828876 
L 199.275 -166.536876 
L 200.05 -166.856227 
L 200.825 -167.68191 
L 201.6 -168.813221 
L 202.375 -169.484996 
L 203.15 -169.321743 
L 203.925 -170.119605 
L 204.7 -171.348199 
L 205.475 -172.159334 
L 206.25 -172.828578 
L 207.025 -171.828432 
L 207.8 -173.977666 
L 208.575 -175.720735 
L 209.35 -175.164035 
L 210.125 -175.61372 
L 210.9 -175.373542 
L 211.675 -174.772877 
L 212.45 -176.38475 
L 213.225 -178.252404 
L 214 -178.828639 
L 214.775 -179.133978 
L 215.55 -179.309416 
L 216.325 -181.260773 
L 217.1 -180.996002 
L 217.875 -183.251481 
L 218.65 -182.951864 
L 219.425 -182.47815 
L 220.2 -183.523471 
L 220.975 -184.07972 
L 221.75 -182.780763 
L 222.525 -184.433269 
L 223.3 -184.73307 
L 224.075 -187.178174 
L 224.85 -185.109801 
L 225.625 -186.614125 
L 226.4 -187.634137 
L 227.175 -188.32961 
L 227.95 -188.281841 
L 228.725 -188.690339 
L 229.5 -190.119647 
L 230.275 -190.654653 
L 231.05 -190.980273 
L 231.825 -191.060049 
L 232.6 -190.2837 
L 233.375 -192.322427 
L 234.15 -192.505332 
L 234.925 -193.221093 
L 235.7 -193.997872 
L 236.475 -193.201869 
L 237.25 -195.054656 
L 238.025 -195.08726 
L 238.8 -195.392321 
L 239.575 -195.483252 
L 240.35 -196.057865 
L 241.125 -198.412563 
L 241.9 -195.74525 
L 242.675 -198.048967 
L 243.45 -197.980476 
L 244.225 -198.64327 
L 245 -198.265829 
L 245.775 -201.231537 
L 246.55 -200.261434 
L 247.325 -200.158029 
L 248.1 -202.890314 
L 248.875 -203.062822 
L 249.65 -204.753167 
L 250.425 -204.912698 
L 251.2 -205.346159 
L 251.975 -205.893744 
L 252.75 -206.878606 
L 253.525 -206.762452 
L 254.3 -207.841553 
L 255.075 -209.037906 
L 255.85 -209.998754 
L 256.625 -210.105698 
L 257.4 -211.015344 
L 258.175 -212.15472 
L 258.95 -211.587746 
L 259.725 -211.96165 
L 260.5 -213.443452 
L 261.275 -214.483433 
L 262.05 -214.902722 
L 262.825 -216.028285 
L 263.6 -216.615922 
L 264.375 -217.204589 
L 265.15 -219.19821 
L 265.925 -219.668278 
L 266.7 -220.966321 
L 267.475 -220.392758 
L 268.25 -222.479486 
L 269.025 -223.468996 
L 269.8 -222.272175 
L 270.575 -224.943287 
L 271.35 -225.541029 
L 272.125 -226.382931 
L 272.9 -228.327891 
L 273.675 -230.046235 
L 274.45 -228.814515 
L 275.225 -231.094768 
L 276 -233.481748 
L 276.775 -233.570243 
L 277.55 -233.105748 
L 278.325 -234.978317 
L 279.1 -236.32381 
L 279.875 -237.728119 
L 280.65 -237.862923 
L 281.425 -238.15773 
L 282.2 -239.069225 
L 282.975 -240.665411 
L 283.75 -240.042363 
L 284.525 -242.075244 
L 285.3 -241.898897 
L 286.075 -243.66756 
L 286.85 -243.60823 
L 287.625 -244.421931 
L 288.4 -244.813804 
L 289.175 -244.408474 
L 289.95 -244.618658 
L 290.725 -245.970629 
L 291.5 -245.986729 
L 292.275 -244.958233 
L 293.05 -247.788312 
L 293.825 -248.171059 
L 294.6 -247.538082 
L 295.375 -247.841421 
L 296.15 -248.349231 
L 296.925 -250.056268 
L 297.7 -249.896285 
L 298.475 -248.723031 
L 299.25 -250.420616 
L 300.025 -250.173988 
L 300.8 -250.960963 
L 301.575 -251.112676 
L 302.35 -250.805727 
L 303.125 -252.325284 
L 303.9 -252.080688 
L 304.675 -251.823924 
L 305.45 -255.493145 
L 306.225 -254.195824 
L 307 -253.583427 
L 307.775 -253.417466 
L 308.55 -254.664552 
L 309.325 -254.524497 
L 310.1 -254.507335 
L 310.875 -254.391946 
L 311.65 -255.070118 
L 312.425 -253.962897 
L 313.2 -255.157771 
L 313.975 -254.555938 
L 314.75 -254.17499 
L 315.525 -255.163317 
L 316.3 -253.743698 
L 317.075 -252.499099 
L 317.85 -254.534989 
L 318.625 -253.186504 
L 319.4 -252.773546 
L 320.175 -251.737681 
L 320.95 -252.374916 
L 321.725 -250.904916 
L 322.5 -252.048035 
L 323.275 -250.8203 
L 324.05 -250.081196 
L 324.825 -249.708092 
L 325.6 -248.631374 
L 326.375 -247.144083 
L 327.15 -247.012125 
L 327.925 -245.665161 
L 328.7 -245.907899 
L 329.475 -244.926554 
L 330.25 -241.872108 
L 331.025 -241.240699 
L 331.8 -243.003023 
L 332.575 -241.768547 
L 333.35 -239.693509 
L 334.125 -241.021845 
L 334.9 -239.549084 
L 335.675 -238.536055 
L 336.45 -238.536637 
L 337.225 -236.422948 
L 338 -236.924073 
L 338.775 -235.737083 
L 339.55 -232.721486 
L 340.325 -233.177894 
L 341.1 -232.28431 
L 341.875 -230.843553 
L 342.65 -230.313327 
L 343.425 -230.291208 
L 344.2 -230.206223 
L 344.975 -227.342389 
L 345.75 -227.075118 
L 346.525 -226.816179 
L 347.3 -224.876911 
L 348.075 -223.31866 
L 348.85 -221.568202 
L 349.625 -222.084212 
L 350.4 -220.829176 
L 351.175 -217.966341 
L 351.95 -218.221531 
L 352.725 -216.716516 
L 353.5 -217.36274 
L 354.275 -214.908042 
L 355.05 -214.0487 
L 355.825 -211.965877 
L 356.6 -211.075735 
L 357.375 -209.140347 
L 358.15 -208.971016 
L 358.925 -207.816558 
L 359.7 -206.380042 
L 360.475 -204.168534 
L 361.25 -204.663731 
L 362.025 -201.803872 
L 362.8 -200.557325 
L 363.575 -200.195965 
L 364.35 -196.545267 
L 365.125 -197.52773 
L 365.9 -196.140084 
L 366.675 -193.803552 
L 367.45 -191.382137 
L 368.225 -193.018417 
L 369 -189.662487 
L 369.775 -189.797686 
L 370.55 -188.293694 
L 371.325 -187.148275 
L 372.1 -185.364862 
L 372.875 -183.28058 
L 373.65 -183.404666 
L 374.425 -181.928379 
L 375.2 -179.894263 
L 375.975 -178.146996 
L 376.75 -177.064148 
L 377.525 -176.524805 
L 378.3 -174.687685 
L 379.075 -173.053344 
L 379.85 -172.861203 
L 380.625 -170.54718 
L 381.4 -169.923264 
L 382.175 -169.23471 
L 382.95 -167.670011 
L 383.725 -165.167245 
L 384.5 -162.953479 
L 385.275 -163.164545 
L 386.05 -162.552609 
L 386.825 -162.652546 
L 387.6 -159.961098 
L 388.375 -158.967793 
L 389.15 -156.36114 
L 389.925 -156.527597 
L 390.7 -154.793401 
L 391.475 -154.865006 
L 392.25 -152.758474 
L 393.025 -152.566679 
L 393.8 -152.22554 
L 394.575 -151.534892 
L 395.35 -150.145607 
L 396.125 -148.430043 
L 396.9 -150.684503 
L 397.675 -146.577948 
L 398.45 -147.096898 
L 399.225 -145.699972 
L 400 -144.187591 
L 400.775 -144.635627 
L 401.55 -145.597633 
L 402.325 -142.954146 
L 403.1 -142.320705 
L 403.875 -143.013558 
L 404.65 -141.378142 
L 405.425 -140.650242 
L 406.2 -140.554792 
L 406.975 -140.388016 
L 407.75 -140.226438 
L 408.525 -140.214803 
L 409.3 -138.640373 
L 410.075 -139.149173 
L 410.85 -138.781695 
L 411.625 -139.165777 
L 412.4 -138.972664 
L 413.175 -139.272575 
L 413.95 -139.936514 
L 414.725 -139.981163 
L 415.5 -139.154238 
L 416.275 -140.193959 
L 417.05 -140.539738 
L 417.825 -139.451675 
L 418.6 -140.513673 
L 419.375 -142.458997 
L 420.15 -142.618417 
L 420.925 -142.678528 
L 421.7 -143.745875 
L 422.475 -143.946507 
L 423.25 -142.845912 
L 424.025 -144.596583 
L 424.8 -145.501293 
L 425.575 -146.540473 
L 426.35 -146.395542 
L 427.125 -147.726673 
L 427.9 -148.987642 
L 428.675 -149.444221 
L 429.45 -149.991053 
L 430.225 -149.715638 
L 431 -151.849547 
L 431.775 -151.423273 
L 432.55 -152.534479 
L 433.325 -153.940158 
L 434.1 -154.84659 
L 434.875 -156.685771 
L 435.65 -157.641821 
L 436.425 -158.18293 
L 437.2 -158.53181 
L 437.975 -159.497298 
L 438.75 -160.252749 
L 439.525 -161.203097 
L 440.3 -163.611495 
L 441.075 -164.361572 
L 441.85 -165.282423 
L 442.625 -165.124657 
L 443.4 -166.740366 
L 444.175 -167.61765 
L 444.95 -169.091125 
L 445.725 -171.179694 
L 446.5 -170.758148 
L 447.275 -171.206865 
L 448.05 -174.178935 
L 448.825 -174.886452 
L 449.6 -173.779768 
L 450.375 -176.165838 
L 451.15 -178.721155 
L 451.925 -178.941007 
L 452.7 -179.06976 
L 453.475 -179.922105 
L 454.25 -181.213652 
L 455.025 -183.112752 
L 455.8 -182.557136 
L 456.575 -185.642433 
L 457.35 -186.600404 
L 458.125 -186.379805 
L 458.9 -188.591137 
L 459.675 -188.715234 
L 460.45 -189.600397 
L 461.225 -191.063463 
L 462 -193.093131 
L 462.775 -192.303889 
L 463.55 -192.023887 
L 464.325 -193.07531 
L 465.1 -195.436223 
L 465.875 -195.952593 
L 466.65 -195.91421 
L 467.425 -197.777553 
L 468.2 -197.718471 
L 468.975 -198.78547 
L 469.75 -200.578324 
L 470.525 -200.773383 
L 471.3 -201.900664 
L 472.075 -203.073972 
L 472.85 -202.539354 
L 473.625 -204.497922 
L 474.4 -203.458321 
L 475.175 -204.16142 
L 475.95 -207.438411 
L 476.725 -207.77817 
L 477.5 -209.13905 
L 478.275 -208.200184 
L 479.05 -210.211648 
L 479.825 -211.215234 
L 480.6 -212.130848 
L 481.375 -212.436779 
L 482.15 -210.865072 
L 482.925 -214.301962 
L 483.7 -214.959666 
L 484.475 -215.063796 
L 485.25 -216.286201 
L 486.025 -217.000859 
L 486.8 -217.373675 
L 487.575 -218.708848 
L 488.35 -218.382734 
L 489.125 -220.235469 
L 489.9 -221.508585 
L 490.675 -220.6674 
L 491.45 -221.689781 
L 492.225 -221.89432 
L 493 -221.996326 
L 493.775 -222.168367 
L 494.55 -226.045865 
L 495.325 -224.784899 
L 496.1 -226.077293 
L 496.875 -225.238525 
L 497.65 -225.023132 
L 498.425 -227.049693 
L 499.2 -227.322694 
L 499.975 -229.109195 
L 500.75 -227.256021 
L 501.525 -230.340094 
L 502.3 -230.425357 
L 503.075 -230.411727 
L 503.85 -230.365711 
L 504.625 -232.580209 
L 505.4 -231.578484 
L 506.175 -233.058486 
L 506.95 -234.597242 
L 507.725 -234.718721 
L 508.5 -234.508519 
L 509.275 -234.47536 
L 510.05 -234.782496 
L 510.825 -235.497963 
L 511.6 -235.537739 
L 512.375 -237.173822 
L 513.15 -239.337898 
L 513.925 -239.440847 
L 514.7 -238.881841 
L 515.475 -238.46552 
L 516.25 -239.694764 
L 517.025 -241.048216 
L 517.8 -240.931775 
L 518.575 -241.980218 
L 519.35 -241.692993 
L 520.125 -242.353121 
L 520.9 -242.490696 
L 521.675 -243.541361 
L 522.45 -243.661893 
L 523.225 -244.181587 
L 524 -246.329401 
L 524.775 -244.827925 
L 525.55 -245.974777 
L 526.325 -247.65159 
L 527.1 -247.333849 
L 527.875 -246.38593 
L 528.65 -248.35844 
L 529.425 -250.670643 
L 530.2 -250.715608 
L 530.975 -249.728179 
L 531.75 -252.478963 
L 532.525 -252.507708 
L 533.3 -252.865164 
L 534.075 -252.20467 
L 534.85 -253.728808 
L 535.625 -253.246515 
L 536.4 -255.197737 
L 537.175 -254.949664 
L 537.95 -256.09825 
L 538.725 -256.891756 
L 539.5 -257.34743 
L 540.275 -258.908645 
L 541.05 -258.903663 
L 541.825 -259.845187 
L 542.6 -261.704273 
L 543.375 -262.321898 
L 544.15 -262.709756 
L 544.925 -263.696015 
L 545.7 -264.268844 
L 546.475 -264.782656 
L 547.25 -264.490474 
L 548.025 -266.698756 
L 548.8 -268.956771 
L 549.575 -268.002229 
L 550.35 -270.042316 
L 551.125 -269.654996 
L 551.9 -271.034178 
L 552.675 -272.62124 
L 553.45 -272.892471 
L 554.225 -274.954052 
L 555 -274.937582 
L 555.775 -275.883748 
L 556.55 -277.686915 
L 557.325 -279.054728 
L 558.1 -280.032564 
L 558.875 -281.767449 
L 559.65 -281.903542 
L 560.425 -283.252468 
L 561.2 -284.328774 
L 561.975 -283.500957 
L 562.75 -285.496616 
L 563.525 -287.371012 
L 564.3 -286.711707 
L 565.075 -288.27469 
L 565.85 -288.006623 
L 566.625 -289.223181 
L 567.4 -289.393258 
L 568.175 -290.238765 
L 568.95 -291.645553 
L 569.725 -291.57611 
L 570.5 -292.562239 
L 571.275 -294.317097 
L 572.05 -293.676487 
L 572.825 -293.509246 
L 573.6 -294.626886 
L 574.375 -296.409239 
L 575.15 -296.417809 
L 575.925 -296.839042 
L 576.7 -297.027754 
L 577.475 -297.140124 
L 578.25 -296.805545 
L 579.025 -297.248938 
L 579.8 -296.815416 
L 580.575 -298.068289 
L 581.35 -298.063829 
L 582.125 -299.950656 
L 582.9 -299.668577 
L 583.675 -300.727073 
L 584.45 -299.765371 
L 585.225 -302.180726 
L 586 -300.108797 
L 586.775 -301.720589 
L 587.55 -301.512968 
L 588.325 -303.179213 
L 589.1 -302.598469 
L 589.875 -301.626857 
L 590.65 -302.690686 
L 591.425 -301.317368 
L 592.2 -302.912336 
L 592.975 -303.032685 
L 593.75 -304.445455 
L 594.525 -303.270615 
L 595.3 -303.551375 
L 596.075 -303.451211 
L 596.85 -302.808214 
L 597.625 -304.110548 
L 598.4 -303.259039 
L 599.175 -302.193144 
L 599.95 -302.497171 
L 600.725 -301.790137 
L 601.5 -300.71473 
L 602.275 -302.178861 
L 603.05 -301.277944 
L 603.825 -300.188443 
L 604.6 -300.857496 
L 605.375 -299.753379 
L 606.15 -298.819488 
L 606.925 -296.460547 
L 607.7 -298.091879 
L 608.475 -296.561124 
L 609.25 -295.784239 
L 610.025 -294.461906 
L 610.8 -295.228875 
L 611.575 -295.230968 
L 612.35 -294.391151 
L 613.125 -292.579835 
L 613.9 -293.024054 
L 614.675 -291.529185 
L 615.45 -291.481933 
L 616.225 -291.798727 
L 617 -287.903777 
L 617.775 -290.287779 
L 618.55 -286.94406 
L 619.325 -288.39632 
L 620.1 -287.361405 
L 620.875 -285.584826 
L 621.65 -285.268687 
L 622.425 -284.285924 
L 623.2 -284.578267 
L 623.975 -281.725491 
L 624.75 -282.564938 
L 625.525 -278.641789 
L 626.3 -276.611077 
L 627.075 -278.641969 
L 627.85 -278.714712 
L 628.625 -275.662235 
L 629.4 -275.196428 
L 630.175 -275.091577 
L 630.95 -273.616745 
L 631.725 -272.444841 
L 632.5 -271.810059 
L 633.275 -268.612675 
L 634.05 -269.743415 
L 634.825 -267.481733 
L 635.6 -266.852701 
L 636.375 -264.829525 
L 637.15 -263.883866 
L 637.925 -263.257396 
L 638.7 -262.871231 
L 639.475 -261.515533 
L 640.25 -259.87338 
L 641.025 -259.215276 
L 641.8 -257.468782 
L 642.575 -255.937918 
L 643.35 -254.955422 
L 644.125 -253.588319 
L 644.9 -252.200963 
L 645.675 -250.059947 
L 646.45 -250.531701 
L 647.225 -248.476653 
L 647.225 -204.143509 
L 647.225 -204.143509 
L 646.45 -206.005631 
L 645.675 -206.698074 
L 644.9 -207.729985 
L 644.125 -209.632455 
L 643.35 -211.023245 
L 642.575 -211.982516 
L 641.8 -213.292177 
L 641.025 -214.583575 
L 640.25 -215.629598 
L 639.475 -216.366588 
L 638.7 -218.72451 
L 637.925 -219.267341 
L 637.15 -220.711982 
L 636.375 -221.673876 
L 635.6 -223.883531 
L 634.825 -224.442034 
L 634.05 -225.078107 
L 633.275 -227.61468 
L 632.5 -227.112552 
L 631.725 -229.173829 
L 630.95 -228.325477 
L 630.175 -231.593628 
L 629.4 -231.412074 
L 628.625 -233.154346 
L 627.85 -234.365262 
L 627.075 -237.1143 
L 626.3 -236.506774 
L 625.525 -238.710965 
L 624.75 -238.950396 
L 623.975 -240.220976 
L 623.2 -240.801906 
L 622.425 -241.597744 
L 621.65 -241.451419 
L 620.875 -242.232152 
L 620.1 -243.720614 
L 619.325 -244.998129 
L 618.55 -244.109584 
L 617.775 -245.57157 
L 617 -247.103122 
L 616.225 -247.643854 
L 615.45 -248.748202 
L 614.675 -248.614598 
L 613.9 -248.38035 
L 613.125 -250.010539 
L 612.35 -251.012899 
L 611.575 -252.792719 
L 610.8 -253.789346 
L 610.025 -253.573918 
L 609.25 -255.198943 
L 608.475 -255.298853 
L 607.7 -255.39557 
L 606.925 -256.79536 
L 606.15 -257.051126 
L 605.375 -256.616368 
L 604.6 -257.926814 
L 603.825 -258.635244 
L 603.05 -258.993685 
L 602.275 -257.441948 
L 601.5 -258.849181 
L 600.725 -260.485315 
L 599.95 -261.48485 
L 599.175 -259.035184 
L 598.4 -261.418185 
L 597.625 -262.356988 
L 596.85 -261.620886 
L 596.075 -261.304763 
L 595.3 -260.795591 
L 594.525 -262.706184 
L 593.75 -261.275427 
L 592.975 -262.729915 
L 592.2 -261.480381 
L 591.425 -261.72015 
L 590.65 -258.451235 
L 589.875 -260.736233 
L 589.1 -260.317173 
L 588.325 -259.402346 
L 587.55 -260.451141 
L 586.775 -260.538611 
L 586 -259.812737 
L 585.225 -260.488239 
L 584.45 -259.516683 
L 583.675 -257.631343 
L 582.9 -256.329116 
L 582.125 -258.413723 
L 581.35 -257.756504 
L 580.575 -258.065951 
L 579.8 -256.382246 
L 579.025 -254.286418 
L 578.25 -255.541633 
L 577.475 -255.415489 
L 576.7 -254.815189 
L 575.925 -255.94323 
L 575.15 -255.321844 
L 574.375 -254.785034 
L 573.6 -253.707039 
L 572.825 -253.030009 
L 572.05 -253.193359 
L 571.275 -253.454301 
L 570.5 -252.512936 
L 569.725 -248.569475 
L 568.95 -251.392983 
L 568.175 -248.87673 
L 567.4 -248.112718 
L 566.625 -249.233825 
L 565.85 -247.762462 
L 565.075 -246.204767 
L 564.3 -245.826389 
L 563.525 -244.268863 
L 562.75 -244.799262 
L 561.975 -244.952932 
L 561.2 -242.084309 
L 560.425 -240.981288 
L 559.65 -239.599755 
L 558.875 -238.762023 
L 558.1 -238.49452 
L 557.325 -236.104812 
L 556.55 -237.911698 
L 555.775 -234.229972 
L 555 -234.291928 
L 554.225 -233.281702 
L 553.45 -232.336854 
L 552.675 -230.456839 
L 551.9 -231.718208 
L 551.125 -229.973752 
L 550.35 -227.249014 
L 549.575 -226.838905 
L 548.8 -227.46817 
L 548.025 -226.227653 
L 547.25 -225.366833 
L 546.475 -225.917631 
L 545.7 -222.939592 
L 544.925 -222.673745 
L 544.15 -224.032686 
L 543.375 -221.693353 
L 542.6 -220.633673 
L 541.825 -219.016834 
L 541.05 -218.155408 
L 540.275 -219.277374 
L 539.5 -216.921148 
L 538.725 -214.974928 
L 537.95 -216.279844 
L 537.175 -215.492131 
L 536.4 -215.401717 
L 535.625 -215.312954 
L 534.85 -213.958598 
L 534.075 -212.658265 
L 533.3 -213.032479 
L 532.525 -212.135386 
L 531.75 -210.202298 
L 530.975 -211.53004 
L 530.2 -209.813908 
L 529.425 -209.860217 
L 528.65 -210.00343 
L 527.875 -208.214792 
L 527.1 -207.882894 
L 526.325 -206.757762 
L 525.55 -206.02457 
L 524.775 -205.976563 
L 524 -205.696652 
L 523.225 -204.979673 
L 522.45 -205.027275 
L 521.675 -204.006833 
L 520.9 -203.512105 
L 520.125 -203.554612 
L 519.35 -202.964456 
L 518.575 -203.150189 
L 517.8 -201.847627 
L 517.025 -202.420893 
L 516.25 -200.145212 
L 515.475 -199.239288 
L 514.7 -199.687012 
L 513.925 -200.060292 
L 513.15 -199.128011 
L 512.375 -197.969037 
L 511.6 -198.395519 
L 510.825 -195.991229 
L 510.05 -197.295129 
L 509.275 -196.823868 
L 508.5 -195.463231 
L 507.725 -195.790819 
L 506.95 -193.87472 
L 506.175 -194.181627 
L 505.4 -191.457318 
L 504.625 -192.418288 
L 503.85 -192.135079 
L 503.075 -191.459281 
L 502.3 -190.936787 
L 501.525 -189.720065 
L 500.75 -190.22048 
L 499.975 -190.223047 
L 499.2 -187.779552 
L 498.425 -188.058019 
L 497.65 -187.358862 
L 496.875 -187.794384 
L 496.1 -187.091362 
L 495.325 -187.367712 
L 494.55 -184.493049 
L 493.775 -184.230857 
L 493 -185.534622 
L 492.225 -183.190997 
L 491.45 -182.383455 
L 490.675 -182.221782 
L 489.9 -181.978121 
L 489.125 -180.427815 
L 488.35 -180.346261 
L 487.575 -178.554921 
L 486.8 -179.287607 
L 486.025 -178.039138 
L 485.25 -178.094089 
L 484.475 -177.258222 
L 483.7 -175.93647 
L 482.925 -175.711372 
L 482.15 -174.805641 
L 481.375 -175.397533 
L 480.6 -174.064437 
L 479.825 -172.099847 
L 479.05 -169.504518 
L 478.275 -170.864294 
L 477.5 -170.969834 
L 476.725 -168.258517 
L 475.95 -169.588243 
L 475.175 -166.461858 
L 474.4 -168.231434 
L 473.625 -166.08496 
L 472.85 -165.515002 
L 472.075 -164.507326 
L 471.3 -163.796257 
L 470.525 -163.337596 
L 469.75 -161.730391 
L 468.975 -160.485833 
L 468.2 -160.168777 
L 467.425 -158.416692 
L 466.65 -157.995309 
L 465.875 -157.732435 
L 465.1 -156.897046 
L 464.325 -156.151157 
L 463.55 -155.720607 
L 462.775 -154.47161 
L 462 -152.872546 
L 461.225 -151.715268 
L 460.45 -151.982701 
L 459.675 -150.472647 
L 458.9 -150.317807 
L 458.125 -147.223658 
L 457.35 -150.134413 
L 456.575 -147.281265 
L 455.8 -145.656297 
L 455.025 -145.561648 
L 454.25 -142.708298 
L 453.475 -142.819769 
L 452.7 -141.806817 
L 451.925 -140.975271 
L 451.15 -139.812168 
L 450.375 -138.295423 
L 449.6 -138.618223 
L 448.825 -137.151064 
L 448.05 -136.367421 
L 447.275 -136.226347 
L 446.5 -135.058116 
L 445.725 -133.69661 
L 444.95 -131.236654 
L 444.175 -131.715711 
L 443.4 -128.934908 
L 442.625 -128.733519 
L 441.85 -127.090198 
L 441.075 -125.553038 
L 440.3 -124.907618 
L 439.525 -123.496508 
L 438.75 -122.804048 
L 437.975 -122.748415 
L 437.2 -121.797949 
L 436.425 -120.22732 
L 435.65 -120.74525 
L 434.875 -117.78265 
L 434.1 -117.849905 
L 433.325 -116.912425 
L 432.55 -117.197176 
L 431.775 -115.532647 
L 431 -114.597112 
L 430.225 -113.875541 
L 429.45 -112.968463 
L 428.675 -111.744021 
L 427.9 -110.949754 
L 427.125 -111.237557 
L 426.35 -110.329973 
L 425.575 -108.778007 
L 424.8 -108.472478 
L 424.025 -108.617288 
L 423.25 -107.099181 
L 422.475 -106.671019 
L 421.7 -105.806621 
L 420.925 -105.26134 
L 420.15 -104.311163 
L 419.375 -105.385862 
L 418.6 -103.619012 
L 417.825 -103.76794 
L 417.05 -102.62774 
L 416.275 -103.751695 
L 415.5 -103.005394 
L 414.725 -102.163665 
L 413.95 -102.190837 
L 413.175 -104.095746 
L 412.4 -101.13092 
L 411.625 -104.194773 
L 410.85 -103.707273 
L 410.075 -103.786582 
L 409.3 -102.188735 
L 408.525 -104.212102 
L 407.75 -104.121599 
L 406.975 -103.932948 
L 406.2 -104.752482 
L 405.425 -105.066578 
L 404.65 -105.091969 
L 403.875 -106.180791 
L 403.1 -106.869487 
L 402.325 -106.988109 
L 401.55 -108.194585 
L 400.775 -107.568776 
L 400 -108.379651 
L 399.225 -108.370624 
L 398.45 -110.122379 
L 397.675 -110.37017 
L 396.9 -112.865168 
L 396.125 -111.316775 
L 395.35 -113.847288 
L 394.575 -114.061279 
L 393.8 -115.310466 
L 393.025 -116.224447 
L 392.25 -118.075161 
L 391.475 -118.243157 
L 390.7 -118.336494 
L 389.925 -119.444896 
L 389.15 -120.241633 
L 388.375 -122.52871 
L 387.6 -124.23882 
L 386.825 -125.347664 
L 386.05 -125.517267 
L 385.275 -127.398729 
L 384.5 -129.072043 
L 383.725 -129.839501 
L 382.95 -129.566043 
L 382.175 -131.978904 
L 381.4 -133.535609 
L 380.625 -134.596699 
L 379.85 -135.336052 
L 379.075 -136.576996 
L 378.3 -138.484534 
L 377.525 -140.25113 
L 376.75 -140.712177 
L 375.975 -141.973514 
L 375.2 -144.948143 
L 374.425 -145.041219 
L 373.65 -146.606756 
L 372.875 -147.027469 
L 372.1 -149.656675 
L 371.325 -151.331689 
L 370.55 -152.969413 
L 369.775 -153.668345 
L 369 -154.833687 
L 368.225 -156.553066 
L 367.45 -155.544318 
L 366.675 -159.200335 
L 365.9 -160.621716 
L 365.125 -160.745418 
L 364.35 -161.288132 
L 363.575 -163.16387 
L 362.8 -165.169123 
L 362.025 -167.276522 
L 361.25 -168.6811 
L 360.475 -168.991466 
L 359.7 -169.676208 
L 358.925 -170.457162 
L 358.15 -172.029662 
L 357.375 -174.537231 
L 356.6 -175.621228 
L 355.825 -176.072678 
L 355.05 -177.151081 
L 354.275 -178.828806 
L 353.5 -180.924852 
L 352.725 -180.072939 
L 351.95 -182.312498 
L 351.175 -183.353217 
L 350.4 -182.603131 
L 349.625 -186.245856 
L 348.85 -186.194185 
L 348.075 -188.263866 
L 347.3 -189.892292 
L 346.525 -189.659799 
L 345.75 -190.651248 
L 344.975 -191.952152 
L 344.2 -192.809003 
L 343.425 -191.74745 
L 342.65 -195.459946 
L 341.875 -196.468085 
L 341.1 -196.645762 
L 340.325 -198.475906 
L 339.55 -197.212388 
L 338.775 -199.364641 
L 338 -200.479228 
L 337.225 -200.899552 
L 336.45 -202.017485 
L 335.675 -201.939311 
L 334.9 -204.047987 
L 334.125 -203.22026 
L 333.35 -205.436031 
L 332.575 -205.179258 
L 331.8 -206.93139 
L 331.025 -206.051191 
L 330.25 -207.94228 
L 329.475 -208.538628 
L 328.7 -209.241885 
L 327.925 -209.928846 
L 327.15 -210.556458 
L 326.375 -212.421315 
L 325.6 -212.697245 
L 324.825 -212.857302 
L 324.05 -212.986351 
L 323.275 -214.950993 
L 322.5 -215.778196 
L 321.725 -215.34572 
L 320.95 -216.261017 
L 320.175 -219.477629 
L 319.4 -217.193758 
L 318.625 -216.348193 
L 317.85 -219.133928 
L 317.075 -218.204614 
L 316.3 -218.140559 
L 315.525 -219.392285 
L 314.75 -220.593843 
L 313.975 -220.224294 
L 313.2 -218.854043 
L 312.425 -218.890336 
L 311.65 -219.078751 
L 310.875 -219.371905 
L 310.1 -220.355428 
L 309.325 -217.997227 
L 308.55 -219.02653 
L 307.775 -218.2219 
L 307 -218.018285 
L 306.225 -217.674953 
L 305.45 -218.440656 
L 304.675 -217.732301 
L 303.9 -217.27247 
L 303.125 -217.755191 
L 302.35 -215.448369 
L 301.575 -215.718949 
L 300.8 -215.03386 
L 300.025 -214.349662 
L 299.25 -215.336942 
L 298.475 -214.615299 
L 297.7 -214.123576 
L 296.925 -213.547926 
L 296.15 -214.011398 
L 295.375 -212.956078 
L 294.6 -212.650466 
L 293.825 -212.59823 
L 293.05 -210.595905 
L 292.275 -212.37653 
L 291.5 -211.701148 
L 290.725 -209.374626 
L 289.95 -210.544002 
L 289.175 -208.763537 
L 288.4 -209.650975 
L 287.625 -208.539698 
L 286.85 -208.32366 
L 286.075 -207.37616 
L 285.3 -207.647705 
L 284.525 -206.287992 
L 283.75 -206.274477 
L 282.975 -204.179467 
L 282.2 -204.277675 
L 281.425 -203.144574 
L 280.65 -202.499679 
L 279.875 -201.032169 
L 279.1 -199.93462 
L 278.325 -200.075102 
L 277.55 -198.722063 
L 276.775 -197.250016 
L 276 -197.169395 
L 275.225 -195.97326 
L 274.45 -194.598979 
L 273.675 -195.000671 
L 272.9 -193.501301 
L 272.125 -193.053711 
L 271.35 -189.758992 
L 270.575 -187.869869 
L 269.8 -188.094901 
L 269.025 -187.760333 
L 268.25 -185.784183 
L 267.475 -187.159743 
L 266.7 -185.837394 
L 265.925 -184.286176 
L 265.15 -183.615945 
L 264.375 -183.402563 
L 263.6 -182.634393 
L 262.825 -181.510079 
L 262.05 -179.285356 
L 261.275 -179.702402 
L 260.5 -178.449853 
L 259.725 -178.394201 
L 258.95 -177.19333 
L 258.175 -177.932866 
L 257.4 -175.359727 
L 256.625 -176.166133 
L 255.85 -174.917221 
L 255.075 -173.23802 
L 254.3 -171.215569 
L 253.525 -171.797663 
L 252.75 -170.876801 
L 251.975 -170.095435 
L 251.2 -170.289021 
L 250.425 -168.940744 
L 249.65 -167.889976 
L 248.875 -166.467149 
L 248.1 -167.992261 
L 247.325 -167.342043 
L 246.55 -165.362619 
L 245.775 -165.050233 
L 245 -163.19112 
L 244.225 -163.640953 
L 243.45 -164.966853 
L 242.675 -163.378802 
L 241.9 -162.426316 
L 241.125 -162.342406 
L 240.35 -162.709582 
L 239.575 -161.987791 
L 238.8 -160.835496 
L 238.025 -160.44224 
L 237.25 -158.001608 
L 236.475 -159.020958 
L 235.7 -156.479339 
L 234.925 -158.047907 
L 234.15 -159.191767 
L 233.375 -156.879146 
L 232.6 -156.104213 
L 231.825 -156.611108 
L 231.05 -155.816893 
L 230.275 -155.333467 
L 229.5 -154.704675 
L 228.725 -154.868109 
L 227.95 -153.908338 
L 227.175 -153.186035 
L 226.4 -152.263234 
L 225.625 -152.552306 
L 224.85 -151.171501 
L 224.075 -151.935591 
L 223.3 -150.292061 
L 222.525 -150.766788 
L 221.75 -149.854787 
L 220.975 -149.818739 
L 220.2 -148.239365 
L 219.425 -147.890871 
L 218.65 -147.533615 
L 217.875 -146.823099 
L 217.1 -145.106647 
L 216.325 -145.962703 
L 215.55 -145.217868 
L 214.775 -143.230592 
L 214 -143.729305 
L 213.225 -142.534927 
L 212.45 -142.458182 
L 211.675 -140.311188 
L 210.9 -141.760132 
L 210.125 -139.928643 
L 209.35 -139.974166 
L 208.575 -139.72441 
L 207.8 -138.304448 
L 207.025 -136.084512 
L 206.25 -135.201622 
L 205.475 -136.957277 
L 204.7 -136.741099 
L 203.925 -134.601817 
L 203.15 -135.062318 
L 202.375 -134.644055 
L 201.6 -133.069335 
L 200.825 -132.385392 
L 200.05 -131.497805 
L 199.275 -131.582715 
L 198.5 -129.102889 
L 197.725 -129.075059 
L 196.95 -130.228174 
L 196.175 -128.49348 
L 195.4 -127.200509 
L 194.625 -126.115315 
L 193.85 -122.432568 
L 193.075 -125.140509 
L 192.3 -123.238986 
L 191.525 -121.764526 
L 190.75 -122.637617 
L 189.975 -121.135574 
L 189.2 -120.442404 
L 188.425 -120.959506 
L 187.65 -117.768577 
L 186.875 -118.962057 
L 186.1 -116.031202 
L 185.325 -115.417105 
L 184.55 -114.168416 
L 183.775 -116.187148 
L 183 -113.308806 
L 182.225 -113.231156 
L 181.45 -112.334692 
L 180.675 -112.303961 
L 179.9 -110.848216 
L 179.125 -109.271158 
L 178.35 -110.104727 
L 177.575 -108.056863 
L 176.8 -105.479983 
L 176.025 -105.32358 
L 175.25 -105.345823 
L 174.475 -103.435826 
L 173.7 -102.428319 
L 172.925 -101.489483 
L 172.15 -100.470486 
L 171.375 -100.992013 
L 170.6 -99.081284 
L 169.825 -96.914723 
L 169.05 -96.488416 
L 168.275 -94.971001 
L 167.5 -95.188868 
L 166.725 -93.783497 
L 165.95 -93.21269 
L 165.175 -91.849573 
L 164.4 -90.457718 
L 163.625 -89.960827 
L 162.85 -87.202266 
L 162.075 -87.342631 
L 161.3 -85.278252 
L 160.525 -85.787997 
L 159.75 -84.863632 
L 158.975 -83.7795 
L 158.2 -83.365975 
L 157.425 -80.58296 
L 156.65 -80.126383 
L 155.875 -78.109287 
L 155.1 -78.015929 
L 154.325 -77.15164 
L 153.55 -76.367717 
L 152.775 -75.36298 
L 152 -75.728237 
L 151.225 -73.555224 
L 150.45 -72.688802 
L 149.675 -72.965397 
L 148.9 -71.129283 
L 148.125 -70.482473 
L 147.35 -69.789682 
L 146.575 -68.890899 
L 145.8 -68.485126 
L 145.025 -67.238147 
L 144.25 -65.72015 
L 143.475 -65.207523 
L 142.7 -65.558253 
L 141.925 -63.411433 
L 141.15 -64.032435 
L 140.375 -63.923336 
L 139.6 -62.550925 
L 138.825 -62.742091 
L 138.05 -62.298169 
L 137.275 -61.339445 
L 136.5 -60.260484 
L 135.725 -59.356409 
L 134.95 -60.409666 
L 134.175 -58.208357 
L 133.4 -57.99546 
L 132.625 -59.858551 
L 131.85 -57.905168 
L 131.075 -58.697721 
L 130.3 -57.45619 
L 129.525 -58.672203 
L 128.75 -57.354545 
L 127.975 -57.868738 
L 127.2 -57.362424 
L 126.425 -59.650289 
L 125.65 -59.358362 
L 124.875 -59.493904 
L 124.1 -59.45093 
L 123.325 -59.389064 
L 122.55 -61.133988 
L 121.775 -59.428759 
L 121 -60.702648 
L 120.225 -61.65904 
L 119.45 -62.311317 
L 118.675 -63.230014 
L 117.9 -62.156924 
L 117.125 -64.893647 
L 116.35 -64.139386 
L 115.575 -65.671078 
L 114.8 -65.858234 
L 114.025 -65.723968 
L 113.25 -65.96938 
L 112.475 -68.161593 
L 111.7 -69.117822 
L 110.925 -71.276557 
L 110.15 -70.326843 
L 109.375 -71.313365 
L 108.6 -72.809026 
L 107.825 -74.026942 
L 107.05 -75.028711 
L 106.275 -76.730076 
L 105.5 -77.53955 
L 104.725 -80.016859 
L 103.95 -78.742241 
L 103.175 -80.068569 
L 102.4 -81.794042 
L 101.625 -83.834678 
L 100.85 -83.011001 
L 100.075 -84.55123 
L 99.3 -87.31319 
L 98.525 -88.992666 
L 97.75 -88.352003 
L 96.975 -91.440649 
L 96.2 -92.632728 
L 95.425 -94.40204 
L 94.65 -94.250709 
L 93.875 -94.883494 
L 93.1 -98.583568 
L 92.325 -97.922466 
L 91.55 -98.495476 
L 90.775 -101.891841 
L 90 -103.09402 
z
" id="m3a7a38983a" style="stroke:#c44e52;stroke-opacity:0.1;stroke-width:0.8;"/>
    </defs>
    <g clip-path="url(#pf00d0a11bc)">
     <use style="fill:#c44e52;fill-opacity:0.1;stroke:#c44e52;stroke-opacity:0.1;stroke-width:0.8;" x="0" xlink:href="#m3a7a38983a" y="360"/>
    </g>
   </g>
   <g id="line2d_15">
    <path clip-path="url(#pf00d0a11bc)" d="M 90 228.150899 
L 90.775 230.536797 
L 91.55 229.542673 
L 92.325 225.168527 
L 93.1 229.542673 
L 93.875 242.466286 
L 95.425 231.133272 
L 96.2 235.109768 
L 96.975 232.525045 
L 97.75 257.378146 
L 98.525 246.243957 
L 99.3 239.086264 
L 100.075 248.629855 
L 100.85 255.986373 
L 101.625 255.588723 
L 102.4 249.226329 
L 103.175 245.647483 
L 103.95 244.056884 
L 104.725 247.436906 
L 105.5 253.004001 
L 106.275 273.284131 
L 107.05 255.191074 
L 107.825 262.945241 
L 108.6 250.220453 
L 109.375 267.120562 
L 110.15 268.909985 
L 110.925 253.998125 
L 112.475 256.781672 
L 113.25 262.547592 
L 114.025 263.74054 
L 114.8 277.260628 
L 115.575 271.295883 
L 116.35 275.471204 
L 117.125 265.132314 
L 117.9 264.734664 
L 118.675 266.126438 
L 119.45 262.547592 
L 120.225 276.266503 
L 121 272.687657 
L 121.775 268.313511 
L 122.55 261.354643 
L 123.325 271.494708 
L 124.1 267.915861 
L 124.875 276.862978 
L 125.65 278.652401 
L 127.2 273.482956 
L 127.975 269.705285 
L 128.75 273.681781 
L 129.525 281.038299 
L 130.3 287.201868 
L 131.075 287.599518 
L 131.85 277.857102 
L 132.625 279.4477 
L 133.4 273.880606 
L 134.175 273.284131 
L 134.95 271.295883 
L 135.725 262.348767 
L 136.5 260.758168 
L 137.275 270.500584 
L 138.05 269.705285 
L 138.825 268.711161 
L 139.6 269.10881 
L 140.375 265.132314 
L 141.925 259.962869 
L 142.7 263.541716 
L 143.475 268.313511 
L 144.25 264.337015 
L 145.025 256.185198 
L 145.8 264.734664 
L 146.575 263.74054 
L 147.35 264.734664 
L 148.125 266.325263 
L 148.9 260.956993 
L 149.675 254.594599 
L 150.45 245.249833 
L 151.225 221.589681 
L 152 252.208701 
L 152.775 249.623979 
L 153.55 236.700366 
L 154.325 233.12152 
L 155.1 232.525045 
L 155.875 236.501541 
L 156.65 235.706242 
L 157.425 244.454534 
L 158.2 228.946199 
L 158.975 231.332096 
L 159.75 227.156775 
L 160.525 237.893315 
L 161.3 241.670986 
L 162.075 234.712118 
L 162.85 237.098016 
L 163.625 228.150899 
L 164.4 228.548549 
L 165.175 235.905067 
L 165.95 215.624936 
L 166.725 228.946199 
L 167.5 224.770878 
L 168.275 226.560301 
L 169.05 220.993206 
L 169.825 224.770878 
L 170.6 224.174403 
L 171.375 220.595557 
L 172.15 220.197907 
L 172.925 215.624936 
L 173.7 213.636688 
L 174.475 229.145023 
L 175.25 208.666068 
L 176.025 210.256666 
L 176.8 210.853141 
L 177.575 216.817885 
L 178.35 220.595557 
L 179.125 214.233163 
L 179.9 210.853141 
L 180.675 204.490747 
L 182.225 204.888397 
L 183 203.297798 
L 183.775 202.303674 
L 184.55 201.7072 
L 185.325 203.297798 
L 186.1 204.490747 
L 186.875 183.812967 
L 187.65 178.047047 
L 188.425 197.929528 
L 189.2 192.760083 
L 189.975 217.215535 
L 190.75 191.169485 
L 191.525 185.801215 
L 192.3 196.140105 
L 193.075 183.415317 
L 193.85 176.854098 
L 194.625 174.468201 
L 195.4 185.60239 
L 196.175 178.245872 
L 196.95 173.672901 
L 197.725 166.912858 
L 198.5 172.678777 
L 199.275 174.86585 
L 200.05 167.310507 
L 200.825 171.883478 
L 201.6 167.708157 
L 202.375 175.462325 
L 203.15 177.052923 
L 203.925 190.97066 
L 204.7 188.783587 
L 205.475 185.801215 
L 206.25 181.427069 
L 207.025 170.690529 
L 207.8 171.088179 
L 208.575 173.474077 
L 209.35 121.779626 
L 210.125 156.971617 
L 210.9 160.351639 
L 211.675 183.812967 
L 212.45 190.374185 
L 214 167.906982 
L 214.775 145.240953 
L 215.55 163.731661 
L 216.325 159.55634 
L 217.1 140.866808 
L 217.875 148.8198 
L 218.65 152.199822 
L 219.425 142.656231 
L 220.2 160.550464 
L 220.975 161.544588 
L 221.75 150.609223 
L 222.525 156.375143 
L 223.3 144.048005 
L 224.075 117.206655 
L 224.85 130.726742 
L 225.625 136.492662 
L 226.4 162.339887 
L 227.175 178.842346 
L 227.95 177.450573 
L 228.725 162.339887 
L 229.5 161.544588 
L 230.275 167.310507 
L 231.05 167.906982 
L 231.825 136.492662 
L 232.6 151.404523 
L 233.375 154.983369 
L 234.15 155.778668 
L 234.925 156.772792 
L 235.7 168.503456 
L 236.475 178.047047 
L 237.25 169.099931 
L 238.025 164.725785 
L 238.8 156.176318 
L 239.575 153.591595 
L 240.35 164.328135 
L 241.125 158.363391 
L 241.9 177.450573 
L 242.675 168.503456 
L 243.45 153.989245 
L 244.225 152.597471 
L 245 159.55634 
L 245.775 162.936362 
L 246.55 151.205698 
L 247.325 155.778668 
L 248.1 156.375143 
L 248.875 152.000997 
L 249.65 153.79042 
L 250.425 151.205698 
L 251.2 155.579844 
L 251.975 147.030377 
L 252.75 158.761041 
L 253.525 151.802172 
L 254.3 131.919691 
L 255.075 130.130268 
L 255.85 130.130268 
L 256.625 120.984327 
L 257.4 124.563173 
L 258.175 125.756122 
L 258.95 125.159648 
L 259.725 122.574925 
L 260.5 126.750246 
L 261.275 118.200779 
L 262.05 118.200779 
L 262.825 124.761998 
L 263.6 126.949071 
L 264.375 99.710072 
L 265.15 82.014664 
L 265.925 105.475991 
L 266.7 112.236035 
L 267.475 129.533793 
L 268.25 122.574925 
L 269.025 117.00783 
L 269.8 120.586677 
L 270.575 97.324174 
L 271.35 102.891269 
L 272.125 103.686568 
L 272.9 117.80313 
L 273.675 113.031334 
L 274.45 113.230159 
L 275.225 126.750246 
L 276 126.352596 
L 276.775 129.533793 
L 277.55 116.411356 
L 278.325 116.411356 
L 279.1 128.738494 
L 279.875 94.739452 
L 280.65 92.751204 
L 281.425 78.435817 
L 282.2 90.564131 
L 282.975 76.646394 
L 283.75 107.46424 
L 284.525 125.358472 
L 285.3 110.645436 
L 286.075 99.511247 
L 286.85 94.341802 
L 287.625 98.119473 
L 288.4 95.733576 
L 289.175 104.680692 
L 289.95 99.312422 
L 290.725 101.69832 
L 291.5 118.797254 
L 292.275 98.914773 
L 293.05 101.897145 
L 293.825 97.721824 
L 294.6 96.33005 
L 295.375 102.493619 
L 296.15 85.195861 
L 296.925 76.646394 
L 297.7 84.997036 
L 298.475 81.418189 
L 300.025 102.294794 
L 300.8 109.452488 
L 301.575 100.107722 
L 302.35 72.669898 
L 303.125 84.997036 
L 303.9 91.558255 
L 304.675 108.060714 
L 305.45 111.838385 
L 306.225 112.832509 
L 307 123.370224 
L 307.775 110.645436 
L 308.55 105.078342 
L 309.325 107.861889 
L 310.1 102.692444 
L 310.875 102.692444 
L 311.65 113.428984 
L 312.425 120.387852 
L 313.2 113.230159 
L 313.975 124.563173 
L 314.75 116.411356 
L 315.525 112.633685 
L 316.3 114.621933 
L 317.075 116.212531 
L 317.85 110.844261 
L 318.625 128.738494 
L 319.4 122.3761 
L 320.175 119.194903 
L 320.95 127.346721 
L 321.725 120.785502 
L 322.5 128.937319 
L 323.275 132.913815 
L 324.05 133.709114 
L 324.825 134.106764 
L 325.6 132.913815 
L 326.375 136.095012 
L 327.15 134.305589 
L 327.925 133.11264 
L 328.7 129.334969 
L 329.475 144.246829 
L 330.25 133.311465 
L 331.025 127.545545 
L 331.8 136.095012 
L 332.575 172.281128 
L 333.35 146.235078 
L 334.125 134.902063 
L 334.9 134.703239 
L 335.675 154.58572 
L 337.225 161.146938 
L 338 158.562216 
L 338.775 157.369267 
L 339.55 154.18807 
L 340.325 172.082303 
L 341.1 158.562216 
L 341.875 162.141062 
L 342.65 176.257624 
L 343.425 171.287004 
L 344.2 163.930486 
L 344.975 164.12931 
L 345.75 159.953989 
L 346.525 210.455491 
L 347.3 171.883478 
L 348.075 171.088179 
L 348.85 165.521084 
L 349.625 182.222368 
L 350.4 181.228244 
L 351.175 173.076427 
L 351.95 187.391813 
L 352.725 190.374185 
L 353.5 180.63177 
L 354.275 182.023543 
L 355.05 187.590638 
L 355.825 186.795339 
L 356.6 194.549506 
L 357.375 195.344806 
L 358.15 189.380061 
L 358.925 186.795339 
L 359.7 194.151857 
L 360.475 199.122477 
L 361.25 188.982412 
L 362.025 198.526003 
L 362.8 206.28017 
L 363.575 206.67782 
L 364.35 199.520127 
L 365.125 200.315426 
L 365.9 209.461367 
L 366.675 199.718951 
L 367.45 201.30955 
L 368.225 204.490747 
L 368.225 204.490747 
" style="fill:none;stroke:#4c72b0;stroke-linecap:round;stroke-width:1.2;"/>
   </g>
   <g id="line2d_16">
    <path clip-path="url(#pf00d0a11bc)" d="M 90 240.045161 
L 90.775 241.530959 
L 91.55 242.680652 
L 92.325 244.28939 
L 93.1 245.320941 
L 97.75 253.520595 
L 98.525 254.505911 
L 101.625 259.697805 
L 102.4 260.7182 
L 103.175 262.175505 
L 103.95 263.033729 
L 107.05 267.635071 
L 107.825 268.492098 
L 108.6 269.781568 
L 109.375 270.46826 
L 112.475 274.356786 
L 113.25 275.030005 
L 114.025 276.133203 
L 114.8 276.630728 
L 117.9 279.719788 
L 118.675 280.178043 
L 119.45 281.058293 
L 120.225 281.323925 
L 121.775 282.448602 
L 122.55 282.824374 
L 123.325 283.380042 
L 124.1 283.551069 
L 124.875 284.132136 
L 125.65 284.086871 
L 127.2 284.556859 
L 127.975 284.590616 
L 128.75 284.796088 
L 129.525 284.610224 
L 130.3 284.829389 
L 131.075 284.419059 
L 132.625 284.157425 
L 133.4 283.828787 
L 134.175 283.676938 
L 134.95 283.140867 
L 135.725 283.018879 
L 136.5 282.278245 
L 138.05 281.394763 
L 138.825 280.777106 
L 139.6 280.352079 
L 140.375 279.559239 
L 141.15 279.197163 
L 141.925 278.233088 
L 145.025 275.569177 
L 145.8 274.626152 
L 146.575 274.125016 
L 147.35 273.031499 
L 150.45 269.9149 
L 151.225 268.86764 
L 152 268.263334 
L 152.775 267.066772 
L 155.875 263.528896 
L 156.65 262.373714 
L 157.425 261.661218 
L 158.2 260.357 
L 161.3 256.416197 
L 162.075 255.173831 
L 162.85 254.382387 
L 163.625 253.008821 
L 172.925 240.484999 
L 173.7 239.79338 
L 174.475 238.540366 
L 176.8 235.818619 
L 177.575 235.081734 
L 178.35 234.018782 
L 179.125 233.424741 
L 179.9 232.26326 
L 183.775 228.072204 
L 184.55 227.515341 
L 185.325 226.381575 
L 189.975 221.65287 
L 190.75 220.510234 
L 194.625 216.34286 
L 195.4 215.794927 
L 196.175 214.677378 
L 198.5 212.328754 
L 199.275 211.711266 
L 200.05 210.768462 
L 200.825 210.297251 
L 201.6 209.263125 
L 203.925 207.193244 
L 204.7 206.673683 
L 205.475 205.828933 
L 206.25 205.454479 
L 207.025 204.514454 
L 209.35 202.699053 
L 210.125 202.251882 
L 210.9 201.472212 
L 211.675 201.155198 
L 212.45 200.264872 
L 216.325 197.366678 
L 217.1 197.0625 
L 217.875 196.181961 
L 221.75 193.325831 
L 222.525 193.035728 
L 223.3 192.172964 
L 227.175 189.46972 
L 227.95 189.221825 
L 228.725 188.403835 
L 232.6 185.927719 
L 233.375 185.717864 
L 234.15 184.932745 
L 237.25 183.188349 
L 238.025 182.51188 
L 238.8 182.287181 
L 239.575 181.478124 
L 242.675 179.554085 
L 243.45 178.815033 
L 244.225 178.522486 
L 245 177.641375 
L 248.1 175.408657 
L 248.875 174.592303 
L 249.65 174.224039 
L 250.425 173.269357 
L 253.525 170.768434 
L 254.3 169.890992 
L 255.075 169.46315 
L 255.85 168.44968 
L 258.95 165.703834 
L 259.725 164.758003 
L 260.5 164.257146 
L 261.275 163.165341 
L 264.375 160.04578 
L 265.15 158.991769 
L 265.925 158.377938 
L 266.7 157.169427 
L 269.8 153.576514 
L 270.575 152.412234 
L 271.35 151.695823 
L 272.125 150.394807 
L 279.875 140.719181 
L 280.65 140.007903 
L 281.425 138.988977 
L 282.2 138.460692 
L 282.975 137.389684 
L 285.3 135.337751 
L 286.075 134.868068 
L 286.85 134.094912 
L 287.625 133.813176 
L 288.4 132.986117 
L 290.725 131.618502 
L 291.5 131.351618 
L 292.275 130.76471 
L 293.05 130.650967 
L 293.825 129.972431 
L 296.15 128.929395 
L 296.925 128.73173 
L 297.7 128.196584 
L 298.475 128.119129 
L 299.25 127.463834 
L 303.125 125.717046 
L 303.9 125.652431 
L 304.675 125.020671 
L 307 124.165617 
L 307.775 124.066746 
L 308.55 123.657888 
L 309.325 123.739151 
L 310.1 123.279289 
L 312.425 123.094884 
L 313.2 123.267956 
L 313.975 123.152255 
L 314.75 123.545371 
L 315.525 123.413132 
L 317.075 124.017113 
L 317.85 124.272353 
L 318.625 124.801301 
L 319.4 125.039171 
L 320.175 125.779845 
L 320.95 125.985614 
L 323.275 127.77038 
L 324.05 128.56982 
L 324.825 129.056018 
L 325.6 130.021715 
L 326.375 130.42859 
L 328.7 132.674893 
L 329.475 133.583986 
L 330.25 134.160401 
L 331.025 135.199041 
L 331.8 135.664045 
L 335.675 139.561978 
L 336.45 140.628895 
L 337.225 141.126707 
L 339.55 143.632148 
L 340.325 144.637787 
L 341.1 145.32219 
L 341.875 146.483293 
L 342.65 147.087653 
L 344.975 149.980675 
L 345.75 151.134422 
L 346.525 151.973845 
L 347.3 153.295058 
L 348.075 154.06267 
L 350.4 157.444306 
L 351.175 158.754094 
L 351.95 159.743216 
L 352.725 161.206307 
L 353.5 162.106731 
L 357.375 168.291066 
L 358.15 169.822002 
L 358.925 170.780276 
L 373.65 195.332576 
L 374.425 196.939638 
L 375.2 197.971084 
L 379.85 206.212034 
L 380.625 207.211981 
L 383.725 212.483409 
L 384.5 213.52829 
L 385.275 215.011588 
L 386.05 215.897125 
L 389.15 220.617271 
L 389.925 221.5056 
L 390.7 222.826779 
L 391.475 223.545522 
L 394.575 227.565648 
L 395.35 228.272916 
L 396.125 229.410856 
L 396.9 229.943977 
L 400 233.187635 
L 400.775 233.688527 
L 401.55 234.613345 
L 402.325 234.925605 
L 403.875 236.150066 
L 404.65 236.579065 
L 405.425 237.190155 
L 406.2 237.418717 
L 406.975 238.059302 
L 407.75 238.075356 
L 409.3 238.67244 
L 410.075 238.771395 
L 410.85 239.042721 
L 411.625 238.923001 
L 412.4 239.208219 
L 413.175 238.863456 
L 414.725 238.729941 
L 415.5 238.463107 
L 416.275 238.371097 
L 417.05 237.892593 
L 417.825 237.825638 
L 418.6 237.137284 
L 420.15 236.349494 
L 420.925 235.775081 
L 421.7 235.390214 
L 422.475 234.634507 
L 423.25 234.306645 
L 424.025 233.374023 
L 427.125 230.812824 
L 427.9 229.891058 
L 428.675 229.410003 
L 429.45 228.335679 
L 432.55 225.292089 
L 433.325 224.263135 
L 434.1 223.677409 
L 434.875 222.499745 
L 437.975 219.039756 
L 438.75 217.903997 
L 439.525 217.210516 
L 440.3 215.924661 
L 443.4 212.04546 
L 444.175 210.814216 
L 444.95 210.031711 
L 445.725 208.664719 
L 450.375 202.519277 
L 451.15 201.15717 
L 455.025 196.032453 
L 455.8 195.321382 
L 456.575 194.048736 
L 458.9 191.270496 
L 459.675 190.516632 
L 460.45 189.438073 
L 461.225 188.829999 
L 462 187.656213 
L 465.875 183.431183 
L 466.65 182.872598 
L 467.425 181.738425 
L 472.075 177.019749 
L 472.85 175.878094 
L 482.15 166.037761 
L 482.925 165.549464 
L 483.7 164.497662 
L 486.025 162.373909 
L 486.8 161.837002 
L 487.575 160.975628 
L 488.35 160.585488 
L 489.125 159.630898 
L 491.45 157.77981 
L 492.225 157.323631 
L 493 156.536398 
L 493.775 156.213205 
L 494.55 155.317982 
L 498.425 152.408894 
L 499.2 152.103857 
L 499.975 151.222405 
L 503.85 148.354677 
L 504.625 148.059999 
L 505.4 147.191789 
L 509.275 144.450536 
L 510.05 144.193828 
L 510.825 143.367061 
L 513.15 141.874211 
L 513.925 141.531424 
L 514.7 140.855444 
L 515.475 140.641641 
L 516.25 139.854032 
L 520.9 137.228086 
L 521.675 136.427916 
L 524.775 134.551106 
L 525.55 133.825824 
L 526.325 133.547419 
L 527.1 132.68062 
L 530.2 130.503418 
L 530.975 129.699887 
L 531.75 129.343891 
L 532.525 128.400919 
L 535.625 125.942532 
L 536.4 125.075243 
L 537.175 124.657686 
L 537.95 123.65482 
L 541.05 120.958184 
L 541.825 120.027112 
L 542.6 119.542197 
L 543.375 118.467545 
L 546.475 115.427468 
L 547.25 114.395258 
L 548.025 113.803493 
L 548.8 112.616977 
L 551.9 109.103315 
L 552.675 107.954485 
L 553.45 107.250896 
L 554.225 105.959656 
L 558.875 100.244641 
L 559.65 98.96115 
L 561.975 96.159517 
L 562.75 95.413257 
L 563.525 94.356249 
L 564.3 93.787274 
L 565.075 92.673518 
L 567.4 90.487018 
L 568.175 89.972473 
L 568.95 89.155492 
L 569.725 88.83156 
L 570.5 87.964477 
L 572.825 86.494311 
L 573.6 86.200182 
L 574.375 85.589817 
L 575.15 85.456449 
L 575.925 84.762057 
L 578.25 83.691922 
L 579.025 83.490857 
L 579.8 82.954327 
L 580.575 82.876919 
L 581.35 82.222472 
L 585.225 80.468383 
L 586 80.395431 
L 586.775 79.751698 
L 589.1 78.834937 
L 589.875 78.706045 
L 590.65 78.262273 
L 591.425 78.303793 
L 592.2 77.799528 
L 594.525 77.457183 
L 595.3 77.570892 
L 596.075 77.39342 
L 596.85 77.723012 
L 597.625 77.526186 
L 599.175 78.000638 
L 599.95 78.192344 
L 600.725 78.659475 
L 601.5 78.837865 
L 602.275 79.521957 
L 603.05 79.674531 
L 605.375 81.323657 
L 606.15 82.0866 
L 606.925 82.540782 
L 607.7 83.47887 
L 608.475 83.862373 
L 610.8 86.061054 
L 611.575 86.960441 
L 612.35 87.529435 
L 613.125 88.562409 
L 613.9 89.022952 
L 617.775 92.898243 
L 618.55 93.95734 
L 619.325 94.445404 
L 623.2 98.558158 
L 623.975 99.695952 
L 624.75 100.275088 
L 627.075 103.083811 
L 627.85 104.207717 
L 628.625 105.017049 
L 629.4 106.308301 
L 630.175 107.046453 
L 632.5 110.346049 
L 633.275 111.631539 
L 634.05 112.598243 
L 634.825 114.040927 
L 635.6 114.923039 
L 639.475 121.046229 
L 640.25 122.57017 
L 641.025 123.522739 
L 647.225 133.69135 
L 647.225 133.69135 
" style="fill:none;stroke:#c44e52;stroke-linecap:round;stroke-width:1.2;"/>
   </g>
   <g id="line2d_17">
    <path clip-path="url(#pf00d0a11bc)" d="M 369 315 
L 369 43.2 
" style="fill:none;stroke:#c44e52;stroke-dasharray:4.44,1.92;stroke-dashoffset:0;stroke-width:1.2;"/>
   </g>
   <g id="patch_3">
    <path d="M 90 315 
L 90 43.2 
" style="fill:none;stroke:#262626;stroke-linecap:square;stroke-linejoin:miter;"/>
   </g>
   <g id="patch_4">
    <path d="M 648 315 
L 648 43.2 
" style="fill:none;stroke:#262626;stroke-linecap:square;stroke-linejoin:miter;"/>
   </g>
   <g id="patch_5">
    <path d="M 90 315 
L 648 315 
" style="fill:none;stroke:#262626;stroke-linecap:square;stroke-linejoin:miter;"/>
   </g>
   <g id="patch_6">
    <path d="M 90 43.2 
L 648 43.2 
" style="fill:none;stroke:#262626;stroke-linecap:square;stroke-linejoin:miter;"/>
   </g>
   <g id="text_17">
    <!-- Prophet Mean Absolute Error 1.1602 -->
    <g style="fill:#262626;" transform="translate(269.095078 37.2)scale(0.11 -0.11)">
     <defs>
      <path d="M 19.671875 64.796875 
L 19.671875 37.40625 
L 32.078125 37.40625 
Q 38.96875 37.40625 42.71875 40.96875 
Q 46.484375 44.53125 46.484375 51.125 
Q 46.484375 57.671875 42.71875 61.234375 
Q 38.96875 64.796875 32.078125 64.796875 
z
M 9.8125 72.90625 
L 32.078125 72.90625 
Q 44.34375 72.90625 50.609375 67.359375 
Q 56.890625 61.8125 56.890625 51.125 
Q 56.890625 40.328125 50.609375 34.8125 
Q 44.34375 29.296875 32.078125 29.296875 
L 19.671875 29.296875 
L 19.671875 0 
L 9.8125 0 
z
" id="DejaVuSans-80"/>
      <path d="M 41.109375 46.296875 
Q 39.59375 47.171875 37.8125 47.578125 
Q 36.03125 48 33.890625 48 
Q 26.265625 48 22.1875 43.046875 
Q 18.109375 38.09375 18.109375 28.8125 
L 18.109375 0 
L 9.078125 0 
L 9.078125 54.6875 
L 18.109375 54.6875 
L 18.109375 46.1875 
Q 20.953125 51.171875 25.484375 53.578125 
Q 30.03125 56 36.53125 56 
Q 37.453125 56 38.578125 55.875 
Q 39.703125 55.765625 41.0625 55.515625 
z
" id="DejaVuSans-114"/>
      <path d="M 30.609375 48.390625 
Q 23.390625 48.390625 19.1875 42.75 
Q 14.984375 37.109375 14.984375 27.296875 
Q 14.984375 17.484375 19.15625 11.84375 
Q 23.34375 6.203125 30.609375 6.203125 
Q 37.796875 6.203125 41.984375 11.859375 
Q 46.1875 17.53125 46.1875 27.296875 
Q 46.1875 37.015625 41.984375 42.703125 
Q 37.796875 48.390625 30.609375 48.390625 
z
M 30.609375 56 
Q 42.328125 56 49.015625 48.375 
Q 55.71875 40.765625 55.71875 27.296875 
Q 55.71875 13.875 49.015625 6.21875 
Q 42.328125 -1.421875 30.609375 -1.421875 
Q 18.84375 -1.421875 12.171875 6.21875 
Q 5.515625 13.875 5.515625 27.296875 
Q 5.515625 40.765625 12.171875 48.375 
Q 18.84375 56 30.609375 56 
z
" id="DejaVuSans-111"/>
      <path d="M 18.109375 8.203125 
L 18.109375 -20.796875 
L 9.078125 -20.796875 
L 9.078125 54.6875 
L 18.109375 54.6875 
L 18.109375 46.390625 
Q 20.953125 51.265625 25.265625 53.625 
Q 29.59375 56 35.59375 56 
Q 45.5625 56 51.78125 48.09375 
Q 58.015625 40.1875 58.015625 27.296875 
Q 58.015625 14.40625 51.78125 6.484375 
Q 45.5625 -1.421875 35.59375 -1.421875 
Q 29.59375 -1.421875 25.265625 0.953125 
Q 20.953125 3.328125 18.109375 8.203125 
z
M 48.6875 27.296875 
Q 48.6875 37.203125 44.609375 42.84375 
Q 40.53125 48.484375 33.40625 48.484375 
Q 26.265625 48.484375 22.1875 42.84375 
Q 18.109375 37.203125 18.109375 27.296875 
Q 18.109375 17.390625 22.1875 11.75 
Q 26.265625 6.109375 33.40625 6.109375 
Q 40.53125 6.109375 44.609375 11.75 
Q 48.6875 17.390625 48.6875 27.296875 
z
" id="DejaVuSans-112"/>
      <path d="M 54.890625 33.015625 
L 54.890625 0 
L 45.90625 0 
L 45.90625 32.71875 
Q 45.90625 40.484375 42.875 44.328125 
Q 39.84375 48.1875 33.796875 48.1875 
Q 26.515625 48.1875 22.3125 43.546875 
Q 18.109375 38.921875 18.109375 30.90625 
L 18.109375 0 
L 9.078125 0 
L 9.078125 75.984375 
L 18.109375 75.984375 
L 18.109375 46.1875 
Q 21.34375 51.125 25.703125 53.5625 
Q 30.078125 56 35.796875 56 
Q 45.21875 56 50.046875 50.171875 
Q 54.890625 44.34375 54.890625 33.015625 
z
" id="DejaVuSans-104"/>
      <path d="M 18.3125 70.21875 
L 18.3125 54.6875 
L 36.8125 54.6875 
L 36.8125 47.703125 
L 18.3125 47.703125 
L 18.3125 18.015625 
Q 18.3125 11.328125 20.140625 9.421875 
Q 21.96875 7.515625 27.59375 7.515625 
L 36.8125 7.515625 
L 36.8125 0 
L 27.59375 0 
Q 17.1875 0 13.234375 3.875 
Q 9.28125 7.765625 9.28125 18.015625 
L 9.28125 47.703125 
L 2.6875 47.703125 
L 2.6875 54.6875 
L 9.28125 54.6875 
L 9.28125 70.21875 
z
" id="DejaVuSans-116"/>
      <path id="DejaVuSans-32"/>
      <path d="M 9.8125 72.90625 
L 24.515625 72.90625 
L 43.109375 23.296875 
L 61.8125 72.90625 
L 76.515625 72.90625 
L 76.515625 0 
L 66.890625 0 
L 66.890625 64.015625 
L 48.09375 14.015625 
L 38.1875 14.015625 
L 19.390625 64.015625 
L 19.390625 0 
L 9.8125 0 
z
" id="DejaVuSans-77"/>
      <path d="M 34.28125 27.484375 
Q 23.390625 27.484375 19.1875 25 
Q 14.984375 22.515625 14.984375 16.5 
Q 14.984375 11.71875 18.140625 8.90625 
Q 21.296875 6.109375 26.703125 6.109375 
Q 34.1875 6.109375 38.703125 11.40625 
Q 43.21875 16.703125 43.21875 25.484375 
L 43.21875 27.484375 
z
M 52.203125 31.203125 
L 52.203125 0 
L 43.21875 0 
L 43.21875 8.296875 
Q 40.140625 3.328125 35.546875 0.953125 
Q 30.953125 -1.421875 24.3125 -1.421875 
Q 15.921875 -1.421875 10.953125 3.296875 
Q 6 8.015625 6 15.921875 
Q 6 25.140625 12.171875 29.828125 
Q 18.359375 34.515625 30.609375 34.515625 
L 43.21875 34.515625 
L 43.21875 35.40625 
Q 43.21875 41.609375 39.140625 45 
Q 35.0625 48.390625 27.6875 48.390625 
Q 23 48.390625 18.546875 47.265625 
Q 14.109375 46.140625 10.015625 43.890625 
L 10.015625 52.203125 
Q 14.9375 54.109375 19.578125 55.046875 
Q 24.21875 56 28.609375 56 
Q 40.484375 56 46.34375 49.84375 
Q 52.203125 43.703125 52.203125 31.203125 
z
" id="DejaVuSans-97"/>
      <path d="M 54.890625 33.015625 
L 54.890625 0 
L 45.90625 0 
L 45.90625 32.71875 
Q 45.90625 40.484375 42.875 44.328125 
Q 39.84375 48.1875 33.796875 48.1875 
Q 26.515625 48.1875 22.3125 43.546875 
Q 18.109375 38.921875 18.109375 30.90625 
L 18.109375 0 
L 9.078125 0 
L 9.078125 54.6875 
L 18.109375 54.6875 
L 18.109375 46.1875 
Q 21.34375 51.125 25.703125 53.5625 
Q 30.078125 56 35.796875 56 
Q 45.21875 56 50.046875 50.171875 
Q 54.890625 44.34375 54.890625 33.015625 
z
" id="DejaVuSans-110"/>
      <path d="M 34.1875 63.1875 
L 20.796875 26.90625 
L 47.609375 26.90625 
z
M 28.609375 72.90625 
L 39.796875 72.90625 
L 67.578125 0 
L 57.328125 0 
L 50.6875 18.703125 
L 17.828125 18.703125 
L 11.1875 0 
L 0.78125 0 
z
" id="DejaVuSans-65"/>
      <path d="M 48.6875 27.296875 
Q 48.6875 37.203125 44.609375 42.84375 
Q 40.53125 48.484375 33.40625 48.484375 
Q 26.265625 48.484375 22.1875 42.84375 
Q 18.109375 37.203125 18.109375 27.296875 
Q 18.109375 17.390625 22.1875 11.75 
Q 26.265625 6.109375 33.40625 6.109375 
Q 40.53125 6.109375 44.609375 11.75 
Q 48.6875 17.390625 48.6875 27.296875 
z
M 18.109375 46.390625 
Q 20.953125 51.265625 25.265625 53.625 
Q 29.59375 56 35.59375 56 
Q 45.5625 56 51.78125 48.09375 
Q 58.015625 40.1875 58.015625 27.296875 
Q 58.015625 14.40625 51.78125 6.484375 
Q 45.5625 -1.421875 35.59375 -1.421875 
Q 29.59375 -1.421875 25.265625 0.953125 
Q 20.953125 3.328125 18.109375 8.203125 
L 18.109375 0 
L 9.078125 0 
L 9.078125 75.984375 
L 18.109375 75.984375 
z
" id="DejaVuSans-98"/>
      <path d="M 44.28125 53.078125 
L 44.28125 44.578125 
Q 40.484375 46.53125 36.375 47.5 
Q 32.28125 48.484375 27.875 48.484375 
Q 21.1875 48.484375 17.84375 46.4375 
Q 14.5 44.390625 14.5 40.28125 
Q 14.5 37.15625 16.890625 35.375 
Q 19.28125 33.59375 26.515625 31.984375 
L 29.59375 31.296875 
Q 39.15625 29.25 43.1875 25.515625 
Q 47.21875 21.78125 47.21875 15.09375 
Q 47.21875 7.46875 41.1875 3.015625 
Q 35.15625 -1.421875 24.609375 -1.421875 
Q 20.21875 -1.421875 15.453125 -0.5625 
Q 10.6875 0.296875 5.421875 2 
L 5.421875 11.28125 
Q 10.40625 8.6875 15.234375 7.390625 
Q 20.0625 6.109375 24.8125 6.109375 
Q 31.15625 6.109375 34.5625 8.28125 
Q 37.984375 10.453125 37.984375 14.40625 
Q 37.984375 18.0625 35.515625 20.015625 
Q 33.0625 21.96875 24.703125 23.78125 
L 21.578125 24.515625 
Q 13.234375 26.265625 9.515625 29.90625 
Q 5.8125 33.546875 5.8125 39.890625 
Q 5.8125 47.609375 11.28125 51.796875 
Q 16.75 56 26.8125 56 
Q 31.78125 56 36.171875 55.265625 
Q 40.578125 54.546875 44.28125 53.078125 
z
" id="DejaVuSans-115"/>
      <path d="M 9.421875 75.984375 
L 18.40625 75.984375 
L 18.40625 0 
L 9.421875 0 
z
" id="DejaVuSans-108"/>
      <path d="M 8.5 21.578125 
L 8.5 54.6875 
L 17.484375 54.6875 
L 17.484375 21.921875 
Q 17.484375 14.15625 20.5 10.265625 
Q 23.53125 6.390625 29.59375 6.390625 
Q 36.859375 6.390625 41.078125 11.03125 
Q 45.3125 15.671875 45.3125 23.6875 
L 45.3125 54.6875 
L 54.296875 54.6875 
L 54.296875 0 
L 45.3125 0 
L 45.3125 8.40625 
Q 42.046875 3.421875 37.71875 1 
Q 33.40625 -1.421875 27.6875 -1.421875 
Q 18.265625 -1.421875 13.375 4.4375 
Q 8.5 10.296875 8.5 21.578125 
z
M 31.109375 56 
z
" id="DejaVuSans-117"/>
      <path d="M 9.8125 72.90625 
L 55.90625 72.90625 
L 55.90625 64.59375 
L 19.671875 64.59375 
L 19.671875 43.015625 
L 54.390625 43.015625 
L 54.390625 34.71875 
L 19.671875 34.71875 
L 19.671875 8.296875 
L 56.78125 8.296875 
L 56.78125 0 
L 9.8125 0 
z
" id="DejaVuSans-69"/>
      <path d="M 10.6875 12.40625 
L 21 12.40625 
L 21 0 
L 10.6875 0 
z
" id="DejaVuSans-46"/>
     </defs>
     <use xlink:href="#DejaVuSans-80"/>
     <use x="58.552734" xlink:href="#DejaVuSans-114"/>
     <use x="97.416016" xlink:href="#DejaVuSans-111"/>
     <use x="158.597656" xlink:href="#DejaVuSans-112"/>
     <use x="222.074219" xlink:href="#DejaVuSans-104"/>
     <use x="285.453125" xlink:href="#DejaVuSans-101"/>
     <use x="346.976562" xlink:href="#DejaVuSans-116"/>
     <use x="386.185547" xlink:href="#DejaVuSans-32"/>
     <use x="417.972656" xlink:href="#DejaVuSans-77"/>
     <use x="504.251953" xlink:href="#DejaVuSans-101"/>
     <use x="565.775391" xlink:href="#DejaVuSans-97"/>
     <use x="627.054688" xlink:href="#DejaVuSans-110"/>
     <use x="690.433594" xlink:href="#DejaVuSans-32"/>
     <use x="722.220703" xlink:href="#DejaVuSans-65"/>
     <use x="790.628906" xlink:href="#DejaVuSans-98"/>
     <use x="854.105469" xlink:href="#DejaVuSans-115"/>
     <use x="906.205078" xlink:href="#DejaVuSans-111"/>
     <use x="967.386719" xlink:href="#DejaVuSans-108"/>
     <use x="995.169922" xlink:href="#DejaVuSans-117"/>
     <use x="1058.548828" xlink:href="#DejaVuSans-116"/>
     <use x="1097.757812" xlink:href="#DejaVuSans-101"/>
     <use x="1159.28125" xlink:href="#DejaVuSans-32"/>
     <use x="1191.068359" xlink:href="#DejaVuSans-69"/>
     <use x="1254.251953" xlink:href="#DejaVuSans-114"/>
     <use x="1293.615234" xlink:href="#DejaVuSans-114"/>
     <use x="1332.478516" xlink:href="#DejaVuSans-111"/>
     <use x="1393.660156" xlink:href="#DejaVuSans-114"/>
     <use x="1434.773438" xlink:href="#DejaVuSans-32"/>
     <use x="1466.560547" xlink:href="#DejaVuSans-49"/>
     <use x="1530.183594" xlink:href="#DejaVuSans-46"/>
     <use x="1561.970703" xlink:href="#DejaVuSans-49"/>
     <use x="1625.59375" xlink:href="#DejaVuSans-54"/>
     <use x="1689.216797" xlink:href="#DejaVuSans-48"/>
     <use x="1752.839844" xlink:href="#DejaVuSans-50"/>
    </g>
   </g>
   <g id="legend_1">
    <g id="patch_7">
     <path d="M 97 80.55625 
L 245.460938 80.55625 
Q 247.460938 80.55625 247.460938 78.55625 
L 247.460938 50.2 
Q 247.460938 48.2 245.460938 48.2 
L 97 48.2 
Q 95 48.2 95 50.2 
L 95 78.55625 
Q 95 80.55625 97 80.55625 
z
" style="fill:#ffffff;opacity:0.8;stroke:#cccccc;stroke-linejoin:miter;stroke-width:0.8;"/>
    </g>
    <g id="line2d_18">
     <path d="M 99 56.298437 
L 119 56.298437 
" style="fill:none;stroke:#4c72b0;stroke-linecap:round;stroke-width:1.2;"/>
    </g>
    <g id="line2d_19"/>
    <g id="text_18">
     <!-- Ground Truth -->
     <g style="fill:#262626;" transform="translate(127 59.798437)scale(0.1 -0.1)">
      <defs>
       <path d="M 59.515625 10.40625 
L 59.515625 29.984375 
L 43.40625 29.984375 
L 43.40625 38.09375 
L 69.28125 38.09375 
L 69.28125 6.78125 
Q 63.578125 2.734375 56.6875 0.65625 
Q 49.8125 -1.421875 42 -1.421875 
Q 24.90625 -1.421875 15.25 8.5625 
Q 5.609375 18.5625 5.609375 36.375 
Q 5.609375 54.25 15.25 64.234375 
Q 24.90625 74.21875 42 74.21875 
Q 49.125 74.21875 55.546875 72.453125 
Q 61.96875 70.703125 67.390625 67.28125 
L 67.390625 56.78125 
Q 61.921875 61.421875 55.765625 63.765625 
Q 49.609375 66.109375 42.828125 66.109375 
Q 29.4375 66.109375 22.71875 58.640625 
Q 16.015625 51.171875 16.015625 36.375 
Q 16.015625 21.625 22.71875 14.15625 
Q 29.4375 6.6875 42.828125 6.6875 
Q 48.046875 6.6875 52.140625 7.59375 
Q 56.25 8.5 59.515625 10.40625 
z
" id="DejaVuSans-71"/>
       <path d="M 45.40625 46.390625 
L 45.40625 75.984375 
L 54.390625 75.984375 
L 54.390625 0 
L 45.40625 0 
L 45.40625 8.203125 
Q 42.578125 3.328125 38.25 0.953125 
Q 33.9375 -1.421875 27.875 -1.421875 
Q 17.96875 -1.421875 11.734375 6.484375 
Q 5.515625 14.40625 5.515625 27.296875 
Q 5.515625 40.1875 11.734375 48.09375 
Q 17.96875 56 27.875 56 
Q 33.9375 56 38.25 53.625 
Q 42.578125 51.265625 45.40625 46.390625 
z
M 14.796875 27.296875 
Q 14.796875 17.390625 18.875 11.75 
Q 22.953125 6.109375 30.078125 6.109375 
Q 37.203125 6.109375 41.296875 11.75 
Q 45.40625 17.390625 45.40625 27.296875 
Q 45.40625 37.203125 41.296875 42.84375 
Q 37.203125 48.484375 30.078125 48.484375 
Q 22.953125 48.484375 18.875 42.84375 
Q 14.796875 37.203125 14.796875 27.296875 
z
" id="DejaVuSans-100"/>
      </defs>
      <use xlink:href="#DejaVuSans-71"/>
      <use x="77.490234" xlink:href="#DejaVuSans-114"/>
      <use x="116.353516" xlink:href="#DejaVuSans-111"/>
      <use x="177.535156" xlink:href="#DejaVuSans-117"/>
      <use x="240.914062" xlink:href="#DejaVuSans-110"/>
      <use x="304.292969" xlink:href="#DejaVuSans-100"/>
      <use x="367.769531" xlink:href="#DejaVuSans-32"/>
      <use x="399.556641" xlink:href="#DejaVuSans-84"/>
      <use x="445.890625" xlink:href="#DejaVuSans-114"/>
      <use x="487.003906" xlink:href="#DejaVuSans-117"/>
      <use x="550.382812" xlink:href="#DejaVuSans-116"/>
      <use x="589.591797" xlink:href="#DejaVuSans-104"/>
     </g>
    </g>
    <g id="line2d_20">
     <path d="M 99 70.976562 
L 119 70.976562 
" style="fill:none;stroke:#c44e52;stroke-linecap:round;stroke-width:1.2;"/>
    </g>
    <g id="line2d_21"/>
    <g id="text_19">
     <!-- Out-of-sample Forecast -->
     <g style="fill:#262626;" transform="translate(127 74.476562)scale(0.1 -0.1)">
      <defs>
       <path d="M 39.40625 66.21875 
Q 28.65625 66.21875 22.328125 58.203125 
Q 16.015625 50.203125 16.015625 36.375 
Q 16.015625 22.609375 22.328125 14.59375 
Q 28.65625 6.59375 39.40625 6.59375 
Q 50.140625 6.59375 56.421875 14.59375 
Q 62.703125 22.609375 62.703125 36.375 
Q 62.703125 50.203125 56.421875 58.203125 
Q 50.140625 66.21875 39.40625 66.21875 
z
M 39.40625 74.21875 
Q 54.734375 74.21875 63.90625 63.9375 
Q 73.09375 53.65625 73.09375 36.375 
Q 73.09375 19.140625 63.90625 8.859375 
Q 54.734375 -1.421875 39.40625 -1.421875 
Q 24.03125 -1.421875 14.8125 8.828125 
Q 5.609375 19.09375 5.609375 36.375 
Q 5.609375 53.65625 14.8125 63.9375 
Q 24.03125 74.21875 39.40625 74.21875 
z
" id="DejaVuSans-79"/>
       <path d="M 4.890625 31.390625 
L 31.203125 31.390625 
L 31.203125 23.390625 
L 4.890625 23.390625 
z
" id="DejaVuSans-45"/>
       <path d="M 37.109375 75.984375 
L 37.109375 68.5 
L 28.515625 68.5 
Q 23.6875 68.5 21.796875 66.546875 
Q 19.921875 64.59375 19.921875 59.515625 
L 19.921875 54.6875 
L 34.71875 54.6875 
L 34.71875 47.703125 
L 19.921875 47.703125 
L 19.921875 0 
L 10.890625 0 
L 10.890625 47.703125 
L 2.296875 47.703125 
L 2.296875 54.6875 
L 10.890625 54.6875 
L 10.890625 58.5 
Q 10.890625 67.625 15.140625 71.796875 
Q 19.390625 75.984375 28.609375 75.984375 
z
" id="DejaVuSans-102"/>
       <path d="M 9.8125 72.90625 
L 51.703125 72.90625 
L 51.703125 64.59375 
L 19.671875 64.59375 
L 19.671875 43.109375 
L 48.578125 43.109375 
L 48.578125 34.8125 
L 19.671875 34.8125 
L 19.671875 0 
L 9.8125 0 
z
" id="DejaVuSans-70"/>
       <path d="M 48.78125 52.59375 
L 48.78125 44.1875 
Q 44.96875 46.296875 41.140625 47.34375 
Q 37.3125 48.390625 33.40625 48.390625 
Q 24.65625 48.390625 19.8125 42.84375 
Q 14.984375 37.3125 14.984375 27.296875 
Q 14.984375 17.28125 19.8125 11.734375 
Q 24.65625 6.203125 33.40625 6.203125 
Q 37.3125 6.203125 41.140625 7.25 
Q 44.96875 8.296875 48.78125 10.40625 
L 48.78125 2.09375 
Q 45.015625 0.34375 40.984375 -0.53125 
Q 36.96875 -1.421875 32.421875 -1.421875 
Q 20.0625 -1.421875 12.78125 6.34375 
Q 5.515625 14.109375 5.515625 27.296875 
Q 5.515625 40.671875 12.859375 48.328125 
Q 20.21875 56 33.015625 56 
Q 37.15625 56 41.109375 55.140625 
Q 45.0625 54.296875 48.78125 52.59375 
z
" id="DejaVuSans-99"/>
      </defs>
      <use xlink:href="#DejaVuSans-79"/>
      <use x="78.710938" xlink:href="#DejaVuSans-117"/>
      <use x="142.089844" xlink:href="#DejaVuSans-116"/>
      <use x="181.298828" xlink:href="#DejaVuSans-45"/>
      <use x="219.257812" xlink:href="#DejaVuSans-111"/>
      <use x="280.439453" xlink:href="#DejaVuSans-102"/>
      <use x="310.144531" xlink:href="#DejaVuSans-45"/>
      <use x="346.228516" xlink:href="#DejaVuSans-115"/>
      <use x="398.328125" xlink:href="#DejaVuSans-97"/>
      <use x="459.607422" xlink:href="#DejaVuSans-109"/>
      <use x="557.019531" xlink:href="#DejaVuSans-112"/>
      <use x="620.496094" xlink:href="#DejaVuSans-108"/>
      <use x="648.279297" xlink:href="#DejaVuSans-101"/>
      <use x="709.802734" xlink:href="#DejaVuSans-32"/>
      <use x="741.589844" xlink:href="#DejaVuSans-70"/>
      <use x="795.484375" xlink:href="#DejaVuSans-111"/>
      <use x="856.666016" xlink:href="#DejaVuSans-114"/>
      <use x="895.529297" xlink:href="#DejaVuSans-101"/>
      <use x="957.052734" xlink:href="#DejaVuSans-99"/>
      <use x="1012.033203" xlink:href="#DejaVuSans-97"/>
      <use x="1073.3125" xlink:href="#DejaVuSans-115"/>
      <use x="1125.412109" xlink:href="#DejaVuSans-116"/>
     </g>
    </g>
   </g>
  </g>
 </g>
 <defs>
  <clipPath id="pf00d0a11bc">
   <rect height="271.8" width="558" x="90" y="43.2"/>
  </clipPath>
 </defs>
</svg>
