<?xml version="1.0" encoding="utf-8" standalone="no"?>
<!DOCTYPE svg PUBLIC "-//W3C//DTD SVG 1.1//EN"
  "http://www.w3.org/Graphics/SVG/1.1/DTD/svg11.dtd">
<!-- Created with matplotlib (https://matplotlib.org/) -->
<svg height="360pt" version="1.1" viewBox="0 0 720 360" width="720pt" xmlns="http://www.w3.org/2000/svg" xmlns:xlink="http://www.w3.org/1999/xlink">
 <metadata>
  <rdf:RDF xmlns:cc="http://creativecommons.org/ns#" xmlns:dc="http://purl.org/dc/elements/1.1/" xmlns:rdf="http://www.w3.org/1999/02/22-rdf-syntax-ns#">
   <cc:Work>
    <dc:type rdf:resource="http://purl.org/dc/dcmitype/StillImage"/>
    <dc:date>2021-01-29T10:02:55.099237</dc:date>
    <dc:format>image/svg+xml</dc:format>
    <dc:creator>
     <cc:Agent>
      <dc:title>Matplotlib v3.3.1, https://matplotlib.org/</dc:title>
     </cc:Agent>
    </dc:creator>
   </cc:Work>
  </rdf:RDF>
 </metadata>
 <defs>
  <style type="text/css">*{stroke-linecap:butt;stroke-linejoin:round;}</style>
 </defs>
 <g id="figure_1">
  <g id="patch_1">
   <path d="M 0 360 
L 720 360 
L 720 0 
L 0 0 
z
" style="fill:#ffffff;"/>
  </g>
  <g id="axes_1">
   <g id="patch_2">
    <path d="M 90 315 
L 648 315 
L 648 43.2 
L 90 43.2 
z
" style="fill:#ffffff;"/>
   </g>
   <g id="matplotlib.axis_1">
    <g id="xtick_1">
     <g id="line2d_1">
      <defs>
       <path d="M 0 0 
L 0 3 
" id="m028493f2c7" style="stroke:#262626;"/>
      </defs>
      <g>
       <use style="fill:#262626;stroke:#262626;" x="90" xlink:href="#m028493f2c7" y="315"/>
      </g>
     </g>
     <g id="text_1">
      <!-- 0 -->
      <g style="fill:#262626;" transform="translate(86.81875 329.098437)scale(0.1 -0.1)">
       <defs>
        <path d="M 31.78125 66.40625 
Q 24.171875 66.40625 20.328125 58.90625 
Q 16.5 51.421875 16.5 36.375 
Q 16.5 21.390625 20.328125 13.890625 
Q 24.171875 6.390625 31.78125 6.390625 
Q 39.453125 6.390625 43.28125 13.890625 
Q 47.125 21.390625 47.125 36.375 
Q 47.125 51.421875 43.28125 58.90625 
Q 39.453125 66.40625 31.78125 66.40625 
z
M 31.78125 74.21875 
Q 44.046875 74.21875 50.515625 64.515625 
Q 56.984375 54.828125 56.984375 36.375 
Q 56.984375 17.96875 50.515625 8.265625 
Q 44.046875 -1.421875 31.78125 -1.421875 
Q 19.53125 -1.421875 13.0625 8.265625 
Q 6.59375 17.96875 6.59375 36.375 
Q 6.59375 54.828125 13.0625 64.515625 
Q 19.53125 74.21875 31.78125 74.21875 
z
" id="DejaVuSans-48"/>
       </defs>
       <use xlink:href="#DejaVuSans-48"/>
      </g>
     </g>
    </g>
    <g id="xtick_2">
     <g id="line2d_2">
      <g>
       <use style="fill:#262626;stroke:#262626;" x="167.5" xlink:href="#m028493f2c7" y="315"/>
      </g>
     </g>
     <g id="text_2">
      <!-- 50 -->
      <g style="fill:#262626;" transform="translate(161.1375 329.098437)scale(0.1 -0.1)">
       <defs>
        <path d="M 10.796875 72.90625 
L 49.515625 72.90625 
L 49.515625 64.59375 
L 19.828125 64.59375 
L 19.828125 46.734375 
Q 21.96875 47.46875 24.109375 47.828125 
Q 26.265625 48.1875 28.421875 48.1875 
Q 40.625 48.1875 47.75 41.5 
Q 54.890625 34.8125 54.890625 23.390625 
Q 54.890625 11.625 47.5625 5.09375 
Q 40.234375 -1.421875 26.90625 -1.421875 
Q 22.3125 -1.421875 17.546875 -0.640625 
Q 12.796875 0.140625 7.71875 1.703125 
L 7.71875 11.625 
Q 12.109375 9.234375 16.796875 8.0625 
Q 21.484375 6.890625 26.703125 6.890625 
Q 35.15625 6.890625 40.078125 11.328125 
Q 45.015625 15.765625 45.015625 23.390625 
Q 45.015625 31 40.078125 35.4375 
Q 35.15625 39.890625 26.703125 39.890625 
Q 22.75 39.890625 18.8125 39.015625 
Q 14.890625 38.140625 10.796875 36.28125 
z
" id="DejaVuSans-53"/>
       </defs>
       <use xlink:href="#DejaVuSans-53"/>
       <use x="63.623047" xlink:href="#DejaVuSans-48"/>
      </g>
     </g>
    </g>
    <g id="xtick_3">
     <g id="line2d_3">
      <g>
       <use style="fill:#262626;stroke:#262626;" x="245" xlink:href="#m028493f2c7" y="315"/>
      </g>
     </g>
     <g id="text_3">
      <!-- 100 -->
      <g style="fill:#262626;" transform="translate(235.45625 329.098437)scale(0.1 -0.1)">
       <defs>
        <path d="M 12.40625 8.296875 
L 28.515625 8.296875 
L 28.515625 63.921875 
L 10.984375 60.40625 
L 10.984375 69.390625 
L 28.421875 72.90625 
L 38.28125 72.90625 
L 38.28125 8.296875 
L 54.390625 8.296875 
L 54.390625 0 
L 12.40625 0 
z
" id="DejaVuSans-49"/>
       </defs>
       <use xlink:href="#DejaVuSans-49"/>
       <use x="63.623047" xlink:href="#DejaVuSans-48"/>
       <use x="127.246094" xlink:href="#DejaVuSans-48"/>
      </g>
     </g>
    </g>
    <g id="xtick_4">
     <g id="line2d_4">
      <g>
       <use style="fill:#262626;stroke:#262626;" x="322.5" xlink:href="#m028493f2c7" y="315"/>
      </g>
     </g>
     <g id="text_4">
      <!-- 150 -->
      <g style="fill:#262626;" transform="translate(312.95625 329.098437)scale(0.1 -0.1)">
       <use xlink:href="#DejaVuSans-49"/>
       <use x="63.623047" xlink:href="#DejaVuSans-53"/>
       <use x="127.246094" xlink:href="#DejaVuSans-48"/>
      </g>
     </g>
    </g>
    <g id="xtick_5">
     <g id="line2d_5">
      <g>
       <use style="fill:#262626;stroke:#262626;" x="400" xlink:href="#m028493f2c7" y="315"/>
      </g>
     </g>
     <g id="text_5">
      <!-- 200 -->
      <g style="fill:#262626;" transform="translate(390.45625 329.098437)scale(0.1 -0.1)">
       <defs>
        <path d="M 19.1875 8.296875 
L 53.609375 8.296875 
L 53.609375 0 
L 7.328125 0 
L 7.328125 8.296875 
Q 12.9375 14.109375 22.625 23.890625 
Q 32.328125 33.6875 34.8125 36.53125 
Q 39.546875 41.84375 41.421875 45.53125 
Q 43.3125 49.21875 43.3125 52.78125 
Q 43.3125 58.59375 39.234375 62.25 
Q 35.15625 65.921875 28.609375 65.921875 
Q 23.96875 65.921875 18.8125 64.3125 
Q 13.671875 62.703125 7.8125 59.421875 
L 7.8125 69.390625 
Q 13.765625 71.78125 18.9375 73 
Q 24.125 74.21875 28.421875 74.21875 
Q 39.75 74.21875 46.484375 68.546875 
Q 53.21875 62.890625 53.21875 53.421875 
Q 53.21875 48.921875 51.53125 44.890625 
Q 49.859375 40.875 45.40625 35.40625 
Q 44.1875 33.984375 37.640625 27.21875 
Q 31.109375 20.453125 19.1875 8.296875 
z
" id="DejaVuSans-50"/>
       </defs>
       <use xlink:href="#DejaVuSans-50"/>
       <use x="63.623047" xlink:href="#DejaVuSans-48"/>
       <use x="127.246094" xlink:href="#DejaVuSans-48"/>
      </g>
     </g>
    </g>
    <g id="xtick_6">
     <g id="line2d_6">
      <g>
       <use style="fill:#262626;stroke:#262626;" x="477.5" xlink:href="#m028493f2c7" y="315"/>
      </g>
     </g>
     <g id="text_6">
      <!-- 250 -->
      <g style="fill:#262626;" transform="translate(467.95625 329.098437)scale(0.1 -0.1)">
       <use xlink:href="#DejaVuSans-50"/>
       <use x="63.623047" xlink:href="#DejaVuSans-53"/>
       <use x="127.246094" xlink:href="#DejaVuSans-48"/>
      </g>
     </g>
    </g>
    <g id="xtick_7">
     <g id="line2d_7">
      <g>
       <use style="fill:#262626;stroke:#262626;" x="555" xlink:href="#m028493f2c7" y="315"/>
      </g>
     </g>
     <g id="text_7">
      <!-- 300 -->
      <g style="fill:#262626;" transform="translate(545.45625 329.098437)scale(0.1 -0.1)">
       <defs>
        <path d="M 40.578125 39.3125 
Q 47.65625 37.796875 51.625 33 
Q 55.609375 28.21875 55.609375 21.1875 
Q 55.609375 10.40625 48.1875 4.484375 
Q 40.765625 -1.421875 27.09375 -1.421875 
Q 22.515625 -1.421875 17.65625 -0.515625 
Q 12.796875 0.390625 7.625 2.203125 
L 7.625 11.71875 
Q 11.71875 9.328125 16.59375 8.109375 
Q 21.484375 6.890625 26.8125 6.890625 
Q 36.078125 6.890625 40.9375 10.546875 
Q 45.796875 14.203125 45.796875 21.1875 
Q 45.796875 27.640625 41.28125 31.265625 
Q 36.765625 34.90625 28.71875 34.90625 
L 20.21875 34.90625 
L 20.21875 43.015625 
L 29.109375 43.015625 
Q 36.375 43.015625 40.234375 45.921875 
Q 44.09375 48.828125 44.09375 54.296875 
Q 44.09375 59.90625 40.109375 62.90625 
Q 36.140625 65.921875 28.71875 65.921875 
Q 24.65625 65.921875 20.015625 65.03125 
Q 15.375 64.15625 9.8125 62.3125 
L 9.8125 71.09375 
Q 15.4375 72.65625 20.34375 73.4375 
Q 25.25 74.21875 29.59375 74.21875 
Q 40.828125 74.21875 47.359375 69.109375 
Q 53.90625 64.015625 53.90625 55.328125 
Q 53.90625 49.265625 50.4375 45.09375 
Q 46.96875 40.921875 40.578125 39.3125 
z
" id="DejaVuSans-51"/>
       </defs>
       <use xlink:href="#DejaVuSans-51"/>
       <use x="63.623047" xlink:href="#DejaVuSans-48"/>
       <use x="127.246094" xlink:href="#DejaVuSans-48"/>
      </g>
     </g>
    </g>
    <g id="xtick_8">
     <g id="line2d_8">
      <g>
       <use style="fill:#262626;stroke:#262626;" x="632.5" xlink:href="#m028493f2c7" y="315"/>
      </g>
     </g>
     <g id="text_8">
      <!-- 350 -->
      <g style="fill:#262626;" transform="translate(622.95625 329.098437)scale(0.1 -0.1)">
       <use xlink:href="#DejaVuSans-51"/>
       <use x="63.623047" xlink:href="#DejaVuSans-53"/>
       <use x="127.246094" xlink:href="#DejaVuSans-48"/>
      </g>
     </g>
    </g>
    <g id="text_9">
     <!-- Time -->
     <g style="fill:#262626;" transform="translate(354.319687 344.29625)scale(0.12 -0.12)">
      <defs>
       <path d="M -0.296875 72.90625 
L 61.375 72.90625 
L 61.375 64.59375 
L 35.5 64.59375 
L 35.5 0 
L 25.59375 0 
L 25.59375 64.59375 
L -0.296875 64.59375 
z
" id="DejaVuSans-84"/>
       <path d="M 9.421875 54.6875 
L 18.40625 54.6875 
L 18.40625 0 
L 9.421875 0 
z
M 9.421875 75.984375 
L 18.40625 75.984375 
L 18.40625 64.59375 
L 9.421875 64.59375 
z
" id="DejaVuSans-105"/>
       <path d="M 52 44.1875 
Q 55.375 50.25 60.0625 53.125 
Q 64.75 56 71.09375 56 
Q 79.640625 56 84.28125 50.015625 
Q 88.921875 44.046875 88.921875 33.015625 
L 88.921875 0 
L 79.890625 0 
L 79.890625 32.71875 
Q 79.890625 40.578125 77.09375 44.375 
Q 74.3125 48.1875 68.609375 48.1875 
Q 61.625 48.1875 57.5625 43.546875 
Q 53.515625 38.921875 53.515625 30.90625 
L 53.515625 0 
L 44.484375 0 
L 44.484375 32.71875 
Q 44.484375 40.625 41.703125 44.40625 
Q 38.921875 48.1875 33.109375 48.1875 
Q 26.21875 48.1875 22.15625 43.53125 
Q 18.109375 38.875 18.109375 30.90625 
L 18.109375 0 
L 9.078125 0 
L 9.078125 54.6875 
L 18.109375 54.6875 
L 18.109375 46.1875 
Q 21.1875 51.21875 25.484375 53.609375 
Q 29.78125 56 35.6875 56 
Q 41.65625 56 45.828125 52.96875 
Q 50 49.953125 52 44.1875 
z
" id="DejaVuSans-109"/>
       <path d="M 56.203125 29.59375 
L 56.203125 25.203125 
L 14.890625 25.203125 
Q 15.484375 15.921875 20.484375 11.0625 
Q 25.484375 6.203125 34.421875 6.203125 
Q 39.59375 6.203125 44.453125 7.46875 
Q 49.3125 8.734375 54.109375 11.28125 
L 54.109375 2.78125 
Q 49.265625 0.734375 44.1875 -0.34375 
Q 39.109375 -1.421875 33.890625 -1.421875 
Q 20.796875 -1.421875 13.15625 6.1875 
Q 5.515625 13.8125 5.515625 26.8125 
Q 5.515625 40.234375 12.765625 48.109375 
Q 20.015625 56 32.328125 56 
Q 43.359375 56 49.78125 48.890625 
Q 56.203125 41.796875 56.203125 29.59375 
z
M 47.21875 32.234375 
Q 47.125 39.59375 43.09375 43.984375 
Q 39.0625 48.390625 32.421875 48.390625 
Q 24.90625 48.390625 20.390625 44.140625 
Q 15.875 39.890625 15.1875 32.171875 
z
" id="DejaVuSans-101"/>
      </defs>
      <use xlink:href="#DejaVuSans-84"/>
      <use x="57.958984" xlink:href="#DejaVuSans-105"/>
      <use x="85.742188" xlink:href="#DejaVuSans-109"/>
      <use x="183.154297" xlink:href="#DejaVuSans-101"/>
     </g>
    </g>
   </g>
   <g id="matplotlib.axis_2">
    <g id="ytick_1">
     <g id="line2d_9">
      <defs>
       <path d="M 0 0 
L -3 0 
" id="m255328a91a" style="stroke:#262626;"/>
      </defs>
      <g>
       <use style="fill:#262626;stroke:#262626;" x="90" xlink:href="#m255328a91a" y="275.616885"/>
      </g>
     </g>
     <g id="text_10">
      <!-- 408 -->
      <g style="fill:#262626;" transform="translate(64.4125 279.416104)scale(0.1 -0.1)">
       <defs>
        <path d="M 37.796875 64.3125 
L 12.890625 25.390625 
L 37.796875 25.390625 
z
M 35.203125 72.90625 
L 47.609375 72.90625 
L 47.609375 25.390625 
L 58.015625 25.390625 
L 58.015625 17.1875 
L 47.609375 17.1875 
L 47.609375 0 
L 37.796875 0 
L 37.796875 17.1875 
L 4.890625 17.1875 
L 4.890625 26.703125 
z
" id="DejaVuSans-52"/>
        <path d="M 31.78125 34.625 
Q 24.75 34.625 20.71875 30.859375 
Q 16.703125 27.09375 16.703125 20.515625 
Q 16.703125 13.921875 20.71875 10.15625 
Q 24.75 6.390625 31.78125 6.390625 
Q 38.8125 6.390625 42.859375 10.171875 
Q 46.921875 13.96875 46.921875 20.515625 
Q 46.921875 27.09375 42.890625 30.859375 
Q 38.875 34.625 31.78125 34.625 
z
M 21.921875 38.8125 
Q 15.578125 40.375 12.03125 44.71875 
Q 8.5 49.078125 8.5 55.328125 
Q 8.5 64.0625 14.71875 69.140625 
Q 20.953125 74.21875 31.78125 74.21875 
Q 42.671875 74.21875 48.875 69.140625 
Q 55.078125 64.0625 55.078125 55.328125 
Q 55.078125 49.078125 51.53125 44.71875 
Q 48 40.375 41.703125 38.8125 
Q 48.828125 37.15625 52.796875 32.3125 
Q 56.78125 27.484375 56.78125 20.515625 
Q 56.78125 9.90625 50.3125 4.234375 
Q 43.84375 -1.421875 31.78125 -1.421875 
Q 19.734375 -1.421875 13.25 4.234375 
Q 6.78125 9.90625 6.78125 20.515625 
Q 6.78125 27.484375 10.78125 32.3125 
Q 14.796875 37.15625 21.921875 38.8125 
z
M 18.3125 54.390625 
Q 18.3125 48.734375 21.84375 45.5625 
Q 25.390625 42.390625 31.78125 42.390625 
Q 38.140625 42.390625 41.71875 45.5625 
Q 45.3125 48.734375 45.3125 54.390625 
Q 45.3125 60.0625 41.71875 63.234375 
Q 38.140625 66.40625 31.78125 66.40625 
Q 25.390625 66.40625 21.84375 63.234375 
Q 18.3125 60.0625 18.3125 54.390625 
z
" id="DejaVuSans-56"/>
       </defs>
       <use xlink:href="#DejaVuSans-52"/>
       <use x="63.623047" xlink:href="#DejaVuSans-48"/>
       <use x="127.246094" xlink:href="#DejaVuSans-56"/>
      </g>
     </g>
    </g>
    <g id="ytick_2">
     <g id="line2d_10">
      <g>
       <use style="fill:#262626;stroke:#262626;" x="90" xlink:href="#m255328a91a" y="232.969145"/>
      </g>
     </g>
     <g id="text_11">
      <!-- 410 -->
      <g style="fill:#262626;" transform="translate(64.4125 236.768364)scale(0.1 -0.1)">
       <use xlink:href="#DejaVuSans-52"/>
       <use x="63.623047" xlink:href="#DejaVuSans-49"/>
       <use x="127.246094" xlink:href="#DejaVuSans-48"/>
      </g>
     </g>
    </g>
    <g id="ytick_3">
     <g id="line2d_11">
      <g>
       <use style="fill:#262626;stroke:#262626;" x="90" xlink:href="#m255328a91a" y="190.321405"/>
      </g>
     </g>
     <g id="text_12">
      <!-- 412 -->
      <g style="fill:#262626;" transform="translate(64.4125 194.120623)scale(0.1 -0.1)">
       <use xlink:href="#DejaVuSans-52"/>
       <use x="63.623047" xlink:href="#DejaVuSans-49"/>
       <use x="127.246094" xlink:href="#DejaVuSans-50"/>
      </g>
     </g>
    </g>
    <g id="ytick_4">
     <g id="line2d_12">
      <g>
       <use style="fill:#262626;stroke:#262626;" x="90" xlink:href="#m255328a91a" y="147.673664"/>
      </g>
     </g>
     <g id="text_13">
      <!-- 414 -->
      <g style="fill:#262626;" transform="translate(64.4125 151.472883)scale(0.1 -0.1)">
       <use xlink:href="#DejaVuSans-52"/>
       <use x="63.623047" xlink:href="#DejaVuSans-49"/>
       <use x="127.246094" xlink:href="#DejaVuSans-52"/>
      </g>
     </g>
    </g>
    <g id="ytick_5">
     <g id="line2d_13">
      <g>
       <use style="fill:#262626;stroke:#262626;" x="90" xlink:href="#m255328a91a" y="105.025924"/>
      </g>
     </g>
     <g id="text_14">
      <!-- 416 -->
      <g style="fill:#262626;" transform="translate(64.4125 108.825143)scale(0.1 -0.1)">
       <defs>
        <path d="M 33.015625 40.375 
Q 26.375 40.375 22.484375 35.828125 
Q 18.609375 31.296875 18.609375 23.390625 
Q 18.609375 15.53125 22.484375 10.953125 
Q 26.375 6.390625 33.015625 6.390625 
Q 39.65625 6.390625 43.53125 10.953125 
Q 47.40625 15.53125 47.40625 23.390625 
Q 47.40625 31.296875 43.53125 35.828125 
Q 39.65625 40.375 33.015625 40.375 
z
M 52.59375 71.296875 
L 52.59375 62.3125 
Q 48.875 64.0625 45.09375 64.984375 
Q 41.3125 65.921875 37.59375 65.921875 
Q 27.828125 65.921875 22.671875 59.328125 
Q 17.53125 52.734375 16.796875 39.40625 
Q 19.671875 43.65625 24.015625 45.921875 
Q 28.375 48.1875 33.59375 48.1875 
Q 44.578125 48.1875 50.953125 41.515625 
Q 57.328125 34.859375 57.328125 23.390625 
Q 57.328125 12.15625 50.6875 5.359375 
Q 44.046875 -1.421875 33.015625 -1.421875 
Q 20.359375 -1.421875 13.671875 8.265625 
Q 6.984375 17.96875 6.984375 36.375 
Q 6.984375 53.65625 15.1875 63.9375 
Q 23.390625 74.21875 37.203125 74.21875 
Q 40.921875 74.21875 44.703125 73.484375 
Q 48.484375 72.75 52.59375 71.296875 
z
" id="DejaVuSans-54"/>
       </defs>
       <use xlink:href="#DejaVuSans-52"/>
       <use x="63.623047" xlink:href="#DejaVuSans-49"/>
       <use x="127.246094" xlink:href="#DejaVuSans-54"/>
      </g>
     </g>
    </g>
    <g id="ytick_6">
     <g id="line2d_14">
      <g>
       <use style="fill:#262626;stroke:#262626;" x="90" xlink:href="#m255328a91a" y="62.378184"/>
      </g>
     </g>
     <g id="text_15">
      <!-- 418 -->
      <g style="fill:#262626;" transform="translate(64.4125 66.177403)scale(0.1 -0.1)">
       <use xlink:href="#DejaVuSans-52"/>
       <use x="63.623047" xlink:href="#DejaVuSans-49"/>
       <use x="127.246094" xlink:href="#DejaVuSans-56"/>
      </g>
     </g>
    </g>
    <g id="text_16">
     <!-- Y -->
     <g style="fill:#262626;" transform="translate(57.916875 182.764687)rotate(-90)scale(0.12 -0.12)">
      <defs>
       <path d="M -0.203125 72.90625 
L 10.40625 72.90625 
L 30.609375 42.921875 
L 50.6875 72.90625 
L 61.28125 72.90625 
L 35.5 34.71875 
L 35.5 0 
L 25.59375 0 
L 25.59375 34.71875 
z
" id="DejaVuSans-89"/>
      </defs>
      <use xlink:href="#DejaVuSans-89"/>
     </g>
    </g>
   </g>
   <g id="PolyCollection_1">
    <defs>
     <path d="M 90 -107.072489 
L 90 -144.915909 
L 91.55 -140.842 
L 93.1 -140.851052 
L 94.65 -138.796411 
L 96.2 -138.373941 
L 97.75 -136.68149 
L 99.3 -134.174524 
L 100.85 -134.66603 
L 102.4 -132.023307 
L 103.95 -129.992519 
L 105.5 -129.499964 
L 107.05 -127.250576 
L 108.6 -126.767647 
L 110.15 -125.559819 
L 111.7 -122.651839 
L 113.25 -123.349654 
L 114.8 -122.97674 
L 116.35 -120.51444 
L 117.9 -120.15843 
L 119.45 -117.595342 
L 121 -116.905236 
L 122.55 -115.664566 
L 124.1 -113.782703 
L 125.65 -111.475851 
L 127.2 -110.869026 
L 128.75 -109.987008 
L 130.3 -110.097591 
L 131.85 -109.243867 
L 133.4 -106.514858 
L 134.95 -106.893151 
L 136.5 -106.508322 
L 138.05 -105.980057 
L 139.6 -102.487268 
L 141.15 -103.742992 
L 142.7 -102.439754 
L 144.25 -100.646823 
L 145.8 -99.764364 
L 147.35 -101.068005 
L 148.9 -99.88656 
L 150.45 -100.056484 
L 152 -100.785353 
L 153.55 -99.924004 
L 155.1 -98.693551 
L 156.65 -97.176573 
L 158.2 -97.811969 
L 159.75 -98.236817 
L 161.3 -96.066372 
L 162.85 -98.545635 
L 164.4 -96.178056 
L 165.95 -96.538049 
L 167.5 -94.72673 
L 169.05 -94.109093 
L 170.6 -96.170684 
L 172.15 -96.446164 
L 173.7 -94.35847 
L 175.25 -95.213367 
L 176.8 -96.028256 
L 178.35 -96.816645 
L 179.9 -97.519948 
L 181.45 -97.163045 
L 183 -100.150938 
L 184.55 -99.100338 
L 186.1 -98.353751 
L 187.65 -98.952262 
L 189.2 -99.940408 
L 190.75 -100.923268 
L 192.3 -100.458679 
L 193.85 -102.14888 
L 195.4 -104.276416 
L 196.95 -103.895877 
L 198.5 -104.866543 
L 200.05 -104.979426 
L 201.6 -106.396733 
L 203.15 -107.138653 
L 204.7 -109.777293 
L 206.25 -108.815577 
L 207.8 -111.381034 
L 209.35 -110.644797 
L 210.9 -111.441185 
L 212.45 -112.594737 
L 214 -113.737219 
L 215.55 -114.274308 
L 217.1 -115.608508 
L 218.65 -116.064404 
L 220.2 -117.648515 
L 221.75 -118.483338 
L 223.3 -119.111245 
L 224.85 -118.441712 
L 226.4 -121.05569 
L 227.95 -121.677354 
L 229.5 -123.905786 
L 231.05 -124.342106 
L 232.6 -125.52566 
L 234.15 -126.506685 
L 235.7 -129.536466 
L 237.25 -130.420402 
L 238.8 -131.036797 
L 240.35 -132.28927 
L 241.9 -131.908724 
L 243.45 -133.15072 
L 245 -136.20933 
L 246.55 -136.037991 
L 248.1 -137.0114 
L 249.65 -136.747194 
L 251.2 -140.634367 
L 252.75 -141.642876 
L 254.3 -142.639703 
L 255.85 -142.393986 
L 257.4 -144.365931 
L 258.95 -143.686873 
L 260.5 -146.272351 
L 262.05 -147.756428 
L 263.6 -147.423934 
L 265.15 -149.971286 
L 266.7 -150.704406 
L 268.25 -151.899159 
L 269.8 -154.093555 
L 271.35 -152.443143 
L 272.9 -152.965888 
L 274.45 -154.933595 
L 276 -155.370704 
L 277.55 -157.055281 
L 279.1 -156.570257 
L 280.65 -158.523599 
L 282.2 -159.68919 
L 283.75 -160.246306 
L 285.3 -160.622611 
L 286.85 -161.530415 
L 288.4 -160.431474 
L 289.95 -163.828208 
L 291.5 -164.150342 
L 293.05 -165.850818 
L 294.6 -165.861385 
L 296.15 -167.433222 
L 297.7 -168.91514 
L 299.25 -168.539033 
L 300.8 -169.216305 
L 302.35 -170.063764 
L 303.9 -171.69868 
L 305.45 -173.80183 
L 307 -173.359453 
L 308.55 -174.090272 
L 310.1 -176.080197 
L 311.65 -176.265359 
L 313.2 -178.023926 
L 314.75 -176.465346 
L 316.3 -177.743102 
L 317.85 -179.381303 
L 319.4 -178.283336 
L 320.95 -181.462296 
L 322.5 -180.749911 
L 324.05 -182.464962 
L 325.6 -182.051062 
L 327.15 -183.495223 
L 328.7 -183.534965 
L 330.25 -184.868717 
L 331.8 -184.488809 
L 333.35 -185.472636 
L 334.9 -185.644943 
L 336.45 -186.130844 
L 338 -187.598809 
L 339.55 -188.382587 
L 341.1 -189.16662 
L 342.65 -189.193398 
L 344.2 -190.056354 
L 345.75 -190.941481 
L 347.3 -191.958437 
L 348.85 -192.024168 
L 350.4 -192.232468 
L 351.95 -194.799975 
L 353.5 -193.745847 
L 355.05 -194.232762 
L 356.6 -193.735253 
L 358.15 -194.046298 
L 359.7 -195.905425 
L 361.25 -197.361561 
L 362.8 -196.694636 
L 364.35 -197.984499 
L 365.9 -198.913762 
L 367.45 -198.883621 
L 369 -199.776216 
L 370.55 -199.766885 
L 372.1 -201.146827 
L 373.65 -201.45481 
L 375.2 -201.110912 
L 376.75 -201.385192 
L 378.3 -203.727832 
L 379.85 -202.441519 
L 381.4 -203.08522 
L 382.95 -202.421057 
L 384.5 -205.195461 
L 386.05 -204.512989 
L 387.6 -206.534079 
L 389.15 -206.406769 
L 390.7 -206.230501 
L 392.25 -207.525868 
L 393.8 -207.832157 
L 395.35 -210.06604 
L 396.9 -209.895086 
L 398.45 -209.950085 
L 400 -210.904648 
L 401.55 -210.135693 
L 403.1 -213.362595 
L 404.65 -212.680956 
L 406.2 -212.092594 
L 407.75 -213.441018 
L 409.3 -215.021289 
L 410.85 -214.614453 
L 412.4 -215.580428 
L 413.95 -216.807497 
L 415.5 -217.157356 
L 417.05 -217.37021 
L 418.6 -219.314276 
L 420.15 -220.34084 
L 421.7 -221.254265 
L 423.25 -221.926912 
L 424.8 -221.186571 
L 426.35 -222.530797 
L 427.9 -222.663064 
L 429.45 -225.668262 
L 431 -225.865799 
L 432.55 -225.970472 
L 434.1 -225.222897 
L 435.65 -227.674364 
L 437.2 -229.197342 
L 438.75 -230.558267 
L 440.3 -232.404899 
L 441.85 -231.501214 
L 443.4 -231.596702 
L 444.95 -233.915532 
L 446.5 -233.117333 
L 448.05 -235.918856 
L 449.6 -236.410248 
L 451.15 -237.118113 
L 452.7 -237.971813 
L 454.25 -239.547232 
L 455.8 -240.715763 
L 457.35 -242.849071 
L 458.9 -242.934636 
L 460.45 -244.134021 
L 462 -244.826407 
L 463.55 -245.823377 
L 465.1 -248.247923 
L 466.65 -246.795139 
L 468.2 -249.001451 
L 469.75 -250.595329 
L 471.3 -251.450546 
L 472.85 -253.371549 
L 474.4 -252.014343 
L 475.95 -254.059939 
L 477.5 -254.145901 
L 479.05 -254.860814 
L 480.6 -256.376291 
L 482.15 -256.627737 
L 483.7 -257.738414 
L 485.25 -257.913226 
L 486.8 -258.745453 
L 488.35 -260.407469 
L 489.9 -258.737387 
L 491.45 -259.416151 
L 493 -259.258876 
L 494.55 -262.797315 
L 496.1 -261.757616 
L 497.65 -262.685362 
L 499.2 -262.022393 
L 500.75 -261.138014 
L 502.3 -262.457219 
L 503.85 -262.262269 
L 505.4 -264.918733 
L 506.95 -261.825831 
L 508.5 -264.872857 
L 510.05 -264.445266 
L 511.6 -264.857288 
L 513.15 -265.754281 
L 514.7 -266.754847 
L 516.25 -266.322553 
L 517.8 -266.448172 
L 519.35 -265.935943 
L 520.9 -268.412447 
L 522.45 -267.11364 
L 524 -268.22012 
L 525.55 -268.849577 
L 527.1 -268.95587 
L 528.65 -267.362229 
L 530.2 -268.702093 
L 531.75 -270.116087 
L 533.3 -269.144148 
L 534.85 -268.752197 
L 536.4 -268.794541 
L 537.95 -270.362389 
L 539.5 -269.600267 
L 541.05 -267.476039 
L 542.6 -269.105407 
L 544.15 -267.161392 
L 545.7 -266.550553 
L 547.25 -268.695614 
L 548.8 -267.165119 
L 550.35 -266.595642 
L 551.9 -265.159887 
L 553.45 -265.221216 
L 555 -262.503818 
L 556.55 -263.990686 
L 558.1 -263.231905 
L 559.65 -262.495426 
L 561.2 -261.289893 
L 562.75 -261.618269 
L 564.3 -261.532836 
L 565.85 -260.362207 
L 567.4 -258.05161 
L 568.95 -256.901137 
L 570.5 -256.06732 
L 572.05 -256.272882 
L 573.6 -256.259504 
L 575.15 -256.209829 
L 576.7 -254.265512 
L 578.25 -254.055059 
L 579.8 -252.191671 
L 581.35 -250.639287 
L 582.9 -250.934218 
L 584.45 -250.887619 
L 586 -249.456138 
L 587.55 -248.778358 
L 589.1 -247.878813 
L 590.65 -247.513232 
L 592.2 -244.936574 
L 593.75 -245.194725 
L 595.3 -243.930868 
L 596.85 -242.155023 
L 598.4 -241.640409 
L 599.95 -239.435986 
L 601.5 -239.433878 
L 603.05 -237.743683 
L 604.6 -237.556893 
L 606.15 -236.575768 
L 607.7 -233.720889 
L 609.25 -232.159115 
L 610.8 -232.59601 
L 612.35 -230.830562 
L 613.9 -230.591879 
L 615.45 -227.997763 
L 617 -226.342078 
L 618.55 -224.781173 
L 620.1 -222.073653 
L 621.65 -223.166371 
L 623.2 -221.535487 
L 624.75 -221.192651 
L 626.3 -218.599138 
L 627.85 -219.998429 
L 629.4 -215.906974 
L 630.95 -215.567017 
L 632.5 -214.218947 
L 634.05 -211.949301 
L 635.6 -210.848904 
L 637.15 -210.253985 
L 638.7 -207.767861 
L 640.25 -207.880843 
L 641.8 -205.439302 
L 643.35 -204.291038 
L 644.9 -205.188396 
L 646.45 -202.286799 
L 646.45 -163.335507 
L 646.45 -163.335507 
L 644.9 -164.566052 
L 643.35 -167.041652 
L 641.8 -167.374541 
L 640.25 -169.188275 
L 638.7 -170.927685 
L 637.15 -170.908286 
L 635.6 -171.703933 
L 634.05 -173.376141 
L 632.5 -175.628036 
L 630.95 -176.640448 
L 629.4 -177.61597 
L 627.85 -179.26177 
L 626.3 -180.159959 
L 624.75 -182.498832 
L 623.2 -183.79592 
L 621.65 -184.930615 
L 620.1 -185.181902 
L 618.55 -188.249497 
L 617 -187.434133 
L 615.45 -189.449494 
L 613.9 -191.066958 
L 612.35 -193.27358 
L 610.8 -195.342013 
L 609.25 -194.982534 
L 607.7 -196.464508 
L 606.15 -198.805347 
L 604.6 -198.554509 
L 603.05 -201.332911 
L 601.5 -199.656363 
L 599.95 -202.681848 
L 598.4 -203.3855 
L 596.85 -205.340741 
L 595.3 -204.497104 
L 593.75 -205.145148 
L 592.2 -208.67211 
L 590.65 -208.621537 
L 589.1 -209.416549 
L 587.55 -211.521876 
L 586 -210.632221 
L 584.45 -211.906358 
L 582.9 -212.909764 
L 581.35 -212.977756 
L 579.8 -214.654473 
L 578.25 -216.212704 
L 576.7 -215.350344 
L 575.15 -216.171142 
L 573.6 -218.210673 
L 572.05 -217.55848 
L 570.5 -219.487994 
L 568.95 -220.418004 
L 567.4 -221.671751 
L 565.85 -221.232397 
L 564.3 -222.94968 
L 562.75 -221.635665 
L 561.2 -223.110471 
L 559.65 -223.567977 
L 558.1 -225.301956 
L 556.55 -226.036498 
L 555 -225.373604 
L 553.45 -228.336283 
L 551.9 -228.676479 
L 550.35 -228.65496 
L 548.8 -229.394938 
L 547.25 -227.907839 
L 545.7 -228.27115 
L 544.15 -229.158244 
L 542.6 -230.860883 
L 541.05 -230.678995 
L 539.5 -230.126138 
L 537.95 -230.016725 
L 536.4 -230.172959 
L 534.85 -231.889526 
L 533.3 -230.496901 
L 531.75 -230.558255 
L 530.2 -231.163662 
L 528.65 -229.379665 
L 527.1 -230.256537 
L 525.55 -232.193572 
L 524 -230.279078 
L 522.45 -228.408095 
L 520.9 -230.832259 
L 519.35 -228.184228 
L 517.8 -228.41362 
L 516.25 -227.704003 
L 514.7 -227.771453 
L 513.15 -227.739333 
L 511.6 -225.955856 
L 510.05 -226.124585 
L 508.5 -226.116041 
L 506.95 -226.522841 
L 505.4 -225.032064 
L 503.85 -225.070401 
L 502.3 -225.219159 
L 500.75 -224.005364 
L 499.2 -224.20731 
L 497.65 -224.143179 
L 496.1 -223.567175 
L 494.55 -222.666796 
L 493 -223.181668 
L 491.45 -222.133505 
L 489.9 -220.911081 
L 488.35 -221.745671 
L 486.8 -220.866034 
L 485.25 -221.41961 
L 483.7 -218.885084 
L 482.15 -219.621213 
L 480.6 -218.457988 
L 479.05 -217.777516 
L 477.5 -217.137557 
L 475.95 -215.190502 
L 474.4 -215.509636 
L 472.85 -214.581276 
L 471.3 -212.894928 
L 469.75 -210.717256 
L 468.2 -211.371639 
L 466.65 -209.635339 
L 465.1 -209.918875 
L 463.55 -207.597952 
L 462 -206.041016 
L 460.45 -205.265258 
L 458.9 -204.803366 
L 457.35 -205.09005 
L 455.8 -202.200511 
L 454.25 -201.787435 
L 452.7 -200.406137 
L 451.15 -201.068771 
L 449.6 -197.718664 
L 448.05 -197.879551 
L 446.5 -196.531997 
L 444.95 -196.11169 
L 443.4 -194.808725 
L 441.85 -193.432764 
L 440.3 -193.182095 
L 438.75 -191.822664 
L 437.2 -191.232716 
L 435.65 -189.707829 
L 434.1 -188.343253 
L 432.55 -189.547516 
L 431 -187.587903 
L 429.45 -186.362407 
L 427.9 -185.960721 
L 426.35 -185.389381 
L 424.8 -184.019466 
L 423.25 -183.798426 
L 421.7 -183.516723 
L 420.15 -180.68949 
L 418.6 -180.877771 
L 417.05 -180.113367 
L 415.5 -179.624577 
L 413.95 -178.425091 
L 412.4 -179.165252 
L 410.85 -175.53476 
L 409.3 -176.453393 
L 407.75 -177.029195 
L 406.2 -174.370232 
L 404.65 -176.430761 
L 403.1 -174.698989 
L 401.55 -174.179841 
L 400 -172.623702 
L 398.45 -172.464432 
L 396.9 -171.085682 
L 395.35 -170.088706 
L 393.8 -170.773899 
L 392.25 -170.309166 
L 390.7 -169.001371 
L 389.15 -169.685178 
L 387.6 -168.263531 
L 386.05 -167.124102 
L 384.5 -168.434895 
L 382.95 -166.56411 
L 381.4 -165.525731 
L 379.85 -165.310771 
L 378.3 -165.347691 
L 376.75 -164.385157 
L 375.2 -165.870674 
L 373.65 -163.410586 
L 372.1 -163.233694 
L 370.55 -161.89898 
L 369 -161.700164 
L 367.45 -161.864232 
L 365.9 -159.732146 
L 364.35 -160.537545 
L 362.8 -160.267907 
L 361.25 -159.307893 
L 359.7 -159.035929 
L 358.15 -156.637699 
L 356.6 -156.503343 
L 355.05 -155.771668 
L 353.5 -155.323656 
L 351.95 -156.13968 
L 350.4 -153.661243 
L 348.85 -155.128325 
L 347.3 -153.815195 
L 345.75 -153.151917 
L 344.2 -152.577773 
L 342.65 -151.648143 
L 341.1 -151.730158 
L 339.55 -149.318961 
L 338 -150.559379 
L 336.45 -148.15691 
L 334.9 -148.598549 
L 333.35 -148.29882 
L 331.8 -148.161454 
L 330.25 -147.583309 
L 328.7 -146.900759 
L 327.15 -145.245217 
L 325.6 -145.023846 
L 324.05 -142.847989 
L 322.5 -141.130046 
L 320.95 -142.959612 
L 319.4 -142.194739 
L 317.85 -141.67957 
L 316.3 -141.51274 
L 314.75 -139.916118 
L 313.2 -137.871959 
L 311.65 -139.035934 
L 310.1 -137.949774 
L 308.55 -136.973549 
L 307 -135.866476 
L 305.45 -136.22172 
L 303.9 -133.779844 
L 302.35 -132.433505 
L 300.8 -133.862723 
L 299.25 -131.267073 
L 297.7 -132.011927 
L 296.15 -130.240168 
L 294.6 -128.019593 
L 293.05 -127.748992 
L 291.5 -128.341458 
L 289.95 -127.41482 
L 288.4 -126.109745 
L 286.85 -124.349133 
L 285.3 -122.810166 
L 283.75 -122.169951 
L 282.2 -121.706362 
L 280.65 -121.241044 
L 279.1 -118.931138 
L 277.55 -119.562473 
L 276 -118.062196 
L 274.45 -116.487648 
L 272.9 -116.464065 
L 271.35 -114.691688 
L 269.8 -115.540244 
L 268.25 -113.335613 
L 266.7 -113.570975 
L 265.15 -111.488384 
L 263.6 -109.521113 
L 262.05 -109.483586 
L 260.5 -108.553965 
L 258.95 -108.636774 
L 257.4 -105.818958 
L 255.85 -105.608524 
L 254.3 -104.035123 
L 252.75 -103.585114 
L 251.2 -103.320807 
L 249.65 -100.944158 
L 248.1 -99.938439 
L 246.55 -99.056666 
L 245 -100.034031 
L 243.45 -96.671243 
L 241.9 -95.426018 
L 240.35 -95.386018 
L 238.8 -93.780558 
L 237.25 -91.571535 
L 235.7 -90.944305 
L 234.15 -90.493967 
L 232.6 -87.793057 
L 231.05 -87.654809 
L 229.5 -88.319809 
L 227.95 -85.456092 
L 226.4 -85.630821 
L 224.85 -81.836705 
L 223.3 -83.764865 
L 221.75 -79.924021 
L 220.2 -82.307687 
L 218.65 -79.211283 
L 217.1 -77.847883 
L 215.55 -77.487838 
L 214 -76.623098 
L 212.45 -75.129742 
L 210.9 -74.917071 
L 209.35 -71.950254 
L 207.8 -71.911805 
L 206.25 -72.134433 
L 204.7 -72.377536 
L 203.15 -69.627312 
L 201.6 -68.327916 
L 200.05 -68.678603 
L 198.5 -67.562296 
L 196.95 -64.833624 
L 195.4 -66.075309 
L 193.85 -63.659945 
L 192.3 -63.82967 
L 190.75 -64.276724 
L 189.2 -63.91907 
L 187.65 -61.450479 
L 186.1 -62.512232 
L 184.55 -61.940203 
L 183 -60.511006 
L 181.45 -60.29158 
L 179.9 -59.301295 
L 178.35 -58.814396 
L 176.8 -58.855936 
L 175.25 -58.409527 
L 173.7 -58.699304 
L 172.15 -60.156922 
L 170.6 -57.886189 
L 169.05 -57.354545 
L 167.5 -58.050333 
L 165.95 -58.957544 
L 164.4 -58.748499 
L 162.85 -59.745613 
L 161.3 -60.743751 
L 159.75 -59.336926 
L 158.2 -60.856066 
L 156.65 -59.905043 
L 155.1 -61.083029 
L 153.55 -61.910024 
L 152 -62.238051 
L 150.45 -62.43851 
L 148.9 -62.412832 
L 147.35 -62.386691 
L 145.8 -65.322386 
L 144.25 -64.709923 
L 142.7 -65.873913 
L 141.15 -66.618856 
L 139.6 -68.18843 
L 138.05 -67.569435 
L 136.5 -67.926698 
L 134.95 -70.956864 
L 133.4 -69.734621 
L 131.85 -70.44828 
L 130.3 -72.707059 
L 128.75 -73.543843 
L 127.2 -76.786883 
L 125.65 -75.392645 
L 124.1 -76.800682 
L 122.55 -78.371008 
L 121 -79.259222 
L 119.45 -78.757356 
L 117.9 -80.950043 
L 116.35 -81.948196 
L 114.8 -84.41457 
L 113.25 -85.906078 
L 111.7 -86.263729 
L 110.15 -87.943775 
L 108.6 -88.487425 
L 107.05 -91.745127 
L 105.5 -91.145044 
L 103.95 -91.801202 
L 102.4 -95.250829 
L 100.85 -96.172208 
L 99.3 -97.348628 
L 97.75 -98.971046 
L 96.2 -100.227871 
L 94.65 -101.006248 
L 93.1 -102.601328 
L 91.55 -103.185525 
L 90 -107.072489 
z
" id="m9b9fce67d4" style="stroke:#c44e52;stroke-opacity:0.1;stroke-width:0.8;"/>
    </defs>
    <g clip-path="url(#pd0d7eeb2c7)">
     <use style="fill:#c44e52;fill-opacity:0.1;stroke:#c44e52;stroke-opacity:0.1;stroke-width:0.8;" x="0" xlink:href="#m9b9fce67d4" y="360"/>
    </g>
   </g>
   <g id="line2d_15">
    <path clip-path="url(#pd0d7eeb2c7)" d="M 90 222.30721 
L 91.55 224.866074 
L 93.1 223.799881 
L 94.65 219.108629 
L 96.2 223.799881 
L 97.75 237.660396 
L 99.3 231.263235 
L 100.85 225.50579 
L 102.4 229.770564 
L 103.95 226.998461 
L 105.5 253.653299 
L 107.05 241.711932 
L 108.6 234.035338 
L 110.15 244.270796 
L 111.7 252.160628 
L 113.25 251.73415 
L 114.8 244.910512 
L 116.35 241.072215 
L 117.9 239.366306 
L 119.45 242.991364 
L 121 248.962047 
L 122.55 270.712395 
L 124.1 251.307673 
L 125.65 259.623982 
L 127.2 245.976706 
L 128.75 264.101995 
L 130.3 266.021143 
L 131.85 250.028241 
L 134.95 253.013583 
L 136.5 259.197505 
L 138.05 260.476937 
L 139.6 274.977169 
L 141.15 268.580008 
L 142.7 273.058021 
L 144.25 261.969608 
L 145.8 261.543131 
L 147.35 263.035802 
L 148.9 259.197505 
L 150.45 273.910975 
L 152 270.072679 
L 153.55 265.381427 
L 155.1 257.918073 
L 156.65 268.793247 
L 158.2 264.95495 
L 159.75 274.550691 
L 161.3 276.46984 
L 164.4 270.925634 
L 165.95 266.874098 
L 167.5 271.138872 
L 169.05 279.028704 
L 170.6 285.639104 
L 172.15 286.065581 
L 173.7 275.616885 
L 175.25 277.322795 
L 176.8 271.352111 
L 178.35 270.712395 
L 179.9 268.580008 
L 181.45 258.984266 
L 183 257.278357 
L 184.55 267.727053 
L 186.1 266.874098 
L 187.65 265.807905 
L 189.2 266.234382 
L 190.75 261.969608 
L 192.3 258.984266 
L 193.85 256.425402 
L 195.4 260.263699 
L 196.95 265.381427 
L 198.5 261.116653 
L 200.05 252.373867 
L 201.6 261.543131 
L 203.15 260.476937 
L 204.7 261.543131 
L 206.25 263.24904 
L 207.8 257.491595 
L 209.35 250.667957 
L 210.9 240.645738 
L 212.45 215.270333 
L 214 248.109093 
L 215.55 245.336989 
L 217.1 231.476474 
L 218.65 227.638177 
L 220.2 226.998461 
L 221.75 231.263235 
L 223.3 230.41028 
L 224.85 239.792783 
L 226.4 223.160165 
L 227.95 225.719029 
L 229.5 221.241016 
L 231.05 232.755906 
L 232.6 236.807441 
L 234.15 229.344087 
L 235.7 231.902951 
L 237.25 222.30721 
L 238.8 222.733687 
L 240.35 230.623519 
L 241.9 208.873172 
L 243.45 223.160165 
L 245 218.682152 
L 246.55 220.6013 
L 248.1 214.630616 
L 249.65 218.682152 
L 251.2 218.042436 
L 252.75 214.204139 
L 254.3 213.777662 
L 255.85 208.873172 
L 257.4 206.740785 
L 258.95 223.373403 
L 260.5 201.409817 
L 262.05 203.115727 
L 263.6 203.755443 
L 265.15 210.152604 
L 266.7 214.204139 
L 268.25 207.380501 
L 269.8 203.755443 
L 271.35 196.931804 
L 274.45 197.358282 
L 276 195.652372 
L 277.55 194.586179 
L 279.1 193.946462 
L 280.65 195.652372 
L 282.2 196.931804 
L 283.75 174.754979 
L 285.3 168.571057 
L 286.85 189.894927 
L 288.4 184.350721 
L 289.95 210.579081 
L 291.5 182.644811 
L 293.05 176.887366 
L 294.6 187.975779 
L 296.15 174.328502 
L 297.7 167.291625 
L 299.25 164.73276 
L 300.8 176.674128 
L 302.35 168.784296 
L 303.9 163.879806 
L 305.45 156.62969 
L 307 162.813612 
L 308.55 165.159238 
L 310.1 157.056167 
L 311.65 161.960657 
L 313.2 157.482645 
L 314.75 165.798954 
L 316.3 167.504864 
L 317.85 182.431573 
L 319.4 180.085947 
L 320.95 176.887366 
L 322.5 172.196115 
L 324.05 160.681225 
L 325.6 161.107703 
L 327.15 163.666567 
L 328.7 108.224505 
L 330.25 145.967755 
L 331.8 149.592813 
L 333.35 174.754979 
L 334.9 181.791857 
L 338 157.695883 
L 339.55 133.386671 
L 341.1 153.217871 
L 342.65 148.739858 
L 344.2 128.69542 
L 345.75 137.224968 
L 347.3 140.850026 
L 348.85 130.614568 
L 350.4 149.806051 
L 351.95 150.872245 
L 353.5 139.144116 
L 355.05 145.328039 
L 356.6 132.107239 
L 358.15 103.320015 
L 359.7 117.820246 
L 361.25 124.004169 
L 362.8 151.7252 
L 364.35 169.424012 
L 365.9 167.931341 
L 367.45 151.7252 
L 369 150.872245 
L 370.55 157.056167 
L 372.1 157.695883 
L 373.65 124.004169 
L 375.2 139.997071 
L 376.75 143.835368 
L 378.3 144.688323 
L 379.85 145.754516 
L 381.4 158.335599 
L 382.95 168.571057 
L 384.5 158.975315 
L 386.05 154.284064 
L 387.6 145.1148 
L 389.15 142.342697 
L 390.7 153.857587 
L 392.25 147.460426 
L 393.8 167.931341 
L 395.35 158.335599 
L 396.9 142.769174 
L 398.45 141.276503 
L 400 148.739858 
L 401.55 152.364916 
L 403.1 139.783832 
L 404.65 144.688323 
L 406.2 145.328039 
L 407.75 140.636787 
L 409.3 142.555936 
L 410.85 139.783832 
L 412.4 144.475084 
L 413.95 135.30582 
L 415.5 147.886903 
L 417.05 140.423548 
L 418.6 119.099678 
L 420.15 117.18053 
L 421.7 117.18053 
L 423.25 107.37155 
L 424.8 111.209846 
L 426.35 112.489279 
L 427.9 111.849563 
L 429.45 109.077459 
L 431 113.555472 
L 432.55 104.386208 
L 434.1 104.386208 
L 435.65 111.423085 
L 437.2 113.768711 
L 438.75 84.555009 
L 440.3 65.576764 
L 441.85 90.738931 
L 443.4 97.989047 
L 444.95 116.540814 
L 446.5 109.077459 
L 448.05 103.106776 
L 449.6 106.945072 
L 451.15 81.996144 
L 452.7 87.966828 
L 454.25 88.819783 
L 455.8 103.959731 
L 457.35 98.842002 
L 458.9 99.05524 
L 460.45 113.555472 
L 462 113.128995 
L 463.55 116.540814 
L 465.1 102.46706 
L 466.65 102.46706 
L 468.2 115.687859 
L 469.75 79.224041 
L 471.3 77.091654 
L 472.85 61.738468 
L 474.4 74.746029 
L 475.95 59.819319 
L 477.5 92.871318 
L 479.05 112.062801 
L 480.6 96.283137 
L 482.15 84.34177 
L 483.7 78.797564 
L 485.25 82.849099 
L 486.8 80.290235 
L 488.35 89.885976 
L 489.9 84.128531 
L 491.45 86.687396 
L 493 105.025924 
L 494.55 83.702054 
L 496.1 86.900635 
L 497.65 82.422622 
L 499.2 80.929951 
L 500.75 87.540351 
L 502.3 68.988584 
L 503.85 59.819319 
L 505.4 68.775345 
L 506.95 64.937048 
L 508.5 76.665177 
L 510.05 87.327112 
L 511.6 95.003705 
L 513.15 84.981486 
L 514.7 55.554545 
L 516.25 68.775345 
L 517.8 75.812222 
L 519.35 93.511034 
L 520.9 97.56257 
L 522.45 98.628763 
L 524 109.930414 
L 525.55 96.283137 
L 527.1 90.312454 
L 528.65 93.297796 
L 530.2 87.753589 
L 531.75 87.753589 
L 533.3 99.268479 
L 534.85 106.731834 
L 536.4 99.05524 
L 537.95 111.209846 
L 539.5 102.46706 
L 541.05 98.415524 
L 542.6 100.547911 
L 544.15 102.253821 
L 545.7 96.496376 
L 547.25 115.687859 
L 548.8 108.864221 
L 550.35 105.452402 
L 551.9 114.195188 
L 553.45 107.158311 
L 555 115.901098 
L 556.55 120.165872 
L 558.1 121.018827 
L 559.65 121.445304 
L 561.2 120.165872 
L 562.75 123.577691 
L 564.3 121.658543 
L 565.85 120.379111 
L 567.4 116.327575 
L 568.95 132.320478 
L 570.5 120.592349 
L 572.05 114.408427 
L 573.6 123.577691 
L 575.15 162.387135 
L 576.7 134.452865 
L 578.25 122.298259 
L 579.8 122.08502 
L 581.35 143.40889 
L 584.45 150.445767 
L 586 147.673664 
L 587.55 146.394232 
L 589.1 142.982413 
L 590.65 162.173896 
L 592.2 147.673664 
L 593.75 151.511961 
L 595.3 166.651909 
L 596.85 161.320941 
L 598.4 153.431109 
L 599.95 153.644348 
L 601.5 149.166335 
L 603.05 203.328965 
L 604.6 161.960657 
L 606.15 161.107703 
L 607.7 155.137019 
L 609.25 173.04907 
L 610.8 171.982876 
L 612.35 163.24009 
L 613.9 178.593276 
L 615.45 181.791857 
L 617 171.34316 
L 618.55 172.835831 
L 620.1 178.806515 
L 621.65 177.95356 
L 623.2 186.269869 
L 624.75 187.122824 
L 626.3 180.725663 
L 627.85 177.95356 
L 629.4 185.843392 
L 630.95 191.174359 
L 632.5 180.299186 
L 634.05 190.534643 
L 635.6 198.850953 
L 637.15 199.27743 
L 638.7 191.600837 
L 640.25 192.453792 
L 641.8 202.262772 
L 643.35 191.814075 
L 644.9 193.519985 
L 646.45 196.931804 
L 646.45 196.931804 
" style="fill:none;stroke:#4c72b0;stroke-linecap:round;stroke-width:1.2;"/>
   </g>
   <g id="line2d_16">
    <path clip-path="url(#pd0d7eeb2c7)" d="M 90 235.063751 
L 91.55 236.657263 
L 93.1 237.890303 
L 94.65 239.615667 
L 96.2 240.722001 
L 102.4 246.619304 
L 103.95 247.82761 
L 105.5 249.516093 
L 107.05 250.572839 
L 113.25 256.141122 
L 114.8 257.235491 
L 116.35 258.798443 
L 117.9 259.718885 
L 124.1 264.653804 
L 125.65 265.572961 
L 127.2 266.955912 
L 128.75 267.692386 
L 134.95 271.862813 
L 136.5 272.584837 
L 138.05 273.768012 
L 139.6 274.301605 
L 142.7 276.037701 
L 144.25 276.723412 
L 145.8 277.614607 
L 147.35 278.106084 
L 148.9 279.050148 
L 150.45 279.335037 
L 153.55 280.541247 
L 155.1 280.944262 
L 156.65 281.540213 
L 158.2 281.723638 
L 159.75 282.346831 
L 161.3 282.298283 
L 164.4 282.802343 
L 165.95 282.838548 
L 167.5 283.058916 
L 169.05 282.859577 
L 170.6 283.094631 
L 172.15 282.654554 
L 175.25 282.373952 
L 176.8 282.02149 
L 178.35 281.858633 
L 179.9 281.283698 
L 181.45 281.152867 
L 183 280.358541 
L 186.1 279.41101 
L 187.65 278.748576 
L 189.2 278.292736 
L 190.75 277.442419 
L 192.3 277.054094 
L 193.85 276.020128 
L 200.05 273.163096 
L 201.6 272.151706 
L 203.15 271.61424 
L 204.7 270.441448 
L 210.9 267.09891 
L 212.45 265.975728 
L 214 265.327613 
L 215.55 264.044305 
L 221.75 260.24995 
L 223.3 259.011023 
L 224.85 258.246873 
L 226.4 256.848105 
L 232.6 252.621613 
L 234.15 251.28918 
L 235.7 250.44036 
L 237.25 248.967217 
L 245 243.231997 
L 246.55 242.392258 
L 248.1 240.943471 
L 252.75 237.687908 
L 254.3 236.785007 
L 255.85 235.535475 
L 257.4 234.793717 
L 258.95 233.449865 
L 263.6 230.530804 
L 265.15 229.740498 
L 266.7 228.600488 
L 268.25 227.963381 
L 269.8 226.717697 
L 274.45 224.041667 
L 276 223.312404 
L 277.55 222.22281 
L 279.1 221.625576 
L 280.65 220.409618 
L 286.85 217.03931 
L 288.4 215.943876 
L 289.95 215.338103 
L 291.5 214.112631 
L 299.25 209.643142 
L 300.8 209.055486 
L 302.35 207.856919 
L 307 205.338031 
L 308.55 204.675778 
L 310.1 203.664625 
L 311.65 203.159253 
L 313.2 202.050158 
L 317.85 199.83022 
L 319.4 199.272993 
L 320.95 198.367003 
L 322.5 197.965403 
L 324.05 196.95723 
L 328.7 195.010221 
L 330.25 194.530632 
L 331.8 193.69444 
L 333.35 193.354443 
L 334.9 192.399573 
L 342.65 189.291273 
L 344.2 188.965044 
L 345.75 188.020669 
L 353.5 184.957483 
L 355.05 184.646349 
L 356.6 183.721038 
L 361.25 181.995284 
L 362.8 181.5863 
L 364.35 180.821821 
L 365.9 180.555955 
L 367.45 179.678665 
L 372.1 178.103181 
L 373.65 177.742391 
L 375.2 177.023042 
L 376.75 176.797973 
L 378.3 175.955936 
L 384.5 174.085079 
L 386.05 173.35957 
L 387.6 173.118581 
L 389.15 172.250871 
L 395.35 170.187348 
L 396.9 169.394718 
L 398.45 169.080963 
L 400 168.135976 
L 406.2 165.741395 
L 407.75 164.865859 
L 409.3 164.470898 
L 410.85 163.447006 
L 417.05 160.764778 
L 418.6 159.823725 
L 420.15 159.364866 
L 421.7 158.277925 
L 427.9 155.333017 
L 429.45 154.318618 
L 431 153.781452 
L 432.55 152.610495 
L 438.75 149.26478 
L 440.3 148.134359 
L 441.85 147.476028 
L 443.4 146.179905 
L 449.6 142.326522 
L 451.15 141.077836 
L 452.7 140.30949 
L 454.25 138.914156 
L 462 133.563491 
L 463.55 132.80951 
L 465.1 131.453417 
L 469.75 128.537091 
L 471.3 127.774249 
L 472.85 126.681456 
L 474.4 126.114872 
L 475.95 124.966221 
L 480.6 122.765532 
L 482.15 122.2618 
L 483.7 121.432593 
L 485.25 121.130432 
L 486.8 120.243415 
L 491.45 118.776655 
L 493 118.490423 
L 494.55 117.860966 
L 496.1 117.738978 
L 497.65 117.011251 
L 502.3 115.8926 
L 503.85 115.680604 
L 505.4 115.106663 
L 506.95 115.023592 
L 508.5 114.320792 
L 516.25 112.44737 
L 517.8 112.378071 
L 519.35 111.700511 
L 524 110.78347 
L 525.55 110.67743 
L 527.1 110.238932 
L 528.65 110.326086 
L 530.2 109.832887 
L 534.85 109.635113 
L 536.4 109.820732 
L 537.95 109.696643 
L 539.5 110.118259 
L 541.05 109.976432 
L 542.6 110.241815 
L 548.8 111.720352 
L 550.35 112.514721 
L 551.9 112.735407 
L 556.55 114.649562 
L 558.1 115.506956 
L 559.65 116.028402 
L 561.2 117.064108 
L 562.75 117.500479 
L 567.4 119.909629 
L 568.95 120.884627 
L 570.5 121.502829 
L 572.05 122.616767 
L 573.6 123.115481 
L 581.35 127.295996 
L 582.9 128.440259 
L 584.45 128.974161 
L 589.1 131.661235 
L 590.65 132.739778 
L 592.2 133.473797 
L 593.75 134.719075 
L 595.3 135.367248 
L 599.95 138.470001 
L 601.5 139.707389 
L 603.05 140.607667 
L 604.6 142.024661 
L 606.15 142.847922 
L 610.8 146.474711 
L 612.35 147.879453 
L 613.9 148.940282 
L 615.45 150.50944 
L 617 151.475141 
L 621.65 155.46193 
L 623.2 156.962778 
L 624.75 158.107812 
L 626.3 159.749733 
L 627.85 160.777478 
L 635.6 167.597919 
L 637.15 169.262076 
L 638.7 170.310098 
L 646.45 177.239276 
L 646.45 177.239276 
" style="fill:none;stroke:#c44e52;stroke-linecap:round;stroke-width:1.2;"/>
   </g>
   <g id="line2d_17">
    <path clip-path="url(#pd0d7eeb2c7)" d="M 648 315 
L 648 43.2 
" style="fill:none;stroke:#c44e52;stroke-dasharray:4.44,1.92;stroke-dashoffset:0;stroke-width:1.2;"/>
   </g>
   <g id="patch_3">
    <path d="M 90 315 
L 90 43.2 
" style="fill:none;stroke:#262626;stroke-linecap:square;stroke-linejoin:miter;"/>
   </g>
   <g id="patch_4">
    <path d="M 648 315 
L 648 43.2 
" style="fill:none;stroke:#262626;stroke-linecap:square;stroke-linejoin:miter;"/>
   </g>
   <g id="patch_5">
    <path d="M 90 315 
L 648 315 
" style="fill:none;stroke:#262626;stroke-linecap:square;stroke-linejoin:miter;"/>
   </g>
   <g id="patch_6">
    <path d="M 90 43.2 
L 648 43.2 
" style="fill:none;stroke:#262626;stroke-linecap:square;stroke-linejoin:miter;"/>
   </g>
   <g id="text_17">
    <!-- Prophet Mean Absolute Error 1.1602 -->
    <g style="fill:#262626;" transform="translate(269.095078 37.2)scale(0.11 -0.11)">
     <defs>
      <path d="M 19.671875 64.796875 
L 19.671875 37.40625 
L 32.078125 37.40625 
Q 38.96875 37.40625 42.71875 40.96875 
Q 46.484375 44.53125 46.484375 51.125 
Q 46.484375 57.671875 42.71875 61.234375 
Q 38.96875 64.796875 32.078125 64.796875 
z
M 9.8125 72.90625 
L 32.078125 72.90625 
Q 44.34375 72.90625 50.609375 67.359375 
Q 56.890625 61.8125 56.890625 51.125 
Q 56.890625 40.328125 50.609375 34.8125 
Q 44.34375 29.296875 32.078125 29.296875 
L 19.671875 29.296875 
L 19.671875 0 
L 9.8125 0 
z
" id="DejaVuSans-80"/>
      <path d="M 41.109375 46.296875 
Q 39.59375 47.171875 37.8125 47.578125 
Q 36.03125 48 33.890625 48 
Q 26.265625 48 22.1875 43.046875 
Q 18.109375 38.09375 18.109375 28.8125 
L 18.109375 0 
L 9.078125 0 
L 9.078125 54.6875 
L 18.109375 54.6875 
L 18.109375 46.1875 
Q 20.953125 51.171875 25.484375 53.578125 
Q 30.03125 56 36.53125 56 
Q 37.453125 56 38.578125 55.875 
Q 39.703125 55.765625 41.0625 55.515625 
z
" id="DejaVuSans-114"/>
      <path d="M 30.609375 48.390625 
Q 23.390625 48.390625 19.1875 42.75 
Q 14.984375 37.109375 14.984375 27.296875 
Q 14.984375 17.484375 19.15625 11.84375 
Q 23.34375 6.203125 30.609375 6.203125 
Q 37.796875 6.203125 41.984375 11.859375 
Q 46.1875 17.53125 46.1875 27.296875 
Q 46.1875 37.015625 41.984375 42.703125 
Q 37.796875 48.390625 30.609375 48.390625 
z
M 30.609375 56 
Q 42.328125 56 49.015625 48.375 
Q 55.71875 40.765625 55.71875 27.296875 
Q 55.71875 13.875 49.015625 6.21875 
Q 42.328125 -1.421875 30.609375 -1.421875 
Q 18.84375 -1.421875 12.171875 6.21875 
Q 5.515625 13.875 5.515625 27.296875 
Q 5.515625 40.765625 12.171875 48.375 
Q 18.84375 56 30.609375 56 
z
" id="DejaVuSans-111"/>
      <path d="M 18.109375 8.203125 
L 18.109375 -20.796875 
L 9.078125 -20.796875 
L 9.078125 54.6875 
L 18.109375 54.6875 
L 18.109375 46.390625 
Q 20.953125 51.265625 25.265625 53.625 
Q 29.59375 56 35.59375 56 
Q 45.5625 56 51.78125 48.09375 
Q 58.015625 40.1875 58.015625 27.296875 
Q 58.015625 14.40625 51.78125 6.484375 
Q 45.5625 -1.421875 35.59375 -1.421875 
Q 29.59375 -1.421875 25.265625 0.953125 
Q 20.953125 3.328125 18.109375 8.203125 
z
M 48.6875 27.296875 
Q 48.6875 37.203125 44.609375 42.84375 
Q 40.53125 48.484375 33.40625 48.484375 
Q 26.265625 48.484375 22.1875 42.84375 
Q 18.109375 37.203125 18.109375 27.296875 
Q 18.109375 17.390625 22.1875 11.75 
Q 26.265625 6.109375 33.40625 6.109375 
Q 40.53125 6.109375 44.609375 11.75 
Q 48.6875 17.390625 48.6875 27.296875 
z
" id="DejaVuSans-112"/>
      <path d="M 54.890625 33.015625 
L 54.890625 0 
L 45.90625 0 
L 45.90625 32.71875 
Q 45.90625 40.484375 42.875 44.328125 
Q 39.84375 48.1875 33.796875 48.1875 
Q 26.515625 48.1875 22.3125 43.546875 
Q 18.109375 38.921875 18.109375 30.90625 
L 18.109375 0 
L 9.078125 0 
L 9.078125 75.984375 
L 18.109375 75.984375 
L 18.109375 46.1875 
Q 21.34375 51.125 25.703125 53.5625 
Q 30.078125 56 35.796875 56 
Q 45.21875 56 50.046875 50.171875 
Q 54.890625 44.34375 54.890625 33.015625 
z
" id="DejaVuSans-104"/>
      <path d="M 18.3125 70.21875 
L 18.3125 54.6875 
L 36.8125 54.6875 
L 36.8125 47.703125 
L 18.3125 47.703125 
L 18.3125 18.015625 
Q 18.3125 11.328125 20.140625 9.421875 
Q 21.96875 7.515625 27.59375 7.515625 
L 36.8125 7.515625 
L 36.8125 0 
L 27.59375 0 
Q 17.1875 0 13.234375 3.875 
Q 9.28125 7.765625 9.28125 18.015625 
L 9.28125 47.703125 
L 2.6875 47.703125 
L 2.6875 54.6875 
L 9.28125 54.6875 
L 9.28125 70.21875 
z
" id="DejaVuSans-116"/>
      <path id="DejaVuSans-32"/>
      <path d="M 9.8125 72.90625 
L 24.515625 72.90625 
L 43.109375 23.296875 
L 61.8125 72.90625 
L 76.515625 72.90625 
L 76.515625 0 
L 66.890625 0 
L 66.890625 64.015625 
L 48.09375 14.015625 
L 38.1875 14.015625 
L 19.390625 64.015625 
L 19.390625 0 
L 9.8125 0 
z
" id="DejaVuSans-77"/>
      <path d="M 34.28125 27.484375 
Q 23.390625 27.484375 19.1875 25 
Q 14.984375 22.515625 14.984375 16.5 
Q 14.984375 11.71875 18.140625 8.90625 
Q 21.296875 6.109375 26.703125 6.109375 
Q 34.1875 6.109375 38.703125 11.40625 
Q 43.21875 16.703125 43.21875 25.484375 
L 43.21875 27.484375 
z
M 52.203125 31.203125 
L 52.203125 0 
L 43.21875 0 
L 43.21875 8.296875 
Q 40.140625 3.328125 35.546875 0.953125 
Q 30.953125 -1.421875 24.3125 -1.421875 
Q 15.921875 -1.421875 10.953125 3.296875 
Q 6 8.015625 6 15.921875 
Q 6 25.140625 12.171875 29.828125 
Q 18.359375 34.515625 30.609375 34.515625 
L 43.21875 34.515625 
L 43.21875 35.40625 
Q 43.21875 41.609375 39.140625 45 
Q 35.0625 48.390625 27.6875 48.390625 
Q 23 48.390625 18.546875 47.265625 
Q 14.109375 46.140625 10.015625 43.890625 
L 10.015625 52.203125 
Q 14.9375 54.109375 19.578125 55.046875 
Q 24.21875 56 28.609375 56 
Q 40.484375 56 46.34375 49.84375 
Q 52.203125 43.703125 52.203125 31.203125 
z
" id="DejaVuSans-97"/>
      <path d="M 54.890625 33.015625 
L 54.890625 0 
L 45.90625 0 
L 45.90625 32.71875 
Q 45.90625 40.484375 42.875 44.328125 
Q 39.84375 48.1875 33.796875 48.1875 
Q 26.515625 48.1875 22.3125 43.546875 
Q 18.109375 38.921875 18.109375 30.90625 
L 18.109375 0 
L 9.078125 0 
L 9.078125 54.6875 
L 18.109375 54.6875 
L 18.109375 46.1875 
Q 21.34375 51.125 25.703125 53.5625 
Q 30.078125 56 35.796875 56 
Q 45.21875 56 50.046875 50.171875 
Q 54.890625 44.34375 54.890625 33.015625 
z
" id="DejaVuSans-110"/>
      <path d="M 34.1875 63.1875 
L 20.796875 26.90625 
L 47.609375 26.90625 
z
M 28.609375 72.90625 
L 39.796875 72.90625 
L 67.578125 0 
L 57.328125 0 
L 50.6875 18.703125 
L 17.828125 18.703125 
L 11.1875 0 
L 0.78125 0 
z
" id="DejaVuSans-65"/>
      <path d="M 48.6875 27.296875 
Q 48.6875 37.203125 44.609375 42.84375 
Q 40.53125 48.484375 33.40625 48.484375 
Q 26.265625 48.484375 22.1875 42.84375 
Q 18.109375 37.203125 18.109375 27.296875 
Q 18.109375 17.390625 22.1875 11.75 
Q 26.265625 6.109375 33.40625 6.109375 
Q 40.53125 6.109375 44.609375 11.75 
Q 48.6875 17.390625 48.6875 27.296875 
z
M 18.109375 46.390625 
Q 20.953125 51.265625 25.265625 53.625 
Q 29.59375 56 35.59375 56 
Q 45.5625 56 51.78125 48.09375 
Q 58.015625 40.1875 58.015625 27.296875 
Q 58.015625 14.40625 51.78125 6.484375 
Q 45.5625 -1.421875 35.59375 -1.421875 
Q 29.59375 -1.421875 25.265625 0.953125 
Q 20.953125 3.328125 18.109375 8.203125 
L 18.109375 0 
L 9.078125 0 
L 9.078125 75.984375 
L 18.109375 75.984375 
z
" id="DejaVuSans-98"/>
      <path d="M 44.28125 53.078125 
L 44.28125 44.578125 
Q 40.484375 46.53125 36.375 47.5 
Q 32.28125 48.484375 27.875 48.484375 
Q 21.1875 48.484375 17.84375 46.4375 
Q 14.5 44.390625 14.5 40.28125 
Q 14.5 37.15625 16.890625 35.375 
Q 19.28125 33.59375 26.515625 31.984375 
L 29.59375 31.296875 
Q 39.15625 29.25 43.1875 25.515625 
Q 47.21875 21.78125 47.21875 15.09375 
Q 47.21875 7.46875 41.1875 3.015625 
Q 35.15625 -1.421875 24.609375 -1.421875 
Q 20.21875 -1.421875 15.453125 -0.5625 
Q 10.6875 0.296875 5.421875 2 
L 5.421875 11.28125 
Q 10.40625 8.6875 15.234375 7.390625 
Q 20.0625 6.109375 24.8125 6.109375 
Q 31.15625 6.109375 34.5625 8.28125 
Q 37.984375 10.453125 37.984375 14.40625 
Q 37.984375 18.0625 35.515625 20.015625 
Q 33.0625 21.96875 24.703125 23.78125 
L 21.578125 24.515625 
Q 13.234375 26.265625 9.515625 29.90625 
Q 5.8125 33.546875 5.8125 39.890625 
Q 5.8125 47.609375 11.28125 51.796875 
Q 16.75 56 26.8125 56 
Q 31.78125 56 36.171875 55.265625 
Q 40.578125 54.546875 44.28125 53.078125 
z
" id="DejaVuSans-115"/>
      <path d="M 9.421875 75.984375 
L 18.40625 75.984375 
L 18.40625 0 
L 9.421875 0 
z
" id="DejaVuSans-108"/>
      <path d="M 8.5 21.578125 
L 8.5 54.6875 
L 17.484375 54.6875 
L 17.484375 21.921875 
Q 17.484375 14.15625 20.5 10.265625 
Q 23.53125 6.390625 29.59375 6.390625 
Q 36.859375 6.390625 41.078125 11.03125 
Q 45.3125 15.671875 45.3125 23.6875 
L 45.3125 54.6875 
L 54.296875 54.6875 
L 54.296875 0 
L 45.3125 0 
L 45.3125 8.40625 
Q 42.046875 3.421875 37.71875 1 
Q 33.40625 -1.421875 27.6875 -1.421875 
Q 18.265625 -1.421875 13.375 4.4375 
Q 8.5 10.296875 8.5 21.578125 
z
M 31.109375 56 
z
" id="DejaVuSans-117"/>
      <path d="M 9.8125 72.90625 
L 55.90625 72.90625 
L 55.90625 64.59375 
L 19.671875 64.59375 
L 19.671875 43.015625 
L 54.390625 43.015625 
L 54.390625 34.71875 
L 19.671875 34.71875 
L 19.671875 8.296875 
L 56.78125 8.296875 
L 56.78125 0 
L 9.8125 0 
z
" id="DejaVuSans-69"/>
      <path d="M 10.6875 12.40625 
L 21 12.40625 
L 21 0 
L 10.6875 0 
z
" id="DejaVuSans-46"/>
     </defs>
     <use xlink:href="#DejaVuSans-80"/>
     <use x="58.552734" xlink:href="#DejaVuSans-114"/>
     <use x="97.416016" xlink:href="#DejaVuSans-111"/>
     <use x="158.597656" xlink:href="#DejaVuSans-112"/>
     <use x="222.074219" xlink:href="#DejaVuSans-104"/>
     <use x="285.453125" xlink:href="#DejaVuSans-101"/>
     <use x="346.976562" xlink:href="#DejaVuSans-116"/>
     <use x="386.185547" xlink:href="#DejaVuSans-32"/>
     <use x="417.972656" xlink:href="#DejaVuSans-77"/>
     <use x="504.251953" xlink:href="#DejaVuSans-101"/>
     <use x="565.775391" xlink:href="#DejaVuSans-97"/>
     <use x="627.054688" xlink:href="#DejaVuSans-110"/>
     <use x="690.433594" xlink:href="#DejaVuSans-32"/>
     <use x="722.220703" xlink:href="#DejaVuSans-65"/>
     <use x="790.628906" xlink:href="#DejaVuSans-98"/>
     <use x="854.105469" xlink:href="#DejaVuSans-115"/>
     <use x="906.205078" xlink:href="#DejaVuSans-111"/>
     <use x="967.386719" xlink:href="#DejaVuSans-108"/>
     <use x="995.169922" xlink:href="#DejaVuSans-117"/>
     <use x="1058.548828" xlink:href="#DejaVuSans-116"/>
     <use x="1097.757812" xlink:href="#DejaVuSans-101"/>
     <use x="1159.28125" xlink:href="#DejaVuSans-32"/>
     <use x="1191.068359" xlink:href="#DejaVuSans-69"/>
     <use x="1254.251953" xlink:href="#DejaVuSans-114"/>
     <use x="1293.615234" xlink:href="#DejaVuSans-114"/>
     <use x="1332.478516" xlink:href="#DejaVuSans-111"/>
     <use x="1393.660156" xlink:href="#DejaVuSans-114"/>
     <use x="1434.773438" xlink:href="#DejaVuSans-32"/>
     <use x="1466.560547" xlink:href="#DejaVuSans-49"/>
     <use x="1530.183594" xlink:href="#DejaVuSans-46"/>
     <use x="1561.970703" xlink:href="#DejaVuSans-49"/>
     <use x="1625.59375" xlink:href="#DejaVuSans-54"/>
     <use x="1689.216797" xlink:href="#DejaVuSans-48"/>
     <use x="1752.839844" xlink:href="#DejaVuSans-50"/>
    </g>
   </g>
   <g id="legend_1">
    <g id="patch_7">
     <path d="M 97 80.55625 
L 245.460938 80.55625 
Q 247.460938 80.55625 247.460938 78.55625 
L 247.460938 50.2 
Q 247.460938 48.2 245.460938 48.2 
L 97 48.2 
Q 95 48.2 95 50.2 
L 95 78.55625 
Q 95 80.55625 97 80.55625 
z
" style="fill:#ffffff;opacity:0.8;stroke:#cccccc;stroke-linejoin:miter;stroke-width:0.8;"/>
    </g>
    <g id="line2d_18">
     <path d="M 99 56.298437 
L 119 56.298437 
" style="fill:none;stroke:#4c72b0;stroke-linecap:round;stroke-width:1.2;"/>
    </g>
    <g id="line2d_19"/>
    <g id="text_18">
     <!-- Ground Truth -->
     <g style="fill:#262626;" transform="translate(127 59.798437)scale(0.1 -0.1)">
      <defs>
       <path d="M 59.515625 10.40625 
L 59.515625 29.984375 
L 43.40625 29.984375 
L 43.40625 38.09375 
L 69.28125 38.09375 
L 69.28125 6.78125 
Q 63.578125 2.734375 56.6875 0.65625 
Q 49.8125 -1.421875 42 -1.421875 
Q 24.90625 -1.421875 15.25 8.5625 
Q 5.609375 18.5625 5.609375 36.375 
Q 5.609375 54.25 15.25 64.234375 
Q 24.90625 74.21875 42 74.21875 
Q 49.125 74.21875 55.546875 72.453125 
Q 61.96875 70.703125 67.390625 67.28125 
L 67.390625 56.78125 
Q 61.921875 61.421875 55.765625 63.765625 
Q 49.609375 66.109375 42.828125 66.109375 
Q 29.4375 66.109375 22.71875 58.640625 
Q 16.015625 51.171875 16.015625 36.375 
Q 16.015625 21.625 22.71875 14.15625 
Q 29.4375 6.6875 42.828125 6.6875 
Q 48.046875 6.6875 52.140625 7.59375 
Q 56.25 8.5 59.515625 10.40625 
z
" id="DejaVuSans-71"/>
       <path d="M 45.40625 46.390625 
L 45.40625 75.984375 
L 54.390625 75.984375 
L 54.390625 0 
L 45.40625 0 
L 45.40625 8.203125 
Q 42.578125 3.328125 38.25 0.953125 
Q 33.9375 -1.421875 27.875 -1.421875 
Q 17.96875 -1.421875 11.734375 6.484375 
Q 5.515625 14.40625 5.515625 27.296875 
Q 5.515625 40.1875 11.734375 48.09375 
Q 17.96875 56 27.875 56 
Q 33.9375 56 38.25 53.625 
Q 42.578125 51.265625 45.40625 46.390625 
z
M 14.796875 27.296875 
Q 14.796875 17.390625 18.875 11.75 
Q 22.953125 6.109375 30.078125 6.109375 
Q 37.203125 6.109375 41.296875 11.75 
Q 45.40625 17.390625 45.40625 27.296875 
Q 45.40625 37.203125 41.296875 42.84375 
Q 37.203125 48.484375 30.078125 48.484375 
Q 22.953125 48.484375 18.875 42.84375 
Q 14.796875 37.203125 14.796875 27.296875 
z
" id="DejaVuSans-100"/>
      </defs>
      <use xlink:href="#DejaVuSans-71"/>
      <use x="77.490234" xlink:href="#DejaVuSans-114"/>
      <use x="116.353516" xlink:href="#DejaVuSans-111"/>
      <use x="177.535156" xlink:href="#DejaVuSans-117"/>
      <use x="240.914062" xlink:href="#DejaVuSans-110"/>
      <use x="304.292969" xlink:href="#DejaVuSans-100"/>
      <use x="367.769531" xlink:href="#DejaVuSans-32"/>
      <use x="399.556641" xlink:href="#DejaVuSans-84"/>
      <use x="445.890625" xlink:href="#DejaVuSans-114"/>
      <use x="487.003906" xlink:href="#DejaVuSans-117"/>
      <use x="550.382812" xlink:href="#DejaVuSans-116"/>
      <use x="589.591797" xlink:href="#DejaVuSans-104"/>
     </g>
    </g>
    <g id="line2d_20">
     <path d="M 99 70.976562 
L 119 70.976562 
" style="fill:none;stroke:#c44e52;stroke-linecap:round;stroke-width:1.2;"/>
    </g>
    <g id="line2d_21"/>
    <g id="text_19">
     <!-- Out-of-sample Forecast -->
     <g style="fill:#262626;" transform="translate(127 74.476562)scale(0.1 -0.1)">
      <defs>
       <path d="M 39.40625 66.21875 
Q 28.65625 66.21875 22.328125 58.203125 
Q 16.015625 50.203125 16.015625 36.375 
Q 16.015625 22.609375 22.328125 14.59375 
Q 28.65625 6.59375 39.40625 6.59375 
Q 50.140625 6.59375 56.421875 14.59375 
Q 62.703125 22.609375 62.703125 36.375 
Q 62.703125 50.203125 56.421875 58.203125 
Q 50.140625 66.21875 39.40625 66.21875 
z
M 39.40625 74.21875 
Q 54.734375 74.21875 63.90625 63.9375 
Q 73.09375 53.65625 73.09375 36.375 
Q 73.09375 19.140625 63.90625 8.859375 
Q 54.734375 -1.421875 39.40625 -1.421875 
Q 24.03125 -1.421875 14.8125 8.828125 
Q 5.609375 19.09375 5.609375 36.375 
Q 5.609375 53.65625 14.8125 63.9375 
Q 24.03125 74.21875 39.40625 74.21875 
z
" id="DejaVuSans-79"/>
       <path d="M 4.890625 31.390625 
L 31.203125 31.390625 
L 31.203125 23.390625 
L 4.890625 23.390625 
z
" id="DejaVuSans-45"/>
       <path d="M 37.109375 75.984375 
L 37.109375 68.5 
L 28.515625 68.5 
Q 23.6875 68.5 21.796875 66.546875 
Q 19.921875 64.59375 19.921875 59.515625 
L 19.921875 54.6875 
L 34.71875 54.6875 
L 34.71875 47.703125 
L 19.921875 47.703125 
L 19.921875 0 
L 10.890625 0 
L 10.890625 47.703125 
L 2.296875 47.703125 
L 2.296875 54.6875 
L 10.890625 54.6875 
L 10.890625 58.5 
Q 10.890625 67.625 15.140625 71.796875 
Q 19.390625 75.984375 28.609375 75.984375 
z
" id="DejaVuSans-102"/>
       <path d="M 9.8125 72.90625 
L 51.703125 72.90625 
L 51.703125 64.59375 
L 19.671875 64.59375 
L 19.671875 43.109375 
L 48.578125 43.109375 
L 48.578125 34.8125 
L 19.671875 34.8125 
L 19.671875 0 
L 9.8125 0 
z
" id="DejaVuSans-70"/>
       <path d="M 48.78125 52.59375 
L 48.78125 44.1875 
Q 44.96875 46.296875 41.140625 47.34375 
Q 37.3125 48.390625 33.40625 48.390625 
Q 24.65625 48.390625 19.8125 42.84375 
Q 14.984375 37.3125 14.984375 27.296875 
Q 14.984375 17.28125 19.8125 11.734375 
Q 24.65625 6.203125 33.40625 6.203125 
Q 37.3125 6.203125 41.140625 7.25 
Q 44.96875 8.296875 48.78125 10.40625 
L 48.78125 2.09375 
Q 45.015625 0.34375 40.984375 -0.53125 
Q 36.96875 -1.421875 32.421875 -1.421875 
Q 20.0625 -1.421875 12.78125 6.34375 
Q 5.515625 14.109375 5.515625 27.296875 
Q 5.515625 40.671875 12.859375 48.328125 
Q 20.21875 56 33.015625 56 
Q 37.15625 56 41.109375 55.140625 
Q 45.0625 54.296875 48.78125 52.59375 
z
" id="DejaVuSans-99"/>
      </defs>
      <use xlink:href="#DejaVuSans-79"/>
      <use x="78.710938" xlink:href="#DejaVuSans-117"/>
      <use x="142.089844" xlink:href="#DejaVuSans-116"/>
      <use x="181.298828" xlink:href="#DejaVuSans-45"/>
      <use x="219.257812" xlink:href="#DejaVuSans-111"/>
      <use x="280.439453" xlink:href="#DejaVuSans-102"/>
      <use x="310.144531" xlink:href="#DejaVuSans-45"/>
      <use x="346.228516" xlink:href="#DejaVuSans-115"/>
      <use x="398.328125" xlink:href="#DejaVuSans-97"/>
      <use x="459.607422" xlink:href="#DejaVuSans-109"/>
      <use x="557.019531" xlink:href="#DejaVuSans-112"/>
      <use x="620.496094" xlink:href="#DejaVuSans-108"/>
      <use x="648.279297" xlink:href="#DejaVuSans-101"/>
      <use x="709.802734" xlink:href="#DejaVuSans-32"/>
      <use x="741.589844" xlink:href="#DejaVuSans-70"/>
      <use x="795.484375" xlink:href="#DejaVuSans-111"/>
      <use x="856.666016" xlink:href="#DejaVuSans-114"/>
      <use x="895.529297" xlink:href="#DejaVuSans-101"/>
      <use x="957.052734" xlink:href="#DejaVuSans-99"/>
      <use x="1012.033203" xlink:href="#DejaVuSans-97"/>
      <use x="1073.3125" xlink:href="#DejaVuSans-115"/>
      <use x="1125.412109" xlink:href="#DejaVuSans-116"/>
     </g>
    </g>
   </g>
  </g>
 </g>
 <defs>
  <clipPath id="pd0d7eeb2c7">
   <rect height="271.8" width="558" x="90" y="43.2"/>
  </clipPath>
 </defs>
</svg>
